<svg width="22" height="21" viewBox="0 0 22 21" fill="none" xmlns="http://www.w3.org/2000/svg">
<g clip-path="url(#clip0_398_7898)">
<path fill-rule="evenodd" clip-rule="evenodd" d="M6.61146 1.31901C7.63784 1.27401 7.96509 1.26401 10.5796 1.26401C13.1941 1.26401 13.5213 1.27484 14.5468 1.31901C15.5723 1.36317 16.2723 1.51901 16.8848 1.74484C17.5262 1.97567 18.1081 2.33651 18.5893 2.80317C19.0793 3.26067 19.4573 3.81401 19.6988 4.42567C19.9368 5.00901 20.0996 5.67567 20.1468 6.65067C20.1941 7.62984 20.2046 7.94151 20.2046 10.4307C20.2046 12.9207 20.1932 13.2323 20.1468 14.2098C20.1005 15.1848 19.9368 15.8515 19.6988 16.4348C19.4573 17.0466 19.0787 17.6008 18.5893 18.059C18.1081 18.5257 17.5262 18.8857 16.8848 19.1157C16.2723 19.3423 15.5723 19.4973 14.5486 19.5423C13.5213 19.5873 13.1941 19.5973 10.5796 19.5973C7.96509 19.5973 7.63784 19.5865 6.61146 19.5423C5.58772 19.4982 4.88771 19.3423 4.27521 19.1157C3.6329 18.8856 3.05093 18.5251 2.56984 18.059C2.08017 17.6012 1.70124 17.0472 1.45946 16.4357C1.22234 15.8523 1.05959 15.1857 1.01234 14.2107C0.96509 13.2315 0.95459 12.9198 0.95459 10.4307C0.95459 7.94067 0.965965 7.62901 1.01234 6.65234C1.05871 5.67567 1.22234 5.00901 1.45946 4.42567C1.7016 3.81408 2.08082 3.2601 2.57071 2.80234C3.05113 2.33609 3.6325 1.97521 4.27434 1.74484C4.88684 1.51901 5.58684 1.36401 6.61059 1.31901H6.61146ZM14.469 2.96901C13.454 2.92484 13.1495 2.91567 10.5796 2.91567C8.00971 2.91567 7.70521 2.92484 6.69021 2.96901C5.75134 3.00984 5.24209 3.15901 4.90259 3.28484C4.45371 3.45151 4.13259 3.64901 3.79572 3.96984C3.47638 4.26572 3.23062 4.62591 3.07646 5.02401C2.94434 5.34734 2.78771 5.83234 2.74484 6.72651C2.69846 7.69317 2.68884 7.98317 2.68884 10.4307C2.68884 12.8782 2.69846 13.1682 2.74484 14.1348C2.78771 15.029 2.94434 15.514 3.07646 15.8373C3.23046 16.2348 3.47634 16.5957 3.79572 16.8915C4.10634 17.1957 4.48521 17.4298 4.90259 17.5765C5.24209 17.7023 5.75134 17.8515 6.69021 17.8923C7.70521 17.9365 8.00884 17.9457 10.5796 17.9457C13.1503 17.9457 13.454 17.9365 14.469 17.8923C15.4078 17.8515 15.9171 17.7023 16.2566 17.5765C16.7055 17.4098 17.0266 17.2123 17.3635 16.8915C17.6828 16.5957 17.9287 16.2348 18.0827 15.8373C18.2148 15.514 18.3715 15.029 18.4143 14.1348C18.4607 13.1682 18.4703 12.8782 18.4703 10.4307C18.4703 7.98317 18.4607 7.69317 18.4143 6.72651C18.3715 5.83234 18.2148 5.34734 18.0827 5.02401C17.9077 4.59651 17.7003 4.29067 17.3635 3.96984C17.0528 3.66573 16.6746 3.43168 16.2566 3.28484C15.9171 3.15901 15.4078 3.00984 14.469 2.96901ZM9.35021 13.2565C10.0368 13.5287 10.8013 13.5654 11.5132 13.3604C12.225 13.1554 12.8401 12.7214 13.2532 12.1325C13.6664 11.5436 13.8521 10.8364 13.7786 10.1316C13.7051 9.42679 13.377 8.76815 12.8502 8.26817C12.5144 7.94857 12.1084 7.70385 11.6614 7.55163C11.2144 7.39941 10.7375 7.34347 10.265 7.38785C9.79258 7.43223 9.33635 7.57582 8.92917 7.80828C8.52199 8.04074 8.17399 8.35629 7.91023 8.73222C7.64647 9.10814 7.47351 9.53508 7.40379 9.98231C7.33408 10.4295 7.36935 10.8859 7.50706 11.3186C7.64478 11.7513 7.88151 12.1495 8.20022 12.4846C8.51893 12.8197 8.91169 13.0833 9.35021 13.2565ZM7.08134 7.09901C7.54074 6.66149 8.08612 6.31443 8.68635 6.07764C9.28658 5.84086 9.9299 5.71899 10.5796 5.71899C11.2293 5.71899 11.8726 5.84086 12.4728 6.07764C13.0731 6.31443 13.6184 6.66149 14.0778 7.09901C14.5372 7.53653 14.9016 8.05594 15.1503 8.62759C15.3989 9.19924 15.5269 9.81193 15.5269 10.4307C15.5269 11.0494 15.3989 11.6621 15.1503 12.2338C14.9016 12.8054 14.5372 13.3248 14.0778 13.7623C13.15 14.646 11.8917 15.1424 10.5796 15.1424C9.26749 15.1424 8.00913 14.646 7.08134 13.7623C6.15355 12.8787 5.63232 11.6803 5.63232 10.4307C5.63232 9.18106 6.15355 7.98262 7.08134 7.09901ZM16.6241 6.42067C16.7379 6.3184 16.8291 6.19541 16.8921 6.05899C16.9551 5.92256 16.9888 5.77548 16.9911 5.62645C16.9934 5.47742 16.9642 5.32946 16.9054 5.19135C16.8466 5.05323 16.7592 4.92777 16.6486 4.82237C16.5379 4.71698 16.4062 4.63381 16.2611 4.57777C16.1161 4.52174 15.9608 4.49399 15.8043 4.49616C15.6478 4.49833 15.4934 4.53039 15.3501 4.59042C15.2069 4.65046 15.0777 4.73725 14.9703 4.84567C14.7615 5.05653 14.6471 5.33661 14.6516 5.62645C14.656 5.91629 14.7789 6.19307 14.9941 6.39804C15.2093 6.60301 15.4999 6.72003 15.8043 6.72426C16.1086 6.72848 16.4027 6.61958 16.6241 6.42067Z" fill="#F8F8F8"/>
</g>
<defs>
<clipPath id="clip0_398_7898">
<rect width="21" height="20" fill="white" transform="translate(0.0795898 0.430664)"/>
</clipPath>
</defs>
</svg>
