<svg width="22" height="21" viewBox="0 0 22 21" fill="none" xmlns="http://www.w3.org/2000/svg">
<g clip-path="url(#clip0_277_28)">
<path fill-rule="evenodd" clip-rule="evenodd" d="M6.61146 1.31916C7.63784 1.27416 7.96509 1.26416 10.5796 1.26416C13.1941 1.26416 13.5213 1.27499 14.5468 1.31916C15.5723 1.36333 16.2723 1.51916 16.8848 1.74499C17.5262 1.97583 18.1081 2.33666 18.5893 2.80333C19.0793 3.26083 19.4573 3.81416 19.6988 4.42583C19.9368 5.00916 20.0996 5.67583 20.1468 6.65083C20.1941 7.62999 20.2046 7.94166 20.2046 10.4308C20.2046 12.9208 20.1932 13.2325 20.1468 14.21C20.1005 15.185 19.9368 15.8517 19.6988 16.435C19.4573 17.0467 19.0787 17.601 18.5893 18.0592C18.1081 18.5258 17.5262 18.8858 16.8848 19.1158C16.2723 19.3425 15.5723 19.4975 14.5486 19.5425C13.5213 19.5875 13.1941 19.5975 10.5796 19.5975C7.96509 19.5975 7.63784 19.5867 6.61146 19.5425C5.58772 19.4983 4.88771 19.3425 4.27521 19.1158C3.6329 18.8858 3.05093 18.5252 2.56984 18.0592C2.08017 17.6014 1.70124 17.0474 1.45946 16.4358C1.22234 15.8525 1.05959 15.1858 1.01234 14.2108C0.96509 13.2317 0.95459 12.92 0.95459 10.4308C0.95459 7.94083 0.965965 7.62916 1.01234 6.65249C1.05871 5.67583 1.22234 5.00916 1.45946 4.42583C1.7016 3.81423 2.08082 3.26025 2.57071 2.80249C3.05113 2.33624 3.6325 1.97536 4.27434 1.74499C4.88684 1.51916 5.58684 1.36416 6.61059 1.31916H6.61146ZM14.469 2.96916C13.454 2.92499 13.1495 2.91583 10.5796 2.91583C8.00971 2.91583 7.70521 2.92499 6.69021 2.96916C5.75134 3.00999 5.24209 3.15916 4.90259 3.28499C4.45371 3.45166 4.13259 3.64916 3.79572 3.96999C3.47638 4.26587 3.23062 4.62606 3.07646 5.02416C2.94434 5.34749 2.78771 5.83249 2.74484 6.72666C2.69846 7.69333 2.68884 7.98333 2.68884 10.4308C2.68884 12.8783 2.69846 13.1683 2.74484 14.135C2.78771 15.0292 2.94434 15.5142 3.07646 15.8375C3.23046 16.235 3.47634 16.5958 3.79572 16.8917C4.10634 17.1958 4.48521 17.43 4.90259 17.5767C5.24209 17.7025 5.75134 17.8517 6.69021 17.8925C7.70521 17.9367 8.00884 17.9458 10.5796 17.9458C13.1503 17.9458 13.454 17.9367 14.469 17.8925C15.4078 17.8517 15.9171 17.7025 16.2566 17.5767C16.7055 17.41 17.0266 17.2125 17.3635 16.8917C17.6828 16.5958 17.9287 16.235 18.0827 15.8375C18.2148 15.5142 18.3715 15.0292 18.4143 14.135C18.4607 13.1683 18.4703 12.8783 18.4703 10.4308C18.4703 7.98333 18.4607 7.69333 18.4143 6.72666C18.3715 5.83249 18.2148 5.34749 18.0827 5.02416C17.9077 4.59666 17.7003 4.29083 17.3635 3.96999C17.0528 3.66589 16.6746 3.43184 16.2566 3.28499C15.9171 3.15916 15.4078 3.00999 14.469 2.96916ZM9.35021 13.2567C10.0368 13.5289 10.8013 13.5656 11.5132 13.3606C12.225 13.1556 12.8401 12.7216 13.2532 12.1327C13.6664 11.5438 13.8521 10.8366 13.7786 10.1317C13.7051 9.42694 13.377 8.7683 12.8502 8.26833C12.5144 7.94872 12.1084 7.704 11.6614 7.55178C11.2144 7.39956 10.7375 7.34363 10.265 7.38801C9.79258 7.43239 9.33635 7.57597 8.92917 7.80843C8.52199 8.0409 8.17399 8.35645 7.91023 8.73237C7.64647 9.10829 7.47351 9.53523 7.40379 9.98246C7.33408 10.4297 7.36935 10.8861 7.50706 11.3188C7.64478 11.7514 7.88151 12.1497 8.20022 12.4848C8.51893 12.8199 8.91169 13.0835 9.35021 13.2567ZM7.08134 7.09916C7.54074 6.66164 8.08612 6.31458 8.68635 6.07779C9.28658 5.84101 9.9299 5.71914 10.5796 5.71914C11.2293 5.71914 11.8726 5.84101 12.4728 6.07779C13.0731 6.31458 13.6184 6.66164 14.0778 7.09916C14.5372 7.53668 14.9016 8.05609 15.1503 8.62774C15.3989 9.19939 15.5269 9.81208 15.5269 10.4308C15.5269 11.0496 15.3989 11.6623 15.1503 12.2339C14.9016 12.8056 14.5372 13.325 14.0778 13.7625C13.15 14.6461 11.8917 15.1425 10.5796 15.1425C9.26749 15.1425 8.00913 14.6461 7.08134 13.7625C6.15355 12.8789 5.63232 11.6804 5.63232 10.4308C5.63232 9.18121 6.15355 7.98277 7.08134 7.09916ZM16.6241 6.42083C16.7379 6.31855 16.8291 6.19556 16.8921 6.05914C16.9551 5.92272 16.9888 5.77563 16.9911 5.6266C16.9934 5.47757 16.9642 5.32962 16.9054 5.1915C16.8466 5.05339 16.7592 4.92792 16.6486 4.82253C16.5379 4.71713 16.4062 4.63396 16.2611 4.57792C16.1161 4.52189 15.9608 4.49414 15.8043 4.49631C15.6478 4.49848 15.4934 4.53054 15.3501 4.59057C15.2069 4.65061 15.0777 4.73741 14.9703 4.84583C14.7615 5.05668 14.6471 5.33676 14.6516 5.6266C14.656 5.91644 14.7789 6.19323 14.9941 6.3982C15.2093 6.60317 15.4999 6.72018 15.8043 6.72441C16.1086 6.72863 16.4027 6.61973 16.6241 6.42083Z" fill="#333333"/>
</g>
<defs>
<clipPath id="clip0_277_28">
<rect width="21" height="20" fill="white" transform="translate(0.0795898 0.430664)"/>
</clipPath>
</defs>
</svg>
