<svg width="21" height="21" viewBox="0 0 21 21" fill="none" xmlns="http://www.w3.org/2000/svg">
<path d="M20.6876 4.54481C19.9569 4.85315 19.1721 5.06148 18.347 5.15565C19.1983 4.67047 19.8353 3.90687 20.139 3.00731C19.3391 3.4598 18.4636 3.77831 17.5507 3.94898C16.9368 3.3247 16.1236 2.91092 15.2375 2.77188C14.3513 2.63283 13.4418 2.77631 12.65 3.18002C11.8583 3.58374 11.2286 4.22512 10.8588 5.00457C10.489 5.78402 10.3998 6.65794 10.6049 7.49065C8.98418 7.41314 7.39862 7.01194 5.9512 6.31307C4.50377 5.6142 3.22681 4.63328 2.2032 3.43398C1.8532 4.00898 1.65195 4.67565 1.65195 5.38565C1.65156 6.02481 1.81683 6.65418 2.13309 7.21792C2.44936 7.78167 2.90684 8.26235 3.46495 8.61731C2.81769 8.5977 2.18471 8.43113 1.6187 8.13148V8.18148C1.61863 9.07793 1.94423 9.9468 2.54023 10.6406C3.13624 11.3345 3.96595 11.8106 4.88857 11.9881C4.28814 12.1429 3.65862 12.1657 3.04757 12.0548C3.30788 12.8262 3.81495 13.5007 4.49777 13.9839C5.1806 14.4672 6.005 14.735 6.85557 14.7498C5.41168 15.8293 3.62848 16.4149 1.79282 16.4123C1.46766 16.4124 1.14277 16.3943 0.819824 16.3581C2.68312 17.4991 4.85212 18.1047 7.06732 18.1023C14.5661 18.1023 18.6655 12.1873 18.6655 7.05731C18.6655 6.89065 18.6611 6.72231 18.6532 6.55565C19.4506 6.00646 20.1389 5.32639 20.6858 4.54731L20.6876 4.54481Z" fill="#333333"/>
</svg>
