<svg width="27" height="13" viewBox="0 0 27 13" fill="none" xmlns="http://www.w3.org/2000/svg">
<path opacity="0.35" d="M0.5 2.66667C0.5 1.47005 1.47005 0.5 2.66667 0.5H22.3333C23.53 0.5 24.5 1.47005 24.5 2.66667V10.3333C24.5 11.53 23.53 12.5 22.3333 12.5H2.66667C1.47005 12.5 0.5 11.53 0.5 10.3333V2.66667Z" stroke="#FCFCFC"/>
<path opacity="0.4" d="M25.65 5V9C26.4548 8.66122 26.9781 7.87313 26.9781 7C26.9781 6.12687 26.4548 5.33878 25.65 5Z" fill="#FCFCFC"/>
<path d="M2.29999 3.66659C2.29999 2.93021 2.89694 2.33325 3.63332 2.33325H21.1666C21.903 2.33325 22.4999 2.93021 22.4999 3.66659V9.32992C22.4999 10.0663 21.903 10.6633 21.1666 10.6633H3.63332C2.89694 10.6633 2.29999 10.0663 2.29999 9.32992V3.66659Z" fill="#FCFCFC"/>
</svg>
