<svg width="27" height="13" viewBox="0 0 27 13" fill="none" xmlns="http://www.w3.org/2000/svg">
<path opacity="0.35" d="M0.5 2.66667C0.5 1.47005 1.47005 0.5 2.66667 0.5H22.3333C23.53 0.5 24.5 1.47005 24.5 2.66667V10.3333C24.5 11.53 23.53 12.5 22.3333 12.5H2.66667C1.47005 12.5 0.5 11.53 0.5 10.3333V2.66667Z" stroke="#222222"/>
<path opacity="0.4" d="M25.6504 5V9C26.4551 8.66122 26.9784 7.87313 26.9784 7C26.9784 6.12687 26.4551 5.33878 25.6504 5Z" fill="#222222"/>
<path d="M2.30078 3.66634C2.30078 2.92996 2.89773 2.33301 3.63411 2.33301H21.1674C21.9038 2.33301 22.5007 2.92996 22.5007 3.66634V9.32967C22.5007 10.0661 21.9038 10.663 21.1674 10.663H3.63411C2.89774 10.663 2.30078 10.0661 2.30078 9.32967V3.66634Z" fill="#222222"/>
</svg>
