<svg width="28" height="13" viewBox="0 0 28 13" fill="none" xmlns="http://www.w3.org/2000/svg">
<path opacity="0.35" d="M1.16992 2.66667C1.16992 1.47005 2.13997 0.5 3.33659 0.5H23.0033C24.1999 0.5 25.1699 1.47005 25.1699 2.66667V10.3333C25.1699 11.53 24.1999 12.5 23.0033 12.5H3.33659C2.13997 12.5 1.16992 11.53 1.16992 10.3333V2.66667Z" stroke="#222222"/>
<path opacity="0.4" d="M26.3203 5V9C27.125 8.66122 27.6484 7.87313 27.6484 7C27.6484 6.12687 27.125 5.33878 26.3203 5Z" fill="#222222"/>
<path d="M2.9707 3.66659C2.9707 2.93021 3.56766 2.33325 4.30404 2.33325H21.8373C22.5737 2.33325 23.1707 2.93021 23.1707 3.66659V9.32992C23.1707 10.0663 22.5737 10.6633 21.8373 10.6633H4.30404C3.56766 10.6633 2.9707 10.0663 2.9707 9.32992V3.66659Z" fill="#222222"/>
</svg>
