<svg width="24" height="25" viewBox="0 0 24 25" fill="none" xmlns="http://www.w3.org/2000/svg">
<path d="M20.2718 16.73C19.6608 18.2425 18.689 19.5825 17.4412 20.6332C16.1935 21.6839 14.7076 22.4134 13.1132 22.7581C11.5189 23.1028 9.86436 23.0523 8.29399 22.6109C6.72363 22.1695 5.28509 21.3506 4.1038 20.2257C2.92252 19.1007 2.03436 17.7039 1.51676 16.157C0.999169 14.6101 0.867857 12.96 1.13428 11.3507C1.4007 9.74137 2.05676 8.22166 3.04527 6.92406C4.03377 5.62647 5.3247 4.59039 6.80548 3.90617" stroke="#FCFCFC" stroke-width="2"/>
<path d="M12 1.98395C13.3132 1.98395 14.6136 2.24261 15.8268 2.74515C17.0401 3.2477 18.1425 3.98429 19.0711 4.91288C19.9997 5.84147 20.7362 6.94386 21.2388 8.15711C21.7413 9.37037 22 10.6707 22 11.9839L12 11.9839L12 1.98395Z" stroke="#FCFCFC" stroke-width="2"/>
</svg>
