<svg width="31" height="31" viewBox="0 0 31 31" fill="none" xmlns="http://www.w3.org/2000/svg">
<path d="M22.657 3.26562C21.5053 3.26562 20.3539 3.70548 19.4754 4.58398L16.1824 7.87695L15.8641 7.55859C15.7709 7.4628 15.6594 7.38665 15.5363 7.33466C15.4132 7.28266 15.2809 7.25587 15.1473 7.25586C14.9483 7.25591 14.7539 7.31529 14.5889 7.4264C14.4239 7.53752 14.2958 7.69532 14.2209 7.87963C14.1461 8.06394 14.1279 8.26639 14.1687 8.46109C14.2095 8.6558 14.3074 8.83391 14.45 8.97266L14.743 9.26562L6.45 17.5586C5.27323 18.7354 4.93633 20.0234 4.68633 21.0234C4.43633 22.0234 4.27323 22.7354 3.45 23.5586C3.26254 23.7461 3.15723 24.0005 3.15723 24.2656C3.15723 24.5308 3.26254 24.7851 3.45 24.9727L5.45 26.9727C5.63755 27.1601 5.89186 27.2654 6.15703 27.2654C6.42221 27.2654 6.67652 27.1601 6.86407 26.9727C7.68729 26.1494 8.39922 25.9863 9.39922 25.7363C10.3992 25.4863 11.6873 25.1494 12.8641 23.9727L21.157 15.6797L21.45 15.9727C21.5421 16.0686 21.6525 16.1453 21.7746 16.198C21.8968 16.2508 22.0282 16.2787 22.1612 16.2801C22.2943 16.2814 22.4263 16.2562 22.5494 16.2059C22.6726 16.1556 22.7845 16.0813 22.8786 15.9872C22.9727 15.8931 23.047 15.7812 23.0973 15.658C23.1476 15.5349 23.1728 15.4029 23.1715 15.2698C23.1701 15.1368 23.1422 15.0054 23.0894 14.8832C23.0367 14.7611 22.96 14.6507 22.8641 14.5586L22.5457 14.2402L25.8387 10.9473C27.5957 9.19027 27.5957 6.34098 25.8387 4.58398C24.9602 3.70548 23.8088 3.26562 22.657 3.26562ZM16.157 10.6797L19.743 14.2656L11.45 22.5586C10.6268 23.3818 9.91485 23.5449 8.91485 23.7949C8.14837 23.9865 7.21489 24.3518 6.28985 24.9844L5.43828 24.1328C6.07089 23.2078 6.43612 22.2743 6.62774 21.5078C6.87774 20.5078 7.04084 19.7959 7.86407 18.9727L16.157 10.6797Z" fill="black"/>
</svg>
