<svg width="31" height="31" viewBox="0 0 31 31" fill="none" xmlns="http://www.w3.org/2000/svg">
<path d="M8.74296 2.2832C8.48696 2.2832 8.23093 2.38117 8.03593 2.57617L2.44999 8.16211C2.05899 8.55311 2.05899 9.18617 2.44999 9.57617L8.24296 15.3691L9.65702 13.9551L4.57108 8.86914L8.74296 4.69727L10.0359 5.99023L8.74296 7.2832L10.157 8.69727L11.45 7.4043L12.5359 8.49023L10.45 10.5762L11.743 11.8691L15.243 8.36914L13.95 7.07617L9.44999 2.57617C9.25499 2.38117 8.99896 2.2832 8.74296 2.2832ZM23.9832 3.2832C23.4719 3.2837 22.9596 3.48059 22.5691 3.87109L21.157 5.2832L25.157 9.2832L26.5691 7.87109C27.3501 7.09009 27.3521 5.82592 26.5711 5.04492L25.3953 3.86914C25.0048 3.47864 24.4944 3.2827 23.9832 3.2832ZM19.157 7.2832L5.38749 21.0527L6.65702 21.7832L7.15702 23.2832L8.65702 23.7832L9.38749 25.0527L23.157 11.2832L19.157 7.2832ZM22.0711 15.1973L18.5711 18.6973L19.864 19.9902L21.95 17.9043L23.0359 18.9902L21.743 20.2832L23.157 21.6973L24.45 20.4043L25.743 21.6973L21.5711 25.8691L16.4851 20.7832L15.0711 22.1973L20.864 27.9902C21.059 28.1852 21.3151 28.2832 21.5711 28.2832C21.8271 28.2832 22.0831 28.1852 22.2781 27.9902L27.864 22.4043C28.2551 22.0143 28.2551 21.3812 27.864 20.9902L23.364 16.4902L22.0711 15.1973ZM4.0496 24.1758L3.19413 26.5918C3.16932 26.6525 3.15671 26.7176 3.15702 26.7832C3.15702 26.9158 3.2097 27.043 3.30347 27.1368C3.39723 27.2305 3.52441 27.2832 3.65702 27.2832C3.7191 27.2835 3.7807 27.2722 3.83866 27.25L6.26639 26.3926L4.0496 24.1758Z" fill="black"/>
</svg>
