<svg width="44" height="43" viewBox="0 0 44 43" fill="none" xmlns="http://www.w3.org/2000/svg">
<g filter="url(#filter0_f_318_170)">
<path d="M38.8693 19.8172L29.5639 16.3728L26.0892 4.98447C25.9554 4.54529 25.5486 4.24414 25.0895 4.24414C24.6305 4.24414 24.2237 4.54529 24.0899 4.98447L20.6162 16.3728L11.3098 19.8172C10.8988 19.9699 10.627 20.3599 10.627 20.7981C10.627 21.2351 10.8988 21.6273 11.3098 21.7789L20.611 25.2223L24.0868 36.9578C24.2185 37.4011 24.6263 37.7054 25.0895 37.7054C25.5517 37.7054 25.9606 37.4011 26.0923 36.9567L29.5681 25.2212L38.8704 21.7778C39.2792 21.6273 39.5521 21.2362 39.5521 20.7981C39.5521 20.361 39.2792 19.9699 38.8693 19.8172Z" fill="url(#paint0_linear_318_170)"/>
<path d="M17.9565 31.3207L15.5368 30.4256L14.5957 26.9749C14.4723 26.519 14.0593 26.2032 13.5877 26.2032C13.1161 26.2032 12.7031 26.519 12.5786 26.9738L11.6375 30.4245L9.21891 31.3196C8.80797 31.4712 8.53609 31.8634 8.53609 32.3005C8.53609 32.7375 8.80797 33.1297 9.21891 33.2813L11.625 34.1732L12.5734 37.9606C12.6905 38.4249 13.1077 38.7512 13.5877 38.7512C14.0677 38.7512 14.4849 38.4249 14.602 37.9596L15.5504 34.1722L17.9565 33.2802C18.3674 33.1297 18.6393 32.7375 18.6393 32.3005C18.6393 31.8634 18.3674 31.4712 17.9565 31.3207ZM13.4204 8.66843L10.9484 7.75347L10.0324 5.28048C9.88082 4.86953 9.48974 4.59766 9.05161 4.59766C8.61452 4.59766 8.22344 4.86953 8.07077 5.28048L7.15582 7.75347L4.68282 8.66843C4.27187 8.8211 4 9.21217 4 9.64926C4 10.0864 4.27187 10.4785 4.68282 10.6301L7.15582 11.5451L8.07077 14.018C8.22344 14.429 8.61452 14.7009 9.05161 14.7009C9.4887 14.7009 9.87977 14.429 10.0324 14.018L10.9474 11.5451L13.4204 10.6301C13.8313 10.4774 14.1032 10.0864 14.1032 9.64926C14.1032 9.21217 13.8313 8.8211 13.4204 8.66843Z" fill="#FF9700"/>
</g>
<defs>
<filter id="filter0_f_318_170" x="0" y="0.244141" width="43.5518" height="42.5068" filterUnits="userSpaceOnUse" color-interpolation-filters="sRGB">
<feFlood flood-opacity="0" result="BackgroundImageFix"/>
<feBlend mode="normal" in="SourceGraphic" in2="BackgroundImageFix" result="shape"/>
<feGaussianBlur stdDeviation="2" result="effect1_foregroundBlur_318_170"/>
</filter>
<linearGradient id="paint0_linear_318_170" x1="9.56865" y1="4.55142" x2="54.2182" y2="17.1502" gradientUnits="userSpaceOnUse">
<stop stop-color="#FF9C00"/>
<stop offset="1" stop-color="#FFDB03"/>
</linearGradient>
</defs>
</svg>
