<svg width="56" height="54" viewBox="0 0 56 54" fill="none" xmlns="http://www.w3.org/2000/svg">
<path d="M54.6659 24.0885L40.2723 18.7607L34.8975 1.14514C34.6905 0.465815 34.0613 -7.62939e-06 33.3513 -7.62939e-06C32.6412 -7.62939e-06 32.012 0.465815 31.805 1.14514L26.4319 18.7607L12.0367 24.0885C11.401 24.3247 10.9805 24.928 10.9805 25.6057C10.9805 26.2818 11.401 26.8883 12.0367 27.1228L26.4238 32.4491L31.8001 50.6016C32.0039 51.2874 32.6348 51.7581 33.3513 51.7581C34.0662 51.7581 34.6986 51.2874 34.9024 50.6L40.2788 32.4474L54.6675 27.1212C55.2999 26.8883 55.7221 26.2834 55.7221 25.6057C55.7221 24.9296 55.2999 24.3247 54.6659 24.0885Z" fill="#FFAC33"/>
<path d="M22.3165 41.882L18.5737 40.4975L17.118 35.1599C16.9272 34.4547 16.2883 33.9662 15.5588 33.9662C14.8294 33.9662 14.1905 34.4547 13.998 35.1583L12.5423 40.4958L8.80116 41.8804C8.1655 42.1149 7.74497 42.7214 7.74497 43.3975C7.74497 44.0736 8.1655 44.6802 8.80116 44.9147L12.5229 46.2944L13.9899 52.1527C14.1711 52.8709 14.8164 53.3755 15.5588 53.3755C16.3012 53.3755 16.9466 52.8709 17.1277 52.1511L18.5947 46.2927L22.3165 44.9131C22.9521 44.6802 23.3727 44.0736 23.3727 43.3975C23.3727 42.7214 22.9521 42.1149 22.3165 41.882ZM15.3 6.8434L11.4764 5.42814L10.0595 1.60289C9.825 0.967241 9.22007 0.546707 8.54237 0.546707C7.86628 0.546707 7.26135 0.967241 7.02521 1.60289L5.60995 5.42814L1.7847 6.8434C1.14905 7.07954 0.728516 7.68447 0.728516 8.36056C0.728516 9.03665 1.14905 9.64319 1.7847 9.87772L5.60995 11.293L7.02521 15.1182C7.26135 15.7539 7.86628 16.1744 8.54237 16.1744C9.21845 16.1744 9.82338 15.7539 10.0595 15.1182L11.4748 11.293L15.3 9.87772C15.9357 9.64157 16.3562 9.03665 16.3562 8.36056C16.3562 7.68447 15.9357 7.07954 15.3 6.8434Z" fill="#FFCC4D"/>
</svg>
