<svg width="37" height="28" viewBox="0 0 37 28" fill="none" xmlns="http://www.w3.org/2000/svg">
<path d="M16.7499 27.2496C16.7499 27.2496 19.1439 27.0416 19.8179 25.4576C20.5149 23.8186 19.1959 23.1486 19.1959 23.1486C19.1959 23.1486 21.1099 23.2076 21.8179 21.2076C22.4859 19.3226 20.8599 18.4576 20.8599 18.4576C20.8599 18.4576 22.7309 18.1506 23.2769 16.1656C23.7359 14.4946 22.1099 13.2496 22.1099 13.2496H34.3179C35.2769 13.2496 36.8929 12.7076 36.8939 10.7066C36.8959 8.70658 35.2349 8.24958 34.3179 8.24958H13.8179C12.8179 8.24958 12.8179 7.24958 13.8179 7.24958H16.4839C20.2759 7.24958 22.6269 5.21158 23.2759 4.49858C23.9259 3.78558 24.2549 2.83158 24.0099 1.67858C23.5949 -0.277416 22.0899 0.149584 20.8129 0.703584C17.7349 2.04058 13.3489 2.95758 11.2749 3.23658C5.41692 4.02758 0.899923 9.04558 0.893923 15.1206C0.889923 21.7466 6.19192 27.2446 12.8179 27.2496H16.7499Z" fill="#FFDC5D"/>
</svg>
