<svg width="37" height="34" viewBox="0 0 37 34" fill="none" xmlns="http://www.w3.org/2000/svg">
<path d="M36.5301 16.3868C33.9481 12.6258 28.6101 18.1608 18.8681 19.2858C15.2611 19.7018 12.0111 22.7137 7.82111 22.4267C6.10311 22.3087 3.70411 17.3658 1.90811 18.1538C0.984113 18.5598 0.560113 19.9147 1.51011 20.9327L12.0581 33.5187C12.0581 33.5187 12.5941 34.1368 14.4001 33.7088C14.8451 33.8398 21.5351 31.1587 25.4031 25.7917C26.3291 24.5067 27.4331 23.4368 28.5761 22.5428C32.2871 19.7988 36.3211 18.8427 36.3211 18.8427C36.8371 18.4167 36.9581 17.9638 36.9301 17.5708C36.9641 16.9148 36.5301 16.3868 36.5301 16.3868Z" fill="#5C913B"/>
<path d="M12.404 10.381C8.62103 15.631 1.99604 18.118 1.99604 18.118C0.760035 19.165 1.80404 20.399 1.80404 20.399L12.242 32.758C12.242 32.758 12.764 33.375 14.522 32.947C14.522 32.947 21.147 30.465 24.929 25.215C28.828 19.805 35.859 18.097 35.859 18.097C37.094 17.05 36.051 15.814 36.051 15.814L25.613 3.45703C25.613 3.45703 25.091 2.83903 23.333 3.26503C23.333 3.26503 16.303 4.96903 12.404 10.381Z" fill="#A7D28B"/>
<path d="M22.9282 19.6069C25.9658 19.6069 28.4282 17.1445 28.4282 14.1069C28.4282 11.0694 25.9658 8.60693 22.9282 8.60693C19.8907 8.60693 17.4282 11.0694 17.4282 14.1069C17.4282 17.1445 19.8907 19.6069 22.9282 19.6069Z" fill="#77B255"/>
<path d="M13.801 32.0358C12.92 32.0358 12.597 31.7078 12.553 31.6578L3.14404 20.6748C3.12604 20.6538 2.64904 20.1078 2.70704 19.4138C2.74204 18.9928 2.96004 18.6178 3.35404 18.2988L3.41704 18.2608C3.47804 18.2368 9.58004 15.7288 13 11.1958L13.2 11.3458L13 11.1958C16.618 6.3998 22.859 4.3418 22.921 4.3218C24.666 3.9158 25.237 4.4958 25.298 4.5638L34.583 15.6078C34.6 15.6258 35.076 16.1738 35.018 16.8688C34.983 17.2888 34.765 17.6638 34.371 17.9828L34.272 18.0318C34.211 18.0468 28.143 19.5548 24.628 24.2128C21.129 28.8528 15.021 31.8548 14.96 31.8838C14.496 31.9938 14.114 32.0358 13.801 32.0358ZM12.93 31.3288C12.931 31.3288 13.382 31.7448 14.795 31.4168C14.803 31.4058 20.804 28.4548 24.231 23.9128C27.668 19.3578 33.456 17.7308 34.098 17.5618C34.355 17.3408 34.497 17.0958 34.52 16.8328C34.562 16.3528 34.208 15.9398 34.205 15.9358L24.92 4.8908C24.918 4.8908 24.47 4.4758 23.056 4.8038C23.015 4.8178 16.921 6.8298 13.4 11.4968C10.034 15.9578 4.16104 18.4918 3.64204 18.7098C3.37404 18.9348 3.22804 19.1858 3.20504 19.4548C3.16504 19.9308 3.51704 20.3418 3.52004 20.3458L12.93 31.3288Z" fill="#5C913B"/>
<path d="M22.204 22.2731L22.198 28.2131L22.695 28.8031C23.664 27.9191 24.595 26.9251 25.4 25.8071C26.235 24.6491 27.205 23.6581 28.228 22.8211L27.745 22.2461L22.204 22.2731Z" fill="#FFAC33"/>
<path d="M27.7261 22.2251L15.2201 7.41211C14.2041 8.24811 13.2281 9.22311 12.3981 10.3761C11.5871 11.5021 10.6431 12.4931 9.66309 13.3671L11.1251 15.0981L11.1241 15.0991L22.1991 28.2131C23.1791 27.3381 24.1121 26.3371 24.9241 25.2101C25.7541 24.0581 26.7291 23.0841 27.7441 22.2481L27.7251 22.2251H27.7261Z" fill="#FFE8B6"/>
<path d="M15.407 22.6621C13.85 20.8181 10.554 23.8101 9.614 22.6971C9.159 22.1581 9.452 21.4591 10.05 20.9551C11.055 20.1051 11.78 20.6001 12.235 20.2151C12.558 19.9431 12.541 19.6101 12.349 19.3811C11.903 18.8541 10.763 19.1291 9.877 19.6411L9.446 19.1311C9.177 18.8131 8.701 18.7721 8.383 19.0411C8.065 19.3111 8.025 19.7851 8.294 20.1031L8.74 20.6321C8.063 21.5301 7.833 22.7221 8.634 23.6691C10.13 25.4391 13.467 22.4971 14.517 23.7411C14.881 24.1731 14.779 24.9971 14.013 25.6431C12.865 26.6141 11.825 26.1591 11.358 26.5531C11.13 26.7441 11.089 27.1081 11.332 27.3971C11.719 27.8541 12.952 27.7561 14.137 27.0181C14.139 27.0201 14.139 27.0221 14.139 27.0241L14.626 27.6001C14.895 27.9181 15.372 27.9571 15.69 27.6901C16.009 27.4201 16.048 26.9441 15.779 26.6261L15.292 26.0501C15.287 26.0441 15.279 26.0401 15.273 26.0341C16.072 25.0561 16.342 23.7671 15.407 22.6621Z" fill="#5C913B"/>
<path d="M33.3841 32.6952C33.3931 32.6872 33.4031 32.6812 33.4121 32.6742C33.4801 32.6062 33.5331 32.5282 33.5931 32.4532C33.6351 32.4012 33.6821 32.3512 33.7211 32.2982C33.7561 32.2482 33.7851 32.1972 33.8171 32.1462C35.2371 29.9592 34.3071 26.2512 31.4961 23.4392C28.6841 20.6272 24.9751 19.6972 22.7891 21.1182C22.7371 21.1492 22.6861 21.1782 22.6361 21.2142C22.5831 21.2532 22.5321 21.3002 22.4821 21.3412C22.4081 21.4022 22.3301 21.4542 22.2611 21.5232C22.2521 21.5322 22.2461 21.5422 22.2391 21.5512C22.2281 21.5622 22.2151 21.5692 22.2031 21.5812L22.2091 21.5862C21.2091 22.6482 21.1971 24.2912 22.2031 25.2982C23.2111 26.3062 24.8531 26.2922 25.9161 25.2922L25.9271 25.3042C25.9061 25.3242 25.8831 25.3372 25.8631 25.3572C24.8041 26.4162 24.7791 28.1052 25.8041 29.1322C26.8301 30.1572 28.5211 30.1322 29.5791 29.0732C29.5991 29.0532 29.6121 29.0302 29.6321 29.0092L29.6431 29.0212C28.6431 30.0832 28.6301 31.7262 29.6381 32.7342C30.6451 33.7402 32.2871 33.7282 33.3491 32.7282L33.3551 32.7342C33.3651 32.7202 33.3731 32.7072 33.3841 32.6952Z" fill="#E1E8ED"/>
<path d="M22.205 25.3379C23.111 26.2429 24.526 26.3169 25.575 25.5989C26.014 24.8489 26.14 24.1359 26.14 23.9129C23.933 25.5589 21.963 23.9219 21.522 22.9429C21.339 23.7889 21.561 24.6929 22.205 25.3379ZM29.504 29.1779C29.802 28.7589 30.033 28.3539 30.141 28.0799C28.736 29.3679 26.05 28.4249 25.236 26.3819C24.878 27.3319 25.061 28.4259 25.807 29.1719C26.809 30.1739 28.441 30.1659 29.504 29.1779ZM33.358 32.7729L33.387 32.7369C33.397 32.7289 33.407 32.7229 33.415 32.7149C33.484 32.6469 33.537 32.5689 33.596 32.4949C33.639 32.4419 33.685 32.3929 33.724 32.3389C33.76 32.2899 33.789 32.2379 33.821 32.1869C33.886 32.0869 33.921 31.9689 33.976 31.8629C31.448 32.9939 29.561 31.0749 29.032 30.1179C28.737 31.0349 28.929 32.0619 29.641 32.7749C30.647 33.7819 32.289 33.7699 33.352 32.7689L33.358 32.7729Z" fill="#CCD6DD"/>
<path d="M14.884 12.605L14.912 12.583C14.981 12.515 15.034 12.437 15.093 12.363C15.135 12.311 15.181 12.262 15.22 12.208C15.256 12.158 15.285 12.107 15.317 12.056C16.737 9.86897 15.806 6.15997 12.995 3.34897C10.183 0.536968 6.47504 -0.394032 4.28804 1.02597C4.23704 1.05797 4.18504 1.08697 4.13504 1.12297C4.08104 1.16197 4.03204 1.20797 3.98004 1.24997C3.90604 1.30997 3.82804 1.36197 3.76004 1.43097C3.75104 1.43997 3.74504 1.45097 3.73804 1.45897C3.72704 1.46897 3.71304 1.47797 3.70204 1.48897L3.70704 1.49397C2.70704 2.55597 2.69504 4.19897 3.70204 5.20597C4.70904 6.21297 6.35204 6.20097 7.41404 5.20097L7.42504 5.21197C7.40404 5.23097 7.38104 5.24497 7.36104 5.26497C6.30204 6.32397 6.27704 8.01297 7.30304 9.03997C8.32904 10.067 10.019 10.041 11.078 8.98197C11.098 8.96197 11.111 8.93897 11.131 8.91797L11.142 8.92897C10.142 9.99097 10.129 11.634 11.137 12.641C12.144 13.648 13.786 13.636 14.848 12.635L14.853 12.641C14.864 12.63 14.873 12.617 14.884 12.605Z" fill="#E1E8ED"/>
<path d="M3.70112 5.20706C4.60712 6.11306 6.02212 6.18706 7.07112 5.46706C7.51012 4.71706 7.63512 4.00506 7.63512 3.78206C5.42912 5.42706 3.45812 3.78906 3.01812 2.81006C2.83512 3.65706 3.05712 4.56206 3.70112 5.20706ZM11.0021 9.04506C11.2991 8.62606 11.5301 8.22306 11.6371 7.94906C10.2311 9.23706 7.54512 8.29306 6.73212 6.25006C6.37412 7.20006 6.55712 8.29406 7.30212 9.04006C8.30612 10.0431 9.93912 10.0341 11.0021 9.04506ZM14.8531 12.6421C14.8641 12.6311 14.8731 12.6181 14.8831 12.6061L14.9111 12.5841C14.9801 12.5161 15.0331 12.4381 15.0921 12.3641C15.1341 12.3121 15.1801 12.2631 15.2191 12.2091C15.2551 12.1591 15.2841 12.1081 15.3161 12.0571C15.3811 11.9571 15.4161 11.8381 15.4711 11.7321C12.9431 12.8631 11.0561 10.9451 10.5271 9.98806C10.2321 10.9051 10.4241 11.9321 11.1361 12.6441C12.1431 13.6511 13.7851 13.6391 14.8471 12.6381L14.8531 12.6421Z" fill="#CCD6DD"/>
</svg>
