<svg width="56" height="54" viewBox="0 0 56 54" fill="none" xmlns="http://www.w3.org/2000/svg">
<path d="M53.996 24.0885L39.6024 18.7607L34.2276 1.14515C34.0206 0.465822 33.3914 0 32.6814 0C31.9713 0 31.3421 0.465822 31.1351 1.14515L25.7619 18.7607L11.3667 24.0885C10.7311 24.3247 10.3105 24.928 10.3105 25.6057C10.3105 26.2818 10.7311 26.8883 11.3667 27.1228L25.7539 32.4491L31.1302 50.6016C31.334 51.2874 31.9648 51.7581 32.6814 51.7581C33.3963 51.7581 34.0287 51.2874 34.2325 50.6L39.6088 32.4475L53.9976 27.1212C54.63 26.8883 55.0522 26.2834 55.0522 25.6057C55.0522 24.9296 54.63 24.3247 53.996 24.0885Z" fill="#FFAC33"/>
<path d="M21.6466 41.8822L17.9038 40.4976L16.4481 35.1601C16.2572 34.4549 15.6184 33.9664 14.8889 33.9664C14.1594 33.9664 13.5205 34.4549 13.3281 35.1585L11.8724 40.496L8.13123 41.8805C7.49558 42.1151 7.07505 42.7216 7.07505 43.3977C7.07505 44.0738 7.49558 44.6803 8.13123 44.9149L11.853 46.2945L13.32 52.1529C13.5011 52.871 14.1465 53.3757 14.8889 53.3757C15.6313 53.3757 16.2767 52.871 16.4578 52.1513L17.9248 46.2929L21.6466 44.9132C22.2822 44.6803 22.7027 44.0738 22.7027 43.3977C22.7027 42.7216 22.2822 42.1151 21.6466 41.8822ZM14.6301 6.84357L10.8065 5.42831L9.3896 1.60306C9.15507 0.967409 8.55015 0.546875 7.87244 0.546875C7.19635 0.546875 6.59143 0.967409 6.35529 1.60306L4.94003 5.42831L1.11478 6.84357C0.479128 7.07971 0.0585938 7.68464 0.0585938 8.36073C0.0585938 9.03681 0.479128 9.64335 1.11478 9.87788L4.94003 11.2931L6.35529 15.1184C6.59143 15.754 7.19635 16.1746 7.87244 16.1746C8.54853 16.1746 9.15346 15.754 9.3896 15.1184L10.8049 11.2931L14.6301 9.87788C15.2658 9.64174 15.6863 9.03681 15.6863 8.36073C15.6863 7.68464 15.2658 7.07971 14.6301 6.84357Z" fill="#FFCC4D"/>
</svg>
