<svg width="37" height="34" viewBox="0 0 37 34" fill="none" xmlns="http://www.w3.org/2000/svg">
<path d="M36.5301 16.3872C33.9481 12.6262 28.6101 18.1612 18.8681 19.2862C15.2611 19.7022 12.0111 22.7142 7.82111 22.4272C6.10311 22.3092 3.70411 17.3662 1.90811 18.1542C0.984113 18.5602 0.560113 19.9152 1.51011 20.9332L12.0581 33.5192C12.0581 33.5192 12.5941 34.1372 14.4001 33.7092C14.8451 33.8402 21.5351 31.1592 25.4031 25.7922C26.3291 24.5072 27.4331 23.4372 28.5761 22.5432C32.2871 19.7992 36.3211 18.8432 36.3211 18.8432C36.8371 18.4172 36.9581 17.9642 36.9301 17.5712C36.9641 16.9152 36.5301 16.3872 36.5301 16.3872Z" fill="#5C913B"/>
<path d="M12.404 10.3812C8.62103 15.6312 1.99604 18.1182 1.99604 18.1182C0.760035 19.1652 1.80404 20.3992 1.80404 20.3992L12.242 32.7582C12.242 32.7582 12.764 33.3752 14.522 32.9472C14.522 32.9472 21.147 30.4652 24.929 25.2152C28.828 19.8052 35.859 18.0972 35.859 18.0972C37.094 17.0502 36.051 15.8142 36.051 15.8142L25.613 3.45721C25.613 3.45721 25.091 2.83921 23.333 3.26521C23.333 3.26521 16.303 4.96921 12.404 10.3812Z" fill="#A7D28B"/>
<path d="M22.9282 19.6072C25.9658 19.6072 28.4282 17.1448 28.4282 14.1072C28.4282 11.0697 25.9658 8.60724 22.9282 8.60724C19.8907 8.60724 17.4282 11.0697 17.4282 14.1072C17.4282 17.1448 19.8907 19.6072 22.9282 19.6072Z" fill="#77B255"/>
<path d="M13.801 32.0362C12.92 32.0362 12.597 31.7082 12.553 31.6582L3.14404 20.6752C3.12604 20.6542 2.64904 20.1082 2.70704 19.4142C2.74204 18.9932 2.96004 18.6182 3.35404 18.2992L3.41704 18.2612C3.47804 18.2372 9.58004 15.7292 13 11.1962L13.2 11.3462L13 11.1962C16.618 6.40022 22.859 4.34222 22.921 4.32222C24.666 3.91622 25.237 4.49622 25.298 4.56422L34.583 15.6082C34.6 15.6262 35.076 16.1742 35.018 16.8692C34.983 17.2892 34.765 17.6642 34.371 17.9832L34.272 18.0322C34.211 18.0472 28.143 19.5552 24.628 24.2132C21.129 28.8532 15.021 31.8552 14.96 31.8842C14.496 31.9942 14.114 32.0362 13.801 32.0362ZM12.93 31.3292C12.931 31.3292 13.382 31.7452 14.795 31.4172C14.803 31.4062 20.804 28.4552 24.231 23.9132C27.668 19.3582 33.456 17.7312 34.098 17.5622C34.355 17.3412 34.497 17.0962 34.52 16.8332C34.562 16.3532 34.208 15.9402 34.205 15.9362L24.92 4.89122C24.918 4.89122 24.47 4.47622 23.056 4.80422C23.015 4.81822 16.921 6.83022 13.4 11.4972C10.034 15.9582 4.16104 18.4922 3.64204 18.7102C3.37404 18.9352 3.22804 19.1862 3.20504 19.4552C3.16504 19.9312 3.51704 20.3422 3.52004 20.3462L12.93 31.3292Z" fill="#5C913B"/>
<path d="M22.204 22.2732L22.198 28.2132L22.695 28.8032C23.664 27.9192 24.595 26.9252 25.4 25.8072C26.235 24.6492 27.205 23.6582 28.228 22.8212L27.745 22.2462L22.204 22.2732Z" fill="#FFAC33"/>
<path d="M27.7261 22.2252L15.2201 7.41223C14.2041 8.24823 13.2281 9.22323 12.3981 10.3762C11.5871 11.5022 10.6431 12.4932 9.66309 13.3672L11.1251 15.0982L11.1241 15.0992L22.1991 28.2132C23.1791 27.3382 24.1121 26.3372 24.9241 25.2102C25.7541 24.0582 26.7291 23.0842 27.7441 22.2482L27.7251 22.2252H27.7261Z" fill="#FFE8B6"/>
<path d="M15.407 22.6622C13.85 20.8182 10.554 23.8102 9.614 22.6972C9.159 22.1582 9.452 21.4592 10.05 20.9552C11.055 20.1052 11.78 20.6002 12.235 20.2152C12.558 19.9432 12.541 19.6102 12.349 19.3812C11.903 18.8542 10.763 19.1292 9.877 19.6412L9.446 19.1312C9.177 18.8132 8.701 18.7722 8.383 19.0412C8.065 19.3112 8.025 19.7852 8.294 20.1032L8.74 20.6322C8.063 21.5302 7.833 22.7222 8.634 23.6692C10.13 25.4392 13.467 22.4972 14.517 23.7412C14.881 24.1732 14.779 24.9972 14.013 25.6432C12.865 26.6142 11.825 26.1592 11.358 26.5532C11.13 26.7442 11.089 27.1082 11.332 27.3972C11.719 27.8542 12.952 27.7562 14.137 27.0182C14.139 27.0202 14.139 27.0222 14.139 27.0242L14.626 27.6002C14.895 27.9182 15.372 27.9572 15.69 27.6902C16.009 27.4202 16.048 26.9442 15.779 26.6262L15.292 26.0502C15.287 26.0442 15.279 26.0402 15.273 26.0342C16.072 25.0562 16.342 23.7672 15.407 22.6622Z" fill="#5C913B"/>
<path d="M33.3841 32.6952C33.3931 32.6872 33.4031 32.6812 33.4121 32.6742C33.4801 32.6062 33.5331 32.5282 33.5931 32.4532C33.6351 32.4012 33.6821 32.3512 33.7211 32.2982C33.7561 32.2482 33.7851 32.1972 33.8171 32.1462C35.2371 29.9592 34.3071 26.2512 31.4961 23.4392C28.6841 20.6272 24.9751 19.6972 22.7891 21.1182C22.7371 21.1492 22.6861 21.1782 22.6361 21.2142C22.5831 21.2532 22.5321 21.3002 22.4821 21.3412C22.4081 21.4022 22.3301 21.4542 22.2611 21.5232C22.2521 21.5322 22.2461 21.5422 22.2391 21.5512C22.2281 21.5622 22.2151 21.5692 22.2031 21.5812L22.2091 21.5862C21.2091 22.6482 21.1971 24.2912 22.2031 25.2982C23.2111 26.3062 24.8531 26.2922 25.9161 25.2922L25.9271 25.3042C25.9061 25.3242 25.8831 25.3372 25.8631 25.3572C24.8041 26.4162 24.7791 28.1052 25.8041 29.1322C26.8301 30.1572 28.5211 30.1322 29.5791 29.0732C29.5991 29.0532 29.6121 29.0302 29.6321 29.0092L29.6431 29.0212C28.6431 30.0832 28.6301 31.7262 29.6381 32.7342C30.6451 33.7402 32.2871 33.7282 33.3491 32.7282L33.3551 32.7342C33.3651 32.7202 33.3731 32.7072 33.3841 32.6952Z" fill="#E1E8ED"/>
<path d="M22.205 25.3382C23.111 26.2432 24.526 26.3172 25.575 25.5992C26.014 24.8492 26.14 24.1362 26.14 23.9132C23.933 25.5592 21.963 23.9222 21.522 22.9432C21.339 23.7892 21.561 24.6932 22.205 25.3382ZM29.504 29.1782C29.802 28.7592 30.033 28.3542 30.141 28.0802C28.736 29.3682 26.05 28.4252 25.236 26.3822C24.878 27.3322 25.061 28.4262 25.807 29.1722C26.809 30.1742 28.441 30.1662 29.504 29.1782ZM33.358 32.7732L33.387 32.7372C33.397 32.7292 33.407 32.7232 33.415 32.7152C33.484 32.6472 33.537 32.5692 33.596 32.4952C33.639 32.4422 33.685 32.3932 33.724 32.3392C33.76 32.2902 33.789 32.2382 33.821 32.1872C33.886 32.0872 33.921 31.9692 33.976 31.8632C31.448 32.9942 29.561 31.0752 29.032 30.1182C28.737 31.0352 28.929 32.0622 29.641 32.7752C30.647 33.7822 32.289 33.7702 33.352 32.7692L33.358 32.7732Z" fill="#CCD6DD"/>
<path d="M14.884 12.6052L14.912 12.5832C14.981 12.5152 15.034 12.4372 15.093 12.3632C15.135 12.3112 15.181 12.2622 15.22 12.2082C15.256 12.1582 15.285 12.1072 15.317 12.0562C16.737 9.86921 15.806 6.16021 12.995 3.34921C10.183 0.537213 6.47504 -0.393787 4.28804 1.02621C4.23704 1.05821 4.18504 1.08721 4.13504 1.12321C4.08104 1.16221 4.03204 1.20821 3.98004 1.25021C3.90604 1.31021 3.82804 1.36221 3.76004 1.43121C3.75104 1.44021 3.74504 1.45121 3.73804 1.45921C3.72704 1.46921 3.71304 1.47821 3.70204 1.48921L3.70704 1.49421C2.70704 2.55621 2.69504 4.19921 3.70204 5.20621C4.70904 6.21321 6.35204 6.20121 7.41404 5.20121L7.42504 5.21221C7.40404 5.23121 7.38104 5.24521 7.36104 5.26521C6.30204 6.32421 6.27704 8.01321 7.30304 9.04021C8.32904 10.0672 10.019 10.0412 11.078 8.98221C11.098 8.96221 11.111 8.93921 11.131 8.91821L11.142 8.92921C10.142 9.99121 10.129 11.6342 11.137 12.6412C12.144 13.6482 13.786 13.6362 14.848 12.6352L14.853 12.6412C14.864 12.6302 14.873 12.6172 14.884 12.6052Z" fill="#E1E8ED"/>
<path d="M3.70112 5.20724C4.60712 6.11324 6.02212 6.18724 7.07112 5.46724C7.51012 4.71724 7.63512 4.00524 7.63512 3.78224C5.42912 5.42724 3.45812 3.78924 3.01812 2.81024C2.83512 3.65724 3.05712 4.56224 3.70112 5.20724ZM11.0021 9.04524C11.2991 8.62624 11.5301 8.22324 11.6371 7.94924C10.2311 9.23724 7.54512 8.29324 6.73212 6.25024C6.37412 7.20024 6.55712 8.29424 7.30212 9.04024C8.30612 10.0432 9.93912 10.0342 11.0021 9.04524ZM14.8531 12.6422C14.8641 12.6312 14.8731 12.6182 14.8831 12.6062L14.9111 12.5842C14.9801 12.5162 15.0331 12.4382 15.0921 12.3642C15.1341 12.3122 15.1801 12.2632 15.2191 12.2092C15.2551 12.1592 15.2841 12.1082 15.3161 12.0572C15.3811 11.9572 15.4161 11.8382 15.4711 11.7322C12.9431 12.8632 11.0561 10.9452 10.5271 9.98824C10.2321 10.9052 10.4241 11.9322 11.1361 12.6442C12.1431 13.6512 13.7851 13.6392 14.8471 12.6382L14.8531 12.6422Z" fill="#CCD6DD"/>
</svg>
