<svg width="37" height="28" viewBox="0 0 37 28" fill="none" xmlns="http://www.w3.org/2000/svg">
<path d="M16.7496 27.0205C16.7496 27.0205 19.1436 26.8125 19.8176 25.2285C20.5146 23.5895 19.1956 22.9195 19.1956 22.9195C19.1956 22.9195 21.1096 22.9785 21.8176 20.9785C22.4856 19.0935 20.8596 18.2285 20.8596 18.2285C20.8596 18.2285 22.7306 17.9215 23.2766 15.9365C23.7356 14.2655 22.1096 13.0205 22.1096 13.0205H34.3176C35.2766 13.0205 36.8926 12.4785 36.8936 10.4775C36.8956 8.47752 35.2346 8.02052 34.3176 8.02052H13.8176C12.8176 8.02052 12.8176 7.02052 13.8176 7.02052H16.4836C20.2756 7.02052 22.6266 4.98252 23.2756 4.26952C23.9256 3.55652 24.2546 2.60252 24.0096 1.44952C23.5946 -0.506481 22.0896 -0.0794813 20.8126 0.474519C17.7346 1.81152 13.3486 2.72852 11.2746 3.00752C5.41656 3.79852 0.899557 8.81652 0.893557 14.8915C0.889557 21.5175 6.19156 27.0155 12.8176 27.0205H16.7496Z" fill="#FFDC5D"/>
</svg>
