<svg width="37" height="28" viewBox="0 0 37 28" fill="none" xmlns="http://www.w3.org/2000/svg">
<path d="M16.3423 27.2008C16.3423 27.2008 18.7363 26.9928 19.4103 25.4088C20.1073 23.7698 18.7883 23.0998 18.7883 23.0998C18.7883 23.0998 20.7023 23.1588 21.4103 21.1588C22.0783 19.2738 20.4523 18.4088 20.4523 18.4088C20.4523 18.4088 22.3233 18.1018 22.8693 16.1168C23.3283 14.4458 21.7023 13.2008 21.7023 13.2008H33.9103C34.8693 13.2008 36.4853 12.6588 36.4863 10.6578C36.4883 8.65782 34.8273 8.20082 33.9103 8.20082H13.4103C12.4103 8.20082 12.4103 7.20082 13.4103 7.20082H16.0763C19.8683 7.20082 22.2193 5.16282 22.8683 4.44982C23.5183 3.73682 23.8473 2.78282 23.6023 1.62982C23.1873 -0.326184 21.6823 0.100817 20.4053 0.654817C17.3273 1.99182 12.9413 2.90882 10.8673 3.18782C5.00933 3.97882 0.49233 8.99682 0.48633 15.0718C0.48233 21.6978 5.78433 27.1958 12.4103 27.2008H16.3423Z" fill="#FFDC5D"/>
</svg>
