<svg width="37" height="28" viewBox="0 0 37 28" fill="none" xmlns="http://www.w3.org/2000/svg">
<path d="M16.3422 27.32C16.3422 27.32 18.7362 27.112 19.4102 25.528C20.1072 23.889 18.7882 23.219 18.7882 23.219C18.7882 23.219 20.7022 23.278 21.4102 21.278C22.0782 19.393 20.4522 18.528 20.4522 18.528C20.4522 18.528 22.3232 18.221 22.8692 16.236C23.3282 14.565 21.7022 13.32 21.7022 13.32H33.9102C34.8692 13.32 36.4852 12.778 36.4862 10.777C36.4882 8.77696 34.8272 8.31996 33.9102 8.31996H13.4102C12.4102 8.31996 12.4102 7.31996 13.4102 7.31996H16.0762C19.8682 7.31996 22.2192 5.28196 22.8682 4.56896C23.5182 3.85596 23.8472 2.90196 23.6022 1.74896C23.1872 -0.207043 21.6822 0.219957 20.4052 0.773957C17.3272 2.11096 12.9412 3.02796 10.8672 3.30696C5.00921 4.09796 0.492208 9.11596 0.486208 15.191C0.482208 21.817 5.78421 27.315 12.4102 27.32H16.3422Z" fill="#FFDC5D"/>
</svg>
