<svg width="57" height="55" viewBox="0 0 57 55" fill="none" xmlns="http://www.w3.org/2000/svg">
<path d="M55.2611 25.1939L40.6357 19.7802L35.1744 1.88097C34.964 1.1907 34.3247 0.717377 33.6032 0.717377C32.8817 0.717377 32.2424 1.1907 32.032 1.88097L26.5723 19.7802L11.9453 25.1939C11.2994 25.4338 10.8721 26.0469 10.8721 26.7355C10.8721 27.4225 11.2994 28.0388 11.9453 28.2771L26.5641 33.6891L32.0271 52.134C32.2342 52.8308 32.8751 53.3091 33.6032 53.3091C34.3296 53.3091 34.9722 52.8308 35.1793 52.1324L40.6423 33.6875L55.2628 28.2754C55.9054 28.0388 56.3343 27.4241 56.3343 26.7355C56.3343 26.0485 55.9054 25.4338 55.2611 25.1939Z" fill="url(#paint0_linear_398_10649)"/>
<path d="M22.3917 43.274L18.5887 41.8672L17.1096 36.4436C16.9156 35.7271 16.2664 35.2307 15.5252 35.2307C14.784 35.2307 14.1348 35.7271 13.9393 36.442L12.4601 41.8655L8.65872 43.2723C8.01283 43.5106 7.58552 44.127 7.58552 44.8139C7.58552 45.5009 8.01283 46.1172 8.65872 46.3555L12.4404 47.7574L13.931 53.7102C14.1151 54.4399 14.7709 54.9526 15.5252 54.9526C16.2796 54.9526 16.9353 54.4399 17.1194 53.7085L18.6101 47.7558L22.3917 46.3539C23.0376 46.1172 23.4649 45.5009 23.4649 44.8139C23.4649 44.127 23.0376 43.5106 22.3917 43.274ZM15.2623 7.67103L11.3771 6.23298L9.93736 2.34612C9.69905 1.70023 9.08438 1.27292 8.39576 1.27292C7.70878 1.27292 7.09412 1.70023 6.85417 2.34612L5.41611 6.23298L1.52925 7.67103C0.883362 7.91098 0.456055 8.52565 0.456055 9.21263C0.456055 9.8996 0.883362 10.5159 1.52925 10.7542L5.41611 12.1923L6.85417 16.0791C7.09412 16.725 7.70878 17.1523 8.39576 17.1523C9.08274 17.1523 9.69741 16.725 9.93736 16.0791L11.3754 12.1923L15.2623 10.7542C15.9082 10.5143 16.3355 9.8996 16.3355 9.21263C16.3355 8.52565 15.9082 7.91098 15.2623 7.67103Z" fill="#FF9700"/>
<defs>
<linearGradient id="paint0_linear_398_10649" x1="9.20871" y1="1.20033" x2="79.3853" y2="21.0021" gradientUnits="userSpaceOnUse">
<stop stop-color="#FF9C00"/>
<stop offset="1" stop-color="#FFDB03"/>
</linearGradient>
</defs>
</svg>
