<svg width="29" height="28" viewBox="0 0 29 28" fill="none" xmlns="http://www.w3.org/2000/svg">
<path d="M27.5523 12.6033L20.4468 9.97313L17.7935 1.2771C17.6913 0.941748 17.3807 0.711792 17.0302 0.711792C16.6797 0.711792 16.3691 0.941748 16.2669 1.2771L13.6144 9.97313L6.50809 12.6033C6.19429 12.7198 5.98669 13.0177 5.98669 13.3522C5.98669 13.686 6.19429 13.9854 6.50809 14.1012L13.6104 16.7305L16.2645 25.6916C16.3651 26.0302 16.6765 26.2625 17.0302 26.2625C17.3831 26.2625 17.6953 26.0302 17.7959 25.6908L20.45 16.7297L27.5531 14.1004C27.8653 13.9854 28.0737 13.6868 28.0737 13.3522C28.0737 13.0185 27.8653 12.7198 27.5523 12.6033Z" fill="#FFAC33"/>
<path d="M11.5832 21.3872L9.73555 20.7037L9.01694 18.0688C8.92272 17.7207 8.60733 17.4795 8.24722 17.4795C7.88712 17.4795 7.57173 17.7207 7.47671 18.068L6.7581 20.7029L4.91126 21.3864C4.59747 21.5022 4.38987 21.8016 4.38987 22.1353C4.38987 22.4691 4.59747 22.7685 4.91126 22.8843L6.74852 23.5654L7.47272 26.4574C7.56215 26.8119 7.88073 27.061 8.24722 27.061C8.61372 27.061 8.9323 26.8119 9.02173 26.4566L9.74593 23.5646L11.5832 22.8835C11.897 22.7685 12.1046 22.4691 12.1046 22.1353C12.1046 21.8016 11.897 21.5022 11.5832 21.3872ZM8.11947 4.09015L6.23191 3.3915L5.53246 1.50314C5.41669 1.18935 5.11806 0.98175 4.78351 0.98175C4.44975 0.98175 4.15113 1.18935 4.03455 1.50314L3.3359 3.3915L1.44754 4.09015C1.13375 4.20673 0.926147 4.50535 0.926147 4.83911C0.926147 5.17287 1.13375 5.47229 1.44754 5.58806L3.3359 6.28672L4.03455 8.17507C4.15113 8.48887 4.44975 8.69647 4.78351 8.69647C5.11726 8.69647 5.41589 8.48887 5.53246 8.17507L6.23111 6.28672L8.11947 5.58806C8.43327 5.47149 8.64086 5.17287 8.64086 4.83911C8.64086 4.50535 8.43327 4.20673 8.11947 4.09015Z" fill="#FFCC4D"/>
</svg>
