<svg width="57" height="55" viewBox="0 0 57 55" fill="none" xmlns="http://www.w3.org/2000/svg">
<path d="M55.5912 25.1943L40.9658 19.7806L35.5045 1.88137C35.2941 1.1911 34.6548 0.717773 33.9333 0.717773C33.2118 0.717773 32.5725 1.1911 32.3621 1.88137L26.9024 19.7806L12.2753 25.1943C11.6295 25.4342 11.2021 26.0473 11.2021 26.7359C11.2021 27.4229 11.6295 28.0392 12.2753 28.2775L26.8942 33.6895L32.3572 52.1344C32.5642 52.8312 33.2052 53.3095 33.9333 53.3095C34.6597 53.3095 35.3023 52.8312 35.5094 52.1328L40.9723 33.6879L55.5928 28.2758C56.2355 28.0392 56.6644 27.4245 56.6644 26.7359C56.6644 26.0489 56.2355 25.4342 55.5912 25.1943Z" fill="url(#paint0_linear_318_167)"/>
<path d="M22.7218 43.2745L18.9188 41.8677L17.4396 36.4442C17.2457 35.7276 16.5965 35.2313 15.8553 35.2313C15.1141 35.2313 14.4649 35.7276 14.2693 36.4425L12.7902 41.866L8.9888 43.2729C8.34291 43.5112 7.9156 44.1275 7.9156 44.8145C7.9156 45.5014 8.34291 46.1177 8.9888 46.356L12.7705 47.7579L14.2611 53.7107C14.4452 54.4404 15.1009 54.9531 15.8553 54.9531C16.6097 54.9531 17.2654 54.4404 17.4495 53.709L18.9401 47.7563L22.7218 46.3544C23.3677 46.1177 23.795 45.5014 23.795 44.8145C23.795 44.1275 23.3677 43.5112 22.7218 43.2745ZM15.5923 7.67155L11.7071 6.23349L10.2674 2.34664C10.0291 1.70075 9.41446 1.27344 8.72584 1.27344C8.03886 1.27344 7.4242 1.70075 7.18425 2.34664L5.74619 6.23349L1.85933 7.67155C1.21344 7.9115 0.786133 8.52617 0.786133 9.21314C0.786133 9.90012 1.21344 10.5164 1.85933 10.7547L5.74619 12.1928L7.18425 16.0796C7.4242 16.7255 8.03886 17.1528 8.72584 17.1528C9.41282 17.1528 10.0275 16.7255 10.2674 16.0796L11.7055 12.1928L15.5923 10.7547C16.2382 10.5148 16.6655 9.90012 16.6655 9.21314C16.6655 8.52617 16.2382 7.9115 15.5923 7.67155Z" fill="#FF9700"/>
<defs>
<linearGradient id="paint0_linear_318_167" x1="9.53879" y1="1.20072" x2="79.7153" y2="21.0025" gradientUnits="userSpaceOnUse">
<stop stop-color="#FF9C00"/>
<stop offset="1" stop-color="#FFDB03"/>
</linearGradient>
</defs>
</svg>
