<svg width="45" height="43" viewBox="0 0 45 43" fill="none" xmlns="http://www.w3.org/2000/svg">
<g filter="url(#filter0_f_398_10652)">
<path d="M39.5392 19.8173L30.2339 16.3728L26.7591 4.98451C26.6253 4.54533 26.2185 4.24418 25.7595 4.24418C25.3004 4.24418 24.8937 4.54533 24.7598 4.98451L21.2861 16.3728L11.9797 19.8173C11.5687 19.9699 11.2969 20.36 11.2969 20.7981C11.2969 21.2352 11.5687 21.6273 11.9797 21.7789L21.2809 25.2223L24.7567 36.9578C24.8884 37.4012 25.2962 37.7055 25.7595 37.7055C26.2217 37.7055 26.6305 37.4012 26.7623 36.9568L30.238 25.2213L39.5403 21.7779C39.9491 21.6273 40.2221 21.2362 40.2221 20.7981C40.2221 20.361 39.9491 19.9699 39.5392 19.8173Z" fill="url(#paint0_linear_398_10652)"/>
<path d="M18.6264 31.3206L16.2067 30.4256L15.2656 26.9749C15.1423 26.519 14.7292 26.2032 14.2576 26.2032C13.786 26.2032 13.373 26.519 13.2486 26.9738L12.3075 30.4245L9.88884 31.3196C9.47789 31.4712 9.20602 31.8633 9.20602 32.3004C9.20602 32.7375 9.47789 33.1296 9.88884 33.2813L12.2949 34.1732L13.2433 37.9606C13.3604 38.4249 13.7777 38.7511 14.2576 38.7511C14.7376 38.7511 15.1548 38.4249 15.2719 37.9596L16.2203 34.1722L18.6264 33.2802C19.0374 33.1296 19.3092 32.7375 19.3092 32.3004C19.3092 31.8633 19.0374 31.4712 18.6264 31.3206ZM14.0903 8.66841L11.6184 7.75346L10.7024 5.28046C10.5507 4.86951 10.1597 4.59764 9.72153 4.59764C9.28444 4.59764 8.89336 4.86951 8.7407 5.28046L7.82574 7.75346L5.35274 8.66841C4.94179 8.82108 4.66992 9.21216 4.66992 9.64925C4.66992 10.0863 4.94179 10.4785 5.35274 10.6301L7.82574 11.545L8.7407 14.018C8.89336 14.429 9.28444 14.7009 9.72153 14.7009C10.1586 14.7009 10.5497 14.429 10.7024 14.018L11.6173 11.545L14.0903 10.6301C14.5013 10.4774 14.7731 10.0863 14.7731 9.64925C14.7731 9.21216 14.5013 8.82108 14.0903 8.66841Z" fill="#FF9700"/>
</g>
<defs>
<filter id="filter0_f_398_10652" x="0.669922" y="0.244179" width="43.5518" height="42.507" filterUnits="userSpaceOnUse" color-interpolation-filters="sRGB">
<feFlood flood-opacity="0" result="BackgroundImageFix"/>
<feBlend mode="normal" in="SourceGraphic" in2="BackgroundImageFix" result="shape"/>
<feGaussianBlur stdDeviation="2" result="effect1_foregroundBlur_398_10652"/>
</filter>
<linearGradient id="paint0_linear_398_10652" x1="10.2386" y1="4.55145" x2="54.8881" y2="17.1502" gradientUnits="userSpaceOnUse">
<stop stop-color="#FF9C00"/>
<stop offset="1" stop-color="#FFDB03"/>
</linearGradient>
</defs>
</svg>
