<svg width="43" height="43" viewBox="0 0 43 43" fill="none" xmlns="http://www.w3.org/2000/svg">
<g clip-path="url(#clip0_2464_7128)">
<path d="M22.7843 7.14175C22.0044 6.36181 20.7358 6.36181 19.9559 7.14175L15.7133 11.3844C14.9333 12.1643 14.9333 13.4329 15.7133 14.2128L19.9559 18.4555C20.7358 19.2354 22.0044 19.2354 22.7843 18.4555L27.027 14.2128C27.8069 13.4329 27.8069 12.1643 27.027 11.3844L22.7843 7.14175ZM31.2696 15.627C30.4897 14.8471 29.2211 14.8471 28.4412 15.627L24.1985 19.8697C23.4186 20.6496 23.4186 21.9182 24.1985 22.6981L28.4412 26.9407C29.2211 27.7207 30.4897 27.7207 31.2696 26.9407L35.5123 22.6981C36.2922 21.9182 36.2922 20.6496 35.5123 19.8697L31.2696 15.627ZM14.299 15.627C13.5191 14.8471 12.2506 14.8471 11.4706 15.627L7.22798 19.8697C6.44804 20.6496 6.44804 21.9182 7.22798 22.6981L11.4706 26.9407C12.2506 27.7207 13.5191 27.7207 14.299 26.9407L18.5417 22.6981C19.3216 21.9182 19.3216 20.6496 18.5417 19.8697L14.299 15.627ZM22.7843 24.1123C22.0044 23.3324 20.7358 23.3324 19.9559 24.1123L15.7133 28.355C14.9333 29.1349 14.9333 30.4034 15.7133 31.1834L19.9559 35.426C20.7358 36.206 22.0044 36.206 22.7843 35.426L27.027 31.1834C27.8069 30.4034 27.8069 29.1349 27.027 28.355L22.7843 24.1123Z" fill="black"/>
</g>
<defs>
<clipPath id="clip0_2464_7128">
<rect width="30" height="30" fill="white" transform="translate(21.3701 0.0703125) rotate(45)"/>
</clipPath>
</defs>
</svg>
