<svg width="52" height="24" viewBox="0 0 52 24" fill="none" xmlns="http://www.w3.org/2000/svg">
<path fill-rule="evenodd" clip-rule="evenodd" d="M43.2736 16.0865C43.5031 17.4777 45.3185 18.2236 46.5179 16.7739C47.4175 15.6865 49.0283 15.5342 50.1158 16.4339C51.2032 17.3335 51.3555 18.9443 50.4559 20.0318C46.245 25.1218 38.4321 22.3852 38.1663 15.9662C38.1563 15.8752 38.1511 15.7853 38.1511 15.697L38.1627 2.41405C38.1627 1.09159 39.3068 0.0195312 40.7182 0.0195312C42.1295 0.0195312 43.2736 1.0916 43.2736 2.41406L43.2736 16.0865Z" fill="url(#paint0_linear_3442_18986)"/>
<path fill-rule="evenodd" clip-rule="evenodd" d="M13.833 1.93984C15.0552 2.64551 15.474 4.20841 14.7683 5.43066L5.75861 21.036C5.05294 22.2582 3.49004 22.677 2.26778 21.9713C1.04553 21.2657 0.626749 19.7028 1.33242 18.4805L10.3421 2.8752C11.0478 1.65295 12.6107 1.23417 13.833 1.93984Z" fill="url(#paint1_linear_3442_18986)"/>
<path fill-rule="evenodd" clip-rule="evenodd" d="M27.9353 22.4463C26.5239 22.4463 25.3798 21.3022 25.3798 19.8908L25.3798 6.28671C25.3798 4.87537 26.5239 3.73125 27.9353 3.73125C29.3466 3.73125 30.4907 4.87537 30.4907 6.28671L30.4907 19.8908C30.4907 21.3022 29.3466 22.4463 27.9353 22.4463Z" fill="url(#paint2_linear_3442_18986)"/>
<g style="mix-blend-mode:soft-light">
<path fill-rule="evenodd" clip-rule="evenodd" d="M27.9353 22.4463C26.5239 22.4463 25.3798 21.3022 25.3798 19.8908L25.3798 6.28671C25.3798 4.87537 26.5239 3.73125 27.9353 3.73125C29.3466 3.73125 30.4907 4.87537 30.4907 6.28671L30.4907 19.8908C30.4907 21.3022 29.3466 22.4463 27.9353 22.4463Z" fill="url(#paint3_linear_3442_18986)"/>
</g>
<path fill-rule="evenodd" clip-rule="evenodd" d="M30.0789 12.2708L29.1391 12.29L25.3774 12.2648C25.4116 11.3049 25.9867 9.51885 26.4224 8.683C26.8778 7.80935 27.5253 6.91015 28.3447 6.13859C29.9928 4.5867 32.6092 3.35702 35.6514 4.49761C36.8628 4.95178 37.4767 6.30198 37.0225 7.51337C36.5683 8.72476 35.2181 9.33861 34.0067 8.88444C33.153 8.56435 32.3605 8.79234 31.5565 9.54943C31.1498 9.93236 30.8118 10.2582 30.5769 10.8486C30.4625 11.395 30.4881 12.2644 30.4881 12.2644L30.0789 12.2708Z" fill="url(#paint4_linear_3442_18986)"/>
<path fill-rule="evenodd" clip-rule="evenodd" d="M38.1511 6.82634L38.1511 4.66211L46.5608 4.66219C47.5179 4.66219 48.8008 5.58944 48.8008 6.88317C48.9147 8.1243 47.8986 9.3472 46.5608 9.3472H38.163L38.1511 6.82634Z" fill="url(#paint5_linear_3442_18986)"/>
<g style="mix-blend-mode:overlay">
<path d="M38.1624 9.36816H43.2545L43.2545 11.023H38.1624V9.36816Z" fill="url(#paint6_linear_3442_18986)"/>
</g>
<path fill-rule="evenodd" clip-rule="evenodd" d="M10.1877 3.1985C10.3934 2.68637 10.7657 2.23682 11.2807 1.93947C12.503 1.2338 14.0659 1.65258 14.7716 2.87484L23.7813 18.4801C24.487 19.7024 24.0682 21.2653 22.8459 21.971C21.6237 22.6766 20.0608 22.2579 19.3551 21.0356L12.5251 9.20562L12.5622 9.30103C11.207 6.60846 9.11476 6.32153 8.23804 6.51463L10.1772 3.17158L10.1877 3.1985Z" fill="url(#paint7_linear_3442_18986)"/>
<defs>
<linearGradient id="paint0_linear_3442_18986" x1="38.1511" y1="0.0195313" x2="55.7264" y2="4.56378" gradientUnits="userSpaceOnUse">
<stop stop-color="#0038F5"/>
<stop offset="1" stop-color="#9F03FF"/>
</linearGradient>
<linearGradient id="paint1_linear_3442_18986" x1="12.4068" y1="3.78987" x2="16.7169" y2="8.98343" gradientUnits="userSpaceOnUse">
<stop stop-color="#0038F5"/>
<stop offset="1" stop-color="#9F03FF"/>
</linearGradient>
<linearGradient id="paint2_linear_3442_18986" x1="30.8182" y1="1.33046" x2="40.2746" y2="6.12277" gradientUnits="userSpaceOnUse">
<stop stop-color="#0000EB"/>
<stop offset="0.865143" stop-color="#004BFB"/>
</linearGradient>
<linearGradient id="paint3_linear_3442_18986" x1="30.8002" y1="2.88089" x2="39.7707" y2="7.49473" gradientUnits="userSpaceOnUse">
<stop/>
<stop offset="0.865143" stop-color="white"/>
</linearGradient>
<linearGradient id="paint4_linear_3442_18986" x1="28.7952" y1="10.9166" x2="36.6517" y2="5.78897" gradientUnits="userSpaceOnUse">
<stop stop-color="#0006EA"/>
<stop offset="1" stop-color="#9F03FF"/>
</linearGradient>
<linearGradient id="paint5_linear_3442_18986" x1="42.254" y1="5.59904" x2="49.5658" y2="12.3614" gradientUnits="userSpaceOnUse">
<stop stop-color="#1630F6"/>
<stop offset="0.865143" stop-color="#004BFB"/>
</linearGradient>
<linearGradient id="paint6_linear_3442_18986" x1="40.7084" y1="9.39855" x2="40.7084" y2="10.8352" gradientUnits="userSpaceOnUse">
<stop/>
<stop offset="1" stop-opacity="0"/>
</linearGradient>
<linearGradient id="paint7_linear_3442_18986" x1="7.6568" y1="1.78692" x2="32.5704" y2="8.02287" gradientUnits="userSpaceOnUse">
<stop stop-color="#0000EB"/>
<stop offset="0.865143" stop-color="#004BFB"/>
</linearGradient>
</defs>
</svg>
