<svg width="52" height="24" viewBox="0 0 52 24" fill="none" xmlns="http://www.w3.org/2000/svg">
<path fill-rule="evenodd" clip-rule="evenodd" d="M43.2739 16.0865C43.5033 17.4777 45.3188 18.2236 46.5181 16.7739C47.4177 15.6865 49.0286 15.5342 50.116 16.4339C51.2035 17.3335 51.3557 18.9443 50.4561 20.0318C46.2452 25.1218 38.4323 22.3852 38.1665 15.9662C38.1565 15.8752 38.1514 15.7853 38.1514 15.697L38.163 2.41405C38.163 1.09159 39.3071 0.0195312 40.7184 0.0195312C42.1298 0.0195312 43.2739 1.0916 43.2739 2.41406L43.2739 16.0865Z" fill="url(#paint0_linear_3442_19044)"/>
<path fill-rule="evenodd" clip-rule="evenodd" d="M13.8327 1.93984C15.055 2.64551 15.4738 4.20841 14.7681 5.43066L5.75836 21.036C5.05269 22.2582 3.4898 22.677 2.26754 21.9713C1.04528 21.2657 0.626505 19.7028 1.33218 18.4805L10.3419 2.8752C11.0476 1.65295 12.6105 1.23417 13.8327 1.93984Z" fill="url(#paint1_linear_3442_19044)"/>
<path fill-rule="evenodd" clip-rule="evenodd" d="M27.9353 22.4463C26.5239 22.4463 25.3798 21.3022 25.3798 19.8908L25.3798 6.28671C25.3798 4.87537 26.5239 3.73125 27.9353 3.73125C29.3466 3.73125 30.4907 4.87537 30.4907 6.28671L30.4907 19.8908C30.4907 21.3022 29.3466 22.4463 27.9353 22.4463Z" fill="url(#paint2_linear_3442_19044)"/>
<g style="mix-blend-mode:soft-light">
<path fill-rule="evenodd" clip-rule="evenodd" d="M27.9353 22.4463C26.5239 22.4463 25.3798 21.3022 25.3798 19.8908L25.3798 6.28671C25.3798 4.87537 26.5239 3.73125 27.9353 3.73125C29.3466 3.73125 30.4907 4.87537 30.4907 6.28671L30.4907 19.8908C30.4907 21.3022 29.3466 22.4463 27.9353 22.4463Z" fill="url(#paint3_linear_3442_19044)"/>
</g>
<path fill-rule="evenodd" clip-rule="evenodd" d="M30.0789 12.2708L29.1391 12.29L25.3774 12.2648C25.4116 11.3049 25.9867 9.51885 26.4224 8.683C26.8778 7.80935 27.5253 6.91015 28.3447 6.13859C29.9928 4.5867 32.6092 3.35702 35.6514 4.49761C36.8628 4.95178 37.4767 6.30198 37.0225 7.51337C36.5683 8.72476 35.2181 9.33861 34.0067 8.88444C33.153 8.56435 32.3605 8.79234 31.5565 9.54943C31.1498 9.93236 30.8118 10.2582 30.5769 10.8486C30.4625 11.395 30.4881 12.2644 30.4881 12.2644L30.0789 12.2708Z" fill="url(#paint4_linear_3442_19044)"/>
<path fill-rule="evenodd" clip-rule="evenodd" d="M38.1514 6.82634L38.1514 4.66211L46.561 4.66219C47.5181 4.66219 48.8011 5.58944 48.8011 6.88317C48.915 8.1243 47.8988 9.3472 46.561 9.3472H38.1633L38.1514 6.82634Z" fill="url(#paint5_linear_3442_19044)"/>
<g style="mix-blend-mode:overlay">
<path d="M38.1621 9.36816H43.2543L43.2543 11.023H38.1621V9.36816Z" fill="url(#paint6_linear_3442_19044)"/>
</g>
<path fill-rule="evenodd" clip-rule="evenodd" d="M10.1879 3.1985C10.3936 2.68637 10.766 2.23682 11.281 1.93947C12.5033 1.2338 14.0661 1.65258 14.7718 2.87484L23.7815 18.4801C24.4872 19.7024 24.0684 21.2653 22.8462 21.971C21.6239 22.6766 20.061 22.2579 19.3554 21.0356L12.5253 9.20562L12.5624 9.30103C11.2072 6.60846 9.115 6.32153 8.23828 6.51463L10.1774 3.17158L10.1879 3.1985Z" fill="url(#paint7_linear_3442_19044)"/>
<defs>
<linearGradient id="paint0_linear_3442_19044" x1="38.1514" y1="0.0195313" x2="55.7266" y2="4.56378" gradientUnits="userSpaceOnUse">
<stop stop-color="#0038F5"/>
<stop offset="1" stop-color="#9F03FF"/>
</linearGradient>
<linearGradient id="paint1_linear_3442_19044" x1="12.4066" y1="3.78987" x2="16.7167" y2="8.98343" gradientUnits="userSpaceOnUse">
<stop stop-color="#0038F5"/>
<stop offset="1" stop-color="#9F03FF"/>
</linearGradient>
<linearGradient id="paint2_linear_3442_19044" x1="30.8182" y1="1.33046" x2="40.2746" y2="6.12277" gradientUnits="userSpaceOnUse">
<stop stop-color="#0000EB"/>
<stop offset="0.865143" stop-color="#004BFB"/>
</linearGradient>
<linearGradient id="paint3_linear_3442_19044" x1="30.8002" y1="2.88089" x2="39.7707" y2="7.49473" gradientUnits="userSpaceOnUse">
<stop/>
<stop offset="0.865143" stop-color="white"/>
</linearGradient>
<linearGradient id="paint4_linear_3442_19044" x1="28.7952" y1="10.9166" x2="36.6517" y2="5.78897" gradientUnits="userSpaceOnUse">
<stop stop-color="#0006EA"/>
<stop offset="1" stop-color="#9F03FF"/>
</linearGradient>
<linearGradient id="paint5_linear_3442_19044" x1="42.2542" y1="5.59904" x2="49.566" y2="12.3614" gradientUnits="userSpaceOnUse">
<stop stop-color="#1630F6"/>
<stop offset="0.865143" stop-color="#004BFB"/>
</linearGradient>
<linearGradient id="paint6_linear_3442_19044" x1="40.7082" y1="9.39855" x2="40.7082" y2="10.8352" gradientUnits="userSpaceOnUse">
<stop/>
<stop offset="1" stop-opacity="0"/>
</linearGradient>
<linearGradient id="paint7_linear_3442_19044" x1="7.65705" y1="1.78692" x2="32.5707" y2="8.02287" gradientUnits="userSpaceOnUse">
<stop stop-color="#0000EB"/>
<stop offset="0.865143" stop-color="#004BFB"/>
</linearGradient>
</defs>
</svg>
