<svg width="52" height="24" viewBox="0 0 52 24" fill="none" xmlns="http://www.w3.org/2000/svg">
<path fill-rule="evenodd" clip-rule="evenodd" d="M43.2729 16.6022C43.5023 17.9933 45.3178 18.7393 46.5171 17.2896C47.4168 16.2021 49.0276 16.0499 50.1151 16.9495C51.2025 17.8491 51.3548 19.46 50.4551 20.5474C46.2442 25.6374 38.4313 22.9008 38.1656 16.4818C38.1555 16.3908 38.1504 16.3009 38.1504 16.2127L38.162 2.92968C38.162 1.60722 39.3061 0.535156 40.7175 0.535156C42.1288 0.535156 43.2729 1.60723 43.2729 2.92969L43.2729 16.6022Z" fill="url(#paint0_linear_3442_18686)"/>
<path fill-rule="evenodd" clip-rule="evenodd" d="M13.8322 2.45546C15.0545 3.16114 15.4733 4.72403 14.7676 5.94629L5.75787 21.5516C5.0522 22.7738 3.48931 23.1926 2.26705 22.4869C1.04479 21.7813 0.626016 20.2184 1.33169 18.9961L10.3414 3.39083C11.0471 2.16857 12.61 1.74979 13.8322 2.45546Z" fill="url(#paint1_linear_3442_18686)"/>
<path fill-rule="evenodd" clip-rule="evenodd" d="M27.9348 22.9619C26.5234 22.9619 25.3793 21.8178 25.3793 20.4065L25.3793 6.80234C25.3793 5.391 26.5234 4.24688 27.9348 4.24688C29.3461 4.24688 30.4902 5.391 30.4902 6.80234L30.4902 20.4065C30.4902 21.8178 29.3461 22.9619 27.9348 22.9619Z" fill="url(#paint2_linear_3442_18686)"/>
<g style="mix-blend-mode:soft-light">
<path fill-rule="evenodd" clip-rule="evenodd" d="M27.9348 22.9619C26.5234 22.9619 25.3793 21.8178 25.3793 20.4065L25.3793 6.80234C25.3793 5.391 26.5234 4.24688 27.9348 4.24688C29.3461 4.24688 30.4902 5.391 30.4902 6.80234L30.4902 20.4065C30.4902 21.8178 29.3461 22.9619 27.9348 22.9619Z" fill="url(#paint3_linear_3442_18686)"/>
</g>
<path fill-rule="evenodd" clip-rule="evenodd" d="M30.0784 12.7865L29.1386 12.8056L25.377 12.7804C25.4111 11.8205 25.9862 10.0345 26.4219 9.19862C26.8773 8.32497 27.5249 7.42578 28.3442 6.65421C29.9923 5.10233 32.6087 3.87265 35.6509 5.01323C36.8623 5.4674 37.4762 6.81761 37.022 8.029C36.5678 9.24039 35.2176 9.85424 34.0062 9.40007C33.1525 9.07997 32.36 9.30796 31.556 10.0651C31.1494 10.448 30.8113 10.7738 30.5764 11.3642C30.462 11.9106 30.4876 12.7801 30.4876 12.7801L30.0784 12.7865Z" fill="url(#paint4_linear_3442_18686)"/>
<path fill-rule="evenodd" clip-rule="evenodd" d="M38.1504 7.34197L38.1504 5.17773L46.56 5.17782C47.5171 5.17782 48.8001 6.10506 48.8001 7.39879C48.914 8.63993 47.8978 9.86283 46.56 9.86283H38.1623L38.1504 7.34197Z" fill="url(#paint5_linear_3442_18686)"/>
<g style="mix-blend-mode:overlay">
<path d="M38.1621 9.88379H43.2543L43.2543 11.5386H38.1621V9.88379Z" fill="url(#paint6_linear_3442_18686)"/>
</g>
<path fill-rule="evenodd" clip-rule="evenodd" d="M10.1879 3.71413C10.3936 3.20199 10.766 2.75245 11.281 2.4551C12.5033 1.74943 14.0661 2.1682 14.7718 3.39046L23.7815 18.9958C24.4872 20.218 24.0684 21.7809 22.8462 22.4866C21.6239 23.1923 20.061 22.7735 19.3554 21.5512L12.5253 9.72124L12.5624 9.81666C11.2072 7.12408 9.115 6.83715 8.23828 7.03026L10.1774 3.68721L10.1879 3.71413Z" fill="url(#paint7_linear_3442_18686)"/>
<defs>
<linearGradient id="paint0_linear_3442_18686" x1="38.1504" y1="0.535156" x2="55.7256" y2="5.0794" gradientUnits="userSpaceOnUse">
<stop stop-color="#0038F5"/>
<stop offset="1" stop-color="#9F03FF"/>
</linearGradient>
<linearGradient id="paint1_linear_3442_18686" x1="12.4061" y1="4.30549" x2="16.7162" y2="9.49906" gradientUnits="userSpaceOnUse">
<stop stop-color="#0038F5"/>
<stop offset="1" stop-color="#9F03FF"/>
</linearGradient>
<linearGradient id="paint2_linear_3442_18686" x1="30.8177" y1="1.84609" x2="40.2741" y2="6.63839" gradientUnits="userSpaceOnUse">
<stop stop-color="#0000EB"/>
<stop offset="0.865143" stop-color="#004BFB"/>
</linearGradient>
<linearGradient id="paint3_linear_3442_18686" x1="30.7997" y1="3.39651" x2="39.7702" y2="8.01036" gradientUnits="userSpaceOnUse">
<stop/>
<stop offset="0.865143" stop-color="white"/>
</linearGradient>
<linearGradient id="paint4_linear_3442_18686" x1="28.7947" y1="11.4322" x2="36.6512" y2="6.30459" gradientUnits="userSpaceOnUse">
<stop stop-color="#0006EA"/>
<stop offset="1" stop-color="#9F03FF"/>
</linearGradient>
<linearGradient id="paint5_linear_3442_18686" x1="42.2533" y1="6.11467" x2="49.5651" y2="12.877" gradientUnits="userSpaceOnUse">
<stop stop-color="#1630F6"/>
<stop offset="0.865143" stop-color="#004BFB"/>
</linearGradient>
<linearGradient id="paint6_linear_3442_18686" x1="40.7082" y1="9.91417" x2="40.7082" y2="11.3508" gradientUnits="userSpaceOnUse">
<stop/>
<stop offset="1" stop-opacity="0"/>
</linearGradient>
<linearGradient id="paint7_linear_3442_18686" x1="7.65705" y1="2.30255" x2="32.5707" y2="8.5385" gradientUnits="userSpaceOnUse">
<stop stop-color="#0000EB"/>
<stop offset="0.865143" stop-color="#004BFB"/>
</linearGradient>
</defs>
</svg>
