<svg width="52" height="24" viewBox="0 0 52 24" fill="none" xmlns="http://www.w3.org/2000/svg">
<path fill-rule="evenodd" clip-rule="evenodd" d="M43.2735 16.6023C43.5029 17.9934 45.3184 18.7394 46.5177 17.2897C47.4174 16.2023 49.0282 16.05 50.1157 16.9496C51.2031 17.8493 51.3554 19.4601 50.4557 20.5476C46.2448 25.6376 38.4319 22.901 38.1662 16.4819C38.1561 16.391 38.151 16.3011 38.151 16.2128L38.1626 2.92983C38.1626 1.60737 39.3067 0.535309 40.7181 0.535309C42.1294 0.535309 43.2735 1.60738 43.2735 2.92984L43.2735 16.6023Z" fill="url(#paint0_linear_3442_19654)"/>
<path fill-rule="evenodd" clip-rule="evenodd" d="M13.8328 2.4553C15.0551 3.16097 15.4739 4.72386 14.7682 5.94612L5.75849 21.5514C5.05281 22.7737 3.48992 23.1925 2.26766 22.4868C1.0454 21.7811 0.626627 20.2182 1.3323 18.996L10.342 3.39066C11.0477 2.1684 12.6106 1.74963 13.8328 2.4553Z" fill="url(#paint1_linear_3442_19654)"/>
<path fill-rule="evenodd" clip-rule="evenodd" d="M27.9351 22.9625C26.5238 22.9625 25.3797 21.8184 25.3797 20.4071L25.3797 6.80296C25.3797 5.39162 26.5238 4.2475 27.9351 4.2475C29.3465 4.2475 30.4906 5.39162 30.4906 6.80296L30.4906 20.4071C30.4906 21.8184 29.3465 22.9625 27.9351 22.9625Z" fill="url(#paint2_linear_3442_19654)"/>
<g style="mix-blend-mode:soft-light">
<path fill-rule="evenodd" clip-rule="evenodd" d="M27.9351 22.9625C26.5238 22.9625 25.3797 21.8184 25.3797 20.4071L25.3797 6.80296C25.3797 5.39162 26.5238 4.2475 27.9351 4.2475C29.3465 4.2475 30.4906 5.39162 30.4906 6.80296L30.4906 20.4071C30.4906 21.8184 29.3465 22.9625 27.9351 22.9625Z" fill="url(#paint3_linear_3442_19654)"/>
</g>
<path fill-rule="evenodd" clip-rule="evenodd" d="M30.0789 12.7865L29.1391 12.8057L25.3774 12.7804C25.4116 11.8206 25.9867 10.0345 26.4224 9.19868C26.8778 8.32503 27.5253 7.42584 28.3447 6.65428C29.9928 5.10239 32.6092 3.87271 35.6514 5.0133C36.8628 5.46746 37.4767 6.81767 37.0225 8.02906C36.5683 9.24045 35.2181 9.8543 34.0067 9.40013C33.153 9.08003 32.3605 9.30802 31.5565 10.0651C31.1498 10.448 30.8118 10.7739 30.5769 11.3643C30.4625 11.9106 30.4881 12.7801 30.4881 12.7801L30.0789 12.7865Z" fill="url(#paint4_linear_3442_19654)"/>
<path fill-rule="evenodd" clip-rule="evenodd" d="M38.151 7.34205L38.151 5.17781L46.5606 5.17789C47.5178 5.17789 48.8007 6.10514 48.8007 7.39887C48.9146 8.64001 47.8984 9.8629 46.5606 9.8629H38.1629L38.151 7.34205Z" fill="url(#paint5_linear_3442_19654)"/>
<g style="mix-blend-mode:overlay">
<path d="M38.1622 9.8837H43.2544L43.2544 11.5386H38.1622V9.8837Z" fill="url(#paint6_linear_3442_19654)"/>
</g>
<path fill-rule="evenodd" clip-rule="evenodd" d="M10.1877 3.71451C10.3934 3.20238 10.7657 2.75283 11.2807 2.45548C12.503 1.74981 14.0659 2.16859 14.7716 3.39084L23.7813 18.9961C24.487 20.2184 24.0682 21.7813 22.8459 22.487C21.6237 23.1926 20.0608 22.7739 19.3551 21.5516L12.5251 9.72162L12.5622 9.81704C11.207 7.12447 9.11476 6.83753 8.23804 7.03064L10.1772 3.68759L10.1877 3.71451Z" fill="url(#paint7_linear_3442_19654)"/>
<defs>
<linearGradient id="paint0_linear_3442_19654" x1="38.151" y1="0.535309" x2="55.7262" y2="5.07955" gradientUnits="userSpaceOnUse">
<stop stop-color="#0038F5"/>
<stop offset="1" stop-color="#9F03FF"/>
</linearGradient>
<linearGradient id="paint1_linear_3442_19654" x1="12.4067" y1="4.30533" x2="16.7168" y2="9.49889" gradientUnits="userSpaceOnUse">
<stop stop-color="#0038F5"/>
<stop offset="1" stop-color="#9F03FF"/>
</linearGradient>
<linearGradient id="paint2_linear_3442_19654" x1="30.8181" y1="1.84671" x2="40.2745" y2="6.63902" gradientUnits="userSpaceOnUse">
<stop stop-color="#0000EB"/>
<stop offset="0.865143" stop-color="#004BFB"/>
</linearGradient>
<linearGradient id="paint3_linear_3442_19654" x1="30.8001" y1="3.39714" x2="39.7706" y2="8.01098" gradientUnits="userSpaceOnUse">
<stop/>
<stop offset="0.865143" stop-color="white"/>
</linearGradient>
<linearGradient id="paint4_linear_3442_19654" x1="28.7952" y1="11.4323" x2="36.6517" y2="6.30466" gradientUnits="userSpaceOnUse">
<stop stop-color="#0006EA"/>
<stop offset="1" stop-color="#9F03FF"/>
</linearGradient>
<linearGradient id="paint5_linear_3442_19654" x1="42.2539" y1="6.11474" x2="49.5657" y2="12.8771" gradientUnits="userSpaceOnUse">
<stop stop-color="#1630F6"/>
<stop offset="0.865143" stop-color="#004BFB"/>
</linearGradient>
<linearGradient id="paint6_linear_3442_19654" x1="40.7083" y1="9.91408" x2="40.7083" y2="11.3507" gradientUnits="userSpaceOnUse">
<stop/>
<stop offset="1" stop-opacity="0"/>
</linearGradient>
<linearGradient id="paint7_linear_3442_19654" x1="7.6568" y1="2.30293" x2="32.5704" y2="8.53888" gradientUnits="userSpaceOnUse">
<stop stop-color="#0000EB"/>
<stop offset="0.865143" stop-color="#004BFB"/>
</linearGradient>
</defs>
</svg>
