<svg width="52" height="24" viewBox="0 0 52 24" fill="none" xmlns="http://www.w3.org/2000/svg">
<path fill-rule="evenodd" clip-rule="evenodd" d="M43.2736 16.6023C43.5031 17.9934 45.3185 18.7394 46.5179 17.2897C47.4175 16.2022 49.0283 16.05 50.1158 16.9496C51.2032 17.8492 51.3555 19.4601 50.4559 20.5475C46.245 25.6376 38.4321 22.9009 38.1663 16.4819C38.1563 16.391 38.1511 16.301 38.1511 16.2128L38.1627 2.9298C38.1627 1.60734 39.3068 0.535278 40.7182 0.535278C42.1295 0.535278 43.2736 1.60735 43.2736 2.92981L43.2736 16.6023Z" fill="url(#paint0_linear_3442_19690)"/>
<path fill-rule="evenodd" clip-rule="evenodd" d="M13.833 2.45528C15.0552 3.16095 15.474 4.72385 14.7683 5.94611L5.75861 21.5514C5.05294 22.7737 3.49004 23.1924 2.26778 22.4868C1.04553 21.7811 0.626749 20.2182 1.33242 18.9959L10.3421 3.39064C11.0478 2.16839 12.6107 1.74961 13.833 2.45528Z" fill="url(#paint1_linear_3442_19690)"/>
<path fill-rule="evenodd" clip-rule="evenodd" d="M27.9353 22.9625C26.5239 22.9625 25.3798 21.8184 25.3798 20.4071L25.3798 6.80295C25.3798 5.39161 26.5239 4.24749 27.9353 4.24749C29.3466 4.24749 30.4907 5.39161 30.4907 6.80295L30.4907 20.4071C30.4907 21.8184 29.3466 22.9625 27.9353 22.9625Z" fill="url(#paint2_linear_3442_19690)"/>
<g style="mix-blend-mode:soft-light">
<path fill-rule="evenodd" clip-rule="evenodd" d="M27.9353 22.9625C26.5239 22.9625 25.3798 21.8184 25.3798 20.4071L25.3798 6.80295C25.3798 5.39161 26.5239 4.24749 27.9353 4.24749C29.3466 4.24749 30.4907 5.39161 30.4907 6.80295L30.4907 20.4071C30.4907 21.8184 29.3466 22.9625 27.9353 22.9625Z" fill="url(#paint3_linear_3442_19690)"/>
</g>
<path fill-rule="evenodd" clip-rule="evenodd" d="M30.0789 12.7865L29.1391 12.8056L25.3774 12.7804C25.4116 11.8205 25.9867 10.0345 26.4224 9.19862C26.8778 8.32497 27.5253 7.42578 28.3447 6.65421C29.9928 5.10233 32.6092 3.87265 35.6514 5.01323C36.8628 5.4674 37.4767 6.81761 37.0225 8.029C36.5683 9.24039 35.2181 9.85424 34.0067 9.40007C33.153 9.07997 32.3605 9.30796 31.5565 10.0651C31.1498 10.448 30.8118 10.7738 30.5769 11.3642C30.4625 11.9106 30.4881 12.7801 30.4881 12.7801L30.0789 12.7865Z" fill="url(#paint4_linear_3442_19690)"/>
<path fill-rule="evenodd" clip-rule="evenodd" d="M38.1511 7.34203L38.1511 5.1778L46.5608 5.17788C47.5179 5.17788 48.8008 6.10512 48.8008 7.39885C48.9147 8.63999 47.8986 9.86289 46.5608 9.86289H38.163L38.1511 7.34203Z" fill="url(#paint5_linear_3442_19690)"/>
<g style="mix-blend-mode:overlay">
<path d="M38.1624 9.88367H43.2545L43.2545 11.5385H38.1624V9.88367Z" fill="url(#paint6_linear_3442_19690)"/>
</g>
<path fill-rule="evenodd" clip-rule="evenodd" d="M10.1877 3.71449C10.3934 3.20236 10.7657 2.75281 11.2807 2.45546C12.503 1.74979 14.0659 2.16857 14.7716 3.39083L23.7813 18.9961C24.487 20.2184 24.0682 21.7813 22.8459 22.4869C21.6237 23.1926 20.0608 22.7738 19.3551 21.5516L12.5251 9.72161L12.5622 9.81702C11.207 7.12445 9.11476 6.83752 8.23804 7.03062L10.1772 3.68758L10.1877 3.71449Z" fill="url(#paint7_linear_3442_19690)"/>
<defs>
<linearGradient id="paint0_linear_3442_19690" x1="38.1511" y1="0.535278" x2="55.7264" y2="5.07952" gradientUnits="userSpaceOnUse">
<stop stop-color="#0038F5"/>
<stop offset="1" stop-color="#9F03FF"/>
</linearGradient>
<linearGradient id="paint1_linear_3442_19690" x1="12.4068" y1="4.30531" x2="16.7169" y2="9.49887" gradientUnits="userSpaceOnUse">
<stop stop-color="#0038F5"/>
<stop offset="1" stop-color="#9F03FF"/>
</linearGradient>
<linearGradient id="paint2_linear_3442_19690" x1="30.8182" y1="1.8467" x2="40.2746" y2="6.639" gradientUnits="userSpaceOnUse">
<stop stop-color="#0000EB"/>
<stop offset="0.865143" stop-color="#004BFB"/>
</linearGradient>
<linearGradient id="paint3_linear_3442_19690" x1="30.8002" y1="3.39712" x2="39.7707" y2="8.01097" gradientUnits="userSpaceOnUse">
<stop/>
<stop offset="0.865143" stop-color="white"/>
</linearGradient>
<linearGradient id="paint4_linear_3442_19690" x1="28.7952" y1="11.4322" x2="36.6517" y2="6.30459" gradientUnits="userSpaceOnUse">
<stop stop-color="#0006EA"/>
<stop offset="1" stop-color="#9F03FF"/>
</linearGradient>
<linearGradient id="paint5_linear_3442_19690" x1="42.254" y1="6.11473" x2="49.5658" y2="12.877" gradientUnits="userSpaceOnUse">
<stop stop-color="#1630F6"/>
<stop offset="0.865143" stop-color="#004BFB"/>
</linearGradient>
<linearGradient id="paint6_linear_3442_19690" x1="40.7084" y1="9.91405" x2="40.7084" y2="11.3507" gradientUnits="userSpaceOnUse">
<stop/>
<stop offset="1" stop-opacity="0"/>
</linearGradient>
<linearGradient id="paint7_linear_3442_19690" x1="7.6568" y1="2.30292" x2="32.5704" y2="8.53886" gradientUnits="userSpaceOnUse">
<stop stop-color="#0000EB"/>
<stop offset="0.865143" stop-color="#004BFB"/>
</linearGradient>
</defs>
</svg>
