<svg width="21" height="20" viewBox="0 0 21 20" fill="none" xmlns="http://www.w3.org/2000/svg">
<path d="M5.73306 2.5L19.0664 15.8333" stroke="#888888" stroke-width="2"/>
<path fill-rule="evenodd" clip-rule="evenodd" d="M18.4866 9.91494C17.1542 7.59426 15.2764 5.93414 13.174 5.20909L13.826 3.31836C16.4729 4.23117 18.6982 6.26677 20.221 8.91912C20.6394 9.64771 20.739 10.5034 20.5202 11.2924L18.5929 10.7581C18.6707 10.4776 18.6352 10.1737 18.4866 9.91494ZM7.89619 5.35779C5.95474 6.14638 4.22742 7.74182 2.97971 9.91501C2.78455 10.2549 2.78455 10.6726 2.97972 11.0125C4.81051 14.2013 7.65277 16.1304 10.7331 16.1304C12.9206 16.1304 14.9738 15.1643 16.6433 13.4657L18.0697 14.8677C16.0893 16.8825 13.5433 18.1304 10.7331 18.1304C6.75354 18.1304 3.33112 15.6413 1.24526 12.0083C0.696041 11.0518 0.696038 9.87579 1.24525 8.9192C2.67226 6.43371 4.71469 4.49139 7.14352 3.50481L7.89619 5.35779Z" fill="#888888"/>
<path d="M13.1577 9.85448C13.29 10.381 13.2473 10.9363 13.0361 11.4364C12.8249 11.9366 12.4567 12.3543 11.987 12.6267C11.5173 12.899 10.9718 13.011 10.4328 12.9458C9.89385 12.8806 9.39075 12.6417 8.99957 12.2653C8.60838 11.8888 8.35036 11.3953 8.26452 10.8592C8.17867 10.3231 8.26966 9.77368 8.52372 9.2939C8.77779 8.81412 9.18114 8.43009 9.67279 8.19984C10.1644 7.96959 10.7177 7.90564 11.2489 8.01766" stroke="#888888" stroke-width="2"/>
</svg>
