<svg width="21" height="20" viewBox="0 0 21 20" fill="none" xmlns="http://www.w3.org/2000/svg">
<path d="M5.73308 2.5L19.0664 15.8333" stroke="#888888" stroke-width="2"/>
<path fill-rule="evenodd" clip-rule="evenodd" d="M18.4866 9.91488C17.1542 7.59419 15.2764 5.93408 13.174 5.20902L13.826 3.3183C16.4729 4.2311 18.6982 6.26671 20.221 8.91906C20.6393 9.64764 20.739 10.5034 20.5202 11.2924L18.5929 10.7581C18.6707 10.4776 18.6351 10.1736 18.4866 9.91488ZM7.89617 5.35772C5.95473 6.14632 4.2274 7.74175 2.9797 9.91495C2.78454 10.2549 2.78454 10.6725 2.9797 11.0125C4.8105 14.2012 7.65275 16.1304 10.7331 16.1304C12.9206 16.1304 14.9738 15.1642 16.6433 13.4657L18.0697 14.8676C16.0893 16.8825 13.5433 18.1304 10.7331 18.1304C6.75352 18.1304 3.33111 15.6413 1.24525 12.0083C0.696026 11.0517 0.696022 9.87573 1.24524 8.91913C2.67224 6.43365 4.71467 4.49133 7.14351 3.50475L7.89617 5.35772Z" fill="#888888"/>
<path d="M13.1577 9.85428C13.29 10.3808 13.2473 10.9361 13.0361 11.4362C12.8249 11.9364 12.4567 12.3541 11.987 12.6264C11.5173 12.8988 10.9718 13.0108 10.4328 12.9456C9.89387 12.8804 9.39077 12.6415 8.99958 12.265C8.60839 11.8886 8.35038 11.3951 8.26453 10.859C8.17868 10.3229 8.26967 9.77347 8.52374 9.2937C8.77781 8.81392 9.18115 8.42988 9.67281 8.19964C10.1645 7.96939 10.7177 7.90544 11.2489 8.01746" stroke="#888888" stroke-width="2"/>
</svg>
