<svg width="16" height="16" viewBox="0 0 16 16" fill="none" xmlns="http://www.w3.org/2000/svg">
<path d="M12.6668 6.66664V7.99997C12.6668 9.23765 12.1752 10.4246 11.3 11.2998C10.4248 12.175 9.23784 12.6666 8.00016 12.6666M8.00016 12.6666C6.76249 12.6666 5.5755 12.175 4.70033 11.2998C3.82516 10.4246 3.3335 9.23765 3.3335 7.99997V6.66664M8.00016 12.6666V15.3333M5.3335 15.3333H10.6668M8.00016 0.666641C7.46973 0.666641 6.96102 0.877355 6.58595 1.25243C6.21088 1.6275 6.00016 2.13621 6.00016 2.66664V7.99997C6.00016 8.53041 6.21088 9.03911 6.58595 9.41419C6.96102 9.78926 7.46973 9.99997 8.00016 9.99997C8.5306 9.99997 9.0393 9.78926 9.41438 9.41419C9.78945 9.03911 10.0002 8.53041 10.0002 7.99997V2.66664C10.0002 2.13621 9.78945 1.6275 9.41438 1.25243C9.0393 0.877355 8.5306 0.666641 8.00016 0.666641Z" stroke="#F8F8F8" stroke-linecap="round" stroke-linejoin="round"/>
</svg>
