<svg width="16" height="16" viewBox="0 0 16 16" fill="none" xmlns="http://www.w3.org/2000/svg">
<path d="M12.6668 6.66699V8.00033C12.6668 9.238 12.1752 10.425 11.3 11.3002C10.4248 12.1753 9.23784 12.667 8.00016 12.667M8.00016 12.667C6.76249 12.667 5.5755 12.1753 4.70033 11.3002C3.82516 10.425 3.3335 9.238 3.3335 8.00033V6.66699M8.00016 12.667V15.3337M5.3335 15.3337H10.6668M8.00016 0.666992C7.46973 0.666992 6.96102 0.877706 6.58595 1.25278C6.21088 1.62785 6.00016 2.13656 6.00016 2.66699V8.00033C6.00016 8.53076 6.21088 9.03947 6.58595 9.41454C6.96102 9.78961 7.46973 10.0003 8.00016 10.0003C8.5306 10.0003 9.0393 9.78961 9.41438 9.41454C9.78945 9.03947 10.0002 8.53076 10.0002 8.00033V2.66699C10.0002 2.13656 9.78945 1.62785 9.41438 1.25278C9.0393 0.877706 8.5306 0.666992 8.00016 0.666992Z" stroke="#0E0F0F" stroke-linecap="round" stroke-linejoin="round"/>
</svg>
