<svg width="25" height="24" viewBox="0 0 25 24" fill="none" xmlns="http://www.w3.org/2000/svg">
<path fill-rule="evenodd" clip-rule="evenodd" d="M8.64123 2.69617C9.63935 2.65023 9.95758 2.64001 12.5001 2.64001C15.0426 2.64001 15.3608 2.65108 16.3581 2.69617C17.3553 2.74127 18.0361 2.90039 18.6317 3.13099C19.2554 3.36669 19.8213 3.73513 20.2893 4.21164C20.7658 4.67878 21.1334 5.24378 21.3682 5.86835C21.5997 6.46398 21.7579 7.1447 21.8039 8.14026C21.8498 9.14007 21.86 9.45831 21.86 12C21.86 14.5425 21.849 14.8607 21.8039 15.8588C21.7588 16.8544 21.5997 17.5351 21.3682 18.1307C21.1334 18.7554 20.7652 19.3213 20.2893 19.7891C19.8213 20.2656 19.2554 20.6332 18.6317 20.8681C18.0361 21.0995 17.3553 21.2578 16.3598 21.3038C15.3608 21.3497 15.0426 21.3599 12.5001 21.3599C9.95758 21.3599 9.63935 21.3489 8.64123 21.3038C7.64568 21.2587 6.96495 21.0995 6.36932 20.8681C5.74469 20.6332 5.17875 20.265 4.71091 19.7891C4.23472 19.3217 3.86623 18.756 3.63111 18.1316C3.40051 17.5359 3.24225 16.8552 3.1963 15.8597C3.15035 14.8599 3.14014 14.5416 3.14014 12C3.14014 9.45746 3.1512 9.13922 3.1963 8.14196C3.24139 7.1447 3.40051 6.46398 3.63111 5.86835C3.86657 5.24385 4.23535 4.6782 4.71176 4.21078C5.17894 3.7347 5.74431 3.36621 6.36847 3.13099C6.9641 2.90039 7.64482 2.74212 8.64038 2.69617H8.64123ZM16.2824 4.38097C15.2953 4.33587 14.9992 4.32651 12.5001 4.32651C10.001 4.32651 9.70486 4.33587 8.71782 4.38097C7.80479 4.42266 7.30957 4.57497 6.97942 4.70346C6.5429 4.87364 6.23062 5.0753 5.90302 5.4029C5.59248 5.70502 5.35349 6.0728 5.20358 6.4793C5.07509 6.80945 4.92278 7.30467 4.88109 8.21769C4.83599 9.20474 4.82663 9.50086 4.82663 12C4.82663 14.4991 4.83599 14.7952 4.88109 15.7822C4.92278 16.6953 5.07509 17.1905 5.20358 17.5206C5.35334 17.9265 5.59244 18.295 5.90302 18.597C6.20509 18.9076 6.57354 19.1467 6.97942 19.2965C7.30957 19.425 7.80479 19.5773 8.71782 19.619C9.70486 19.6641 10.0001 19.6734 12.5001 19.6734C15 19.6734 15.2953 19.6641 16.2824 19.619C17.1954 19.5773 17.6906 19.425 18.0208 19.2965C18.4573 19.1263 18.7696 18.9246 19.0971 18.597C19.4077 18.295 19.6468 17.9265 19.7966 17.5206C19.9251 17.1905 20.0774 16.6953 20.1191 15.7822C20.1642 14.7952 20.1735 14.4991 20.1735 12C20.1735 9.50086 20.1642 9.20474 20.1191 8.21769C20.0774 7.30467 19.9251 6.80945 19.7966 6.4793C19.6264 6.04278 19.4247 5.7305 19.0971 5.4029C18.795 5.09238 18.4272 4.8534 18.0208 4.70346C17.6906 4.57497 17.1954 4.42266 16.2824 4.38097ZM11.3046 14.8854C11.9722 15.1633 12.7157 15.2008 13.4079 14.9915C14.1002 14.7822 14.6983 14.339 15.1001 13.7377C15.5019 13.1364 15.6825 12.4142 15.611 11.6946C15.5395 10.9749 15.2204 10.3024 14.7082 9.79187C14.3816 9.46552 13.9868 9.21564 13.5521 9.06021C13.1174 8.90478 12.6536 8.84767 12.1942 8.89298C11.7347 8.9383 11.2911 9.08492 10.8951 9.32228C10.4991 9.55964 10.1607 9.88184 9.90423 10.2657C9.64774 10.6495 9.47954 11.0855 9.41174 11.5421C9.34395 11.9988 9.37825 12.4648 9.51217 12.9066C9.64609 13.3484 9.87631 13.755 10.1862 14.0972C10.4962 14.4394 10.8781 14.7085 11.3046 14.8854ZM9.09817 8.59805C9.54492 8.1513 10.0753 7.79692 10.659 7.55515C11.2427 7.31337 11.8683 7.18893 12.5001 7.18893C13.1319 7.18893 13.7575 7.31337 14.3412 7.55515C14.9249 7.79692 15.4553 8.1513 15.902 8.59805C16.3487 9.04479 16.7031 9.57516 16.9449 10.1589C17.1867 10.7426 17.3111 11.3682 17.3111 12C17.3111 12.6318 17.1867 13.2574 16.9449 13.8411C16.7031 14.4248 16.3487 14.9551 15.902 15.4019C14.9998 16.3041 13.7761 16.811 12.5001 16.811C11.2241 16.811 10.0004 16.3041 9.09817 15.4019C8.19593 14.4996 7.68905 13.2759 7.68905 12C7.68905 10.724 8.19593 9.50029 9.09817 8.59805ZM18.3781 7.90541C18.4888 7.80098 18.5775 7.6754 18.6388 7.5361C18.7001 7.3968 18.7328 7.24661 18.735 7.09444C18.7372 6.94227 18.7089 6.79119 18.6517 6.65017C18.5945 6.50914 18.5095 6.38103 18.4019 6.27341C18.2943 6.16579 18.1662 6.08087 18.0252 6.02365C17.8841 5.96644 17.7331 5.9381 17.5809 5.94032C17.4287 5.94254 17.2785 5.97527 17.1392 6.03657C16.9999 6.09787 16.8744 6.1865 16.7699 6.2972C16.5668 6.51251 16.4556 6.79849 16.4599 7.09444C16.4643 7.39039 16.5837 7.67301 16.793 7.8823C17.0023 8.0916 17.2849 8.21108 17.5809 8.21539C17.8768 8.21971 18.1628 8.10851 18.3781 7.90541Z" fill="url(#paint0_linear_3442_5464)"/>
<defs>
<linearGradient id="paint0_linear_3442_5464" x1="3.14014" y1="2.64001" x2="25.7067" y2="12.8962" gradientUnits="userSpaceOnUse">
<stop stop-color="#0038F5"/>
<stop offset="1" stop-color="#9F03FF"/>
</linearGradient>
</defs>
</svg>
