<svg width="24" height="25" viewBox="0 0 24 25" fill="none" xmlns="http://www.w3.org/2000/svg">
<path fill-rule="evenodd" clip-rule="evenodd" d="M8.14123 3.25147C9.13935 3.20552 9.45758 3.19531 12.0001 3.19531C14.5426 3.19531 14.8608 3.20637 15.8581 3.25147C16.8553 3.29657 17.5361 3.45569 18.1317 3.68628C18.7554 3.92198 19.3213 4.29043 19.7893 4.76693C20.2658 5.23408 20.6334 5.79908 20.8682 6.42364C21.0997 7.01928 21.2579 7.7 21.3039 8.69556C21.3498 9.69537 21.36 10.0136 21.36 12.5553C21.36 15.0978 21.349 15.416 21.3039 16.4141C21.2588 17.4097 21.0997 18.0904 20.8682 18.686C20.6334 19.3107 20.2652 19.8766 19.7893 20.3444C19.3213 20.8209 18.7554 21.1885 18.1317 21.4234C17.5361 21.6548 16.8553 21.8131 15.8598 21.8591C14.8608 21.905 14.5426 21.9152 12.0001 21.9152C9.45758 21.9152 9.13935 21.9041 8.14123 21.8591C7.14568 21.814 6.46495 21.6548 5.86932 21.4234C5.24469 21.1885 4.67875 20.8203 4.21091 20.3444C3.73472 19.877 3.36623 19.3113 3.13111 18.6869C2.90051 18.0912 2.74225 17.4105 2.6963 16.415C2.65035 15.4152 2.64014 15.0969 2.64014 12.5553C2.64014 10.0128 2.6512 9.69452 2.6963 8.69726C2.74139 7.7 2.90051 7.01928 3.13111 6.42364C3.36657 5.79915 3.73535 5.2335 4.21176 4.76608C4.67894 4.29 5.24431 3.92151 5.86847 3.68628C6.4641 3.45569 7.14482 3.29742 8.14038 3.25147H8.14123ZM15.7824 4.93626C14.7953 4.89117 14.4992 4.88181 12.0001 4.88181C9.50098 4.88181 9.20486 4.89117 8.21782 4.93626C7.30479 4.97796 6.80957 5.13027 6.47942 5.25876C6.0429 5.42894 5.73062 5.6306 5.40302 5.9582C5.09248 6.26031 4.85349 6.6281 4.70358 7.03459C4.57509 7.36474 4.42278 7.85997 4.38109 8.77299C4.33599 9.76004 4.32663 10.0562 4.32663 12.5553C4.32663 15.0544 4.33599 15.3505 4.38109 16.3375C4.42278 17.2506 4.57509 17.7458 4.70358 18.0759C4.85334 18.4818 5.09244 18.8503 5.40302 19.1523C5.70509 19.4629 6.07354 19.702 6.47942 19.8518C6.80957 19.9803 7.30479 20.1326 8.21782 20.1743C9.20486 20.2194 9.50013 20.2287 12.0001 20.2287C14.5 20.2287 14.7953 20.2194 15.7824 20.1743C16.6954 20.1326 17.1906 19.9803 17.5208 19.8518C17.9573 19.6816 18.2696 19.4799 18.5971 19.1523C18.9077 18.8503 19.1468 18.4818 19.2966 18.0759C19.4251 17.7458 19.5774 17.2506 19.6191 16.3375C19.6642 15.3505 19.6735 15.0544 19.6735 12.5553C19.6735 10.0562 19.6642 9.76004 19.6191 8.77299C19.5774 7.85997 19.4251 7.36474 19.2966 7.03459C19.1264 6.59808 18.9247 6.2858 18.5971 5.9582C18.295 5.64768 17.9272 5.40869 17.5208 5.25876C17.1906 5.13027 16.6954 4.97796 15.7824 4.93626ZM10.8046 15.4407C11.4722 15.7186 12.2157 15.7561 12.9079 15.5468C13.6002 15.3375 14.1983 14.8943 14.6001 14.293C15.0019 13.6917 15.1825 12.9695 15.111 12.2499C15.0395 11.5302 14.7204 10.8577 14.2082 10.3472C13.8816 10.0208 13.4868 9.77094 13.0521 9.61551C12.6174 9.46008 12.1536 9.40297 11.6942 9.44828C11.2347 9.4936 10.7911 9.64021 10.3951 9.87758C9.99915 10.1149 9.66073 10.4371 9.40423 10.821C9.14774 11.2048 8.97954 11.6408 8.91174 12.0974C8.84395 12.5541 8.87825 13.0201 9.01217 13.4619C9.14609 13.9037 9.37631 14.3103 9.68624 14.6525C9.99617 14.9947 10.3781 15.2638 10.8046 15.4407ZM8.59817 9.15335C9.04492 8.7066 9.57528 8.35222 10.159 8.11044C10.7427 7.86867 11.3683 7.74423 12.0001 7.74423C12.6319 7.74423 13.2575 7.86867 13.8412 8.11044C14.4249 8.35222 14.9553 8.7066 15.402 9.15335C15.8487 9.60009 16.2031 10.1305 16.4449 10.7142C16.6867 11.2979 16.8111 11.9235 16.8111 12.5553C16.8111 13.1871 16.6867 13.8127 16.4449 14.3964C16.2031 14.9801 15.8487 15.5104 15.402 15.9572C14.4998 16.8594 13.2761 17.3663 12.0001 17.3663C10.7241 17.3663 9.50041 16.8594 8.59817 15.9572C7.69593 15.0549 7.18905 13.8312 7.18905 12.5553C7.18905 11.2793 7.69593 10.0556 8.59817 9.15335ZM17.8781 8.46071C17.9888 8.35628 18.0775 8.23069 18.1388 8.09139C18.2001 7.9521 18.2328 7.80191 18.235 7.64974C18.2372 7.49756 18.2089 7.34649 18.1517 7.20546C18.0945 7.06444 18.0095 6.93632 17.9019 6.82871C17.7943 6.72109 17.6662 6.63616 17.5252 6.57895C17.3841 6.52173 17.2331 6.4934 17.0809 6.49562C16.9287 6.49783 16.7785 6.53056 16.6392 6.59186C16.4999 6.65317 16.3744 6.74179 16.2699 6.8525C16.0668 7.0678 15.9556 7.35379 15.9599 7.64974C15.9643 7.94569 16.0837 8.22831 16.293 8.4376C16.5023 8.64689 16.7849 8.76638 17.0809 8.77069C17.3768 8.77501 17.6628 8.66381 17.8781 8.46071Z" fill="url(#paint0_linear_3442_5270)"/>
<defs>
<linearGradient id="paint0_linear_3442_5270" x1="2.64014" y1="3.19531" x2="25.2067" y2="13.4515" gradientUnits="userSpaceOnUse">
<stop stop-color="#0038F5"/>
<stop offset="1" stop-color="#9F03FF"/>
</linearGradient>
</defs>
</svg>
