<svg width="24" height="25" viewBox="0 0 24 25" fill="none" xmlns="http://www.w3.org/2000/svg">
<path fill-rule="evenodd" clip-rule="evenodd" d="M8.14123 3.25135C9.13935 3.2054 9.45758 3.19519 12.0001 3.19519C14.5426 3.19519 14.8608 3.20625 15.8581 3.25135C16.8553 3.29645 17.5361 3.45557 18.1317 3.68616C18.7554 3.92186 19.3213 4.2903 19.7893 4.76681C20.2658 5.23396 20.6334 5.79896 20.8682 6.42352C21.0997 7.01916 21.2579 7.69988 21.3039 8.69544C21.3498 9.69525 21.36 10.0135 21.36 12.5551C21.36 15.0976 21.349 15.4159 21.3039 16.414C21.2588 17.4095 21.0997 18.0903 20.8682 18.6859C20.6334 19.3106 20.2652 19.8765 19.7893 20.3443C19.3213 20.8208 18.7554 21.1884 18.1317 21.4233C17.5361 21.6547 16.8553 21.813 15.8598 21.8589C14.8608 21.9049 14.5426 21.9151 12.0001 21.9151C9.45758 21.9151 9.13935 21.904 8.14123 21.8589C7.14568 21.8138 6.46495 21.6547 5.86932 21.4233C5.24469 21.1884 4.67875 20.8202 4.21091 20.3443C3.73472 19.8769 3.36623 19.3112 3.13111 18.6868C2.90051 18.0911 2.74225 17.4104 2.6963 16.4148C2.65035 15.415 2.64014 15.0968 2.64014 12.5551C2.64014 10.0126 2.6512 9.6944 2.6963 8.69714C2.74139 7.69988 2.90051 7.01916 3.13111 6.42352C3.36657 5.79903 3.73535 5.23337 4.21176 4.76596C4.67894 4.28988 5.24431 3.92139 5.86847 3.68616C6.4641 3.45557 7.14482 3.2973 8.14038 3.25135H8.14123ZM15.7824 4.93614C14.7953 4.89104 14.4992 4.88168 12.0001 4.88168C9.50098 4.88168 9.20486 4.89104 8.21782 4.93614C7.30479 4.97784 6.80957 5.13015 6.47942 5.25863C6.0429 5.42881 5.73062 5.63048 5.40302 5.95808C5.09248 6.26019 4.85349 6.62798 4.70358 7.03447C4.57509 7.36462 4.42278 7.85985 4.38109 8.77287C4.33599 9.75992 4.32663 10.056 4.32663 12.5551C4.32663 15.0542 4.33599 15.3504 4.38109 16.3374C4.42278 17.2504 4.57509 17.7457 4.70358 18.0758C4.85334 18.4817 5.09244 18.8501 5.40302 19.1522C5.70509 19.4628 6.07354 19.7019 6.47942 19.8516C6.80957 19.9801 7.30479 20.1324 8.21782 20.1741C9.20486 20.2192 9.50013 20.2286 12.0001 20.2286C14.5 20.2286 14.7953 20.2192 15.7824 20.1741C16.6954 20.1324 17.1906 19.9801 17.5208 19.8516C17.9573 19.6815 18.2696 19.4798 18.5971 19.1522C18.9077 18.8501 19.1468 18.4817 19.2966 18.0758C19.4251 17.7457 19.5774 17.2504 19.6191 16.3374C19.6642 15.3504 19.6735 15.0542 19.6735 12.5551C19.6735 10.056 19.6642 9.75992 19.6191 8.77287C19.5774 7.85985 19.4251 7.36462 19.2966 7.03447C19.1264 6.59796 18.9247 6.28568 18.5971 5.95808C18.295 5.64756 17.9272 5.40857 17.5208 5.25863C17.1906 5.13015 16.6954 4.97784 15.7824 4.93614ZM10.8046 15.4406C11.4722 15.7185 12.2157 15.756 12.9079 15.5467C13.6002 15.3374 14.1983 14.8942 14.6001 14.2929C15.0019 13.6916 15.1825 12.9694 15.111 12.2498C15.0395 11.5301 14.7204 10.8576 14.2082 10.347C13.8816 10.0207 13.4868 9.77082 13.0521 9.61539C12.6174 9.45996 12.1536 9.40285 11.6942 9.44816C11.2347 9.49348 10.7911 9.64009 10.3951 9.87745C9.99915 10.1148 9.66073 10.437 9.40423 10.8209C9.14774 11.2047 8.97954 11.6407 8.91174 12.0973C8.84395 12.554 8.87825 13.02 9.01217 13.4618C9.14609 13.9036 9.37631 14.3102 9.68624 14.6524C9.99617 14.9945 10.3781 15.2637 10.8046 15.4406ZM8.59817 9.15322C9.04492 8.70648 9.57528 8.3521 10.159 8.11032C10.7427 7.86855 11.3683 7.7441 12.0001 7.7441C12.6319 7.7441 13.2575 7.86854 13.8412 8.11032C14.4249 8.3521 14.9553 8.70648 15.402 9.15322C15.8487 9.59997 16.2031 10.1303 16.4449 10.714C16.6867 11.2977 16.8111 11.9233 16.8111 12.5551C16.8111 13.1869 16.6867 13.8125 16.4449 14.3962C16.2031 14.9799 15.8487 15.5103 15.402 15.9571C14.4998 16.8593 13.2761 17.3662 12.0001 17.3662C10.7241 17.3662 9.50041 16.8593 8.59817 15.9571C7.69593 15.0548 7.18905 13.8311 7.18905 12.5551C7.18905 11.2792 7.69593 10.0555 8.59817 9.15322ZM17.8781 8.46059C17.9888 8.35615 18.0775 8.23057 18.1388 8.09127C18.2001 7.95197 18.2328 7.80179 18.235 7.64962C18.2372 7.49744 18.2089 7.34637 18.1517 7.20534C18.0945 7.06431 18.0095 6.9362 17.9019 6.82859C17.7943 6.72097 17.6662 6.63604 17.5252 6.57883C17.3841 6.52161 17.2331 6.49328 17.0809 6.49549C16.9287 6.49771 16.7785 6.53044 16.6392 6.59174C16.4999 6.65304 16.3744 6.74167 16.2699 6.85238C16.0668 7.06768 15.9556 7.35366 15.9599 7.64962C15.9643 7.94557 16.0837 8.22819 16.293 8.43748C16.5023 8.64677 16.7849 8.76626 17.0809 8.77057C17.3768 8.77489 17.6628 8.66369 17.8781 8.46059Z" fill="#FCFCFC"/>
</svg>
