<svg width="20" height="21" viewBox="0 0 20 21" fill="none" xmlns="http://www.w3.org/2000/svg">
<path fill-rule="evenodd" clip-rule="evenodd" d="M17.5166 2.32471C15.6608 0.468834 12.6518 0.468838 10.7959 2.32471L7.85284 5.26779C7.60056 5.52008 7.80843 5.91155 8.16489 5.89625L9.67634 5.83141C9.9729 5.81869 10.2539 5.69517 10.4638 5.48528L12.2101 3.73892C13.285 2.6641 15.0276 2.6641 16.1024 3.73892C17.1772 4.81374 17.1772 6.55638 16.1024 7.6312L13.1593 10.5743C12.0845 11.6491 10.3419 11.6491 9.26705 10.5743C9.03692 10.3442 8.73583 10.18 8.41067 10.1939L8.30141 10.1986C7.53392 10.2316 7.02948 11.0121 7.51214 11.6097C7.61775 11.7405 7.73132 11.867 7.85284 11.9885C9.70871 13.8444 12.7177 13.8444 14.5735 11.9885L17.5166 9.04541C19.3725 7.18954 19.3725 4.18058 17.5166 2.32471Z" fill="#555555"/>
<path fill-rule="evenodd" clip-rule="evenodd" d="M11.0306 9.81801C11.8486 9.79016 12.3659 8.94286 11.807 8.34496C11.7695 8.30489 11.7312 8.2653 11.6922 8.22622C9.81005 6.34411 6.75855 6.34411 4.87644 8.22622L2.02837 11.0743C0.146261 12.9564 0.146261 16.0079 2.02837 17.89C3.91048 19.7721 6.96199 19.7721 8.8441 17.89L11.6922 15.0419C11.8875 14.8466 11.7316 14.5375 11.4556 14.5469L9.73855 14.6054C9.44701 14.6153 9.17012 14.7356 8.96385 14.9418L7.42988 16.4758C6.32882 17.5769 4.54364 17.5769 3.44258 16.4758C2.34152 15.3747 2.34152 13.5896 3.44258 12.4885L6.29065 9.64044C7.39171 8.53938 9.17689 8.53938 10.278 9.64044C10.3969 9.75937 10.5559 9.83416 10.724 9.82844L11.0306 9.81801Z" fill="#555555"/>
</svg>
