<svg width="19" height="20" viewBox="0 0 19 20" fill="none" xmlns="http://www.w3.org/2000/svg">
<path fill-rule="evenodd" clip-rule="evenodd" d="M16.6762 2.56216C14.8936 0.779558 12.0034 0.779555 10.2208 2.56216L7.42486 5.3581C7.17016 5.6128 7.38106 6.0066 7.74093 5.99116L9.24029 5.92684C9.53883 5.91403 9.82169 5.78969 10.033 5.5784L11.635 3.97637C12.6366 2.97482 14.2604 2.97482 15.262 3.97638C16.2635 4.97793 16.2635 6.60177 15.262 7.60333L12.466 10.3993C11.4645 11.4008 9.84063 11.4008 8.83908 10.3993C8.63788 10.1981 8.37382 10.0568 8.08954 10.069L7.91782 10.0764C7.14604 10.1095 6.6382 10.8942 7.13031 11.4897C7.2224 11.6011 7.32058 11.7092 7.42486 11.8135C9.20747 13.5961 12.0976 13.5961 13.8802 11.8135L16.6762 9.01754C18.4588 7.23494 18.4588 4.34477 16.6762 2.56216Z" fill="#333333"/>
<path fill-rule="evenodd" clip-rule="evenodd" d="M10.4391 9.71724C11.2629 9.6892 11.7843 8.83636 11.2141 8.24107C11.1907 8.21663 11.167 8.19238 11.1429 8.16833C9.33541 6.3608 6.40483 6.3608 4.5973 8.16833L1.89163 10.874C0.0840965 12.6815 0.0840982 15.6121 1.89163 17.4196C3.69916 19.2272 6.62974 19.2272 8.43727 17.4196L11.1429 14.714C11.3432 14.5138 11.1826 14.1982 10.8996 14.2078L9.20447 14.2655C8.91079 14.2755 8.63186 14.3966 8.42408 14.6044L7.02306 16.0054C5.99658 17.0319 4.33232 17.0319 3.30584 16.0054C2.27936 14.979 2.27936 13.3147 3.30584 12.2882L6.01151 9.58254C7.03799 8.55606 8.70225 8.55606 9.72873 9.58255C9.82248 9.67629 9.9483 9.73395 10.0808 9.72944L10.4391 9.71724Z" fill="#333333"/>
</svg>
