<svg width="21" height="21" viewBox="0 0 21 21" fill="none" xmlns="http://www.w3.org/2000/svg">
<path fill-rule="evenodd" clip-rule="evenodd" d="M18.1865 2.32524C16.3307 0.469368 13.3217 0.469373 11.4658 2.32524L8.52273 5.26833C8.27045 5.52061 8.47832 5.91208 8.83478 5.89678L10.3462 5.83194C10.6428 5.81922 10.9238 5.6957 11.1337 5.48581L12.88 3.73946C13.9549 2.66463 15.6975 2.66463 16.7723 3.73946C17.8471 4.81428 17.8471 6.55691 16.7723 7.63173L13.8292 10.5748C12.7544 11.6496 11.0118 11.6496 9.93695 10.5748C9.70681 10.3447 9.40572 10.1805 9.08056 10.1945L8.9713 10.1992C8.20381 10.2321 7.69937 11.0126 8.18203 11.6103C8.28764 11.741 8.40121 11.8675 8.52273 11.989C10.3786 13.8449 13.3876 13.8449 15.2434 11.989L18.1865 9.04595C20.0424 7.19008 20.0424 4.18111 18.1865 2.32524Z" fill="#F8F8F8"/>
<path fill-rule="evenodd" clip-rule="evenodd" d="M11.7004 9.81825C12.5184 9.79041 13.0357 8.94311 12.4768 8.34521C12.4393 8.30514 12.401 8.26555 12.362 8.22647C10.4799 6.34436 7.42835 6.34436 5.54624 8.22647L2.69817 11.0745C0.816061 12.9566 0.816061 16.0081 2.69817 17.8903C4.58028 19.7724 7.63179 19.7724 9.5139 17.8903L12.362 15.0422C12.5573 14.8469 12.4014 14.5378 12.1254 14.5472L10.4083 14.6056C10.1168 14.6156 9.83991 14.7358 9.63365 14.9421L8.09968 16.476C6.99862 17.5771 5.21345 17.5771 4.11239 16.476C3.01132 15.375 3.01132 13.5898 4.11238 12.4887L6.96045 9.64068C8.06151 8.53962 9.84669 8.53962 10.9478 9.64068C11.0667 9.75962 11.2257 9.83441 11.3938 9.82869L11.7004 9.81825Z" fill="#F8F8F8"/>
</svg>
