<svg width="19" height="20" viewBox="0 0 19 20" fill="none" xmlns="http://www.w3.org/2000/svg">
<path fill-rule="evenodd" clip-rule="evenodd" d="M16.6762 2.56219C14.8936 0.779589 12.0034 0.779586 10.2208 2.56219L7.42486 5.35813C7.17017 5.61282 7.38106 6.00663 7.74092 5.99119L9.2403 5.92686C9.53883 5.91405 9.8217 5.78972 10.033 5.57843L11.635 3.9764C12.6366 2.97485 14.2604 2.97485 15.262 3.97641C16.2635 4.97796 16.2635 6.6018 15.262 7.60336L12.466 10.3993C11.4645 11.4009 9.84063 11.4008 8.83908 10.3993C8.63787 10.1981 8.37381 10.0569 8.08953 10.0691L7.91782 10.0764C7.14604 10.1095 6.6382 10.8943 7.13031 11.4897C7.22239 11.6011 7.32058 11.7092 7.42486 11.8135C9.20747 13.5961 12.0976 13.5961 13.8802 11.8135L16.6762 9.01757C18.4588 7.23497 18.4588 4.3448 16.6762 2.56219Z" fill="#F8F8F8"/>
<path fill-rule="evenodd" clip-rule="evenodd" d="M10.4391 9.71728C11.2629 9.68924 11.7843 8.83639 11.2141 8.2411C11.1907 8.21666 11.167 8.19241 11.1429 8.16836C9.33541 6.36083 6.40483 6.36083 4.5973 8.16836L1.89163 10.874C0.0840978 12.6816 0.0840973 15.6121 1.89163 17.4197C3.69916 19.2272 6.62974 19.2272 8.43727 17.4197L11.1429 14.714C11.3432 14.5138 11.1826 14.1982 10.8996 14.2078L9.20446 14.2655C8.91078 14.2755 8.63186 14.3967 8.42407 14.6045L7.02306 16.0055C5.99658 17.0319 4.33232 17.0319 3.30584 16.0055C2.27936 14.979 2.27936 13.3147 3.30584 12.2882L6.01151 9.58257C7.03799 8.55609 8.70224 8.55609 9.72873 9.58258C9.82248 9.67633 9.94831 9.73399 10.0808 9.72947L10.4391 9.71728Z" fill="#F8F8F8"/>
</svg>
