<svg width="20" height="21" viewBox="0 0 20 21" fill="none" xmlns="http://www.w3.org/2000/svg">
<path fill-rule="evenodd" clip-rule="evenodd" d="M17.5166 2.32524C15.6607 0.469368 12.6518 0.469373 10.7959 2.32524L7.85281 5.26833C7.60053 5.52061 7.8084 5.91208 8.16485 5.89678L9.67631 5.83194C9.97287 5.81922 10.2539 5.6957 10.4638 5.48581L12.2101 3.73946C13.2849 2.66463 15.0276 2.66463 16.1024 3.73946C17.1772 4.81428 17.1772 6.55691 16.1024 7.63173L13.1593 10.5748C12.0845 11.6496 10.3418 11.6496 9.26702 10.5748C9.03689 10.3447 8.7358 10.1805 8.41063 10.1945L8.30137 10.1992C7.53389 10.2321 7.02945 11.0126 7.5121 11.6103C7.61772 11.741 7.73128 11.8675 7.85281 11.989C9.70868 13.8449 12.7176 13.8449 14.5735 11.989L17.5166 9.04595C19.3725 7.19008 19.3725 4.18111 17.5166 2.32524Z" fill="#555555"/>
<path fill-rule="evenodd" clip-rule="evenodd" d="M11.0305 9.81825C11.8485 9.79041 12.3658 8.94311 11.8069 8.34521C11.7694 8.30514 11.7311 8.26555 11.692 8.22647C9.80993 6.34436 6.75843 6.34436 4.87632 8.22647L2.02825 11.0745C0.146139 12.9566 0.146139 16.0081 2.02825 17.8903C3.91036 19.7724 6.96187 19.7724 8.84398 17.8903L11.692 15.0422C11.8874 14.8469 11.7315 14.5378 11.4555 14.5472L9.73842 14.6056C9.44688 14.6156 9.16999 14.7358 8.96373 14.9421L7.42976 16.476C6.3287 17.5771 4.54352 17.5771 3.44246 16.476C2.3414 15.375 2.3414 13.5898 3.44246 12.4887L6.29053 9.64068C7.39159 8.53962 9.17677 8.53962 10.2778 9.64068C10.3968 9.75962 10.5558 9.83441 10.7239 9.82869L11.0305 9.81825Z" fill="#555555"/>
</svg>
