<svg width="20" height="21" viewBox="0 0 20 21" fill="none" xmlns="http://www.w3.org/2000/svg">
<path fill-rule="evenodd" clip-rule="evenodd" d="M17.5166 2.32471C15.6607 0.468834 12.6518 0.468838 10.7959 2.32471L7.85281 5.26779C7.60053 5.52008 7.8084 5.91155 8.16486 5.89625L9.67631 5.83141C9.97286 5.81869 10.2539 5.69517 10.4638 5.48528L12.2101 3.73892C13.2849 2.6641 15.0276 2.6641 16.1024 3.73892C17.1772 4.81374 17.1772 6.55638 16.1024 7.6312L13.1593 10.5743C12.0845 11.6491 10.3418 11.6491 9.26702 10.5743C9.03689 10.3442 8.7358 10.18 8.41064 10.1939L8.30138 10.1986C7.53389 10.2316 7.02945 11.0121 7.51211 11.6097C7.61772 11.7405 7.73129 11.867 7.85281 11.9885C9.70868 13.8444 12.7176 13.8444 14.5735 11.9885L17.5166 9.04541C19.3725 7.18954 19.3725 4.18058 17.5166 2.32471Z" fill="#555555"/>
<path fill-rule="evenodd" clip-rule="evenodd" d="M11.0305 9.81801C11.8485 9.79016 12.3658 8.94286 11.8069 8.34496C11.7694 8.30489 11.7311 8.2653 11.692 8.22622C9.80993 6.34411 6.75843 6.34411 4.87632 8.22622L2.02825 11.0743C0.146138 12.9564 0.146139 16.0079 2.02825 17.89C3.91036 19.7721 6.96187 19.7721 8.84397 17.89L11.692 15.0419C11.8874 14.8466 11.7315 14.5375 11.4554 14.5469L9.73842 14.6054C9.44689 14.6153 9.17 14.7356 8.96373 14.9418L7.42976 16.4758C6.3287 17.5769 4.54352 17.5769 3.44246 16.4758C2.3414 15.3747 2.3414 13.5896 3.44246 12.4885L6.29053 9.64044C7.39159 8.53938 9.17677 8.53938 10.2778 9.64044C10.3968 9.75937 10.5558 9.83416 10.7239 9.82844L11.0305 9.81801Z" fill="#555555"/>
</svg>
