<svg width="20" height="21" viewBox="0 0 20 21" fill="none" xmlns="http://www.w3.org/2000/svg">
<path fill-rule="evenodd" clip-rule="evenodd" d="M17.5166 2.32524C15.6608 0.469368 12.6518 0.469373 10.7959 2.32524L7.85284 5.26833C7.60056 5.52061 7.80843 5.91208 8.16488 5.89678L9.67634 5.83194C9.9729 5.81922 10.2539 5.6957 10.4638 5.48581L12.2101 3.73946C13.285 2.66463 15.0276 2.66463 16.1024 3.73946C17.1772 4.81428 17.1772 6.55691 16.1024 7.63173L13.1593 10.5748C12.0845 11.6496 10.3419 11.6496 9.26705 10.5748C9.03692 10.3447 8.73583 10.1805 8.41066 10.1945L8.3014 10.1992C7.53392 10.2321 7.02948 11.0126 7.51214 11.6103C7.61775 11.741 7.73132 11.8675 7.85284 11.989C9.70871 13.8449 12.7177 13.8449 14.5735 11.989L17.5166 9.04595C19.3725 7.19008 19.3725 4.18111 17.5166 2.32524Z" fill="#555555"/>
<path fill-rule="evenodd" clip-rule="evenodd" d="M11.0306 9.81825C11.8486 9.79041 12.3659 8.94311 11.807 8.34521C11.7695 8.30514 11.7312 8.26555 11.6922 8.22647C9.81005 6.34436 6.75855 6.34436 4.87644 8.22647L2.02837 11.0745C0.146261 12.9566 0.146262 16.0081 2.02837 17.8903C3.91048 19.7724 6.96199 19.7724 8.8441 17.8903L11.6922 15.0422C11.8875 14.8469 11.7316 14.5378 11.4556 14.5472L9.73854 14.6056C9.447 14.6156 9.17011 14.7358 8.96385 14.9421L7.42988 16.476C6.32882 17.5771 4.54365 17.5771 3.44259 16.476C2.34152 15.375 2.34152 13.5898 3.44258 12.4887L6.29065 9.64068C7.39171 8.53962 9.17689 8.53962 10.278 9.64068C10.3969 9.75962 10.5559 9.83441 10.724 9.82869L11.0306 9.81825Z" fill="#555555"/>
</svg>
