<svg width="179" height="48" viewBox="0 0 179 48" fill="none" xmlns="http://www.w3.org/2000/svg">
<path d="M14.7606 37.5531C12.7623 37.5531 10.9305 37.1487 9.26516 36.3398C7.59986 35.5151 6.14867 34.3335 4.91159 32.7951C3.69037 31.2408 2.73878 29.3455 2.0568 27.1093C1.39068 24.873 1.05762 22.3434 1.05762 19.5203C1.05762 16.6813 1.39068 14.1596 2.0568 11.9551C2.73878 9.73467 3.69037 7.85526 4.91159 6.31684C6.14867 4.77843 7.59986 3.61272 9.26516 2.81972C10.9463 2.02672 12.7781 1.63022 14.7606 1.63022C16.759 1.63022 18.5908 2.02672 20.2561 2.81972C21.9373 3.61272 23.3885 4.77843 24.6097 6.31684C25.8468 7.85526 26.7984 9.73467 27.4645 11.9551C28.1465 14.1596 28.4875 16.6813 28.4875 19.5203C28.4875 22.3434 28.1465 24.873 27.4645 27.1093C26.7984 29.3455 25.8468 31.2408 24.6097 32.7951C23.3885 34.3335 21.9373 35.5151 20.2561 36.3398C18.5908 37.1487 16.759 37.5531 14.7606 37.5531ZM14.7606 34.8886C16.87 34.8886 18.7256 34.2939 20.3275 33.1044C21.9452 31.9149 23.2061 30.1782 24.1101 27.8944C25.03 25.6105 25.4899 22.8192 25.4899 19.5203C25.4899 16.2055 25.03 13.4221 24.1101 11.17C23.1902 8.90202 21.9214 7.18914 20.3037 6.03136C18.7018 4.87358 16.8542 4.2947 14.7606 4.2947C12.683 4.2947 10.8353 4.87358 9.21758 6.03136C7.59986 7.18914 6.33106 8.90202 5.41118 11.17C4.4913 13.4221 4.03136 16.2055 4.03136 19.5203C4.03136 22.835 4.4913 25.6343 5.41118 27.9181C6.33106 30.202 7.59986 31.9386 9.21758 33.1281C10.8353 34.3018 12.683 34.8886 14.7606 34.8886Z" fill="white"/>
<path d="M32.6801 47.4973V11.8361H35.63V47.4973H32.6801ZM44.3372 37.5531C42.4022 37.5531 40.6101 37.0852 38.9606 36.1495C37.3112 35.2137 35.9789 33.9449 34.9639 32.3431C33.9647 30.7412 33.4651 28.9411 33.4651 26.9428C33.4651 26.8952 33.4651 26.8555 33.4651 26.8238C33.4651 26.7921 33.4651 26.7604 33.4651 26.7286L35.63 26.6811C35.63 26.7128 35.63 26.7445 35.63 26.7762C35.63 26.8079 35.63 26.8397 35.63 26.8714C35.63 28.2988 36.0186 29.6152 36.7957 30.8205C37.5729 32.0259 38.5879 32.9854 39.8409 33.6991C41.1097 34.4128 42.4815 34.7697 43.9565 34.7697C46.399 34.7697 48.4052 33.9053 49.9754 32.1765C51.5614 30.4319 52.3544 27.8626 52.3544 24.4686C52.3544 21.0587 51.5614 18.4894 49.9754 16.7606C48.4052 15.0319 46.399 14.1675 43.9565 14.1675C42.4815 14.1675 41.1097 14.5244 39.8409 15.2381C38.5879 15.9518 37.5729 16.9034 36.7957 18.0929C36.0186 19.2824 35.63 20.5988 35.63 22.042L33.4651 21.9706C33.4651 19.9723 33.9647 18.1801 34.9639 16.5941C35.9789 15.0081 37.3112 13.7631 38.9606 12.8591C40.6101 11.9392 42.4022 11.4793 44.3372 11.4793C46.3831 11.4793 48.2387 11.9868 49.904 13.0018C51.5693 14.001 52.8936 15.4681 53.8769 17.403C54.8761 19.3379 55.3757 21.6931 55.3757 24.4686C55.3757 27.2758 54.884 29.6548 53.9007 31.6056C52.9333 33.5564 51.609 35.0393 49.9278 36.0543C48.2625 37.0535 46.399 37.5531 44.3372 37.5531Z" fill="white"/>
<path d="M60.5166 25.7057V23.065H80.976L80.405 23.8738C80.405 23.7787 80.405 23.6994 80.405 23.6359C80.405 23.5566 80.405 23.4773 80.405 23.398C80.405 21.7645 80.0561 20.2419 79.3582 18.8304C78.6604 17.4188 77.6454 16.2848 76.3131 15.4284C74.9967 14.572 73.3869 14.1437 71.4837 14.1437C69.5488 14.1437 67.8439 14.5878 66.3689 15.476C64.8939 16.3483 63.7441 17.5616 62.9194 19.1159C62.0946 20.6543 61.6823 22.4464 61.6823 24.4924C61.6823 26.5542 62.0867 28.3702 62.8956 29.9403C63.7203 31.4946 64.8701 32.7079 66.3451 33.5802C67.8201 34.4366 69.5409 34.8648 71.5075 34.8648C72.9508 34.8648 74.2037 34.6904 75.2664 34.3414C76.3448 33.9767 77.233 33.5009 77.9308 32.914C78.6445 32.3272 79.1838 31.7087 79.5486 31.0584C79.9292 30.3923 80.1512 29.7658 80.2147 29.179H83.1408C83.0774 30.1148 82.7761 31.0743 82.2368 32.0576C81.7134 33.0251 80.9601 33.9291 79.9768 34.7697C79.0093 35.6102 77.804 36.2922 76.3607 36.8156C74.9333 37.3231 73.2839 37.5769 71.4124 37.5769C68.9699 37.5769 66.7971 37.0218 64.8939 35.9116C63.0066 34.8014 61.5158 33.2709 60.4214 31.3201C59.3429 29.3535 58.8037 27.0934 58.8037 24.54C58.8037 21.9706 59.3509 19.7106 60.4452 17.7598C61.5395 15.7932 63.0383 14.2548 64.9415 13.1446C66.8447 12.0344 69.0096 11.4793 71.4362 11.4793C73.9103 11.4793 76.0514 12.0423 77.8595 13.1684C79.6675 14.2944 81.0632 15.8249 82.0465 17.7598C83.0298 19.6789 83.5215 21.8358 83.5215 24.2307C83.5215 24.4369 83.5136 24.6986 83.4977 25.0158C83.4977 25.333 83.4898 25.5629 83.4739 25.7057H60.5166Z" fill="white"/>
<path d="M106.27 37.1011V24.54C106.27 23.7628 106.27 23.1443 106.27 22.6843C106.27 22.2244 106.27 21.7724 106.27 21.3283C106.27 19.9168 106.016 18.6876 105.508 17.6409C105.017 16.5783 104.255 15.7535 103.224 15.1667C102.194 14.564 100.869 14.2627 99.2515 14.2627C97.8241 14.2627 96.4839 14.6195 95.231 15.3332C93.9781 16.0311 92.963 16.9827 92.1859 18.188C91.4246 19.3934 91.044 20.7494 91.044 22.2561L89.2597 21.59C89.2597 19.671 89.7514 17.9501 90.7347 16.4276C91.7339 14.905 93.0344 13.6997 94.6362 12.8115C96.254 11.9233 97.9668 11.4793 99.7749 11.4793C101.694 11.4793 103.359 11.844 104.771 12.5736C106.182 13.2873 107.269 14.3261 108.03 15.6901C108.807 17.0382 109.196 18.6797 109.196 20.6146C109.196 21.2807 109.196 21.9944 109.196 22.7557C109.196 23.517 109.196 24.2069 109.196 24.8254V37.1011H106.27ZM88.094 37.1011V11.8361H91.044V37.1011H88.094Z" fill="white"/>
<path fill-rule="evenodd" clip-rule="evenodd" d="M167.011 29.2011C167.315 31.0423 169.718 32.0296 171.305 30.1109C172.495 28.6717 174.627 28.4702 176.067 29.6608C177.506 30.8515 177.707 32.9834 176.517 34.4227C170.944 41.1593 160.603 37.5374 160.252 29.0418C160.238 28.9214 160.231 28.8024 160.231 28.6856L160.247 11.1056C160.247 9.35536 161.761 7.93649 163.629 7.93649C165.497 7.93649 167.011 9.35537 167.011 11.1056L167.011 29.2011Z" fill="url(#paint0_linear_3442_3020)"/>
<path fill-rule="evenodd" clip-rule="evenodd" d="M129.144 10.4779C130.762 11.4119 131.316 13.4804 130.382 15.098L118.457 35.7516C117.524 37.3693 115.455 37.9235 113.837 36.9895C112.22 36.0556 111.665 33.9871 112.599 32.3695L124.524 11.7159C125.458 10.0982 127.526 9.54398 129.144 10.4779Z" fill="url(#paint1_linear_3442_3020)"/>
<path fill-rule="evenodd" clip-rule="evenodd" d="M147.442 37.6192C145.574 37.6192 144.06 36.105 144.06 34.2371L144.06 16.2321C144.06 14.3641 145.574 12.8499 147.442 12.8499C149.31 12.8499 150.824 14.3641 150.824 16.2321L150.824 34.2371C150.824 36.105 149.31 37.6192 147.442 37.6192Z" fill="url(#paint2_linear_3442_3020)"/>
<path fill-rule="evenodd" clip-rule="evenodd" d="M150.28 24.1512L149.036 24.1766L144.058 24.1432C144.103 22.8728 144.864 20.509 145.441 19.4027C146.043 18.2465 146.9 17.0564 147.985 16.0352C150.166 13.9813 153.629 12.3538 157.655 13.8634C159.258 14.4645 160.071 16.2515 159.47 17.8548C158.869 19.458 157.082 20.2705 155.478 19.6694C154.348 19.2457 153.3 19.5475 152.236 20.5495C151.697 21.0563 151.25 21.4875 150.939 22.2689C150.788 22.992 150.822 24.1428 150.822 24.1428L150.28 24.1512Z" fill="url(#paint3_linear_3442_3020)"/>
<path fill-rule="evenodd" clip-rule="evenodd" d="M160.231 16.9455L160.231 14.0812L171.362 14.0813C172.628 14.0813 174.326 15.3085 174.326 17.0207C174.477 18.6634 173.132 20.2819 171.362 20.2819H160.247L160.231 16.9455Z" fill="url(#paint4_linear_3442_3020)"/>
<g style="mix-blend-mode:overlay" opacity="0.2">
<path d="M160.246 20.3101H166.986L166.986 23.2422H160.246V20.3101Z" fill="url(#paint5_linear_3442_3020)"/>
</g>
<path fill-rule="evenodd" clip-rule="evenodd" d="M124.32 12.1442C124.592 11.4664 125.085 10.8715 125.766 10.4779C127.384 9.54396 129.452 10.0982 130.386 11.7159L142.311 32.3694C143.245 33.9871 142.69 36.0556 141.073 36.9895C139.455 37.9235 137.387 37.3692 136.453 35.7516L127.413 20.0946L127.462 20.2209C125.669 16.6573 122.9 16.2776 121.739 16.5331L124.306 12.1086L124.32 12.1442Z" fill="url(#paint6_linear_3442_3020)"/>
<defs>
<linearGradient id="paint0_linear_3442_3020" x1="160.231" y1="7.93649" x2="183.492" y2="13.9508" gradientUnits="userSpaceOnUse">
<stop stop-color="#9D0AFC"/>
<stop offset="1" stop-color="#0359FF"/>
</linearGradient>
<linearGradient id="paint1_linear_3442_3020" x1="126.581" y1="13.9335" x2="132.053" y2="20.5087" gradientUnits="userSpaceOnUse">
<stop stop-color="#00DFBA"/>
<stop offset="1" stop-color="#048AFE"/>
</linearGradient>
<linearGradient id="paint2_linear_3442_3020" x1="147.542" y1="13.7546" x2="147.542" y2="39.7382" gradientUnits="userSpaceOnUse">
<stop stop-color="#5900EB"/>
<stop offset="1" stop-color="#E367EE"/>
</linearGradient>
<linearGradient id="paint3_linear_3442_3020" x1="147.004" y1="24.2088" x2="160.786" y2="14.9747" gradientUnits="userSpaceOnUse">
<stop stop-color="#9129EC"/>
<stop offset="1" stop-color="#9F03FF"/>
</linearGradient>
<linearGradient id="paint4_linear_3442_3020" x1="167.63" y1="15.6779" x2="175.488" y2="23.8991" gradientUnits="userSpaceOnUse">
<stop stop-color="#930FFC"/>
<stop offset="0.865143" stop-color="#004BFB"/>
</linearGradient>
<linearGradient id="paint5_linear_3442_3020" x1="163.616" y1="20.364" x2="163.616" y2="22.9093" gradientUnits="userSpaceOnUse">
<stop/>
<stop offset="1" stop-opacity="0"/>
</linearGradient>
<linearGradient id="paint6_linear_3442_3020" x1="120.97" y1="10.276" x2="153.943" y2="18.5293" gradientUnits="userSpaceOnUse">
<stop stop-color="#0056FE"/>
<stop offset="0.815625" stop-color="#D159ED"/>
</linearGradient>
</defs>
</svg>
