<svg width="179" height="48" viewBox="0 0 179 48" fill="none" xmlns="http://www.w3.org/2000/svg">
<path d="M14.7611 37.5532C12.7627 37.5532 10.9309 37.1488 9.26559 36.3399C7.60029 35.5152 6.1491 34.3337 4.91202 32.7952C3.6908 31.241 2.7392 29.3457 2.05722 27.1094C1.3911 24.8732 1.05804 22.3435 1.05804 19.5204C1.05804 16.6815 1.3911 14.1598 2.05722 11.9552C2.7392 9.73482 3.6908 7.85542 4.91202 6.317C6.1491 4.77858 7.60029 3.61287 9.26559 2.81987C10.9467 2.02687 12.7786 1.63037 14.7611 1.63037C16.7594 1.63037 18.5913 2.02687 20.2566 2.81987C21.9377 3.61287 23.3889 4.77858 24.6101 6.317C25.8472 7.85542 26.7988 9.73482 27.4649 11.9552C28.1469 14.1598 28.4879 16.6815 28.4879 19.5204C28.4879 22.3435 28.1469 24.8732 27.4649 27.1094C26.7988 29.3457 25.8472 31.241 24.6101 32.7952C23.3889 34.3337 21.9377 35.5152 20.2566 36.3399C18.5913 37.1488 16.7594 37.5532 14.7611 37.5532ZM14.7611 34.8888C16.8705 34.8888 18.7261 34.294 20.3279 33.1045C21.9456 31.915 23.2065 30.1783 24.1105 27.8945C25.0304 25.6107 25.4903 22.8193 25.4903 19.5204C25.4903 16.2057 25.0304 13.4223 24.1105 11.1702C23.1907 8.90217 21.9219 7.18929 20.3041 6.03152C18.7023 4.87374 16.8546 4.29485 14.7611 4.29485C12.6834 4.29485 10.8357 4.87374 9.21801 6.03152C7.60029 7.18929 6.33149 8.90217 5.41161 11.1702C4.49173 13.4223 4.03179 16.2057 4.03179 19.5204C4.03179 22.8352 4.49173 25.6345 5.41161 27.9183C6.33149 30.2021 7.60029 31.9388 9.21801 33.1283C10.8357 34.3019 12.6834 34.8888 14.7611 34.8888Z" fill="white"/>
<path d="M32.6805 47.4974V11.8363H35.6305V47.4974H32.6805ZM44.3376 37.5532C42.4027 37.5532 40.6105 37.0854 38.9611 36.1496C37.3116 35.2139 35.9794 33.9451 34.9643 32.3432C33.9652 30.7414 33.4656 28.9413 33.4656 26.9429C33.4656 26.8953 33.4656 26.8557 33.4656 26.824C33.4656 26.7922 33.4656 26.7605 33.4656 26.7288L35.6305 26.6812C35.6305 26.7129 35.6305 26.7447 35.6305 26.7764C35.6305 26.8081 35.6305 26.8398 35.6305 26.8715C35.6305 28.2989 36.019 29.6153 36.7962 30.8207C37.5733 32.026 38.5883 32.9856 39.8413 33.6993C41.1101 34.413 42.482 34.7698 43.9569 34.7698C46.3994 34.7698 48.4057 33.9054 49.9758 32.1767C51.5618 30.4321 52.3548 27.8628 52.3548 24.4687C52.3548 21.0589 51.5618 18.4895 49.9758 16.7608C48.4057 15.0321 46.3994 14.1677 43.9569 14.1677C42.482 14.1677 41.1101 14.5245 39.8413 15.2382C38.5883 15.9519 37.5733 16.9035 36.7962 18.093C36.019 19.2825 35.6305 20.5989 35.6305 22.0422L33.4656 21.9708C33.4656 19.9724 33.9652 18.1803 34.9643 16.5943C35.9794 15.0083 37.3116 13.7633 38.9611 12.8592C40.6105 11.9394 42.4027 11.4794 44.3376 11.4794C46.3835 11.4794 48.2391 11.9869 49.9044 13.002C51.5697 14.0012 52.8941 15.4682 53.8774 17.4031C54.8765 19.338 55.3761 21.6933 55.3761 24.4687C55.3761 27.276 54.8845 29.655 53.9012 31.6057C52.9337 33.5565 51.6094 35.0394 49.9282 36.0545C48.2629 37.0536 46.3994 37.5532 44.3376 37.5532Z" fill="white"/>
<path d="M60.517 25.7058V23.0651H80.9764L80.4054 23.874C80.4054 23.7788 80.4054 23.6995 80.4054 23.6361C80.4054 23.5568 80.4054 23.4775 80.4054 23.3982C80.4054 21.7646 80.0565 20.2421 79.3587 18.8305C78.6608 17.419 77.6458 16.285 76.3135 15.4286C74.9972 14.5721 73.3874 14.1439 71.4842 14.1439C69.5493 14.1439 67.8443 14.588 66.3693 15.4761C64.8944 16.3484 63.7445 17.5617 62.9198 19.116C62.0951 20.6544 61.6827 22.4466 61.6827 24.4925C61.6827 26.5543 62.0871 28.3703 62.896 29.9404C63.7207 31.4947 64.8706 32.708 66.3455 33.5803C67.8205 34.4367 69.5413 34.865 71.508 34.865C72.9512 34.865 74.2042 34.6905 75.2668 34.3416C76.3453 33.9768 77.2334 33.501 77.9313 32.9142C78.645 32.3274 79.1842 31.7088 79.549 31.0586C79.9296 30.3925 80.1517 29.766 80.2151 29.1792H83.1413C83.0778 30.1149 82.7765 31.0744 82.2373 32.0577C81.7139 33.0252 80.9605 33.9292 79.9772 34.7698C79.0097 35.6104 77.8044 36.2924 76.3611 36.8157C74.9337 37.3233 73.2843 37.577 71.4128 37.577C68.9704 37.577 66.7976 37.0219 64.8944 35.9117C63.007 34.8015 61.5162 33.271 60.4218 31.3203C59.3434 29.3536 58.8041 27.0936 58.8041 24.5401C58.8041 21.9708 59.3513 19.7108 60.4456 17.76C61.54 15.7933 63.0387 14.2549 64.9419 13.1447C66.8451 12.0345 69.01 11.4794 71.4366 11.4794C73.9108 11.4794 76.0518 12.0425 77.8599 13.1685C79.6679 14.2946 81.0636 15.8251 82.0469 17.76C83.0302 19.679 83.5219 21.836 83.5219 24.2309C83.5219 24.437 83.514 24.6987 83.4981 25.0159C83.4981 25.3331 83.4902 25.5631 83.4743 25.7058H60.517Z" fill="white"/>
<path d="M106.27 37.1012V24.5401C106.27 23.763 106.27 23.1444 106.27 22.6845C106.27 22.2246 106.27 21.7726 106.27 21.3285C106.27 19.9169 106.016 18.6878 105.509 17.641C105.017 16.5784 104.256 15.7537 103.225 15.1669C102.194 14.5642 100.87 14.2628 99.2519 14.2628C97.8245 14.2628 96.4844 14.6197 95.2314 15.3334C93.9785 16.0312 92.9634 16.9828 92.1863 18.1882C91.425 19.3936 91.0444 20.7496 91.0444 22.2563L89.2601 21.5902C89.2601 19.6711 89.7518 17.9503 90.7351 16.4277C91.7343 14.9052 93.0348 13.6998 94.6367 12.8117C96.2544 11.9235 97.9673 11.4794 99.7753 11.4794C101.694 11.4794 103.36 11.8442 104.771 12.5738C106.183 13.2875 107.269 14.3263 108.03 15.6902C108.808 17.0383 109.196 18.6799 109.196 20.6148C109.196 21.2809 109.196 21.9946 109.196 22.7559C109.196 23.5172 109.196 24.2071 109.196 24.8256V37.1012H106.27ZM88.0944 37.1012V11.8363H91.0444V37.1012H88.0944Z" fill="white"/>
<path fill-rule="evenodd" clip-rule="evenodd" d="M167.011 29.2011C167.315 31.0423 169.718 32.0296 171.305 30.1109C172.496 28.6717 174.628 28.4702 176.067 29.6608C177.506 30.8515 177.708 32.9835 176.517 34.4227C170.944 41.1593 160.603 37.5374 160.252 29.0418C160.238 28.9215 160.232 28.8025 160.232 28.6857L160.247 11.1057C160.247 9.35539 161.761 7.93652 163.629 7.93652C165.497 7.93653 167.011 9.3554 167.011 11.1057L167.011 29.2011Z" fill="url(#paint0_linear_3442_3808)"/>
<path fill-rule="evenodd" clip-rule="evenodd" d="M129.144 10.4777C130.762 11.4116 131.316 13.4801 130.382 15.0978L118.457 35.7514C117.524 37.369 115.455 37.9233 113.837 36.9893C112.22 36.0553 111.665 33.9869 112.599 32.3692L124.524 11.7156C125.458 10.098 127.526 9.54374 129.144 10.4777Z" fill="url(#paint1_linear_3442_3808)"/>
<path fill-rule="evenodd" clip-rule="evenodd" d="M147.442 37.6191C145.574 37.6191 144.06 36.1049 144.06 34.237L144.06 16.232C144.06 14.3641 145.574 12.8498 147.442 12.8498C149.31 12.8498 150.825 14.3641 150.825 16.232L150.825 34.237C150.825 36.1049 149.31 37.6191 147.442 37.6191Z" fill="url(#paint2_linear_3442_3808)"/>
<path fill-rule="evenodd" clip-rule="evenodd" d="M150.28 24.1514L149.036 24.1767L144.057 24.1433C144.102 22.8729 144.864 20.5091 145.44 19.4029C146.043 18.2466 146.9 17.0565 147.984 16.0354C150.166 13.9814 153.628 12.354 157.655 13.8635C159.258 14.4646 160.07 16.2516 159.469 17.8549C158.868 19.4581 157.081 20.2706 155.478 19.6695C154.348 19.2458 153.299 19.5476 152.235 20.5496C151.697 21.0564 151.249 21.4876 150.939 22.269C150.787 22.9921 150.821 24.1429 150.821 24.1429L150.28 24.1514Z" fill="url(#paint3_linear_3442_3808)"/>
<path fill-rule="evenodd" clip-rule="evenodd" d="M160.232 16.9454L160.232 14.0811L171.362 14.0812C172.628 14.0812 174.326 15.3084 174.326 17.0206C174.477 18.6633 173.132 20.2818 171.362 20.2818H160.247L160.232 16.9454Z" fill="url(#paint4_linear_3442_3808)"/>
<g style="mix-blend-mode:overlay" opacity="0.2">
<path d="M160.246 20.3101H166.986L166.986 23.2421H160.246V20.3101Z" fill="url(#paint5_linear_3442_3808)"/>
</g>
<path fill-rule="evenodd" clip-rule="evenodd" d="M124.319 12.1444C124.592 11.4666 125.084 10.8716 125.766 10.4781C127.384 9.54415 129.452 10.0984 130.386 11.7161L142.311 32.3696C143.244 33.9873 142.69 36.0558 141.073 36.9897C139.455 37.9237 137.386 37.3694 136.452 35.7518L127.413 20.0948L127.462 20.2211C125.668 16.6575 122.899 16.2777 121.739 16.5333L124.306 12.1088L124.319 12.1444Z" fill="url(#paint6_linear_3442_3808)"/>
<defs>
<linearGradient id="paint0_linear_3442_3808" x1="160.232" y1="7.93652" x2="183.492" y2="13.9508" gradientUnits="userSpaceOnUse">
<stop stop-color="#9D0AFC"/>
<stop offset="1" stop-color="#0359FF"/>
</linearGradient>
<linearGradient id="paint1_linear_3442_3808" x1="126.581" y1="13.9332" x2="132.053" y2="20.5085" gradientUnits="userSpaceOnUse">
<stop stop-color="#00DFBA"/>
<stop offset="1" stop-color="#048AFE"/>
</linearGradient>
<linearGradient id="paint2_linear_3442_3808" x1="147.542" y1="13.7545" x2="147.542" y2="39.7381" gradientUnits="userSpaceOnUse">
<stop stop-color="#5900EB"/>
<stop offset="1" stop-color="#E367EE"/>
</linearGradient>
<linearGradient id="paint3_linear_3442_3808" x1="147.004" y1="24.2089" x2="160.785" y2="14.9748" gradientUnits="userSpaceOnUse">
<stop stop-color="#9129EC"/>
<stop offset="1" stop-color="#9F03FF"/>
</linearGradient>
<linearGradient id="paint4_linear_3442_3808" x1="167.63" y1="15.6777" x2="175.488" y2="23.899" gradientUnits="userSpaceOnUse">
<stop stop-color="#930FFC"/>
<stop offset="0.865143" stop-color="#004BFB"/>
</linearGradient>
<linearGradient id="paint5_linear_3442_3808" x1="163.616" y1="20.3639" x2="163.616" y2="22.9093" gradientUnits="userSpaceOnUse">
<stop/>
<stop offset="1" stop-opacity="0"/>
</linearGradient>
<linearGradient id="paint6_linear_3442_3808" x1="120.97" y1="10.2762" x2="153.943" y2="18.5295" gradientUnits="userSpaceOnUse">
<stop stop-color="#0056FE"/>
<stop offset="0.815625" stop-color="#D159ED"/>
</linearGradient>
</defs>
</svg>
