<svg width="178" height="48" viewBox="0 0 178 48" fill="none" xmlns="http://www.w3.org/2000/svg">
<path d="M14.4306 37.5531C12.4322 37.5531 10.6004 37.1487 8.93508 36.3398C7.26978 35.5151 5.81859 34.3335 4.58152 32.7951C3.3603 31.2408 2.4087 29.3455 1.72672 27.1093C1.0606 24.873 0.727539 22.3434 0.727539 19.5203C0.727539 16.6813 1.0606 14.1596 1.72672 11.9551C2.4087 9.73467 3.3603 7.85526 4.58152 6.31684C5.81859 4.77843 7.26978 3.61272 8.93508 2.81972C10.6162 2.02672 12.4481 1.63022 14.4306 1.63022C16.4289 1.63022 18.2608 2.02672 19.9261 2.81972C21.6072 3.61272 23.0584 4.77843 24.2796 6.31684C25.5167 7.85526 26.4683 9.73467 27.1344 11.9551C27.8164 14.1596 28.1574 16.6813 28.1574 19.5203C28.1574 22.3434 27.8164 24.873 27.1344 27.1093C26.4683 29.3455 25.5167 31.2408 24.2796 32.7951C23.0584 34.3335 21.6072 35.5151 19.9261 36.3398C18.2608 37.1487 16.4289 37.5531 14.4306 37.5531ZM14.4306 34.8886C16.5399 34.8886 18.3956 34.2939 19.9974 33.1044C21.6151 31.9149 22.876 30.1782 23.78 27.8944C24.6999 25.6105 25.1598 22.8192 25.1598 19.5203C25.1598 16.2055 24.6999 13.4221 23.78 11.17C22.8601 8.90202 21.5913 7.18914 19.9736 6.03136C18.3718 4.87358 16.5241 4.2947 14.4306 4.2947C12.3529 4.2947 10.5052 4.87358 8.8875 6.03136C7.26978 7.18914 6.00098 8.90202 5.0811 11.17C4.16123 13.4221 3.70129 16.2055 3.70129 19.5203C3.70129 22.835 4.16123 25.6343 5.0811 27.9181C6.00098 30.202 7.26978 31.9386 8.8875 33.1281C10.5052 34.3018 12.3529 34.8886 14.4306 34.8886Z" fill="white"/>
<path d="M32.35 47.4973V11.8361H35.2999V47.4973H32.35ZM44.0071 37.5531C42.0722 37.5531 40.28 37.0852 38.6305 36.1495C36.9811 35.2137 35.6489 33.9449 34.6338 32.3431C33.6347 30.7412 33.1351 28.9411 33.1351 26.9428C33.1351 26.8952 33.1351 26.8555 33.1351 26.8238C33.1351 26.7921 33.1351 26.7604 33.1351 26.7286L35.2999 26.6811C35.2999 26.7128 35.2999 26.7445 35.2999 26.7762C35.2999 26.8079 35.2999 26.8397 35.2999 26.8714C35.2999 28.2988 35.6885 29.6152 36.4657 30.8205C37.2428 32.0259 38.2578 32.9854 39.5108 33.6991C40.7796 34.4128 42.1515 34.7697 43.6264 34.7697C46.0689 34.7697 48.0752 33.9053 49.6453 32.1765C51.2313 30.4319 52.0243 27.8626 52.0243 24.4686C52.0243 21.0587 51.2313 18.4894 49.6453 16.7606C48.0752 15.0319 46.0689 14.1675 43.6264 14.1675C42.1515 14.1675 40.7796 14.5244 39.5108 15.2381C38.2578 15.9518 37.2428 16.9034 36.4657 18.0929C35.6885 19.2824 35.2999 20.5988 35.2999 22.042L33.1351 21.9706C33.1351 19.9723 33.6347 18.1801 34.6338 16.5941C35.6489 15.0081 36.9811 13.7631 38.6305 12.8591C40.28 11.9392 42.0722 11.4793 44.0071 11.4793C46.053 11.4793 47.9086 11.9868 49.5739 13.0018C51.2392 14.001 52.5635 15.4681 53.5469 17.403C54.546 19.3379 55.0456 21.6931 55.0456 24.4686C55.0456 27.2758 54.554 29.6548 53.5707 31.6056C52.6032 33.5564 51.2789 35.0393 49.5977 36.0543C47.9324 37.0535 46.0689 37.5531 44.0071 37.5531Z" fill="white"/>
<path d="M60.1865 25.7057V23.065H80.6459L80.0749 23.8738C80.0749 23.7787 80.0749 23.6994 80.0749 23.6359C80.0749 23.5566 80.0749 23.4773 80.0749 23.398C80.0749 21.7645 79.726 20.2419 79.0282 18.8304C78.3303 17.4188 77.3153 16.2848 75.983 15.4284C74.6667 14.572 73.0569 14.1437 71.1537 14.1437C69.2188 14.1437 67.5138 14.5878 66.0388 15.476C64.5638 16.3483 63.414 17.5616 62.5893 19.1159C61.7646 20.6543 61.3522 22.4464 61.3522 24.4924C61.3522 26.5542 61.7566 28.3702 62.5655 29.9403C63.3902 31.4946 64.5401 32.7079 66.015 33.5802C67.49 34.4366 69.2108 34.8648 71.1775 34.8648C72.6207 34.8648 73.8737 34.6904 74.9363 34.3414C76.0148 33.9767 76.9029 33.5009 77.6008 32.914C78.3145 32.3272 78.8537 31.7087 79.2185 31.0584C79.5991 30.3923 79.8212 29.7658 79.8846 29.179H82.8108C82.7473 30.1148 82.446 31.0743 81.9067 32.0576C81.3834 33.0251 80.63 33.9291 79.6467 34.7697C78.6792 35.6102 77.4739 36.2922 76.0306 36.8156C74.6032 37.3231 72.9538 37.5769 71.0823 37.5769C68.6399 37.5769 66.467 37.0218 64.5638 35.9116C62.6765 34.8014 61.1857 33.2709 60.0913 31.3201C59.0129 29.3535 58.4736 27.0934 58.4736 24.54C58.4736 21.9706 59.0208 19.7106 60.1151 17.7598C61.2095 15.7932 62.7082 14.2548 64.6114 13.1446C66.5146 12.0344 68.6795 11.4793 71.1061 11.4793C73.5803 11.4793 75.7213 12.0423 77.5294 13.1684C79.3374 14.2944 80.7331 15.8249 81.7164 17.7598C82.6997 19.6789 83.1914 21.8358 83.1914 24.2307C83.1914 24.4369 83.1835 24.6986 83.1676 25.0158C83.1676 25.333 83.1597 25.5629 83.1438 25.7057H60.1865Z" fill="white"/>
<path d="M105.939 37.1011V24.54C105.939 23.7628 105.939 23.1443 105.939 22.6843C105.939 22.2244 105.939 21.7724 105.939 21.3283C105.939 19.9168 105.686 18.6876 105.178 17.6409C104.687 16.5783 103.925 15.7535 102.894 15.1667C101.863 14.564 100.539 14.2627 98.9214 14.2627C97.494 14.2627 96.1538 14.6195 94.9009 15.3332C93.648 16.0311 92.6329 16.9827 91.8558 18.188C91.0945 19.3934 90.7139 20.7494 90.7139 22.2561L88.9296 21.59C88.9296 19.671 89.4213 17.9501 90.4046 16.4276C91.4038 14.905 92.7043 13.6997 94.3062 12.8115C95.9239 11.9233 97.6368 11.4793 99.4448 11.4793C101.364 11.4793 103.029 11.844 104.441 12.5736C105.852 13.2873 106.939 14.3261 107.7 15.6901C108.477 17.0382 108.866 18.6797 108.866 20.6146C108.866 21.2807 108.866 21.9944 108.866 22.7557C108.866 23.517 108.866 24.2069 108.866 24.8254V37.1011H105.939ZM87.7639 37.1011V11.8361H90.7139V37.1011H87.7639Z" fill="white"/>
<path fill-rule="evenodd" clip-rule="evenodd" d="M166.681 29.2011C166.985 31.0423 169.387 32.0296 170.975 30.1109C172.165 28.6717 174.297 28.4702 175.737 29.6608C177.176 30.8515 177.377 32.9834 176.187 34.4227C170.614 41.1593 160.273 37.5374 159.921 29.0418C159.908 28.9214 159.901 28.8024 159.901 28.6856L159.917 11.1056C159.917 9.35536 161.431 7.93649 163.299 7.93649C165.167 7.93649 166.681 9.35537 166.681 11.1056L166.681 29.2011Z" fill="url(#paint0_linear_3442_6496)"/>
<path fill-rule="evenodd" clip-rule="evenodd" d="M128.814 10.4779C130.431 11.4119 130.986 13.4804 130.052 15.098L118.127 35.7516C117.193 37.3693 115.125 37.9235 113.507 36.9895C111.89 36.0556 111.335 33.9871 112.269 32.3695L124.194 11.7159C125.128 10.0982 127.196 9.54398 128.814 10.4779Z" fill="url(#paint1_linear_3442_6496)"/>
<path fill-rule="evenodd" clip-rule="evenodd" d="M147.112 37.6192C145.244 37.6192 143.73 36.105 143.73 34.2371L143.73 16.2321C143.73 14.3641 145.244 12.8499 147.112 12.8499C148.98 12.8499 150.494 14.3641 150.494 16.2321L150.494 34.2371C150.494 36.105 148.98 37.6192 147.112 37.6192Z" fill="url(#paint2_linear_3442_6496)"/>
<path fill-rule="evenodd" clip-rule="evenodd" d="M149.95 24.1512L148.706 24.1766L143.728 24.1432C143.773 22.8728 144.534 20.509 145.111 19.4027C145.713 18.2465 146.57 17.0564 147.655 16.0352C149.836 13.9813 153.299 12.3538 157.325 13.8634C158.928 14.4645 159.741 16.2515 159.14 17.8548C158.539 19.458 156.752 20.2705 155.148 19.6694C154.018 19.2457 152.97 19.5475 151.906 20.5495C151.367 21.0563 150.92 21.4875 150.609 22.2689C150.458 22.992 150.491 24.1428 150.491 24.1428L149.95 24.1512Z" fill="url(#paint3_linear_3442_6496)"/>
<path fill-rule="evenodd" clip-rule="evenodd" d="M159.901 16.9455L159.901 14.0812L171.031 14.0813C172.298 14.0813 173.996 15.3085 173.996 17.0207C174.147 18.6634 172.802 20.2819 171.031 20.2819H159.917L159.901 16.9455Z" fill="url(#paint4_linear_3442_6496)"/>
<g style="mix-blend-mode:overlay" opacity="0.2">
<path d="M159.916 20.3101H166.655L166.655 23.2422H159.916V20.3101Z" fill="url(#paint5_linear_3442_6496)"/>
</g>
<path fill-rule="evenodd" clip-rule="evenodd" d="M123.99 12.1442C124.262 11.4664 124.755 10.8715 125.436 10.4779C127.054 9.54396 129.122 10.0982 130.056 11.7159L141.981 32.3694C142.915 33.9871 142.36 36.0556 140.743 36.9895C139.125 37.9235 137.057 37.3692 136.123 35.7516L127.083 20.0946L127.132 20.2209C125.339 16.6573 122.57 16.2776 121.409 16.5331L123.976 12.1086L123.99 12.1442Z" fill="url(#paint6_linear_3442_6496)"/>
<defs>
<linearGradient id="paint0_linear_3442_6496" x1="159.901" y1="7.93649" x2="183.162" y2="13.9508" gradientUnits="userSpaceOnUse">
<stop stop-color="#9D0AFC"/>
<stop offset="1" stop-color="#0359FF"/>
</linearGradient>
<linearGradient id="paint1_linear_3442_6496" x1="126.251" y1="13.9335" x2="131.723" y2="20.5087" gradientUnits="userSpaceOnUse">
<stop stop-color="#00DFBA"/>
<stop offset="1" stop-color="#048AFE"/>
</linearGradient>
<linearGradient id="paint2_linear_3442_6496" x1="147.212" y1="13.7546" x2="147.212" y2="39.7382" gradientUnits="userSpaceOnUse">
<stop stop-color="#5900EB"/>
<stop offset="1" stop-color="#E367EE"/>
</linearGradient>
<linearGradient id="paint3_linear_3442_6496" x1="146.674" y1="24.2088" x2="160.455" y2="14.9747" gradientUnits="userSpaceOnUse">
<stop stop-color="#9129EC"/>
<stop offset="1" stop-color="#9F03FF"/>
</linearGradient>
<linearGradient id="paint4_linear_3442_6496" x1="167.3" y1="15.6779" x2="175.158" y2="23.8991" gradientUnits="userSpaceOnUse">
<stop stop-color="#930FFC"/>
<stop offset="0.865143" stop-color="#004BFB"/>
</linearGradient>
<linearGradient id="paint5_linear_3442_6496" x1="163.286" y1="20.364" x2="163.286" y2="22.9093" gradientUnits="userSpaceOnUse">
<stop/>
<stop offset="1" stop-opacity="0"/>
</linearGradient>
<linearGradient id="paint6_linear_3442_6496" x1="120.64" y1="10.276" x2="153.613" y2="18.5293" gradientUnits="userSpaceOnUse">
<stop stop-color="#0056FE"/>
<stop offset="0.815625" stop-color="#D159ED"/>
</linearGradient>
</defs>
</svg>
