<svg width="179" height="48" viewBox="0 0 179 48" fill="none" xmlns="http://www.w3.org/2000/svg">
<path d="M14.7606 37.5532C12.7623 37.5532 10.9305 37.1488 9.26516 36.3399C7.59986 35.5152 6.14867 34.3337 4.91159 32.7952C3.69037 31.241 2.73878 29.3457 2.0568 27.1094C1.39068 24.8732 1.05762 22.3435 1.05762 19.5204C1.05762 16.6815 1.39068 14.1598 2.0568 11.9552C2.73878 9.73482 3.69037 7.85542 4.91159 6.317C6.14867 4.77858 7.59986 3.61287 9.26516 2.81987C10.9463 2.02687 12.7781 1.63037 14.7606 1.63037C16.759 1.63037 18.5908 2.02687 20.2561 2.81987C21.9373 3.61287 23.3885 4.77858 24.6097 6.317C25.8468 7.85542 26.7984 9.73482 27.4645 11.9552C28.1465 14.1598 28.4875 16.6815 28.4875 19.5204C28.4875 22.3435 28.1465 24.8732 27.4645 27.1094C26.7984 29.3457 25.8468 31.241 24.6097 32.7952C23.3885 34.3337 21.9373 35.5152 20.2561 36.3399C18.5908 37.1488 16.759 37.5532 14.7606 37.5532ZM14.7606 34.8888C16.87 34.8888 18.7256 34.294 20.3275 33.1045C21.9452 31.915 23.2061 30.1783 24.1101 27.8945C25.03 25.6107 25.4899 22.8193 25.4899 19.5204C25.4899 16.2057 25.03 13.4223 24.1101 11.1702C23.1902 8.90217 21.9214 7.18929 20.3037 6.03152C18.7018 4.87374 16.8542 4.29485 14.7606 4.29485C12.683 4.29485 10.8353 4.87374 9.21758 6.03152C7.59986 7.18929 6.33106 8.90217 5.41118 11.1702C4.4913 13.4223 4.03136 16.2057 4.03136 19.5204C4.03136 22.8352 4.4913 25.6345 5.41118 27.9183C6.33106 30.2021 7.59986 31.9388 9.21758 33.1283C10.8353 34.3019 12.683 34.8888 14.7606 34.8888Z" fill="#222222"/>
<path d="M32.6801 47.4974V11.8363H35.63V47.4974H32.6801ZM44.3372 37.5532C42.4022 37.5532 40.6101 37.0854 38.9606 36.1496C37.3112 35.2139 35.9789 33.9451 34.9639 32.3432C33.9647 30.7414 33.4651 28.9413 33.4651 26.9429C33.4651 26.8953 33.4651 26.8557 33.4651 26.824C33.4651 26.7922 33.4651 26.7605 33.4651 26.7288L35.63 26.6812C35.63 26.7129 35.63 26.7447 35.63 26.7764C35.63 26.8081 35.63 26.8398 35.63 26.8715C35.63 28.2989 36.0186 29.6153 36.7957 30.8207C37.5729 32.026 38.5879 32.9856 39.8409 33.6993C41.1097 34.413 42.4815 34.7698 43.9565 34.7698C46.399 34.7698 48.4052 33.9054 49.9754 32.1767C51.5614 30.4321 52.3544 27.8628 52.3544 24.4687C52.3544 21.0589 51.5614 18.4895 49.9754 16.7608C48.4052 15.0321 46.399 14.1677 43.9565 14.1677C42.4815 14.1677 41.1097 14.5245 39.8409 15.2382C38.5879 15.9519 37.5729 16.9035 36.7957 18.093C36.0186 19.2825 35.63 20.5989 35.63 22.0422L33.4651 21.9708C33.4651 19.9724 33.9647 18.1803 34.9639 16.5943C35.9789 15.0083 37.3112 13.7633 38.9606 12.8592C40.6101 11.9394 42.4022 11.4794 44.3372 11.4794C46.3831 11.4794 48.2387 11.9869 49.904 13.002C51.5693 14.0012 52.8936 15.4682 53.8769 17.4031C54.8761 19.338 55.3757 21.6933 55.3757 24.4687C55.3757 27.276 54.884 29.655 53.9007 31.6057C52.9333 33.5565 51.609 35.0394 49.9278 36.0545C48.2625 37.0536 46.399 37.5532 44.3372 37.5532Z" fill="#222222"/>
<path d="M60.5166 25.7058V23.0651H80.976L80.405 23.874C80.405 23.7788 80.405 23.6995 80.405 23.6361C80.405 23.5568 80.405 23.4775 80.405 23.3982C80.405 21.7646 80.0561 20.2421 79.3582 18.8305C78.6604 17.419 77.6454 16.285 76.3131 15.4286C74.9967 14.5721 73.3869 14.1439 71.4837 14.1439C69.5488 14.1439 67.8439 14.588 66.3689 15.4761C64.8939 16.3484 63.7441 17.5617 62.9194 19.116C62.0946 20.6544 61.6823 22.4466 61.6823 24.4925C61.6823 26.5543 62.0867 28.3703 62.8956 29.9404C63.7203 31.4947 64.8701 32.708 66.3451 33.5803C67.8201 34.4367 69.5409 34.865 71.5075 34.865C72.9508 34.865 74.2037 34.6905 75.2664 34.3416C76.3448 33.9768 77.233 33.501 77.9308 32.9142C78.6445 32.3274 79.1838 31.7088 79.5486 31.0586C79.9292 30.3925 80.1512 29.766 80.2147 29.1792H83.1408C83.0774 30.1149 82.7761 31.0744 82.2368 32.0577C81.7134 33.0252 80.9601 33.9292 79.9768 34.7698C79.0093 35.6104 77.804 36.2924 76.3607 36.8157C74.9333 37.3233 73.2839 37.577 71.4124 37.577C68.9699 37.577 66.7971 37.0219 64.8939 35.9117C63.0066 34.8015 61.5158 33.271 60.4214 31.3203C59.3429 29.3536 58.8037 27.0936 58.8037 24.5401C58.8037 21.9708 59.3509 19.7108 60.4452 17.76C61.5395 15.7933 63.0383 14.2549 64.9415 13.1447C66.8447 12.0345 69.0096 11.4794 71.4362 11.4794C73.9103 11.4794 76.0514 12.0425 77.8595 13.1685C79.6675 14.2946 81.0632 15.8251 82.0465 17.76C83.0298 19.679 83.5215 21.836 83.5215 24.2309C83.5215 24.437 83.5136 24.6987 83.4977 25.0159C83.4977 25.3331 83.4898 25.5631 83.4739 25.7058H60.5166Z" fill="#222222"/>
<path d="M106.27 37.1012V24.5401C106.27 23.763 106.27 23.1444 106.27 22.6845C106.27 22.2246 106.27 21.7726 106.27 21.3285C106.27 19.9169 106.016 18.6878 105.508 17.641C105.017 16.5784 104.255 15.7537 103.224 15.1669C102.194 14.5642 100.869 14.2628 99.2515 14.2628C97.8241 14.2628 96.4839 14.6197 95.231 15.3334C93.9781 16.0312 92.963 16.9828 92.1859 18.1882C91.4246 19.3936 91.044 20.7496 91.044 22.2563L89.2597 21.5902C89.2597 19.6711 89.7514 17.9503 90.7347 16.4277C91.7339 14.9052 93.0344 13.6998 94.6362 12.8117C96.254 11.9235 97.9668 11.4794 99.7749 11.4794C101.694 11.4794 103.359 11.8442 104.771 12.5738C106.182 13.2875 107.269 14.3263 108.03 15.6902C108.807 17.0383 109.196 18.6799 109.196 20.6148C109.196 21.2809 109.196 21.9946 109.196 22.7559C109.196 23.5172 109.196 24.2071 109.196 24.8256V37.1012H106.27ZM88.094 37.1012V11.8363H91.044V37.1012H88.094Z" fill="#222222"/>
<path fill-rule="evenodd" clip-rule="evenodd" d="M167.011 29.2011C167.315 31.0423 169.718 32.0296 171.305 30.1109C172.495 28.6717 174.627 28.4702 176.067 29.6608C177.506 30.8515 177.707 32.9835 176.517 34.4227C170.944 41.1593 160.603 37.5374 160.252 29.0418C160.238 28.9215 160.231 28.8025 160.231 28.6857L160.247 11.1057C160.247 9.35539 161.761 7.93652 163.629 7.93652C165.497 7.93653 167.011 9.3554 167.011 11.1057L167.011 29.2011Z" fill="url(#paint0_linear_3442_3730)"/>
<path fill-rule="evenodd" clip-rule="evenodd" d="M129.144 10.4777C130.762 11.4116 131.316 13.4801 130.382 15.0978L118.457 35.7514C117.524 37.369 115.455 37.9233 113.837 36.9893C112.22 36.0553 111.665 33.9869 112.599 32.3692L124.524 11.7156C125.458 10.098 127.526 9.54374 129.144 10.4777Z" fill="url(#paint1_linear_3442_3730)"/>
<path fill-rule="evenodd" clip-rule="evenodd" d="M147.442 37.6191C145.574 37.6191 144.06 36.1049 144.06 34.237L144.06 16.232C144.06 14.3641 145.574 12.8498 147.442 12.8498C149.31 12.8498 150.824 14.3641 150.824 16.232L150.824 34.237C150.824 36.1049 149.31 37.6191 147.442 37.6191Z" fill="url(#paint2_linear_3442_3730)"/>
<path fill-rule="evenodd" clip-rule="evenodd" d="M150.28 24.1514L149.036 24.1767L144.058 24.1433C144.103 22.8729 144.864 20.5091 145.441 19.4029C146.043 18.2466 146.9 17.0565 147.985 16.0354C150.166 13.9814 153.629 12.354 157.655 13.8635C159.258 14.4646 160.071 16.2516 159.47 17.8549C158.869 19.4581 157.082 20.2706 155.478 19.6695C154.348 19.2458 153.3 19.5476 152.236 20.5496C151.697 21.0564 151.25 21.4876 150.939 22.269C150.788 22.9921 150.822 24.1429 150.822 24.1429L150.28 24.1514Z" fill="url(#paint3_linear_3442_3730)"/>
<path fill-rule="evenodd" clip-rule="evenodd" d="M160.231 16.9454L160.231 14.0811L171.362 14.0812C172.628 14.0812 174.326 15.3084 174.326 17.0206C174.477 18.6633 173.132 20.2818 171.362 20.2818H160.247L160.231 16.9454Z" fill="url(#paint4_linear_3442_3730)"/>
<g style="mix-blend-mode:overlay" opacity="0.2">
<path d="M160.246 20.3101H166.986L166.986 23.2421H160.246V20.3101Z" fill="url(#paint5_linear_3442_3730)"/>
</g>
<path fill-rule="evenodd" clip-rule="evenodd" d="M124.32 12.1444C124.592 11.4666 125.085 10.8716 125.766 10.4781C127.384 9.54415 129.452 10.0984 130.386 11.7161L142.311 32.3696C143.245 33.9873 142.69 36.0558 141.073 36.9897C139.455 37.9237 137.387 37.3694 136.453 35.7518L127.413 20.0948L127.462 20.2211C125.669 16.6575 122.9 16.2777 121.739 16.5333L124.306 12.1088L124.32 12.1444Z" fill="url(#paint6_linear_3442_3730)"/>
<defs>
<linearGradient id="paint0_linear_3442_3730" x1="160.231" y1="7.93652" x2="183.492" y2="13.9508" gradientUnits="userSpaceOnUse">
<stop stop-color="#9D0AFC"/>
<stop offset="1" stop-color="#0359FF"/>
</linearGradient>
<linearGradient id="paint1_linear_3442_3730" x1="126.581" y1="13.9332" x2="132.053" y2="20.5085" gradientUnits="userSpaceOnUse">
<stop stop-color="#00DFBA"/>
<stop offset="1" stop-color="#048AFE"/>
</linearGradient>
<linearGradient id="paint2_linear_3442_3730" x1="147.542" y1="13.7545" x2="147.542" y2="39.7381" gradientUnits="userSpaceOnUse">
<stop stop-color="#5900EB"/>
<stop offset="1" stop-color="#E367EE"/>
</linearGradient>
<linearGradient id="paint3_linear_3442_3730" x1="147.004" y1="24.2089" x2="160.786" y2="14.9748" gradientUnits="userSpaceOnUse">
<stop stop-color="#9129EC"/>
<stop offset="1" stop-color="#9F03FF"/>
</linearGradient>
<linearGradient id="paint4_linear_3442_3730" x1="167.63" y1="15.6777" x2="175.488" y2="23.899" gradientUnits="userSpaceOnUse">
<stop stop-color="#930FFC"/>
<stop offset="0.865143" stop-color="#004BFB"/>
</linearGradient>
<linearGradient id="paint5_linear_3442_3730" x1="163.616" y1="20.3639" x2="163.616" y2="22.9093" gradientUnits="userSpaceOnUse">
<stop/>
<stop offset="1" stop-opacity="0"/>
</linearGradient>
<linearGradient id="paint6_linear_3442_3730" x1="120.97" y1="10.2762" x2="153.943" y2="18.5295" gradientUnits="userSpaceOnUse">
<stop stop-color="#0056FE"/>
<stop offset="0.815625" stop-color="#D159ED"/>
</linearGradient>
</defs>
</svg>
