<svg width="178" height="47" viewBox="0 0 178 47" fill="none" xmlns="http://www.w3.org/2000/svg">
<path d="M13.9085 36.5589C11.9101 36.5589 10.0783 36.1544 8.41299 35.3456C6.74769 34.5208 5.2965 33.3393 4.05942 31.8009C2.8382 30.2466 1.8866 28.3513 1.20462 26.1151C0.538504 23.8788 0.205444 21.3491 0.205444 18.526C0.205444 15.6871 0.538504 13.1654 1.20462 10.9608C1.8866 8.74044 2.8382 6.86103 4.05942 5.32261C5.2965 3.78419 6.74769 2.61848 8.41299 1.82548C10.0941 1.03249 11.926 0.635986 13.9085 0.635986C15.9068 0.635986 17.7387 1.03249 19.404 1.82548C21.0851 2.61848 22.5363 3.78419 23.7575 5.32261C24.9946 6.86103 25.9462 8.74044 26.6123 10.9608C27.2943 13.1654 27.6353 15.6871 27.6353 18.526C27.6353 21.3491 27.2943 23.8788 26.6123 26.1151C25.9462 28.3513 24.9946 30.2466 23.7575 31.8009C22.5363 33.3393 21.0851 34.5208 19.404 35.3456C17.7387 36.1544 15.9068 36.5589 13.9085 36.5589ZM13.9085 33.8944C16.0179 33.8944 17.8735 33.2996 19.4753 32.1101C21.093 30.9206 22.3539 29.184 23.2579 26.9001C24.1778 24.6163 24.6377 21.8249 24.6377 18.526C24.6377 15.2113 24.1778 12.4279 23.2579 10.1758C22.3381 7.90779 21.0693 6.19491 19.4515 5.03713C17.8497 3.87935 16.002 3.30046 13.9085 3.30046C11.8308 3.30046 9.98312 3.87935 8.36541 5.03713C6.74769 6.19491 5.47889 7.90779 4.55901 10.1758C3.63913 12.4279 3.17919 15.2113 3.17919 18.526C3.17919 21.8408 3.63913 24.6401 4.55901 26.9239C5.47889 29.2077 6.74769 30.9444 8.36541 32.1339C9.98312 33.3076 11.8308 33.8944 13.9085 33.8944Z" fill="#222222"/>
<path d="M31.8279 46.5031V10.8419H34.7779V46.5031H31.8279ZM43.485 36.5589C41.5501 36.5589 39.7579 36.091 38.1085 35.1552C36.459 34.2195 35.1268 32.9507 34.1117 31.3488C33.1126 29.747 32.613 27.9469 32.613 25.9485C32.613 25.9009 32.613 25.8613 32.613 25.8296C32.613 25.7979 32.613 25.7661 32.613 25.7344L34.7779 25.6868C34.7779 25.7186 34.7779 25.7503 34.7779 25.782C34.7779 25.8137 34.7779 25.8454 34.7779 25.8771C34.7779 27.3045 35.1664 28.6209 35.9436 29.8263C36.7207 31.0316 37.7357 31.9912 38.9887 32.7049C40.2575 33.4186 41.6294 33.7754 43.1043 33.7754C45.5468 33.7754 47.5531 32.9111 49.1232 31.1823C50.7092 29.4377 51.5022 26.8684 51.5022 23.4744C51.5022 20.0645 50.7092 17.4951 49.1232 15.7664C47.5531 14.0377 45.5468 13.1733 43.1043 13.1733C41.6294 13.1733 40.2575 13.5302 38.9887 14.2439C37.7357 14.9576 36.7207 15.9092 35.9436 17.0986C35.1664 18.2881 34.7779 19.6045 34.7779 21.0478L32.613 20.9764C32.613 18.9781 33.1126 17.1859 34.1117 15.5999C35.1268 14.0139 36.459 12.7689 38.1085 11.8649C39.7579 10.945 41.5501 10.485 43.485 10.485C45.5309 10.485 47.3865 10.9926 49.0518 12.0076C50.7171 13.0068 52.0415 14.4738 53.0248 16.4087C54.0239 18.3437 54.5235 20.6989 54.5235 23.4744C54.5235 26.2816 54.0319 28.6606 53.0486 30.6114C52.0811 32.5621 50.7568 34.045 49.0756 35.0601C47.4103 36.0593 45.5468 36.5589 43.485 36.5589Z" fill="#222222"/>
<path d="M59.6644 24.7114V22.0708H80.1238L79.5528 22.8796C79.5528 22.7845 79.5528 22.7052 79.5528 22.6417C79.5528 22.5624 79.5528 22.4831 79.5528 22.4038C79.5528 20.7702 79.2039 19.2477 78.5061 17.8361C77.8082 16.4246 76.7932 15.2906 75.4609 14.4342C74.1446 13.5777 72.5348 13.1495 70.6316 13.1495C68.6967 13.1495 66.9917 13.5936 65.5167 14.4818C64.0418 15.3541 62.8919 16.5673 62.0672 18.1216C61.2425 19.66 60.8301 21.4522 60.8301 23.4982C60.8301 25.56 61.2345 27.3759 62.0434 28.9461C62.8681 30.5003 64.018 31.7136 65.4929 32.5859C66.9679 33.4424 68.6887 33.8706 70.6554 33.8706C72.0986 33.8706 73.3516 33.6961 74.4142 33.3472C75.4927 32.9824 76.3808 32.5066 77.0787 31.9198C77.7924 31.333 78.3316 30.7144 78.6964 30.0642C79.077 29.3981 79.2991 28.7716 79.3625 28.1848H82.2887C82.2252 29.1205 81.9239 30.08 81.3847 31.0634C80.8613 32.0308 80.1079 32.9348 79.1246 33.7754C78.1571 34.616 76.9518 35.298 75.5085 35.8214C74.0811 36.3289 72.4317 36.5826 70.5602 36.5826C68.1178 36.5826 65.945 36.0275 64.0418 34.9173C62.1544 33.8071 60.6636 32.2767 59.5692 30.3259C58.4908 28.3592 57.9515 26.0992 57.9515 23.5457C57.9515 20.9764 58.4987 18.7164 59.593 16.7656C60.6874 14.799 62.1861 13.2605 64.0893 12.1503C65.9925 11.0401 68.1574 10.485 70.584 10.485C73.0582 10.485 75.1992 11.0481 77.0073 12.1741C78.8153 13.3002 80.211 14.8307 81.1943 16.7656C82.1776 18.6846 82.6693 20.8416 82.6693 23.2365C82.6693 23.4426 82.6614 23.7043 82.6455 24.0215C82.6455 24.3387 82.6376 24.5687 82.6217 24.7114H59.6644Z" fill="#222222"/>
<path d="M105.417 36.1068V23.5457C105.417 22.7686 105.417 22.1501 105.417 21.6901C105.417 21.2302 105.417 20.7782 105.417 20.3341C105.417 18.9225 105.164 17.6934 104.656 16.6466C104.164 15.584 103.403 14.7593 102.372 14.1725C101.341 13.5698 100.017 13.2685 98.3993 13.2685C96.9719 13.2685 95.6318 13.6253 94.3788 14.339C93.1259 15.0369 92.1108 15.9885 91.3337 17.1938C90.5724 18.3992 90.1918 19.7552 90.1918 21.2619L88.4075 20.5958C88.4075 18.6767 88.8992 16.9559 89.8825 15.4334C90.8817 13.9108 92.1822 12.7054 93.7841 11.8173C95.4018 10.9291 97.1147 10.485 98.9227 10.485C100.842 10.485 102.507 10.8498 103.919 11.5794C105.33 12.2931 106.417 13.3319 107.178 14.6959C107.955 16.044 108.344 17.6855 108.344 19.6204C108.344 20.2865 108.344 21.0002 108.344 21.7615C108.344 22.5228 108.344 23.2127 108.344 23.8312V36.1068H105.417ZM87.2418 36.1068V10.8419H90.1918V36.1068H87.2418Z" fill="#222222"/>
<path fill-rule="evenodd" clip-rule="evenodd" d="M166.159 28.207C166.462 30.0482 168.865 31.0355 170.452 29.1168C171.643 27.6776 173.775 27.476 175.214 28.6667C176.653 29.8574 176.855 31.9893 175.664 33.4286C170.091 40.1652 159.751 36.5432 159.399 28.0477C159.386 27.9273 159.379 27.8083 159.379 27.6915L159.394 10.1115C159.394 8.36125 160.909 6.94238 162.776 6.94238C164.644 6.94238 166.159 8.36126 166.159 10.1115L166.159 28.207Z" fill="url(#paint0_linear_3442_2472)"/>
<path fill-rule="evenodd" clip-rule="evenodd" d="M128.291 9.4838C129.909 10.4178 130.463 12.4862 129.529 14.1039L117.605 34.7575C116.671 36.3751 114.602 36.9294 112.985 35.9954C111.367 35.0615 110.813 32.993 111.747 31.3753L123.671 10.7217C124.605 9.10409 126.674 8.54984 128.291 9.4838Z" fill="url(#paint1_linear_3442_2472)"/>
<path fill-rule="evenodd" clip-rule="evenodd" d="M146.59 36.625C144.722 36.625 143.208 35.1108 143.208 33.2429L143.208 15.2379C143.208 13.3699 144.722 11.8557 146.59 11.8557C148.458 11.8557 149.972 13.3699 149.972 15.2379L149.972 33.2429C149.972 35.1108 148.458 36.625 146.59 36.625Z" fill="url(#paint2_linear_3442_2472)"/>
<path fill-rule="evenodd" clip-rule="evenodd" d="M149.427 23.157L148.183 23.1824L143.205 23.1489C143.25 21.8786 144.011 19.5147 144.588 18.4085C145.19 17.2522 146.047 16.0621 147.132 15.041C149.313 12.9871 152.776 11.3596 156.802 12.8691C158.405 13.4702 159.218 15.2572 158.617 16.8605C158.016 18.4638 156.229 19.2762 154.625 18.6751C153.495 18.2515 152.447 18.5532 151.383 19.5552C150.844 20.062 150.397 20.4932 150.086 21.2746C149.935 21.9978 149.968 23.1485 149.968 23.1485L149.427 23.157Z" fill="url(#paint3_linear_3442_2472)"/>
<path fill-rule="evenodd" clip-rule="evenodd" d="M159.379 15.9513L159.379 13.0869L170.509 13.087C171.776 13.087 173.474 14.3142 173.474 16.0265C173.624 17.6691 172.28 19.2876 170.509 19.2876H159.395L159.379 15.9513Z" fill="url(#paint4_linear_3442_2472)"/>
<g style="mix-blend-mode:overlay" opacity="0.2">
<path d="M159.394 19.3159H166.133L166.133 22.248H159.394V19.3159Z" fill="url(#paint5_linear_3442_2472)"/>
</g>
<path fill-rule="evenodd" clip-rule="evenodd" d="M123.467 11.15C123.739 10.4722 124.232 9.87725 124.913 9.48372C126.531 8.54976 128.6 9.10401 129.534 10.7217L141.458 31.3752C142.392 32.9929 141.838 35.0614 140.22 35.9953C138.602 36.9293 136.534 36.375 135.6 34.7574L126.56 19.1004L126.609 19.2267C124.816 15.6631 122.047 15.2833 120.886 15.5389L123.453 11.1144L123.467 11.15Z" fill="url(#paint6_linear_3442_2472)"/>
<defs>
<linearGradient id="paint0_linear_3442_2472" x1="159.379" y1="6.94238" x2="182.64" y2="12.9567" gradientUnits="userSpaceOnUse">
<stop stop-color="#9D0AFC"/>
<stop offset="1" stop-color="#0359FF"/>
</linearGradient>
<linearGradient id="paint1_linear_3442_2472" x1="125.729" y1="12.9393" x2="131.2" y2="19.5146" gradientUnits="userSpaceOnUse">
<stop stop-color="#00DFBA"/>
<stop offset="1" stop-color="#048AFE"/>
</linearGradient>
<linearGradient id="paint2_linear_3442_2472" x1="146.689" y1="12.7604" x2="146.689" y2="38.744" gradientUnits="userSpaceOnUse">
<stop stop-color="#5900EB"/>
<stop offset="1" stop-color="#E367EE"/>
</linearGradient>
<linearGradient id="paint3_linear_3442_2472" x1="146.151" y1="23.2145" x2="159.933" y2="13.9804" gradientUnits="userSpaceOnUse">
<stop stop-color="#9129EC"/>
<stop offset="1" stop-color="#9F03FF"/>
</linearGradient>
<linearGradient id="paint4_linear_3442_2472" x1="166.778" y1="14.6836" x2="174.635" y2="22.9049" gradientUnits="userSpaceOnUse">
<stop stop-color="#930FFC"/>
<stop offset="0.865143" stop-color="#004BFB"/>
</linearGradient>
<linearGradient id="paint5_linear_3442_2472" x1="162.763" y1="19.3698" x2="162.763" y2="21.9151" gradientUnits="userSpaceOnUse">
<stop/>
<stop offset="1" stop-opacity="0"/>
</linearGradient>
<linearGradient id="paint6_linear_3442_2472" x1="120.117" y1="9.28182" x2="153.09" y2="17.5351" gradientUnits="userSpaceOnUse">
<stop stop-color="#0056FE"/>
<stop offset="0.815625" stop-color="#D159ED"/>
</linearGradient>
</defs>
</svg>
