<svg width="178" height="47" viewBox="0 0 178 47" fill="none" xmlns="http://www.w3.org/2000/svg">
<path d="M13.9086 36.5589C11.9102 36.5589 10.0784 36.1544 8.41311 35.3456C6.74781 34.5208 5.29662 33.3393 4.05954 31.8009C2.83832 30.2466 1.88672 28.3513 1.20475 26.1151C0.538626 23.8788 0.205566 21.3491 0.205566 18.526C0.205566 15.6871 0.538626 13.1654 1.20475 10.9608C1.88672 8.74044 2.83832 6.86103 4.05954 5.32261C5.29662 3.78419 6.74781 2.61848 8.41311 1.82548C10.0943 1.03249 11.9261 0.635986 13.9086 0.635986C15.907 0.635986 17.7388 1.03249 19.4041 1.82548C21.0852 2.61848 22.5364 3.78419 23.7576 5.32261C24.9947 6.86103 25.9463 8.74044 26.6124 10.9608C27.2944 13.1654 27.6354 15.6871 27.6354 18.526C27.6354 21.3491 27.2944 23.8788 26.6124 26.1151C25.9463 28.3513 24.9947 30.2466 23.7576 31.8009C22.5364 33.3393 21.0852 34.5208 19.4041 35.3456C17.7388 36.1544 15.907 36.5589 13.9086 36.5589ZM13.9086 33.8944C16.018 33.8944 17.8736 33.2996 19.4754 32.1101C21.0932 30.9206 22.354 29.184 23.2581 26.9001C24.1779 24.6163 24.6379 21.8249 24.6379 18.526C24.6379 15.2113 24.1779 12.4279 23.2581 10.1758C22.3382 7.90779 21.0694 6.19491 19.4517 5.03713C17.8498 3.87935 16.0021 3.30046 13.9086 3.30046C11.8309 3.30046 9.98325 3.87935 8.36553 5.03713C6.74781 6.19491 5.47901 7.90779 4.55913 10.1758C3.63925 12.4279 3.17931 15.2113 3.17931 18.526C3.17931 21.8408 3.63925 24.6401 4.55913 26.9239C5.47901 29.2077 6.74781 30.9444 8.36553 32.1339C9.98325 33.3076 11.8309 33.8944 13.9086 33.8944Z" fill="#222222"/>
<path d="M31.828 46.5031V10.8419H34.778V46.5031H31.828ZM43.4851 36.5589C41.5502 36.5589 39.758 36.091 38.1086 35.1552C36.4591 34.2195 35.1269 32.9507 34.1119 31.3488C33.1127 29.747 32.6131 27.9469 32.6131 25.9485C32.6131 25.9009 32.6131 25.8613 32.6131 25.8296C32.6131 25.7979 32.6131 25.7661 32.6131 25.7344L34.778 25.6868C34.778 25.7186 34.778 25.7503 34.778 25.782C34.778 25.8137 34.778 25.8454 34.778 25.8771C34.778 27.3045 35.1665 28.6209 35.9437 29.8263C36.7208 31.0316 37.7359 31.9912 38.9888 32.7049C40.2576 33.4186 41.6295 33.7754 43.1045 33.7754C45.5469 33.7754 47.5532 32.9111 49.1233 31.1823C50.7093 29.4377 51.5023 26.8684 51.5023 23.4744C51.5023 20.0645 50.7093 17.4951 49.1233 15.7664C47.5532 14.0377 45.5469 13.1733 43.1045 13.1733C41.6295 13.1733 40.2576 13.5302 38.9888 14.2439C37.7359 14.9576 36.7208 15.9092 35.9437 17.0986C35.1665 18.2881 34.778 19.6045 34.778 21.0478L32.6131 20.9764C32.6131 18.9781 33.1127 17.1859 34.1119 15.5999C35.1269 14.0139 36.4591 12.7689 38.1086 11.8649C39.758 10.945 41.5502 10.485 43.4851 10.485C45.531 10.485 47.3867 10.9926 49.052 12.0076C50.7173 13.0068 52.0416 14.4738 53.0249 16.4087C54.0241 18.3437 54.5237 20.6989 54.5237 23.4744C54.5237 26.2816 54.032 28.6606 53.0487 30.6114C52.0812 32.5621 50.7569 34.045 49.0758 35.0601C47.4105 36.0593 45.5469 36.5589 43.4851 36.5589Z" fill="#222222"/>
<path d="M59.6645 24.7114V22.0708H80.1239L79.5529 22.8796C79.5529 22.7845 79.5529 22.7052 79.5529 22.6417C79.5529 22.5624 79.5529 22.4831 79.5529 22.4038C79.5529 20.7702 79.204 19.2477 78.5062 17.8361C77.8083 16.4246 76.7933 15.2906 75.4611 14.4342C74.1447 13.5777 72.5349 13.1495 70.6317 13.1495C68.6968 13.1495 66.9918 13.5936 65.5169 14.4818C64.0419 15.3541 62.892 16.5673 62.0673 18.1216C61.2426 19.66 60.8302 21.4522 60.8302 23.4982C60.8302 25.56 61.2347 27.3759 62.0435 28.9461C62.8682 30.5003 64.0181 31.7136 65.4931 32.5859C66.968 33.4424 68.6889 33.8706 70.6555 33.8706C72.0987 33.8706 73.3517 33.6961 74.4143 33.3472C75.4928 32.9824 76.3809 32.5066 77.0788 31.9198C77.7925 31.333 78.3317 30.7144 78.6965 30.0642C79.0771 29.3981 79.2992 28.7716 79.3626 28.1848H82.2888C82.2254 29.1205 81.924 30.08 81.3848 31.0634C80.8614 32.0308 80.108 32.9348 79.1247 33.7754C78.1573 34.616 76.9519 35.298 75.5086 35.8214C74.0812 36.3289 72.4318 36.5826 70.5603 36.5826C68.1179 36.5826 65.9451 36.0275 64.0419 34.9173C62.1545 33.8071 60.6637 32.2767 59.5694 30.3259C58.4909 28.3592 57.9516 26.0992 57.9516 23.5457C57.9516 20.9764 58.4988 18.7164 59.5932 16.7656C60.6875 14.799 62.1863 13.2605 64.0895 12.1503C65.9927 11.0401 68.1575 10.485 70.5841 10.485C73.0583 10.485 75.1994 11.0481 77.0074 12.1741C78.8155 13.3002 80.2111 14.8307 81.1945 16.7656C82.1778 18.6846 82.6694 20.8416 82.6694 23.2365C82.6694 23.4426 82.6615 23.7043 82.6456 24.0215C82.6456 24.3387 82.6377 24.5687 82.6219 24.7114H59.6645Z" fill="#222222"/>
<path d="M105.417 36.1068V23.5457C105.417 22.7686 105.417 22.1501 105.417 21.6901C105.417 21.2302 105.417 20.7782 105.417 20.3341C105.417 18.9225 105.164 17.6934 104.656 16.6466C104.165 15.584 103.403 14.7593 102.372 14.1725C101.341 13.5698 100.017 13.2685 98.3994 13.2685C96.972 13.2685 95.6319 13.6253 94.3789 14.339C93.126 15.0369 92.111 15.9885 91.3338 17.1938C90.5725 18.3992 90.1919 19.7552 90.1919 21.2619L88.4077 20.5958C88.4077 18.6767 88.8993 16.9559 89.8826 15.4334C90.8818 13.9108 92.1823 12.7054 93.7842 11.8173C95.4019 10.9291 97.1148 10.485 98.9228 10.485C100.842 10.485 102.507 10.8498 103.919 11.5794C105.33 12.2931 106.417 13.3319 107.178 14.6959C107.955 16.044 108.344 17.6855 108.344 19.6204C108.344 20.2865 108.344 21.0002 108.344 21.7615C108.344 22.5228 108.344 23.2127 108.344 23.8312V36.1068H105.417ZM87.242 36.1068V10.8419H90.1919V36.1068H87.242Z" fill="#222222"/>
<path fill-rule="evenodd" clip-rule="evenodd" d="M166.159 28.207C166.462 30.0482 168.865 31.0355 170.452 29.1168C171.643 27.6776 173.775 27.476 175.214 28.6667C176.654 29.8574 176.855 31.9893 175.664 33.4286C170.091 40.1652 159.751 36.5432 159.399 28.0477C159.386 27.9273 159.379 27.8083 159.379 27.6915L159.395 10.1115C159.395 8.36125 160.909 6.94238 162.777 6.94238C164.645 6.94238 166.159 8.36126 166.159 10.1115L166.159 28.207Z" fill="url(#paint0_linear_3442_6566)"/>
<path fill-rule="evenodd" clip-rule="evenodd" d="M128.291 9.4838C129.909 10.4178 130.463 12.4862 129.529 14.1039L117.605 34.7575C116.671 36.3751 114.602 36.9294 112.985 35.9954C111.367 35.0615 110.813 32.993 111.747 31.3753L123.671 10.7217C124.605 9.10409 126.674 8.54984 128.291 9.4838Z" fill="url(#paint1_linear_3442_6566)"/>
<path fill-rule="evenodd" clip-rule="evenodd" d="M146.59 36.625C144.722 36.625 143.208 35.1108 143.208 33.2429L143.208 15.2379C143.208 13.3699 144.722 11.8557 146.59 11.8557C148.458 11.8557 149.972 13.3699 149.972 15.2379L149.972 33.2429C149.972 35.1108 148.458 36.625 146.59 36.625Z" fill="url(#paint2_linear_3442_6566)"/>
<path fill-rule="evenodd" clip-rule="evenodd" d="M149.427 23.157L148.183 23.1824L143.205 23.1489C143.25 21.8786 144.011 19.5147 144.588 18.4085C145.191 17.2522 146.048 16.0621 147.132 15.041C149.313 12.9871 152.776 11.3596 156.802 12.8691C158.406 13.4702 159.218 15.2572 158.617 16.8605C158.016 18.4638 156.229 19.2762 154.626 18.6751C153.496 18.2515 152.447 18.5532 151.383 19.5552C150.845 20.062 150.397 20.4932 150.086 21.2746C149.935 21.9978 149.969 23.1485 149.969 23.1485L149.427 23.157Z" fill="url(#paint3_linear_3442_6566)"/>
<path fill-rule="evenodd" clip-rule="evenodd" d="M159.379 15.9513L159.379 13.0869L170.509 13.087C171.776 13.087 173.474 14.3142 173.474 16.0265C173.624 17.6691 172.28 19.2876 170.509 19.2876H159.395L159.379 15.9513Z" fill="url(#paint4_linear_3442_6566)"/>
<g style="mix-blend-mode:overlay" opacity="0.2">
<path d="M159.394 19.3159H166.133L166.133 22.248H159.394V19.3159Z" fill="url(#paint5_linear_3442_6566)"/>
</g>
<path fill-rule="evenodd" clip-rule="evenodd" d="M123.467 11.15C123.739 10.4722 124.232 9.87725 124.913 9.48372C126.531 8.54976 128.6 9.10401 129.534 10.7217L141.458 31.3752C142.392 32.9929 141.838 35.0614 140.22 35.9953C138.602 36.9293 136.534 36.375 135.6 34.7574L126.56 19.1004L126.609 19.2267C124.816 15.6631 122.047 15.2833 120.886 15.5389L123.453 11.1144L123.467 11.15Z" fill="url(#paint6_linear_3442_6566)"/>
<defs>
<linearGradient id="paint0_linear_3442_6566" x1="159.379" y1="6.94238" x2="182.64" y2="12.9567" gradientUnits="userSpaceOnUse">
<stop stop-color="#9D0AFC"/>
<stop offset="1" stop-color="#0359FF"/>
</linearGradient>
<linearGradient id="paint1_linear_3442_6566" x1="125.729" y1="12.9393" x2="131.2" y2="19.5146" gradientUnits="userSpaceOnUse">
<stop stop-color="#00DFBA"/>
<stop offset="1" stop-color="#048AFE"/>
</linearGradient>
<linearGradient id="paint2_linear_3442_6566" x1="146.69" y1="12.7604" x2="146.69" y2="38.744" gradientUnits="userSpaceOnUse">
<stop stop-color="#5900EB"/>
<stop offset="1" stop-color="#E367EE"/>
</linearGradient>
<linearGradient id="paint3_linear_3442_6566" x1="146.152" y1="23.2145" x2="159.933" y2="13.9804" gradientUnits="userSpaceOnUse">
<stop stop-color="#9129EC"/>
<stop offset="1" stop-color="#9F03FF"/>
</linearGradient>
<linearGradient id="paint4_linear_3442_6566" x1="166.778" y1="14.6836" x2="174.635" y2="22.9049" gradientUnits="userSpaceOnUse">
<stop stop-color="#930FFC"/>
<stop offset="0.865143" stop-color="#004BFB"/>
</linearGradient>
<linearGradient id="paint5_linear_3442_6566" x1="162.764" y1="19.3698" x2="162.764" y2="21.9151" gradientUnits="userSpaceOnUse">
<stop/>
<stop offset="1" stop-opacity="0"/>
</linearGradient>
<linearGradient id="paint6_linear_3442_6566" x1="120.117" y1="9.28182" x2="153.09" y2="17.5351" gradientUnits="userSpaceOnUse">
<stop stop-color="#0056FE"/>
<stop offset="0.815625" stop-color="#D159ED"/>
</linearGradient>
</defs>
</svg>
