<svg width="179" height="48" viewBox="0 0 179 48" fill="none" xmlns="http://www.w3.org/2000/svg">
<path d="M14.761 37.5531C12.7627 37.5531 10.9308 37.1487 9.26553 36.3398C7.60023 35.5151 6.14904 34.3335 4.91196 32.7951C3.69074 31.2408 2.73914 29.3456 2.05716 27.1093C1.39104 24.8731 1.05798 22.3434 1.05798 19.5203C1.05798 16.6814 1.39104 14.1596 2.05716 11.9551C2.73914 9.7347 3.69074 7.85529 4.91196 6.31687C6.14904 4.77846 7.60023 3.61275 9.26553 2.81975C10.9467 2.02675 12.7785 1.63025 14.761 1.63025C16.7594 1.63025 18.5912 2.02675 20.2565 2.81975C21.9377 3.61275 23.3888 4.77846 24.6101 6.31687C25.8471 7.85529 26.7987 9.7347 27.4649 11.9551C28.1468 14.1596 28.4878 16.6814 28.4878 19.5203C28.4878 22.3434 28.1468 24.8731 27.4649 27.1093C26.7987 29.3456 25.8471 31.2408 24.6101 32.7951C23.3888 34.3335 21.9377 35.5151 20.2565 36.3398C18.5912 37.1487 16.7594 37.5531 14.761 37.5531ZM14.761 34.8886C16.8704 34.8886 18.726 34.2939 20.3279 33.1044C21.9456 31.9149 23.2065 30.1782 24.1105 27.8944C25.0303 25.6105 25.4903 22.8192 25.4903 19.5203C25.4903 16.2056 25.0303 13.4221 24.1105 11.17C23.1906 8.90205 21.9218 7.18917 20.3041 6.03139C18.7022 4.87361 16.8545 4.29473 14.761 4.29473C12.6834 4.29473 10.8357 4.87361 9.21795 6.03139C7.60023 7.18917 6.33143 8.90205 5.41155 11.17C4.49167 13.4221 4.03173 16.2056 4.03173 19.5203C4.03173 22.835 4.49167 25.6343 5.41155 27.9182C6.33143 30.202 7.60023 31.9387 9.21795 33.1282C10.8357 34.3018 12.6834 34.8886 14.761 34.8886Z" fill="white"/>
<path d="M32.6804 47.4973V11.8362H35.6304V47.4973H32.6804ZM44.3375 37.5531C42.4026 37.5531 40.6104 37.0852 38.961 36.1495C37.3116 35.2138 35.9793 33.945 34.9643 32.3431C33.9651 30.7412 33.4655 28.9411 33.4655 26.9428C33.4655 26.8952 33.4655 26.8556 33.4655 26.8238C33.4655 26.7921 33.4655 26.7604 33.4655 26.7287L35.6304 26.6811C35.6304 26.7128 35.6304 26.7445 35.6304 26.7763C35.6304 26.808 35.6304 26.8397 35.6304 26.8714C35.6304 28.2988 36.019 29.6152 36.7961 30.8206C37.5732 32.0259 38.5883 32.9854 39.8412 33.6991C41.11 34.4128 42.4819 34.7697 43.9569 34.7697C46.3993 34.7697 48.4056 33.9053 49.9757 32.1766C51.5617 30.432 52.3547 27.8627 52.3547 24.4686C52.3547 21.0587 51.5617 18.4894 49.9757 16.7607C48.4056 15.0319 46.3993 14.1676 43.9569 14.1676C42.4819 14.1676 41.11 14.5244 39.8412 15.2381C38.5883 15.9518 37.5732 16.9034 36.7961 18.0929C36.019 19.2824 35.6304 20.5988 35.6304 22.042L33.4655 21.9707C33.4655 19.9723 33.9651 18.1801 34.9643 16.5941C35.9793 15.0081 37.3116 13.7631 38.961 12.8591C40.6104 11.9392 42.4026 11.4793 44.3375 11.4793C46.3835 11.4793 48.2391 11.9868 49.9044 13.0019C51.5697 14.001 52.894 15.4681 53.8773 17.403C54.8765 19.3379 55.3761 21.6931 55.3761 24.4686C55.3761 27.2758 54.8844 29.6548 53.9011 31.6056C52.9336 33.5564 51.6093 35.0393 49.9282 36.0543C48.2629 37.0535 46.3993 37.5531 44.3375 37.5531Z" fill="white"/>
<path d="M60.5169 25.7057V23.065H80.9763L80.4054 23.8739C80.4054 23.7787 80.4054 23.6994 80.4054 23.636C80.4054 23.5567 80.4054 23.4774 80.4054 23.3981C80.4054 21.7645 80.0564 20.2419 79.3586 18.8304C78.6608 17.4189 77.6457 16.2849 76.3135 15.4284C74.9971 14.572 73.3873 14.1438 71.4841 14.1438C69.5492 14.1438 67.8443 14.5879 66.3693 15.476C64.8943 16.3483 63.7444 17.5616 62.9197 19.1159C62.095 20.6543 61.6826 22.4465 61.6826 24.4924C61.6826 26.5542 62.0871 28.3702 62.8959 29.9403C63.7207 31.4946 64.8705 32.7079 66.3455 33.5802C67.8205 34.4366 69.5413 34.8648 71.5079 34.8648C72.9512 34.8648 74.2041 34.6904 75.2667 34.3415C76.3452 33.9767 77.2334 33.5009 77.9312 32.9141C78.6449 32.3272 79.1841 31.7087 79.5489 31.0585C79.9296 30.3923 80.1516 29.7659 80.215 29.179H83.1412C83.0778 30.1148 82.7764 31.0743 82.2372 32.0576C81.7138 33.0251 80.9605 33.9291 79.9771 34.7697C79.0097 35.6103 77.8043 36.2922 76.3611 36.8156C74.9337 37.3231 73.2842 37.5769 71.4128 37.5769C68.9703 37.5769 66.7975 37.0218 64.8943 35.9116C63.007 34.8014 61.5161 33.2709 60.4218 31.3201C59.3433 29.3535 58.8041 27.0935 58.8041 24.54C58.8041 21.9707 59.3512 19.7106 60.4456 17.7599C61.5399 15.7932 63.0387 14.2548 64.9419 13.1446C66.8451 12.0344 69.01 11.4793 71.4365 11.4793C73.9107 11.4793 76.0518 12.0423 77.8598 13.1684C79.6679 14.2944 81.0635 15.8249 82.0469 17.7599C83.0302 19.6789 83.5218 21.8359 83.5218 24.2307C83.5218 24.4369 83.5139 24.6986 83.4981 25.0158C83.4981 25.333 83.4901 25.563 83.4743 25.7057H60.5169Z" fill="white"/>
<path d="M106.27 37.1011V24.54C106.27 23.7629 106.27 23.1443 106.27 22.6844C106.27 22.2244 106.27 21.7724 106.27 21.3284C106.27 19.9168 106.016 18.6877 105.509 17.6409C105.017 16.5783 104.256 15.7536 103.225 15.1667C102.194 14.5641 100.87 14.2627 99.2519 14.2627C97.8245 14.2627 96.4843 14.6196 95.2314 15.3333C93.9784 16.0311 92.9634 16.9827 92.1862 18.1881C91.425 19.3934 91.0443 20.7495 91.0443 22.2562L89.2601 21.59C89.2601 19.671 89.7517 17.9502 90.735 16.4276C91.7342 14.9051 93.0348 13.6997 94.6366 12.8115C96.2543 11.9234 97.9672 11.4793 99.7752 11.4793C101.694 11.4793 103.36 11.8441 104.771 12.5736C106.183 13.2873 107.269 14.3262 108.03 15.6901C108.807 17.0382 109.196 18.6797 109.196 20.6147C109.196 21.2808 109.196 21.9945 109.196 22.7557C109.196 23.517 109.196 24.2069 109.196 24.8255V37.1011H106.27ZM88.0944 37.1011V11.8362H91.0443V37.1011H88.0944Z" fill="white"/>
<path fill-rule="evenodd" clip-rule="evenodd" d="M167.011 29.2011C167.315 31.0423 169.718 32.0296 171.305 30.1109C172.496 28.6717 174.628 28.4702 176.067 29.6608C177.506 30.8515 177.708 32.9835 176.517 34.4227C170.944 41.1593 160.603 37.5374 160.252 29.0418C160.238 28.9215 160.232 28.8025 160.232 28.6857L160.247 11.1057C160.247 9.35539 161.761 7.93652 163.629 7.93652C165.497 7.93653 167.011 9.3554 167.011 11.1057L167.011 29.2011Z" fill="url(#paint0_linear_3442_64)"/>
<path fill-rule="evenodd" clip-rule="evenodd" d="M129.144 10.4779C130.762 11.4119 131.316 13.4804 130.382 15.098L118.457 35.7516C117.524 37.3693 115.455 37.9235 113.837 36.9895C112.22 36.0556 111.665 33.9871 112.599 32.3695L124.524 11.7159C125.458 10.0982 127.526 9.54398 129.144 10.4779Z" fill="url(#paint1_linear_3442_64)"/>
<path fill-rule="evenodd" clip-rule="evenodd" d="M147.442 37.6193C145.574 37.6193 144.06 36.105 144.06 34.2371L144.06 16.2321C144.06 14.3642 145.574 12.85 147.442 12.85C149.31 12.85 150.824 14.3642 150.824 16.2321L150.824 34.2371C150.824 36.105 149.31 37.6193 147.442 37.6193Z" fill="url(#paint2_linear_3442_64)"/>
<path fill-rule="evenodd" clip-rule="evenodd" d="M150.279 24.1512L149.036 24.1766L144.057 24.1432C144.102 22.8728 144.864 20.509 145.44 19.4027C146.043 18.2465 146.9 17.0564 147.984 16.0352C150.166 13.9813 153.628 12.3538 157.655 13.8634C159.258 14.4645 160.07 16.2515 159.469 17.8548C158.868 19.458 157.081 20.2705 155.478 19.6694C154.348 19.2457 153.299 19.5475 152.235 20.5495C151.697 21.0563 151.249 21.4875 150.939 22.2689C150.787 22.992 150.821 24.1428 150.821 24.1428L150.279 24.1512Z" fill="url(#paint3_linear_3442_64)"/>
<path fill-rule="evenodd" clip-rule="evenodd" d="M160.231 16.9455L160.231 14.0812L171.362 14.0813C172.628 14.0813 174.326 15.3085 174.326 17.0207C174.477 18.6634 173.132 20.2819 171.362 20.2819H160.247L160.231 16.9455Z" fill="url(#paint4_linear_3442_64)"/>
<g style="mix-blend-mode:overlay" opacity="0.2">
<path d="M160.246 20.3102H166.986L166.986 23.2423H160.246V20.3102Z" fill="url(#paint5_linear_3442_64)"/>
</g>
<path fill-rule="evenodd" clip-rule="evenodd" d="M124.319 12.1443C124.592 11.4665 125.084 10.8715 125.766 10.478C127.384 9.54402 129.452 10.0983 130.386 11.7159L142.31 32.3695C143.244 33.9872 142.69 36.0556 141.073 36.9896C139.455 37.9235 137.386 37.3693 136.452 35.7516L127.413 20.0947L127.462 20.221C125.668 16.6574 122.899 16.2776 121.739 16.5332L124.305 12.1087L124.319 12.1443Z" fill="url(#paint6_linear_3442_64)"/>
<defs>
<linearGradient id="paint0_linear_3442_64" x1="160.232" y1="7.93652" x2="183.492" y2="13.9508" gradientUnits="userSpaceOnUse">
<stop stop-color="#9D0AFC"/>
<stop offset="1" stop-color="#0359FF"/>
</linearGradient>
<linearGradient id="paint1_linear_3442_64" x1="126.581" y1="13.9335" x2="132.053" y2="20.5087" gradientUnits="userSpaceOnUse">
<stop stop-color="#00DFBA"/>
<stop offset="1" stop-color="#048AFE"/>
</linearGradient>
<linearGradient id="paint2_linear_3442_64" x1="147.542" y1="13.7547" x2="147.542" y2="39.7382" gradientUnits="userSpaceOnUse">
<stop stop-color="#5900EB"/>
<stop offset="1" stop-color="#E367EE"/>
</linearGradient>
<linearGradient id="paint3_linear_3442_64" x1="147.004" y1="24.2088" x2="160.785" y2="14.9747" gradientUnits="userSpaceOnUse">
<stop stop-color="#9129EC"/>
<stop offset="1" stop-color="#9F03FF"/>
</linearGradient>
<linearGradient id="paint4_linear_3442_64" x1="167.63" y1="15.6779" x2="175.488" y2="23.8991" gradientUnits="userSpaceOnUse">
<stop stop-color="#930FFC"/>
<stop offset="0.865143" stop-color="#004BFB"/>
</linearGradient>
<linearGradient id="paint5_linear_3442_64" x1="163.616" y1="20.364" x2="163.616" y2="22.9094" gradientUnits="userSpaceOnUse">
<stop/>
<stop offset="1" stop-opacity="0"/>
</linearGradient>
<linearGradient id="paint6_linear_3442_64" x1="120.97" y1="10.2761" x2="153.943" y2="18.5293" gradientUnits="userSpaceOnUse">
<stop stop-color="#0056FE"/>
<stop offset="0.815625" stop-color="#D159ED"/>
</linearGradient>
</defs>
</svg>
