<svg width="179" height="48" viewBox="0 0 179 48" fill="none" xmlns="http://www.w3.org/2000/svg">
<path d="M14.7611 37.553C12.7628 37.553 10.9309 37.1486 9.26565 36.3397C7.60035 35.515 6.14916 34.3334 4.91208 32.795C3.69086 31.2407 2.73926 29.3455 2.05728 27.1092C1.39117 24.8729 1.05811 22.3433 1.05811 19.5202C1.05811 16.6813 1.39117 14.1595 2.05728 11.955C2.73926 9.73458 3.69086 7.85517 4.91208 6.31675C6.14916 4.77833 7.60035 3.61262 9.26565 2.81962C10.9468 2.02663 12.7786 1.63013 14.7611 1.63013C16.7595 1.63013 18.5913 2.02663 20.2566 2.81962C21.9378 3.61262 23.389 4.77833 24.6102 6.31675C25.8473 7.85517 26.7989 9.73458 27.465 11.955C28.147 14.1595 28.4879 16.6813 28.4879 19.5202C28.4879 22.3433 28.147 24.8729 27.465 27.1092C26.7989 29.3455 25.8473 31.2407 24.6102 32.795C23.389 34.3334 21.9378 35.515 20.2566 36.3397C18.5913 37.1486 16.7595 37.553 14.7611 37.553ZM14.7611 34.8885C16.8705 34.8885 18.7261 34.2938 20.328 33.1043C21.9457 31.9148 23.2066 30.1781 24.1106 27.8943C25.0305 25.6104 25.4904 22.8191 25.4904 19.5202C25.4904 16.2055 25.0305 13.422 24.1106 11.1699C23.1907 8.90193 21.9219 7.18905 20.3042 6.03127C18.7023 4.87349 16.8547 4.2946 14.7611 4.2946C12.6835 4.2946 10.8358 4.87349 9.21807 6.03127C7.60035 7.18905 6.33155 8.90193 5.41167 11.1699C4.49179 13.422 4.03185 16.2055 4.03185 19.5202C4.03185 22.8349 4.49179 25.6342 5.41167 27.9181C6.33155 30.2019 7.60035 31.9386 9.21807 33.1281C10.8358 34.3017 12.6835 34.8885 14.7611 34.8885Z" fill="#222222"/>
<path d="M32.6806 47.4972V11.836H35.6305V47.4972H32.6806ZM44.3377 37.553C42.4027 37.553 40.6105 37.0851 38.9611 36.1494C37.3117 35.2136 35.9794 33.9448 34.9644 32.343C33.9652 30.7411 33.4656 28.941 33.4656 26.9427C33.4656 26.8951 33.4656 26.8554 33.4656 26.8237C33.4656 26.792 33.4656 26.7603 33.4656 26.7286L35.6305 26.681C35.6305 26.7127 35.6305 26.7444 35.6305 26.7761C35.6305 26.8079 35.6305 26.8396 35.6305 26.8713C35.6305 28.2987 36.0191 29.6151 36.7962 30.8204C37.5734 32.0258 38.5884 32.9853 39.8413 33.699C41.1101 34.4127 42.482 34.7696 43.957 34.7696C46.3994 34.7696 48.4057 33.9052 49.9759 32.1765C51.5619 30.4319 52.3549 27.8625 52.3549 24.4685C52.3549 21.0586 51.5619 18.4893 49.9759 16.7606C48.4057 15.0318 46.3994 14.1674 43.957 14.1674C42.482 14.1674 41.1101 14.5243 39.8413 15.238C38.5884 15.9517 37.5734 16.9033 36.7962 18.0928C36.0191 19.2823 35.6305 20.5987 35.6305 22.0419L33.4656 21.9706C33.4656 19.9722 33.9652 18.18 34.9644 16.594C35.9794 15.008 37.3117 13.763 38.9611 12.859C40.6105 11.9391 42.4027 11.4792 44.3377 11.4792C46.3836 11.4792 48.2392 11.9867 49.9045 13.0017C51.5698 14.0009 52.8941 15.468 53.8774 17.4029C54.8766 19.3378 55.3762 21.693 55.3762 24.4685C55.3762 27.2757 54.8845 29.6547 53.9012 31.6055C52.9338 33.5563 51.6095 35.0392 49.9283 36.0542C48.263 37.0534 46.3994 37.553 44.3377 37.553Z" fill="#222222"/>
<path d="M60.5171 25.7056V23.0649H80.9764L80.4055 23.8738C80.4055 23.7786 80.4055 23.6993 80.4055 23.6359C80.4055 23.5566 80.4055 23.4773 80.4055 23.398C80.4055 21.7644 80.0566 20.2418 79.3587 18.8303C78.6609 17.4187 77.6458 16.2848 76.3136 15.4283C74.9972 14.5719 73.3874 14.1437 71.4842 14.1437C69.5493 14.1437 67.8444 14.5877 66.3694 15.4759C64.8944 16.3482 63.7446 17.5615 62.9198 19.1158C62.0951 20.6542 61.6828 22.4464 61.6828 24.4923C61.6828 26.5541 62.0872 28.3701 62.8961 29.9402C63.7208 31.4945 64.8706 32.7078 66.3456 33.5801C67.8206 34.4365 69.5414 34.8647 71.508 34.8647C72.9513 34.8647 74.2042 34.6903 75.2668 34.3413C76.3453 33.9766 77.2335 33.5008 77.9313 32.9139C78.645 32.3271 79.1843 31.7086 79.549 31.0583C79.9297 30.3922 80.1517 29.7657 80.2152 29.1789H83.1413C83.0779 30.1147 82.7766 31.0742 82.2373 32.0575C81.7139 33.025 80.9606 33.929 79.9773 34.7696C79.0098 35.6101 77.8044 36.2921 76.3612 36.8155C74.9338 37.323 73.2843 37.5768 71.4129 37.5768C68.9704 37.5768 66.7976 37.0217 64.8944 35.9115C63.0071 34.8013 61.5162 33.2708 60.4219 31.32C59.3434 29.3534 58.8042 27.0933 58.8042 24.5399C58.8042 21.9706 59.3514 19.7105 60.4457 17.7597C61.54 15.7931 63.0388 14.2547 64.942 13.1445C66.8452 12.0343 69.0101 11.4792 71.4367 11.4792C73.9108 11.4792 76.0519 12.0422 77.8599 13.1683C79.668 14.2943 81.0637 15.8248 82.047 17.7597C83.0303 19.6788 83.522 21.8357 83.522 24.2306C83.522 24.4368 83.514 24.6985 83.4982 25.0157C83.4982 25.3329 83.4903 25.5628 83.4744 25.7056H60.5171Z" fill="#222222"/>
<path d="M106.27 37.101V24.5399C106.27 23.7627 106.27 23.1442 106.27 22.6843C106.27 22.2243 106.27 21.7723 106.27 21.3282C106.27 19.9167 106.016 18.6875 105.509 17.6408C105.017 16.5782 104.256 15.7534 103.225 15.1666C102.194 14.5639 100.87 14.2626 99.252 14.2626C97.8246 14.2626 96.4844 14.6195 95.2315 15.3332C93.9785 16.031 92.9635 16.9826 92.1864 18.188C91.4251 19.3933 91.0444 20.7493 91.0444 22.256L89.2602 21.5899C89.2602 19.6709 89.7518 17.9501 90.7352 16.4275C91.7343 14.9049 93.0349 13.6996 94.6367 12.8114C96.2544 11.9233 97.9673 11.4792 99.7754 11.4792C101.694 11.4792 103.36 11.844 104.771 12.5735C106.183 13.2872 107.269 14.326 108.03 15.69C108.808 17.0381 109.196 18.6796 109.196 20.6145C109.196 21.2806 109.196 21.9943 109.196 22.7556C109.196 23.5169 109.196 24.2068 109.196 24.8254V37.101H106.27ZM88.0945 37.101V11.836H91.0444V37.101H88.0945Z" fill="#222222"/>
<path fill-rule="evenodd" clip-rule="evenodd" d="M167.011 29.2011C167.315 31.0423 169.718 32.0296 171.305 30.1109C172.496 28.6717 174.628 28.4702 176.067 29.6608C177.506 30.8515 177.708 32.9835 176.517 34.4227C170.944 41.1593 160.604 37.5374 160.252 29.0418C160.239 28.9215 160.232 28.8025 160.232 28.6857L160.247 11.1057C160.247 9.35539 161.761 7.93652 163.629 7.93652C165.497 7.93653 167.011 9.3554 167.011 11.1057L167.011 29.2011Z" fill="url(#paint0_linear_3442_6125)"/>
<path fill-rule="evenodd" clip-rule="evenodd" d="M129.144 10.4779C130.762 11.4119 131.316 13.4804 130.382 15.098L118.457 35.7516C117.524 37.3693 115.455 37.9235 113.837 36.9895C112.22 36.0556 111.665 33.9871 112.599 32.3695L124.524 11.7159C125.458 10.0982 127.526 9.54398 129.144 10.4779Z" fill="url(#paint1_linear_3442_6125)"/>
<path fill-rule="evenodd" clip-rule="evenodd" d="M147.443 37.6191C145.575 37.6191 144.06 36.1049 144.06 34.237L144.06 16.232C144.06 14.3641 145.575 12.8498 147.443 12.8498C149.31 12.8498 150.825 14.3641 150.825 16.232L150.825 34.237C150.825 36.1049 149.31 37.6191 147.443 37.6191Z" fill="url(#paint2_linear_3442_6125)"/>
<path fill-rule="evenodd" clip-rule="evenodd" d="M150.28 24.1511L149.036 24.1765L144.057 24.1431C144.103 22.8727 144.864 20.5089 145.44 19.4026C146.043 18.2464 146.9 17.0563 147.985 16.0351C150.166 13.9812 153.629 12.3537 157.655 13.8633C159.258 14.4644 160.071 16.2514 159.47 17.8546C158.868 19.4579 157.081 20.2703 155.478 19.6692C154.348 19.2456 153.299 19.5473 152.235 20.5493C151.697 21.0561 151.25 21.4874 150.939 22.2688C150.787 22.9919 150.821 24.1426 150.821 24.1426L150.28 24.1511Z" fill="url(#paint3_linear_3442_6125)"/>
<path fill-rule="evenodd" clip-rule="evenodd" d="M160.231 16.9454L160.231 14.0811L171.362 14.0812C172.628 14.0812 174.326 15.3084 174.326 17.0206C174.477 18.6633 173.132 20.2818 171.362 20.2818H160.247L160.231 16.9454Z" fill="url(#paint4_linear_3442_6125)"/>
<g style="mix-blend-mode:overlay" opacity="0.2">
<path d="M160.246 20.3101H166.986L166.986 23.2421H160.246V20.3101Z" fill="url(#paint5_linear_3442_6125)"/>
</g>
<path fill-rule="evenodd" clip-rule="evenodd" d="M124.319 12.1442C124.592 11.4664 125.084 10.8714 125.766 10.4779C127.384 9.5439 129.452 10.0982 130.386 11.7158L142.31 32.3694C143.244 33.987 142.69 36.0555 141.073 36.9895C139.455 37.9234 137.386 37.3692 136.452 35.7515L127.413 20.0946L127.462 20.2209C125.668 16.6572 122.899 16.2775 121.739 16.5331L124.305 12.1086L124.319 12.1442Z" fill="url(#paint6_linear_3442_6125)"/>
<defs>
<linearGradient id="paint0_linear_3442_6125" x1="160.232" y1="7.93652" x2="183.492" y2="13.9508" gradientUnits="userSpaceOnUse">
<stop stop-color="#9D0AFC"/>
<stop offset="1" stop-color="#0359FF"/>
</linearGradient>
<linearGradient id="paint1_linear_3442_6125" x1="126.581" y1="13.9335" x2="132.053" y2="20.5087" gradientUnits="userSpaceOnUse">
<stop stop-color="#00DFBA"/>
<stop offset="1" stop-color="#048AFE"/>
</linearGradient>
<linearGradient id="paint2_linear_3442_6125" x1="147.542" y1="13.7545" x2="147.542" y2="39.7381" gradientUnits="userSpaceOnUse">
<stop stop-color="#5900EB"/>
<stop offset="1" stop-color="#E367EE"/>
</linearGradient>
<linearGradient id="paint3_linear_3442_6125" x1="147.004" y1="24.2087" x2="160.785" y2="14.9746" gradientUnits="userSpaceOnUse">
<stop stop-color="#9129EC"/>
<stop offset="1" stop-color="#9F03FF"/>
</linearGradient>
<linearGradient id="paint4_linear_3442_6125" x1="167.63" y1="15.6777" x2="175.488" y2="23.899" gradientUnits="userSpaceOnUse">
<stop stop-color="#930FFC"/>
<stop offset="0.865143" stop-color="#004BFB"/>
</linearGradient>
<linearGradient id="paint5_linear_3442_6125" x1="163.616" y1="20.3639" x2="163.616" y2="22.9093" gradientUnits="userSpaceOnUse">
<stop/>
<stop offset="1" stop-opacity="0"/>
</linearGradient>
<linearGradient id="paint6_linear_3442_6125" x1="120.97" y1="10.276" x2="153.943" y2="18.5292" gradientUnits="userSpaceOnUse">
<stop stop-color="#0056FE"/>
<stop offset="0.815625" stop-color="#D159ED"/>
</linearGradient>
</defs>
</svg>
