<svg width="179" height="48" viewBox="0 0 179 48" fill="none" xmlns="http://www.w3.org/2000/svg">
<path d="M14.761 37.5532C12.7627 37.5532 10.9308 37.1488 9.26553 36.3399C7.60023 35.5152 6.14904 34.3337 4.91196 32.7952C3.69074 31.241 2.73914 29.3457 2.05716 27.1094C1.39104 24.8732 1.05798 22.3435 1.05798 19.5204C1.05798 16.6815 1.39104 14.1598 2.05716 11.9552C2.73914 9.73482 3.69074 7.85542 4.91196 6.317C6.14904 4.77858 7.60023 3.61287 9.26553 2.81987C10.9467 2.02687 12.7785 1.63037 14.761 1.63037C16.7594 1.63037 18.5912 2.02687 20.2565 2.81987C21.9377 3.61287 23.3888 4.77858 24.6101 6.317C25.8471 7.85542 26.7987 9.73482 27.4649 11.9552C28.1468 14.1598 28.4878 16.6815 28.4878 19.5204C28.4878 22.3435 28.1468 24.8732 27.4649 27.1094C26.7987 29.3457 25.8471 31.241 24.6101 32.7952C23.3888 34.3337 21.9377 35.5152 20.2565 36.3399C18.5912 37.1488 16.7594 37.5532 14.761 37.5532ZM14.761 34.8888C16.8704 34.8888 18.726 34.294 20.3279 33.1045C21.9456 31.915 23.2065 30.1783 24.1105 27.8945C25.0303 25.6107 25.4903 22.8193 25.4903 19.5204C25.4903 16.2057 25.0303 13.4223 24.1105 11.1702C23.1906 8.90217 21.9218 7.18929 20.3041 6.03152C18.7022 4.87374 16.8545 4.29485 14.761 4.29485C12.6834 4.29485 10.8357 4.87374 9.21795 6.03152C7.60023 7.18929 6.33143 8.90217 5.41155 11.1702C4.49167 13.4223 4.03173 16.2057 4.03173 19.5204C4.03173 22.8352 4.49167 25.6345 5.41155 27.9183C6.33143 30.2021 7.60023 31.9388 9.21795 33.1283C10.8357 34.3019 12.6834 34.8888 14.761 34.8888Z" fill="#222222"/>
<path d="M32.6804 47.4974V11.8363H35.6304V47.4974H32.6804ZM44.3375 37.5532C42.4026 37.5532 40.6104 37.0854 38.961 36.1496C37.3116 35.2139 35.9793 33.9451 34.9643 32.3432C33.9651 30.7414 33.4655 28.9413 33.4655 26.9429C33.4655 26.8953 33.4655 26.8557 33.4655 26.824C33.4655 26.7922 33.4655 26.7605 33.4655 26.7288L35.6304 26.6812C35.6304 26.7129 35.6304 26.7447 35.6304 26.7764C35.6304 26.8081 35.6304 26.8398 35.6304 26.8715C35.6304 28.2989 36.019 29.6153 36.7961 30.8207C37.5732 32.026 38.5883 32.9856 39.8412 33.6993C41.11 34.413 42.4819 34.7698 43.9569 34.7698C46.3993 34.7698 48.4056 33.9054 49.9757 32.1767C51.5617 30.4321 52.3547 27.8628 52.3547 24.4687C52.3547 21.0589 51.5617 18.4895 49.9757 16.7608C48.4056 15.0321 46.3993 14.1677 43.9569 14.1677C42.4819 14.1677 41.11 14.5245 39.8412 15.2382C38.5883 15.9519 37.5732 16.9035 36.7961 18.093C36.019 19.2825 35.6304 20.5989 35.6304 22.0422L33.4655 21.9708C33.4655 19.9724 33.9651 18.1803 34.9643 16.5943C35.9793 15.0083 37.3116 13.7633 38.961 12.8592C40.6104 11.9394 42.4026 11.4794 44.3375 11.4794C46.3835 11.4794 48.2391 11.9869 49.9044 13.002C51.5697 14.0012 52.894 15.4682 53.8773 17.4031C54.8765 19.338 55.3761 21.6933 55.3761 24.4687C55.3761 27.276 54.8844 29.655 53.9011 31.6057C52.9336 33.5565 51.6093 35.0394 49.9282 36.0545C48.2629 37.0536 46.3993 37.5532 44.3375 37.5532Z" fill="#222222"/>
<path d="M60.5169 25.7058V23.0651H80.9763L80.4054 23.874C80.4054 23.7788 80.4054 23.6995 80.4054 23.6361C80.4054 23.5568 80.4054 23.4775 80.4054 23.3982C80.4054 21.7646 80.0564 20.2421 79.3586 18.8305C78.6608 17.419 77.6457 16.285 76.3135 15.4286C74.9971 14.5721 73.3873 14.1439 71.4841 14.1439C69.5492 14.1439 67.8443 14.588 66.3693 15.4761C64.8943 16.3484 63.7444 17.5617 62.9197 19.116C62.095 20.6544 61.6826 22.4466 61.6826 24.4925C61.6826 26.5543 62.0871 28.3703 62.8959 29.9404C63.7207 31.4947 64.8705 32.708 66.3455 33.5803C67.8205 34.4367 69.5413 34.865 71.5079 34.865C72.9512 34.865 74.2041 34.6905 75.2667 34.3416C76.3452 33.9768 77.2334 33.501 77.9312 32.9142C78.6449 32.3274 79.1841 31.7088 79.5489 31.0586C79.9296 30.3925 80.1516 29.766 80.215 29.1792H83.1412C83.0778 30.1149 82.7764 31.0744 82.2372 32.0577C81.7138 33.0252 80.9605 33.9292 79.9771 34.7698C79.0097 35.6104 77.8043 36.2924 76.3611 36.8157C74.9337 37.3233 73.2842 37.577 71.4128 37.577C68.9703 37.577 66.7975 37.0219 64.8943 35.9117C63.007 34.8015 61.5161 33.271 60.4218 31.3203C59.3433 29.3536 58.8041 27.0936 58.8041 24.5401C58.8041 21.9708 59.3512 19.7108 60.4456 17.76C61.5399 15.7933 63.0387 14.2549 64.9419 13.1447C66.8451 12.0345 69.01 11.4794 71.4365 11.4794C73.9107 11.4794 76.0518 12.0425 77.8598 13.1685C79.6679 14.2946 81.0635 15.8251 82.0469 17.76C83.0302 19.679 83.5218 21.836 83.5218 24.2309C83.5218 24.437 83.5139 24.6987 83.4981 25.0159C83.4981 25.3331 83.4901 25.5631 83.4743 25.7058H60.5169Z" fill="#222222"/>
<path d="M106.27 37.1012V24.5401C106.27 23.763 106.27 23.1444 106.27 22.6845C106.27 22.2246 106.27 21.7726 106.27 21.3285C106.27 19.9169 106.016 18.6878 105.509 17.641C105.017 16.5784 104.256 15.7537 103.225 15.1669C102.194 14.5642 100.87 14.2628 99.2519 14.2628C97.8245 14.2628 96.4843 14.6197 95.2314 15.3334C93.9784 16.0312 92.9634 16.9828 92.1862 18.1882C91.425 19.3936 91.0443 20.7496 91.0443 22.2563L89.2601 21.5902C89.2601 19.6711 89.7517 17.9503 90.735 16.4277C91.7342 14.9052 93.0348 13.6998 94.6366 12.8117C96.2543 11.9235 97.9672 11.4794 99.7752 11.4794C101.694 11.4794 103.36 11.8442 104.771 12.5738C106.183 13.2875 107.269 14.3263 108.03 15.6902C108.807 17.0383 109.196 18.6799 109.196 20.6148C109.196 21.2809 109.196 21.9946 109.196 22.7559C109.196 23.5172 109.196 24.2071 109.196 24.8256V37.1012H106.27ZM88.0944 37.1012V11.8363H91.0443V37.1012H88.0944Z" fill="#222222"/>
<path fill-rule="evenodd" clip-rule="evenodd" d="M167.011 29.2011C167.315 31.0423 169.718 32.0296 171.305 30.1109C172.496 28.6717 174.628 28.4702 176.067 29.6608C177.506 30.8515 177.708 32.9835 176.517 34.4227C170.944 41.1593 160.603 37.5374 160.252 29.0418C160.238 28.9215 160.232 28.8025 160.232 28.6857L160.247 11.1057C160.247 9.35539 161.761 7.93652 163.629 7.93652C165.497 7.93653 167.011 9.3554 167.011 11.1057L167.011 29.2011Z" fill="url(#paint0_linear_3442_2107)"/>
<path fill-rule="evenodd" clip-rule="evenodd" d="M129.144 10.4777C130.762 11.4116 131.316 13.4801 130.382 15.0978L118.457 35.7514C117.524 37.369 115.455 37.9233 113.837 36.9893C112.22 36.0553 111.665 33.9869 112.599 32.3692L124.524 11.7156C125.458 10.098 127.526 9.54374 129.144 10.4777Z" fill="url(#paint1_linear_3442_2107)"/>
<path fill-rule="evenodd" clip-rule="evenodd" d="M147.442 37.6191C145.574 37.6191 144.06 36.1049 144.06 34.237L144.06 16.232C144.06 14.3641 145.574 12.8498 147.442 12.8498C149.31 12.8498 150.824 14.3641 150.824 16.232L150.824 34.237C150.824 36.1049 149.31 37.6191 147.442 37.6191Z" fill="url(#paint2_linear_3442_2107)"/>
<path fill-rule="evenodd" clip-rule="evenodd" d="M150.279 24.1514L149.036 24.1767L144.057 24.1433C144.102 22.8729 144.864 20.5091 145.44 19.4029C146.043 18.2466 146.9 17.0565 147.984 16.0354C150.166 13.9814 153.628 12.354 157.655 13.8635C159.258 14.4646 160.07 16.2516 159.469 17.8549C158.868 19.4581 157.081 20.2706 155.478 19.6695C154.348 19.2458 153.299 19.5476 152.235 20.5496C151.697 21.0564 151.249 21.4876 150.939 22.269C150.787 22.9921 150.821 24.1429 150.821 24.1429L150.279 24.1514Z" fill="url(#paint3_linear_3442_2107)"/>
<path fill-rule="evenodd" clip-rule="evenodd" d="M160.231 16.9454L160.231 14.0811L171.362 14.0812C172.628 14.0812 174.326 15.3084 174.326 17.0206C174.477 18.6633 173.132 20.2818 171.362 20.2818H160.247L160.231 16.9454Z" fill="url(#paint4_linear_3442_2107)"/>
<g style="mix-blend-mode:overlay" opacity="0.2">
<path d="M160.246 20.3101H166.986L166.986 23.2421H160.246V20.3101Z" fill="url(#paint5_linear_3442_2107)"/>
</g>
<path fill-rule="evenodd" clip-rule="evenodd" d="M124.319 12.1444C124.592 11.4666 125.084 10.8716 125.766 10.4781C127.384 9.54415 129.452 10.0984 130.386 11.7161L142.31 32.3696C143.244 33.9873 142.69 36.0558 141.073 36.9897C139.455 37.9237 137.386 37.3694 136.452 35.7518L127.413 20.0948L127.462 20.2211C125.668 16.6575 122.899 16.2777 121.739 16.5333L124.305 12.1088L124.319 12.1444Z" fill="url(#paint6_linear_3442_2107)"/>
<defs>
<linearGradient id="paint0_linear_3442_2107" x1="160.232" y1="7.93652" x2="183.492" y2="13.9508" gradientUnits="userSpaceOnUse">
<stop stop-color="#9D0AFC"/>
<stop offset="1" stop-color="#0359FF"/>
</linearGradient>
<linearGradient id="paint1_linear_3442_2107" x1="126.581" y1="13.9332" x2="132.053" y2="20.5085" gradientUnits="userSpaceOnUse">
<stop stop-color="#00DFBA"/>
<stop offset="1" stop-color="#048AFE"/>
</linearGradient>
<linearGradient id="paint2_linear_3442_2107" x1="147.542" y1="13.7545" x2="147.542" y2="39.7381" gradientUnits="userSpaceOnUse">
<stop stop-color="#5900EB"/>
<stop offset="1" stop-color="#E367EE"/>
</linearGradient>
<linearGradient id="paint3_linear_3442_2107" x1="147.004" y1="24.2089" x2="160.785" y2="14.9748" gradientUnits="userSpaceOnUse">
<stop stop-color="#9129EC"/>
<stop offset="1" stop-color="#9F03FF"/>
</linearGradient>
<linearGradient id="paint4_linear_3442_2107" x1="167.63" y1="15.6777" x2="175.488" y2="23.899" gradientUnits="userSpaceOnUse">
<stop stop-color="#930FFC"/>
<stop offset="0.865143" stop-color="#004BFB"/>
</linearGradient>
<linearGradient id="paint5_linear_3442_2107" x1="163.616" y1="20.3639" x2="163.616" y2="22.9093" gradientUnits="userSpaceOnUse">
<stop/>
<stop offset="1" stop-opacity="0"/>
</linearGradient>
<linearGradient id="paint6_linear_3442_2107" x1="120.97" y1="10.2762" x2="153.943" y2="18.5295" gradientUnits="userSpaceOnUse">
<stop stop-color="#0056FE"/>
<stop offset="0.815625" stop-color="#D159ED"/>
</linearGradient>
</defs>
</svg>
