<svg width="178" height="47" viewBox="0 0 178 47" fill="none" xmlns="http://www.w3.org/2000/svg">
<path d="M13.9086 36.5591C11.9102 36.5591 10.0784 36.1547 8.41311 35.3458C6.74781 34.5211 5.29662 33.3395 4.05954 31.8011C2.83832 30.2468 1.88672 28.3516 1.20475 26.1153C0.538626 23.879 0.205566 21.3494 0.205566 18.5263C0.205566 15.6874 0.538626 13.1656 1.20475 10.9611C1.88672 8.74068 2.83832 6.86128 4.05954 5.32286C5.29662 3.78444 6.74781 2.61873 8.41311 1.82573C10.0943 1.03273 11.9261 0.63623 13.9086 0.63623C15.907 0.63623 17.7388 1.03273 19.4041 1.82573C21.0852 2.61873 22.5364 3.78444 23.7576 5.32286C24.9947 6.86128 25.9463 8.74068 26.6124 10.9611C27.2944 13.1656 27.6354 15.6874 27.6354 18.5263C27.6354 21.3494 27.2944 23.879 26.6124 26.1153C25.9463 28.3516 24.9947 30.2468 23.7576 31.8011C22.5364 33.3395 21.0852 34.5211 19.4041 35.3458C17.7388 36.1547 15.907 36.5591 13.9086 36.5591ZM13.9086 33.8946C16.018 33.8946 17.8736 33.2999 19.4754 32.1104C21.0932 30.9209 22.354 29.1842 23.2581 26.9004C24.1779 24.6165 24.6379 21.8252 24.6379 18.5263C24.6379 15.2116 24.1779 12.4281 23.2581 10.176C22.3382 7.90803 21.0694 6.19515 19.4517 5.03737C17.8498 3.8796 16.0021 3.30071 13.9086 3.30071C11.8309 3.30071 9.98325 3.8796 8.36553 5.03737C6.74781 6.19515 5.47901 7.90803 4.55913 10.176C3.63925 12.4281 3.17931 15.2116 3.17931 18.5263C3.17931 21.841 3.63925 24.6403 4.55913 26.9242C5.47901 29.208 6.74781 30.9447 8.36553 32.1342C9.98325 33.3078 11.8309 33.8946 13.9086 33.8946Z" fill="#222222"/>
<path d="M31.828 46.5033V10.8421H34.778V46.5033H31.828ZM43.4851 36.5591C41.5502 36.5591 39.758 36.0912 38.1086 35.1555C36.4591 34.2197 35.1269 32.9509 34.1119 31.3491C33.1127 29.7472 32.6131 27.9471 32.6131 25.9488C32.6131 25.9012 32.6131 25.8615 32.6131 25.8298C32.6131 25.7981 32.6131 25.7664 32.6131 25.7347L34.778 25.6871C34.778 25.7188 34.778 25.7505 34.778 25.7822C34.778 25.814 34.778 25.8457 34.778 25.8774C34.778 27.3048 35.1665 28.6212 35.9437 29.8265C36.7208 31.0319 37.7359 31.9914 38.9888 32.7051C40.2576 33.4188 41.6295 33.7757 43.1045 33.7757C45.5469 33.7757 47.5532 32.9113 49.1233 31.1826C50.7093 29.438 51.5023 26.8686 51.5023 23.4746C51.5023 20.0647 50.7093 17.4954 49.1233 15.7667C47.5532 14.0379 45.5469 13.1735 43.1045 13.1735C41.6295 13.1735 40.2576 13.5304 38.9888 14.2441C37.7359 14.9578 36.7208 15.9094 35.9437 17.0989C35.1665 18.2884 34.778 19.6048 34.778 21.048L32.6131 20.9767C32.6131 18.9783 33.1127 17.1861 34.1119 15.6001C35.1269 14.0141 36.4591 12.7691 38.1086 11.8651C39.758 10.9452 41.5502 10.4853 43.4851 10.4853C45.531 10.4853 47.3867 10.9928 49.052 12.0078C50.7173 13.007 52.0416 14.4741 53.0249 16.409C54.0241 18.3439 54.5237 20.6991 54.5237 23.4746C54.5237 26.2818 54.032 28.6608 53.0487 30.6116C52.0812 32.5624 50.7569 34.0453 49.0758 35.0603C47.4105 36.0595 45.5469 36.5591 43.4851 36.5591Z" fill="#222222"/>
<path d="M59.6645 24.7117V22.071H80.1239L79.5529 22.8799C79.5529 22.7847 79.5529 22.7054 79.5529 22.642C79.5529 22.5627 79.5529 22.4834 79.5529 22.4041C79.5529 20.7705 79.204 19.2479 78.5062 17.8364C77.8083 16.4248 76.7933 15.2909 75.4611 14.4344C74.1447 13.578 72.5349 13.1498 70.6317 13.1498C68.6968 13.1498 66.9918 13.5938 65.5169 14.482C64.0419 15.3543 62.892 16.5676 62.0673 18.1219C61.2426 19.6603 60.8302 21.4525 60.8302 23.4984C60.8302 25.5602 61.2347 27.3762 62.0435 28.9463C62.8682 30.5006 64.0181 31.7139 65.4931 32.5862C66.968 33.4426 68.6889 33.8708 70.6555 33.8708C72.0987 33.8708 73.3517 33.6964 74.4143 33.3475C75.4928 32.9827 76.3809 32.5069 77.0788 31.92C77.7925 31.3332 78.3317 30.7147 78.6965 30.0644C79.0771 29.3983 79.2992 28.7718 79.3626 28.185H82.2888C82.2254 29.1208 81.924 30.0803 81.3848 31.0636C80.8614 32.0311 80.108 32.9351 79.1247 33.7757C78.1573 34.6162 76.9519 35.2982 75.5086 35.8216C74.0812 36.3291 72.4318 36.5829 70.5603 36.5829C68.1179 36.5829 65.9451 36.0278 64.0419 34.9176C62.1545 33.8074 60.6637 32.2769 59.5694 30.3261C58.4909 28.3595 57.9516 26.0994 57.9516 23.546C57.9516 20.9767 58.4988 18.7166 59.5932 16.7658C60.6875 14.7992 62.1863 13.2608 64.0895 12.1506C65.9927 11.0404 68.1575 10.4853 70.5841 10.4853C73.0583 10.4853 75.1994 11.0483 77.0074 12.1744C78.8155 13.3004 80.2111 14.8309 81.1945 16.7658C82.1778 18.6849 82.6694 20.8419 82.6694 23.2367C82.6694 23.4429 82.6615 23.7046 82.6456 24.0218C82.6456 24.339 82.6377 24.5689 82.6219 24.7117H59.6645Z" fill="#222222"/>
<path d="M105.417 36.1071V23.546C105.417 22.7688 105.417 22.1503 105.417 21.6904C105.417 21.2304 105.417 20.7784 105.417 20.3343C105.417 18.9228 105.164 17.6936 104.656 16.6469C104.165 15.5843 103.403 14.7595 102.372 14.1727C101.341 13.57 100.017 13.2687 98.3994 13.2687C96.972 13.2687 95.6319 13.6256 94.3789 14.3393C93.126 15.0371 92.111 15.9887 91.3338 17.1941C90.5725 18.3994 90.1919 19.7554 90.1919 21.2621L88.4077 20.596C88.4077 18.677 88.8993 16.9562 89.8826 15.4336C90.8818 13.911 92.1823 12.7057 93.7842 11.8175C95.4019 10.9294 97.1148 10.4853 98.9228 10.4853C100.842 10.4853 102.507 10.8501 103.919 11.5796C105.33 12.2933 106.417 13.3321 107.178 14.6961C107.955 16.0442 108.344 17.6857 108.344 19.6206C108.344 20.2868 108.344 21.0005 108.344 21.7617C108.344 22.523 108.344 23.2129 108.344 23.8315V36.1071H105.417ZM87.242 36.1071V10.8421H90.1919V36.1071H87.242Z" fill="#222222"/>
<path fill-rule="evenodd" clip-rule="evenodd" d="M166.159 28.207C166.462 30.0482 168.865 31.0355 170.452 29.1168C171.643 27.6776 173.775 27.476 175.214 28.6667C176.653 29.8574 176.855 31.9893 175.664 33.4286C170.091 40.1652 159.751 36.5432 159.399 28.0477C159.386 27.9273 159.379 27.8083 159.379 27.6915L159.394 10.1115C159.394 8.36125 160.909 6.94238 162.776 6.94238C164.644 6.94238 166.159 8.36126 166.159 10.1115L166.159 28.207Z" fill="url(#paint0_linear_3442_3216)"/>
<path fill-rule="evenodd" clip-rule="evenodd" d="M128.291 9.48355C129.909 10.4175 130.463 12.486 129.529 14.1036L117.605 34.7572C116.671 36.3749 114.602 36.9291 112.985 35.9952C111.367 35.0612 110.813 32.9927 111.747 31.3751L123.671 10.7215C124.605 9.10385 126.674 8.5496 128.291 9.48355Z" fill="url(#paint1_linear_3442_3216)"/>
<path fill-rule="evenodd" clip-rule="evenodd" d="M146.59 36.625C144.722 36.625 143.208 35.1108 143.208 33.2429L143.208 15.2379C143.208 13.3699 144.722 11.8557 146.59 11.8557C148.458 11.8557 149.972 13.3699 149.972 15.2379L149.972 33.2429C149.972 35.1108 148.458 36.625 146.59 36.625Z" fill="url(#paint2_linear_3442_3216)"/>
<path fill-rule="evenodd" clip-rule="evenodd" d="M149.427 23.1572L148.183 23.1826L143.205 23.1492C143.25 21.8788 144.011 19.515 144.588 18.4087C145.19 17.2525 146.047 16.0624 147.132 15.0412C149.313 12.9873 152.776 11.3598 156.802 12.8694C158.405 13.4705 159.218 15.2575 158.617 16.8607C158.016 18.464 156.229 19.2764 154.625 18.6753C153.495 18.2517 152.447 18.5534 151.383 19.5554C150.844 20.0622 150.397 20.4935 150.086 21.2749C149.935 21.998 149.968 23.1487 149.968 23.1487L149.427 23.1572Z" fill="url(#paint3_linear_3442_3216)"/>
<path fill-rule="evenodd" clip-rule="evenodd" d="M159.379 15.9513L159.379 13.0869L170.509 13.087C171.776 13.087 173.474 14.3142 173.474 16.0265C173.624 17.6691 172.28 19.2876 170.509 19.2876H159.395L159.379 15.9513Z" fill="url(#paint4_linear_3442_3216)"/>
<g style="mix-blend-mode:overlay" opacity="0.2">
<path d="M159.394 19.3159H166.133L166.133 22.248H159.394V19.3159Z" fill="url(#paint5_linear_3442_3216)"/>
</g>
<path fill-rule="evenodd" clip-rule="evenodd" d="M123.467 11.1503C123.739 10.4725 124.232 9.8775 124.914 9.48396C126.531 8.55001 128.6 9.10426 129.534 10.7219L141.458 31.3755C142.392 32.9931 141.838 35.0616 140.22 35.9956C138.603 36.9295 136.534 36.3753 135.6 34.7576L126.561 19.1007L126.61 19.227C124.816 15.6633 122.047 15.2836 120.887 15.5392L123.453 11.1147L123.467 11.1503Z" fill="url(#paint6_linear_3442_3216)"/>
<defs>
<linearGradient id="paint0_linear_3442_3216" x1="159.379" y1="6.94238" x2="182.64" y2="12.9567" gradientUnits="userSpaceOnUse">
<stop stop-color="#9D0AFC"/>
<stop offset="1" stop-color="#0359FF"/>
</linearGradient>
<linearGradient id="paint1_linear_3442_3216" x1="125.729" y1="12.9391" x2="131.2" y2="19.5143" gradientUnits="userSpaceOnUse">
<stop stop-color="#00DFBA"/>
<stop offset="1" stop-color="#048AFE"/>
</linearGradient>
<linearGradient id="paint2_linear_3442_3216" x1="146.69" y1="12.7604" x2="146.69" y2="38.744" gradientUnits="userSpaceOnUse">
<stop stop-color="#5900EB"/>
<stop offset="1" stop-color="#E367EE"/>
</linearGradient>
<linearGradient id="paint3_linear_3442_3216" x1="146.151" y1="23.2148" x2="159.933" y2="13.9807" gradientUnits="userSpaceOnUse">
<stop stop-color="#9129EC"/>
<stop offset="1" stop-color="#9F03FF"/>
</linearGradient>
<linearGradient id="paint4_linear_3442_3216" x1="166.778" y1="14.6836" x2="174.635" y2="22.9049" gradientUnits="userSpaceOnUse">
<stop stop-color="#930FFC"/>
<stop offset="0.865143" stop-color="#004BFB"/>
</linearGradient>
<linearGradient id="paint5_linear_3442_3216" x1="162.763" y1="19.3698" x2="162.763" y2="21.9151" gradientUnits="userSpaceOnUse">
<stop/>
<stop offset="1" stop-opacity="0"/>
</linearGradient>
<linearGradient id="paint6_linear_3442_3216" x1="120.117" y1="9.28206" x2="153.091" y2="17.5353" gradientUnits="userSpaceOnUse">
<stop stop-color="#0056FE"/>
<stop offset="0.815625" stop-color="#D159ED"/>
</linearGradient>
</defs>
</svg>
