<svg width="178" height="48" viewBox="0 0 178 48" fill="none" xmlns="http://www.w3.org/2000/svg">
<path d="M14.4306 37.553C12.4322 37.553 10.6004 37.1486 8.93508 36.3397C7.26978 35.515 5.81859 34.3334 4.58152 32.795C3.3603 31.2407 2.4087 29.3455 1.72672 27.1092C1.0606 24.8729 0.727539 22.3433 0.727539 19.5202C0.727539 16.6813 1.0606 14.1595 1.72672 11.955C2.4087 9.73458 3.3603 7.85517 4.58152 6.31675C5.81859 4.77833 7.26978 3.61262 8.93508 2.81962C10.6162 2.02663 12.4481 1.63013 14.4306 1.63013C16.4289 1.63013 18.2608 2.02663 19.9261 2.81962C21.6072 3.61262 23.0584 4.77833 24.2796 6.31675C25.5167 7.85517 26.4683 9.73458 27.1344 11.955C27.8164 14.1595 28.1574 16.6813 28.1574 19.5202C28.1574 22.3433 27.8164 24.8729 27.1344 27.1092C26.4683 29.3455 25.5167 31.2407 24.2796 32.795C23.0584 34.3334 21.6072 35.515 19.9261 36.3397C18.2608 37.1486 16.4289 37.553 14.4306 37.553ZM14.4306 34.8885C16.5399 34.8885 18.3956 34.2938 19.9974 33.1043C21.6151 31.9148 22.876 30.1781 23.78 27.8943C24.6999 25.6104 25.1598 22.8191 25.1598 19.5202C25.1598 16.2055 24.6999 13.422 23.78 11.1699C22.8601 8.90193 21.5913 7.18905 19.9736 6.03127C18.3718 4.87349 16.5241 4.2946 14.4306 4.2946C12.3529 4.2946 10.5052 4.87349 8.8875 6.03127C7.26978 7.18905 6.00098 8.90193 5.0811 11.1699C4.16123 13.422 3.70129 16.2055 3.70129 19.5202C3.70129 22.8349 4.16123 25.6342 5.0811 27.9181C6.00098 30.2019 7.26978 31.9386 8.8875 33.1281C10.5052 34.3017 12.3529 34.8885 14.4306 34.8885Z" fill="white"/>
<path d="M32.35 47.4972V11.836H35.2999V47.4972H32.35ZM44.0071 37.553C42.0722 37.553 40.28 37.0851 38.6305 36.1494C36.9811 35.2136 35.6489 33.9448 34.6338 32.343C33.6347 30.7411 33.1351 28.941 33.1351 26.9427C33.1351 26.8951 33.1351 26.8554 33.1351 26.8237C33.1351 26.792 33.1351 26.7603 33.1351 26.7286L35.2999 26.681C35.2999 26.7127 35.2999 26.7444 35.2999 26.7761C35.2999 26.8079 35.2999 26.8396 35.2999 26.8713C35.2999 28.2987 35.6885 29.6151 36.4657 30.8204C37.2428 32.0258 38.2578 32.9853 39.5108 33.699C40.7796 34.4127 42.1515 34.7696 43.6264 34.7696C46.0689 34.7696 48.0752 33.9052 49.6453 32.1765C51.2313 30.4319 52.0243 27.8625 52.0243 24.4685C52.0243 21.0586 51.2313 18.4893 49.6453 16.7606C48.0752 15.0318 46.0689 14.1674 43.6264 14.1674C42.1515 14.1674 40.7796 14.5243 39.5108 15.238C38.2578 15.9517 37.2428 16.9033 36.4657 18.0928C35.6885 19.2823 35.2999 20.5987 35.2999 22.0419L33.1351 21.9706C33.1351 19.9722 33.6347 18.18 34.6338 16.594C35.6489 15.008 36.9811 13.763 38.6305 12.859C40.28 11.9391 42.0722 11.4792 44.0071 11.4792C46.053 11.4792 47.9086 11.9867 49.5739 13.0017C51.2392 14.0009 52.5635 15.468 53.5469 17.4029C54.546 19.3378 55.0456 21.693 55.0456 24.4685C55.0456 27.2757 54.554 29.6547 53.5707 31.6055C52.6032 33.5563 51.2789 35.0392 49.5977 36.0542C47.9324 37.0534 46.0689 37.553 44.0071 37.553Z" fill="white"/>
<path d="M60.1865 25.7056V23.0649H80.6459L80.0749 23.8738C80.0749 23.7786 80.0749 23.6993 80.0749 23.6359C80.0749 23.5566 80.0749 23.4773 80.0749 23.398C80.0749 21.7644 79.726 20.2418 79.0282 18.8303C78.3303 17.4187 77.3153 16.2848 75.983 15.4283C74.6667 14.5719 73.0569 14.1437 71.1537 14.1437C69.2188 14.1437 67.5138 14.5877 66.0388 15.4759C64.5638 16.3482 63.414 17.5615 62.5893 19.1158C61.7646 20.6542 61.3522 22.4464 61.3522 24.4923C61.3522 26.5541 61.7566 28.3701 62.5655 29.9402C63.3902 31.4945 64.5401 32.7078 66.015 33.5801C67.49 34.4365 69.2108 34.8647 71.1775 34.8647C72.6207 34.8647 73.8737 34.6903 74.9363 34.3413C76.0148 33.9766 76.9029 33.5008 77.6008 32.9139C78.3145 32.3271 78.8537 31.7086 79.2185 31.0583C79.5991 30.3922 79.8212 29.7657 79.8846 29.1789H82.8108C82.7473 30.1147 82.446 31.0742 81.9067 32.0575C81.3834 33.025 80.63 33.929 79.6467 34.7696C78.6792 35.6101 77.4739 36.2921 76.0306 36.8155C74.6032 37.323 72.9538 37.5768 71.0823 37.5768C68.6399 37.5768 66.467 37.0217 64.5638 35.9115C62.6765 34.8013 61.1857 33.2708 60.0913 31.32C59.0129 29.3534 58.4736 27.0933 58.4736 24.5399C58.4736 21.9706 59.0208 19.7105 60.1151 17.7597C61.2095 15.7931 62.7082 14.2547 64.6114 13.1445C66.5146 12.0343 68.6795 11.4792 71.1061 11.4792C73.5803 11.4792 75.7213 12.0422 77.5294 13.1683C79.3374 14.2943 80.7331 15.8248 81.7164 17.7597C82.6997 19.6788 83.1914 21.8357 83.1914 24.2306C83.1914 24.4368 83.1835 24.6985 83.1676 25.0157C83.1676 25.3329 83.1597 25.5628 83.1438 25.7056H60.1865Z" fill="white"/>
<path d="M105.939 37.101V24.5399C105.939 23.7627 105.939 23.1442 105.939 22.6843C105.939 22.2243 105.939 21.7723 105.939 21.3282C105.939 19.9167 105.686 18.6875 105.178 17.6408C104.687 16.5782 103.925 15.7534 102.894 15.1666C101.863 14.5639 100.539 14.2626 98.9214 14.2626C97.494 14.2626 96.1538 14.6195 94.9009 15.3332C93.648 16.031 92.6329 16.9826 91.8558 18.188C91.0945 19.3933 90.7139 20.7493 90.7139 22.256L88.9296 21.5899C88.9296 19.6709 89.4213 17.9501 90.4046 16.4275C91.4038 14.9049 92.7043 13.6996 94.3062 12.8114C95.9239 11.9233 97.6368 11.4792 99.4448 11.4792C101.364 11.4792 103.029 11.844 104.441 12.5735C105.852 13.2872 106.939 14.326 107.7 15.69C108.477 17.0381 108.866 18.6796 108.866 20.6145C108.866 21.2806 108.866 21.9943 108.866 22.7556C108.866 23.5169 108.866 24.2068 108.866 24.8254V37.101H105.939ZM87.7639 37.101V11.836H90.7139V37.101H87.7639Z" fill="white"/>
<path fill-rule="evenodd" clip-rule="evenodd" d="M166.681 29.2011C166.985 31.0423 169.387 32.0296 170.975 30.1109C172.165 28.6717 174.297 28.4702 175.737 29.6608C177.176 30.8515 177.377 32.9835 176.187 34.4227C170.614 41.1593 160.273 37.5374 159.921 29.0418C159.908 28.9215 159.901 28.8025 159.901 28.6857L159.917 11.1057C159.917 9.35539 161.431 7.93652 163.299 7.93652C165.167 7.93653 166.681 9.3554 166.681 11.1057L166.681 29.2011Z" fill="url(#paint0_linear_3442_3976)"/>
<path fill-rule="evenodd" clip-rule="evenodd" d="M128.814 10.4779C130.431 11.4119 130.986 13.4804 130.052 15.098L118.127 35.7516C117.193 37.3693 115.125 37.9235 113.507 36.9895C111.89 36.0556 111.335 33.9871 112.269 32.3695L124.194 11.7159C125.128 10.0982 127.196 9.54398 128.814 10.4779Z" fill="url(#paint1_linear_3442_3976)"/>
<path fill-rule="evenodd" clip-rule="evenodd" d="M147.112 37.6191C145.244 37.6191 143.73 36.1049 143.73 34.237L143.73 16.232C143.73 14.3641 145.244 12.8498 147.112 12.8498C148.98 12.8498 150.494 14.3641 150.494 16.232L150.494 34.237C150.494 36.1049 148.98 37.6191 147.112 37.6191Z" fill="url(#paint2_linear_3442_3976)"/>
<path fill-rule="evenodd" clip-rule="evenodd" d="M149.95 24.1511L148.706 24.1765L143.728 24.1431C143.773 22.8727 144.534 20.5089 145.111 19.4026C145.713 18.2464 146.57 17.0563 147.655 16.0351C149.836 13.9812 153.299 12.3537 157.325 13.8633C158.928 14.4644 159.741 16.2514 159.14 17.8546C158.539 19.4579 156.752 20.2703 155.148 19.6692C154.018 19.2456 152.97 19.5473 151.906 20.5493C151.367 21.0561 150.92 21.4874 150.609 22.2688C150.458 22.9919 150.491 24.1426 150.491 24.1426L149.95 24.1511Z" fill="url(#paint3_linear_3442_3976)"/>
<path fill-rule="evenodd" clip-rule="evenodd" d="M159.901 16.9454L159.901 14.0811L171.031 14.0812C172.298 14.0812 173.996 15.3084 173.996 17.0206C174.147 18.6633 172.802 20.2818 171.031 20.2818H159.917L159.901 16.9454Z" fill="url(#paint4_linear_3442_3976)"/>
<g style="mix-blend-mode:overlay" opacity="0.2">
<path d="M159.916 20.3101H166.655L166.655 23.2421H159.916V20.3101Z" fill="url(#paint5_linear_3442_3976)"/>
</g>
<path fill-rule="evenodd" clip-rule="evenodd" d="M123.99 12.1442C124.262 11.4664 124.755 10.8714 125.436 10.4779C127.054 9.5439 129.122 10.0982 130.056 11.7158L141.981 32.3694C142.915 33.987 142.36 36.0555 140.743 36.9895C139.125 37.9234 137.057 37.3692 136.123 35.7515L127.083 20.0946L127.132 20.2209C125.339 16.6572 122.57 16.2775 121.409 16.5331L123.976 12.1086L123.99 12.1442Z" fill="url(#paint6_linear_3442_3976)"/>
<defs>
<linearGradient id="paint0_linear_3442_3976" x1="159.901" y1="7.93652" x2="183.162" y2="13.9508" gradientUnits="userSpaceOnUse">
<stop stop-color="#9D0AFC"/>
<stop offset="1" stop-color="#0359FF"/>
</linearGradient>
<linearGradient id="paint1_linear_3442_3976" x1="126.251" y1="13.9335" x2="131.723" y2="20.5087" gradientUnits="userSpaceOnUse">
<stop stop-color="#00DFBA"/>
<stop offset="1" stop-color="#048AFE"/>
</linearGradient>
<linearGradient id="paint2_linear_3442_3976" x1="147.212" y1="13.7545" x2="147.212" y2="39.7381" gradientUnits="userSpaceOnUse">
<stop stop-color="#5900EB"/>
<stop offset="1" stop-color="#E367EE"/>
</linearGradient>
<linearGradient id="paint3_linear_3442_3976" x1="146.674" y1="24.2087" x2="160.455" y2="14.9746" gradientUnits="userSpaceOnUse">
<stop stop-color="#9129EC"/>
<stop offset="1" stop-color="#9F03FF"/>
</linearGradient>
<linearGradient id="paint4_linear_3442_3976" x1="167.3" y1="15.6777" x2="175.158" y2="23.899" gradientUnits="userSpaceOnUse">
<stop stop-color="#930FFC"/>
<stop offset="0.865143" stop-color="#004BFB"/>
</linearGradient>
<linearGradient id="paint5_linear_3442_3976" x1="163.286" y1="20.3639" x2="163.286" y2="22.9093" gradientUnits="userSpaceOnUse">
<stop/>
<stop offset="1" stop-opacity="0"/>
</linearGradient>
<linearGradient id="paint6_linear_3442_3976" x1="120.64" y1="10.276" x2="153.613" y2="18.5292" gradientUnits="userSpaceOnUse">
<stop stop-color="#0056FE"/>
<stop offset="0.815625" stop-color="#D159ED"/>
</linearGradient>
</defs>
</svg>
