<svg width="178" height="47" viewBox="0 0 178 47" fill="none" xmlns="http://www.w3.org/2000/svg">
<path d="M13.9081 36.5591C11.9097 36.5591 10.0779 36.1547 8.41262 35.3458C6.74732 34.5211 5.29613 33.3395 4.05905 31.8011C2.83784 30.2468 1.88624 28.3516 1.20426 26.1153C0.538138 23.879 0.205078 21.3494 0.205078 18.5263C0.205078 15.6874 0.538138 13.1656 1.20426 10.9611C1.88624 8.74068 2.83784 6.86128 4.05905 5.32286C5.29613 3.78444 6.74732 2.61873 8.41262 1.82573C10.0938 1.03273 11.9256 0.63623 13.9081 0.63623C15.9065 0.63623 17.7383 1.03273 19.4036 1.82573C21.0847 2.61873 22.5359 3.78444 23.7572 5.32286C24.9942 6.86128 25.9458 8.74068 26.612 10.9611C27.2939 13.1656 27.6349 15.6874 27.6349 18.5263C27.6349 21.3494 27.2939 23.879 26.612 26.1153C25.9458 28.3516 24.9942 30.2468 23.7572 31.8011C22.5359 33.3395 21.0847 34.5211 19.4036 35.3458C17.7383 36.1547 15.9065 36.5591 13.9081 36.5591ZM13.9081 33.8946C16.0175 33.8946 17.8731 33.2999 19.475 32.1104C21.0927 30.9209 22.3535 29.1842 23.2576 26.9004C24.1774 24.6165 24.6374 21.8252 24.6374 18.5263C24.6374 15.2116 24.1774 12.4281 23.2576 10.176C22.3377 7.90803 21.0689 6.19515 19.4512 5.03737C17.8493 3.8796 16.0016 3.30071 13.9081 3.30071C11.8304 3.30071 9.98276 3.8796 8.36504 5.03737C6.74732 6.19515 5.47852 7.90803 4.55864 10.176C3.63876 12.4281 3.17883 15.2116 3.17883 18.5263C3.17883 21.841 3.63876 24.6403 4.55864 26.9242C5.47852 29.208 6.74732 30.9447 8.36504 32.1342C9.98276 33.3078 11.8304 33.8946 13.9081 33.8946Z" fill="#222222"/>
<path d="M31.8275 46.5033V10.8421H34.7775V46.5033H31.8275ZM43.4846 36.5591C41.5497 36.5591 39.7575 36.0912 38.1081 35.1555C36.4586 34.2197 35.1264 32.9509 34.1114 31.3491C33.1122 29.7472 32.6126 27.9471 32.6126 25.9488C32.6126 25.9012 32.6126 25.8615 32.6126 25.8298C32.6126 25.7981 32.6126 25.7664 32.6126 25.7347L34.7775 25.6871C34.7775 25.7188 34.7775 25.7505 34.7775 25.7822C34.7775 25.814 34.7775 25.8457 34.7775 25.8774C34.7775 27.3048 35.1661 28.6212 35.9432 29.8265C36.7203 31.0319 37.7354 31.9914 38.9883 32.7051C40.2571 33.4188 41.629 33.7757 43.104 33.7757C45.5464 33.7757 47.5527 32.9113 49.1228 31.1826C50.7088 29.438 51.5018 26.8686 51.5018 23.4746C51.5018 20.0647 50.7088 17.4954 49.1228 15.7667C47.5527 14.0379 45.5464 13.1735 43.104 13.1735C41.629 13.1735 40.2571 13.5304 38.9883 14.2441C37.7354 14.9578 36.7203 15.9094 35.9432 17.0989C35.1661 18.2884 34.7775 19.6048 34.7775 21.048L32.6126 20.9767C32.6126 18.9783 33.1122 17.1861 34.1114 15.6001C35.1264 14.0141 36.4586 12.7691 38.1081 11.8651C39.7575 10.9452 41.5497 10.4853 43.4846 10.4853C45.5306 10.4853 47.3862 10.9928 49.0515 12.0078C50.7168 13.007 52.0411 14.4741 53.0244 16.409C54.0236 18.3439 54.5232 20.6991 54.5232 23.4746C54.5232 26.2818 54.0315 28.6608 53.0482 30.6116C52.0807 32.5624 50.7564 34.0453 49.0753 35.0603C47.41 36.0595 45.5464 36.5591 43.4846 36.5591Z" fill="#222222"/>
<path d="M59.664 24.7117V22.071H80.1234L79.5525 22.8799C79.5525 22.7847 79.5525 22.7054 79.5525 22.642C79.5525 22.5627 79.5525 22.4834 79.5525 22.4041C79.5525 20.7705 79.2035 19.2479 78.5057 17.8364C77.8079 16.4248 76.7928 15.2909 75.4606 14.4344C74.1442 13.578 72.5344 13.1498 70.6312 13.1498C68.6963 13.1498 66.9913 13.5938 65.5164 14.482C64.0414 15.3543 62.8915 16.5676 62.0668 18.1219C61.2421 19.6603 60.8297 21.4525 60.8297 23.4984C60.8297 25.5602 61.2342 27.3762 62.043 28.9463C62.8677 30.5006 64.0176 31.7139 65.4926 32.5862C66.9676 33.4426 68.6884 33.8708 70.655 33.8708C72.0983 33.8708 73.3512 33.6964 74.4138 33.3475C75.4923 32.9827 76.3805 32.5069 77.0783 31.92C77.792 31.3332 78.3312 30.7147 78.696 30.0644C79.0767 29.3983 79.2987 28.7718 79.3621 28.185H82.2883C82.2249 29.1208 81.9235 30.0803 81.3843 31.0636C80.8609 32.0311 80.1076 32.9351 79.1242 33.7757C78.1568 34.6162 76.9514 35.2982 75.5082 35.8216C74.0808 36.3291 72.4313 36.5829 70.5598 36.5829C68.1174 36.5829 65.9446 36.0278 64.0414 34.9176C62.154 33.8074 60.6632 32.2769 59.5689 30.3261C58.4904 28.3595 57.9512 26.0994 57.9512 23.546C57.9512 20.9767 58.4983 18.7166 59.5927 16.7658C60.687 14.7992 62.1858 13.2608 64.089 12.1506C65.9922 11.0404 68.1571 10.4853 70.5836 10.4853C73.0578 10.4853 75.1989 11.0483 77.0069 12.1744C78.815 13.3004 80.2106 14.8309 81.194 16.7658C82.1773 18.6849 82.6689 20.8419 82.6689 23.2367C82.6689 23.4429 82.661 23.7046 82.6452 24.0218C82.6452 24.339 82.6372 24.5689 82.6214 24.7117H59.664Z" fill="#222222"/>
<path d="M105.417 36.1071V23.546C105.417 22.7688 105.417 22.1503 105.417 21.6904C105.417 21.2304 105.417 20.7784 105.417 20.3343C105.417 18.9228 105.163 17.6936 104.656 16.6469C104.164 15.5843 103.403 14.7595 102.372 14.1727C101.341 13.57 100.017 13.2687 98.399 13.2687C96.9716 13.2687 95.6314 13.6256 94.3784 14.3393C93.1255 15.0371 92.1105 15.9887 91.3333 17.1941C90.5721 18.3994 90.1914 19.7554 90.1914 21.2621L88.4072 20.596C88.4072 18.677 88.8988 16.9562 89.8821 15.4336C90.8813 13.911 92.1818 12.7057 93.7837 11.8175C95.4014 10.9294 97.1143 10.4853 98.9223 10.4853C100.841 10.4853 102.507 10.8501 103.918 11.5796C105.33 12.2933 106.416 13.3321 107.177 14.6961C107.955 16.0442 108.343 17.6857 108.343 19.6206C108.343 20.2868 108.343 21.0005 108.343 21.7617C108.343 22.523 108.343 23.2129 108.343 23.8315V36.1071H105.417ZM87.2415 36.1071V10.8421H90.1914V36.1071H87.2415Z" fill="#222222"/>
<path fill-rule="evenodd" clip-rule="evenodd" d="M166.159 28.207C166.462 30.0482 168.865 31.0355 170.452 29.1168C171.643 27.6776 173.775 27.476 175.214 28.6667C176.653 29.8574 176.855 31.9893 175.664 33.4286C170.091 40.1652 159.751 36.5432 159.399 28.0477C159.386 27.9273 159.379 27.8083 159.379 27.6915L159.394 10.1115C159.394 8.36125 160.909 6.94238 162.776 6.94238C164.644 6.94238 166.159 8.36126 166.159 10.1115L166.159 28.207Z" fill="url(#paint0_linear_3442_6301)"/>
<path fill-rule="evenodd" clip-rule="evenodd" d="M128.292 9.48355C129.91 10.4175 130.464 12.486 129.53 14.1036L117.606 34.7572C116.672 36.3749 114.603 36.9291 112.986 35.9952C111.368 35.0612 110.814 32.9927 111.748 31.3751L123.672 10.7215C124.606 9.10385 126.675 8.5496 128.292 9.48355Z" fill="url(#paint1_linear_3442_6301)"/>
<path fill-rule="evenodd" clip-rule="evenodd" d="M146.591 36.625C144.723 36.625 143.208 35.1108 143.208 33.2429L143.208 15.2379C143.208 13.3699 144.723 11.8557 146.591 11.8557C148.458 11.8557 149.973 13.3699 149.973 15.2379L149.973 33.2429C149.973 35.1108 148.458 36.625 146.591 36.625Z" fill="url(#paint2_linear_3442_6301)"/>
<path fill-rule="evenodd" clip-rule="evenodd" d="M149.427 23.1572L148.184 23.1826L143.205 23.1492C143.25 21.8788 144.011 19.515 144.588 18.4087C145.191 17.2525 146.048 16.0624 147.132 15.0412C149.313 12.9873 152.776 11.3598 156.803 12.8694C158.406 13.4705 159.218 15.2575 158.617 16.8607C158.016 18.464 156.229 19.2764 154.626 18.6753C153.496 18.2517 152.447 18.5534 151.383 19.5554C150.845 20.0622 150.397 20.4935 150.087 21.2749C149.935 21.998 149.969 23.1487 149.969 23.1487L149.427 23.1572Z" fill="url(#paint3_linear_3442_6301)"/>
<path fill-rule="evenodd" clip-rule="evenodd" d="M159.379 15.9513L159.379 13.0869L170.509 13.087C171.776 13.087 173.474 14.3142 173.474 16.0265C173.624 17.6691 172.28 19.2876 170.509 19.2876H159.395L159.379 15.9513Z" fill="url(#paint4_linear_3442_6301)"/>
<g style="mix-blend-mode:overlay" opacity="0.2">
<path d="M159.395 19.3159H166.134L166.134 22.248H159.395V19.3159Z" fill="url(#paint5_linear_3442_6301)"/>
</g>
<path fill-rule="evenodd" clip-rule="evenodd" d="M123.467 11.1503C123.739 10.4725 124.232 9.8775 124.914 9.48396C126.531 8.55001 128.6 9.10426 129.534 10.7219L141.458 31.3755C142.392 32.9931 141.838 35.0616 140.22 35.9956C138.603 36.9295 136.534 36.3753 135.6 34.7576L126.561 19.1007L126.61 19.227C124.816 15.6633 122.047 15.2836 120.887 15.5392L123.453 11.1147L123.467 11.1503Z" fill="url(#paint6_linear_3442_6301)"/>
<defs>
<linearGradient id="paint0_linear_3442_6301" x1="159.379" y1="6.94238" x2="182.64" y2="12.9567" gradientUnits="userSpaceOnUse">
<stop stop-color="#9D0AFC"/>
<stop offset="1" stop-color="#0359FF"/>
</linearGradient>
<linearGradient id="paint1_linear_3442_6301" x1="125.73" y1="12.9391" x2="131.201" y2="19.5143" gradientUnits="userSpaceOnUse">
<stop stop-color="#00DFBA"/>
<stop offset="1" stop-color="#048AFE"/>
</linearGradient>
<linearGradient id="paint2_linear_3442_6301" x1="146.69" y1="12.7604" x2="146.69" y2="38.744" gradientUnits="userSpaceOnUse">
<stop stop-color="#5900EB"/>
<stop offset="1" stop-color="#E367EE"/>
</linearGradient>
<linearGradient id="paint3_linear_3442_6301" x1="146.152" y1="23.2148" x2="159.933" y2="13.9807" gradientUnits="userSpaceOnUse">
<stop stop-color="#9129EC"/>
<stop offset="1" stop-color="#9F03FF"/>
</linearGradient>
<linearGradient id="paint4_linear_3442_6301" x1="166.778" y1="14.6836" x2="174.635" y2="22.9049" gradientUnits="userSpaceOnUse">
<stop stop-color="#930FFC"/>
<stop offset="0.865143" stop-color="#004BFB"/>
</linearGradient>
<linearGradient id="paint5_linear_3442_6301" x1="162.764" y1="19.3698" x2="162.764" y2="21.9151" gradientUnits="userSpaceOnUse">
<stop/>
<stop offset="1" stop-opacity="0"/>
</linearGradient>
<linearGradient id="paint6_linear_3442_6301" x1="120.117" y1="9.28206" x2="153.091" y2="17.5353" gradientUnits="userSpaceOnUse">
<stop stop-color="#0056FE"/>
<stop offset="0.815625" stop-color="#D159ED"/>
</linearGradient>
</defs>
</svg>
