<svg width="178" height="47" viewBox="0 0 178 47" fill="none" xmlns="http://www.w3.org/2000/svg">
<path d="M13.9085 36.5591C11.9101 36.5591 10.0783 36.1547 8.41299 35.3458C6.74769 34.5211 5.2965 33.3395 4.05942 31.8011C2.8382 30.2468 1.8866 28.3516 1.20462 26.1153C0.538504 23.879 0.205444 21.3494 0.205444 18.5263C0.205444 15.6874 0.538504 13.1656 1.20462 10.9611C1.8866 8.74068 2.8382 6.86128 4.05942 5.32286C5.2965 3.78444 6.74769 2.61873 8.41299 1.82573C10.0941 1.03273 11.926 0.63623 13.9085 0.63623C15.9068 0.63623 17.7387 1.03273 19.404 1.82573C21.0851 2.61873 22.5363 3.78444 23.7575 5.32286C24.9946 6.86128 25.9462 8.74068 26.6123 10.9611C27.2943 13.1656 27.6353 15.6874 27.6353 18.5263C27.6353 21.3494 27.2943 23.879 26.6123 26.1153C25.9462 28.3516 24.9946 30.2468 23.7575 31.8011C22.5363 33.3395 21.0851 34.5211 19.404 35.3458C17.7387 36.1547 15.9068 36.5591 13.9085 36.5591ZM13.9085 33.8946C16.0179 33.8946 17.8735 33.2999 19.4753 32.1104C21.093 30.9209 22.3539 29.1842 23.2579 26.9004C24.1778 24.6165 24.6377 21.8252 24.6377 18.5263C24.6377 15.2116 24.1778 12.4281 23.2579 10.176C22.3381 7.90803 21.0693 6.19515 19.4515 5.03737C17.8497 3.8796 16.002 3.30071 13.9085 3.30071C11.8308 3.30071 9.98312 3.8796 8.36541 5.03737C6.74769 6.19515 5.47889 7.90803 4.55901 10.176C3.63913 12.4281 3.17919 15.2116 3.17919 18.5263C3.17919 21.841 3.63913 24.6403 4.55901 26.9242C5.47889 29.208 6.74769 30.9447 8.36541 32.1342C9.98312 33.3078 11.8308 33.8946 13.9085 33.8946Z" fill="#222222"/>
<path d="M31.8279 46.5033V10.8421H34.7779V46.5033H31.8279ZM43.485 36.5591C41.5501 36.5591 39.7579 36.0912 38.1085 35.1555C36.459 34.2197 35.1268 32.9509 34.1117 31.3491C33.1126 29.7472 32.613 27.9471 32.613 25.9488C32.613 25.9012 32.613 25.8615 32.613 25.8298C32.613 25.7981 32.613 25.7664 32.613 25.7347L34.7779 25.6871C34.7779 25.7188 34.7779 25.7505 34.7779 25.7822C34.7779 25.814 34.7779 25.8457 34.7779 25.8774C34.7779 27.3048 35.1664 28.6212 35.9436 29.8265C36.7207 31.0319 37.7357 31.9914 38.9887 32.7051C40.2575 33.4188 41.6294 33.7757 43.1043 33.7757C45.5468 33.7757 47.5531 32.9113 49.1232 31.1826C50.7092 29.438 51.5022 26.8686 51.5022 23.4746C51.5022 20.0647 50.7092 17.4954 49.1232 15.7667C47.5531 14.0379 45.5468 13.1735 43.1043 13.1735C41.6294 13.1735 40.2575 13.5304 38.9887 14.2441C37.7357 14.9578 36.7207 15.9094 35.9436 17.0989C35.1664 18.2884 34.7779 19.6048 34.7779 21.048L32.613 20.9767C32.613 18.9783 33.1126 17.1861 34.1117 15.6001C35.1268 14.0141 36.459 12.7691 38.1085 11.8651C39.7579 10.9452 41.5501 10.4853 43.485 10.4853C45.5309 10.4853 47.3865 10.9928 49.0518 12.0078C50.7171 13.007 52.0415 14.4741 53.0248 16.409C54.0239 18.3439 54.5235 20.6991 54.5235 23.4746C54.5235 26.2818 54.0319 28.6608 53.0486 30.6116C52.0811 32.5624 50.7568 34.0453 49.0756 35.0603C47.4103 36.0595 45.5468 36.5591 43.485 36.5591Z" fill="#222222"/>
<path d="M59.6644 24.7117V22.071H80.1238L79.5528 22.8799C79.5528 22.7847 79.5528 22.7054 79.5528 22.642C79.5528 22.5627 79.5528 22.4834 79.5528 22.4041C79.5528 20.7705 79.2039 19.2479 78.5061 17.8364C77.8082 16.4248 76.7932 15.2909 75.4609 14.4344C74.1446 13.578 72.5348 13.1498 70.6316 13.1498C68.6967 13.1498 66.9917 13.5938 65.5167 14.482C64.0418 15.3543 62.8919 16.5676 62.0672 18.1219C61.2425 19.6603 60.8301 21.4525 60.8301 23.4984C60.8301 25.5602 61.2345 27.3762 62.0434 28.9463C62.8681 30.5006 64.018 31.7139 65.4929 32.5862C66.9679 33.4426 68.6887 33.8708 70.6554 33.8708C72.0986 33.8708 73.3516 33.6964 74.4142 33.3475C75.4927 32.9827 76.3808 32.5069 77.0787 31.92C77.7924 31.3332 78.3316 30.7147 78.6964 30.0644C79.077 29.3983 79.2991 28.7718 79.3625 28.185H82.2887C82.2252 29.1208 81.9239 30.0803 81.3847 31.0636C80.8613 32.0311 80.1079 32.9351 79.1246 33.7757C78.1571 34.6162 76.9518 35.2982 75.5085 35.8216C74.0811 36.3291 72.4317 36.5829 70.5602 36.5829C68.1178 36.5829 65.945 36.0278 64.0418 34.9176C62.1544 33.8074 60.6636 32.2769 59.5692 30.3261C58.4908 28.3595 57.9515 26.0994 57.9515 23.546C57.9515 20.9767 58.4987 18.7166 59.593 16.7658C60.6874 14.7992 62.1861 13.2608 64.0893 12.1506C65.9925 11.0404 68.1574 10.4853 70.584 10.4853C73.0582 10.4853 75.1992 11.0483 77.0073 12.1744C78.8153 13.3004 80.211 14.8309 81.1943 16.7658C82.1776 18.6849 82.6693 20.8419 82.6693 23.2367C82.6693 23.4429 82.6614 23.7046 82.6455 24.0218C82.6455 24.339 82.6376 24.5689 82.6217 24.7117H59.6644Z" fill="#222222"/>
<path d="M105.417 36.1071V23.546C105.417 22.7688 105.417 22.1503 105.417 21.6904C105.417 21.2304 105.417 20.7784 105.417 20.3343C105.417 18.9228 105.164 17.6936 104.656 16.6469C104.164 15.5843 103.403 14.7595 102.372 14.1727C101.341 13.57 100.017 13.2687 98.3993 13.2687C96.9719 13.2687 95.6318 13.6256 94.3788 14.3393C93.1259 15.0371 92.1108 15.9887 91.3337 17.1941C90.5724 18.3994 90.1918 19.7554 90.1918 21.2621L88.4075 20.596C88.4075 18.677 88.8992 16.9562 89.8825 15.4336C90.8817 13.911 92.1822 12.7057 93.7841 11.8175C95.4018 10.9294 97.1147 10.4853 98.9227 10.4853C100.842 10.4853 102.507 10.8501 103.919 11.5796C105.33 12.2933 106.417 13.3321 107.178 14.6961C107.955 16.0442 108.344 17.6857 108.344 19.6206C108.344 20.2868 108.344 21.0005 108.344 21.7617C108.344 22.523 108.344 23.2129 108.344 23.8315V36.1071H105.417ZM87.2418 36.1071V10.8421H90.1918V36.1071H87.2418Z" fill="#222222"/>
<path fill-rule="evenodd" clip-rule="evenodd" d="M166.159 28.207C166.462 30.0482 168.865 31.0355 170.452 29.1168C171.643 27.6776 173.775 27.476 175.214 28.6667C176.653 29.8574 176.855 31.9893 175.664 33.4286C170.091 40.1652 159.751 36.5432 159.399 28.0477C159.386 27.9273 159.379 27.8083 159.379 27.6915L159.394 10.1115C159.394 8.36125 160.909 6.94238 162.776 6.94238C164.644 6.94238 166.159 8.36126 166.159 10.1115L166.159 28.207Z" fill="url(#paint0_linear_3442_1493)"/>
<path fill-rule="evenodd" clip-rule="evenodd" d="M128.291 9.48355C129.909 10.4175 130.463 12.486 129.529 14.1036L117.605 34.7572C116.671 36.3749 114.602 36.9291 112.985 35.9952C111.367 35.0612 110.813 32.9927 111.747 31.3751L123.671 10.7215C124.605 9.10385 126.674 8.5496 128.291 9.48355Z" fill="url(#paint1_linear_3442_1493)"/>
<path fill-rule="evenodd" clip-rule="evenodd" d="M146.59 36.625C144.722 36.625 143.208 35.1108 143.208 33.2429L143.208 15.2379C143.208 13.3699 144.722 11.8557 146.59 11.8557C148.458 11.8557 149.972 13.3699 149.972 15.2379L149.972 33.2429C149.972 35.1108 148.458 36.625 146.59 36.625Z" fill="url(#paint2_linear_3442_1493)"/>
<path fill-rule="evenodd" clip-rule="evenodd" d="M149.427 23.1572L148.183 23.1826L143.205 23.1492C143.25 21.8788 144.011 19.515 144.588 18.4087C145.19 17.2525 146.047 16.0624 147.132 15.0412C149.313 12.9873 152.776 11.3598 156.802 12.8694C158.405 13.4705 159.218 15.2575 158.617 16.8607C158.016 18.464 156.229 19.2764 154.625 18.6753C153.495 18.2517 152.447 18.5534 151.383 19.5554C150.844 20.0622 150.397 20.4935 150.086 21.2749C149.935 21.998 149.968 23.1487 149.968 23.1487L149.427 23.1572Z" fill="url(#paint3_linear_3442_1493)"/>
<path fill-rule="evenodd" clip-rule="evenodd" d="M159.379 15.9513L159.379 13.0869L170.509 13.087C171.776 13.087 173.474 14.3142 173.474 16.0265C173.624 17.6691 172.28 19.2876 170.509 19.2876H159.395L159.379 15.9513Z" fill="url(#paint4_linear_3442_1493)"/>
<g style="mix-blend-mode:overlay" opacity="0.2">
<path d="M159.394 19.3159H166.133L166.133 22.248H159.394V19.3159Z" fill="url(#paint5_linear_3442_1493)"/>
</g>
<path fill-rule="evenodd" clip-rule="evenodd" d="M123.467 11.1503C123.739 10.4725 124.232 9.8775 124.913 9.48396C126.531 8.55001 128.6 9.10426 129.534 10.7219L141.458 31.3755C142.392 32.9931 141.838 35.0616 140.22 35.9956C138.602 36.9295 136.534 36.3753 135.6 34.7576L126.56 19.1007L126.609 19.227C124.816 15.6633 122.047 15.2836 120.886 15.5392L123.453 11.1147L123.467 11.1503Z" fill="url(#paint6_linear_3442_1493)"/>
<defs>
<linearGradient id="paint0_linear_3442_1493" x1="159.379" y1="6.94238" x2="182.64" y2="12.9567" gradientUnits="userSpaceOnUse">
<stop stop-color="#9D0AFC"/>
<stop offset="1" stop-color="#0359FF"/>
</linearGradient>
<linearGradient id="paint1_linear_3442_1493" x1="125.729" y1="12.9391" x2="131.2" y2="19.5143" gradientUnits="userSpaceOnUse">
<stop stop-color="#00DFBA"/>
<stop offset="1" stop-color="#048AFE"/>
</linearGradient>
<linearGradient id="paint2_linear_3442_1493" x1="146.689" y1="12.7604" x2="146.689" y2="38.744" gradientUnits="userSpaceOnUse">
<stop stop-color="#5900EB"/>
<stop offset="1" stop-color="#E367EE"/>
</linearGradient>
<linearGradient id="paint3_linear_3442_1493" x1="146.151" y1="23.2148" x2="159.933" y2="13.9807" gradientUnits="userSpaceOnUse">
<stop stop-color="#9129EC"/>
<stop offset="1" stop-color="#9F03FF"/>
</linearGradient>
<linearGradient id="paint4_linear_3442_1493" x1="166.778" y1="14.6836" x2="174.635" y2="22.9049" gradientUnits="userSpaceOnUse">
<stop stop-color="#930FFC"/>
<stop offset="0.865143" stop-color="#004BFB"/>
</linearGradient>
<linearGradient id="paint5_linear_3442_1493" x1="162.763" y1="19.3698" x2="162.763" y2="21.9151" gradientUnits="userSpaceOnUse">
<stop/>
<stop offset="1" stop-opacity="0"/>
</linearGradient>
<linearGradient id="paint6_linear_3442_1493" x1="120.117" y1="9.28206" x2="153.09" y2="17.5353" gradientUnits="userSpaceOnUse">
<stop stop-color="#0056FE"/>
<stop offset="0.815625" stop-color="#D159ED"/>
</linearGradient>
</defs>
</svg>
