<svg width="179" height="48" viewBox="0 0 179 48" fill="none" xmlns="http://www.w3.org/2000/svg">
<path d="M14.7611 37.5531C12.7627 37.5531 10.9309 37.1487 9.26559 36.3398C7.60029 35.5151 6.1491 34.3335 4.91202 32.7951C3.6908 31.2408 2.7392 29.3456 2.05722 27.1093C1.3911 24.8731 1.05804 22.3434 1.05804 19.5203C1.05804 16.6814 1.3911 14.1596 2.05722 11.9551C2.7392 9.7347 3.6908 7.85529 4.91202 6.31687C6.1491 4.77846 7.60029 3.61275 9.26559 2.81975C10.9467 2.02675 12.7786 1.63025 14.7611 1.63025C16.7594 1.63025 18.5913 2.02675 20.2566 2.81975C21.9377 3.61275 23.3889 4.77846 24.6101 6.31687C25.8472 7.85529 26.7988 9.7347 27.4649 11.9551C28.1469 14.1596 28.4879 16.6814 28.4879 19.5203C28.4879 22.3434 28.1469 24.8731 27.4649 27.1093C26.7988 29.3456 25.8472 31.2408 24.6101 32.7951C23.3889 34.3335 21.9377 35.5151 20.2566 36.3398C18.5913 37.1487 16.7594 37.5531 14.7611 37.5531ZM14.7611 34.8886C16.8705 34.8886 18.7261 34.2939 20.3279 33.1044C21.9456 31.9149 23.2065 30.1782 24.1105 27.8944C25.0304 25.6105 25.4903 22.8192 25.4903 19.5203C25.4903 16.2056 25.0304 13.4221 24.1105 11.17C23.1907 8.90205 21.9219 7.18917 20.3041 6.03139C18.7023 4.87361 16.8546 4.29473 14.7611 4.29473C12.6834 4.29473 10.8357 4.87361 9.21801 6.03139C7.60029 7.18917 6.33149 8.90205 5.41161 11.17C4.49173 13.4221 4.03179 16.2056 4.03179 19.5203C4.03179 22.835 4.49173 25.6343 5.41161 27.9182C6.33149 30.202 7.60029 31.9387 9.21801 33.1282C10.8357 34.3018 12.6834 34.8886 14.7611 34.8886Z" fill="white"/>
<path d="M32.6805 47.4973V11.8362H35.6305V47.4973H32.6805ZM44.3376 37.5531C42.4027 37.5531 40.6105 37.0852 38.9611 36.1495C37.3116 35.2138 35.9794 33.945 34.9643 32.3431C33.9652 30.7412 33.4656 28.9411 33.4656 26.9428C33.4656 26.8952 33.4656 26.8556 33.4656 26.8238C33.4656 26.7921 33.4656 26.7604 33.4656 26.7287L35.6305 26.6811C35.6305 26.7128 35.6305 26.7445 35.6305 26.7763C35.6305 26.808 35.6305 26.8397 35.6305 26.8714C35.6305 28.2988 36.019 29.6152 36.7962 30.8206C37.5733 32.0259 38.5883 32.9854 39.8413 33.6991C41.1101 34.4128 42.482 34.7697 43.9569 34.7697C46.3994 34.7697 48.4057 33.9053 49.9758 32.1766C51.5618 30.432 52.3548 27.8627 52.3548 24.4686C52.3548 21.0587 51.5618 18.4894 49.9758 16.7607C48.4057 15.0319 46.3994 14.1676 43.9569 14.1676C42.482 14.1676 41.1101 14.5244 39.8413 15.2381C38.5883 15.9518 37.5733 16.9034 36.7962 18.0929C36.019 19.2824 35.6305 20.5988 35.6305 22.042L33.4656 21.9707C33.4656 19.9723 33.9652 18.1801 34.9643 16.5941C35.9794 15.0081 37.3116 13.7631 38.9611 12.8591C40.6105 11.9392 42.4027 11.4793 44.3376 11.4793C46.3835 11.4793 48.2391 11.9868 49.9044 13.0019C51.5697 14.001 52.8941 15.4681 53.8774 17.403C54.8765 19.3379 55.3761 21.6931 55.3761 24.4686C55.3761 27.2758 54.8845 29.6548 53.9012 31.6056C52.9337 33.5564 51.6094 35.0393 49.9282 36.0543C48.2629 37.0535 46.3994 37.5531 44.3376 37.5531Z" fill="white"/>
<path d="M60.517 25.7057V23.065H80.9764L80.4054 23.8739C80.4054 23.7787 80.4054 23.6994 80.4054 23.636C80.4054 23.5567 80.4054 23.4774 80.4054 23.3981C80.4054 21.7645 80.0565 20.2419 79.3587 18.8304C78.6608 17.4189 77.6458 16.2849 76.3135 15.4284C74.9972 14.572 73.3874 14.1438 71.4842 14.1438C69.5493 14.1438 67.8443 14.5879 66.3693 15.476C64.8944 16.3483 63.7445 17.5616 62.9198 19.1159C62.0951 20.6543 61.6827 22.4465 61.6827 24.4924C61.6827 26.5542 62.0871 28.3702 62.896 29.9403C63.7207 31.4946 64.8706 32.7079 66.3455 33.5802C67.8205 34.4366 69.5413 34.8648 71.508 34.8648C72.9512 34.8648 74.2042 34.6904 75.2668 34.3415C76.3453 33.9767 77.2334 33.5009 77.9313 32.9141C78.645 32.3272 79.1842 31.7087 79.549 31.0585C79.9296 30.3923 80.1517 29.7659 80.2151 29.179H83.1413C83.0778 30.1148 82.7765 31.0743 82.2373 32.0576C81.7139 33.0251 80.9605 33.9291 79.9772 34.7697C79.0097 35.6103 77.8044 36.2922 76.3611 36.8156C74.9337 37.3231 73.2843 37.5769 71.4128 37.5769C68.9704 37.5769 66.7976 37.0218 64.8944 35.9116C63.007 34.8014 61.5162 33.2709 60.4218 31.3201C59.3434 29.3535 58.8041 27.0935 58.8041 24.54C58.8041 21.9707 59.3513 19.7106 60.4456 17.7599C61.54 15.7932 63.0387 14.2548 64.9419 13.1446C66.8451 12.0344 69.01 11.4793 71.4366 11.4793C73.9108 11.4793 76.0518 12.0423 77.8599 13.1684C79.6679 14.2944 81.0636 15.8249 82.0469 17.7599C83.0302 19.6789 83.5219 21.8359 83.5219 24.2307C83.5219 24.4369 83.514 24.6986 83.4981 25.0158C83.4981 25.333 83.4902 25.563 83.4743 25.7057H60.517Z" fill="white"/>
<path d="M106.27 37.1011V24.54C106.27 23.7629 106.27 23.1443 106.27 22.6844C106.27 22.2244 106.27 21.7724 106.27 21.3284C106.27 19.9168 106.016 18.6877 105.509 17.6409C105.017 16.5783 104.256 15.7536 103.225 15.1667C102.194 14.5641 100.87 14.2627 99.2519 14.2627C97.8245 14.2627 96.4844 14.6196 95.2314 15.3333C93.9785 16.0311 92.9634 16.9827 92.1863 18.1881C91.425 19.3934 91.0444 20.7495 91.0444 22.2562L89.2601 21.59C89.2601 19.671 89.7518 17.9502 90.7351 16.4276C91.7343 14.9051 93.0348 13.6997 94.6367 12.8115C96.2544 11.9234 97.9673 11.4793 99.7753 11.4793C101.694 11.4793 103.36 11.8441 104.771 12.5736C106.183 13.2873 107.269 14.3262 108.03 15.6901C108.808 17.0382 109.196 18.6797 109.196 20.6147C109.196 21.2808 109.196 21.9945 109.196 22.7557C109.196 23.517 109.196 24.2069 109.196 24.8255V37.1011H106.27ZM88.0944 37.1011V11.8362H91.0444V37.1011H88.0944Z" fill="white"/>
<path fill-rule="evenodd" clip-rule="evenodd" d="M167.011 29.2011C167.315 31.0423 169.718 32.0296 171.305 30.1109C172.496 28.6717 174.628 28.4702 176.067 29.6608C177.506 30.8515 177.708 32.9835 176.517 34.4227C170.944 41.1593 160.603 37.5374 160.252 29.0418C160.238 28.9215 160.232 28.8025 160.232 28.6857L160.247 11.1057C160.247 9.35539 161.761 7.93652 163.629 7.93652C165.497 7.93653 167.011 9.3554 167.011 11.1057L167.011 29.2011Z" fill="url(#paint0_linear_3442_1961)"/>
<path fill-rule="evenodd" clip-rule="evenodd" d="M129.144 10.4779C130.762 11.4119 131.316 13.4804 130.382 15.098L118.457 35.7516C117.524 37.3693 115.455 37.9235 113.837 36.9895C112.22 36.0556 111.665 33.9871 112.599 32.3695L124.524 11.7159C125.458 10.0982 127.526 9.54398 129.144 10.4779Z" fill="url(#paint1_linear_3442_1961)"/>
<path fill-rule="evenodd" clip-rule="evenodd" d="M147.442 37.6193C145.574 37.6193 144.06 36.105 144.06 34.2371L144.06 16.2321C144.06 14.3642 145.574 12.85 147.442 12.85C149.31 12.85 150.825 14.3642 150.825 16.2321L150.825 34.2371C150.825 36.105 149.31 37.6193 147.442 37.6193Z" fill="url(#paint2_linear_3442_1961)"/>
<path fill-rule="evenodd" clip-rule="evenodd" d="M150.28 24.1512L149.036 24.1766L144.057 24.1432C144.102 22.8728 144.864 20.509 145.44 19.4027C146.043 18.2465 146.9 17.0564 147.984 16.0352C150.166 13.9813 153.628 12.3538 157.655 13.8634C159.258 14.4645 160.07 16.2515 159.469 17.8548C158.868 19.458 157.081 20.2705 155.478 19.6694C154.348 19.2457 153.299 19.5475 152.235 20.5495C151.697 21.0563 151.249 21.4875 150.939 22.2689C150.787 22.992 150.821 24.1428 150.821 24.1428L150.28 24.1512Z" fill="url(#paint3_linear_3442_1961)"/>
<path fill-rule="evenodd" clip-rule="evenodd" d="M160.232 16.9455L160.232 14.0812L171.362 14.0813C172.628 14.0813 174.326 15.3085 174.326 17.0207C174.477 18.6634 173.132 20.2819 171.362 20.2819H160.247L160.232 16.9455Z" fill="url(#paint4_linear_3442_1961)"/>
<g style="mix-blend-mode:overlay" opacity="0.2">
<path d="M160.246 20.3102H166.986L166.986 23.2423H160.246V20.3102Z" fill="url(#paint5_linear_3442_1961)"/>
</g>
<path fill-rule="evenodd" clip-rule="evenodd" d="M124.319 12.1443C124.592 11.4665 125.084 10.8715 125.766 10.478C127.384 9.54402 129.452 10.0983 130.386 11.7159L142.311 32.3695C143.244 33.9872 142.69 36.0556 141.073 36.9896C139.455 37.9235 137.386 37.3693 136.452 35.7516L127.413 20.0947L127.462 20.221C125.668 16.6574 122.899 16.2776 121.739 16.5332L124.306 12.1087L124.319 12.1443Z" fill="url(#paint6_linear_3442_1961)"/>
<defs>
<linearGradient id="paint0_linear_3442_1961" x1="160.232" y1="7.93652" x2="183.492" y2="13.9508" gradientUnits="userSpaceOnUse">
<stop stop-color="#9D0AFC"/>
<stop offset="1" stop-color="#0359FF"/>
</linearGradient>
<linearGradient id="paint1_linear_3442_1961" x1="126.581" y1="13.9335" x2="132.053" y2="20.5087" gradientUnits="userSpaceOnUse">
<stop stop-color="#00DFBA"/>
<stop offset="1" stop-color="#048AFE"/>
</linearGradient>
<linearGradient id="paint2_linear_3442_1961" x1="147.542" y1="13.7547" x2="147.542" y2="39.7382" gradientUnits="userSpaceOnUse">
<stop stop-color="#5900EB"/>
<stop offset="1" stop-color="#E367EE"/>
</linearGradient>
<linearGradient id="paint3_linear_3442_1961" x1="147.004" y1="24.2088" x2="160.785" y2="14.9747" gradientUnits="userSpaceOnUse">
<stop stop-color="#9129EC"/>
<stop offset="1" stop-color="#9F03FF"/>
</linearGradient>
<linearGradient id="paint4_linear_3442_1961" x1="167.63" y1="15.6779" x2="175.488" y2="23.8991" gradientUnits="userSpaceOnUse">
<stop stop-color="#930FFC"/>
<stop offset="0.865143" stop-color="#004BFB"/>
</linearGradient>
<linearGradient id="paint5_linear_3442_1961" x1="163.616" y1="20.364" x2="163.616" y2="22.9094" gradientUnits="userSpaceOnUse">
<stop/>
<stop offset="1" stop-opacity="0"/>
</linearGradient>
<linearGradient id="paint6_linear_3442_1961" x1="120.97" y1="10.2761" x2="153.943" y2="18.5293" gradientUnits="userSpaceOnUse">
<stop stop-color="#0056FE"/>
<stop offset="0.815625" stop-color="#D159ED"/>
</linearGradient>
</defs>
</svg>
