<svg width="178" height="47" viewBox="0 0 178 47" fill="none" xmlns="http://www.w3.org/2000/svg">
<path d="M13.9086 36.5589C11.9102 36.5589 10.0784 36.1545 8.41311 35.3456C6.74781 34.5209 5.29662 33.3393 4.05954 31.8009C2.83832 30.2466 1.88672 28.3514 1.20475 26.1151C0.538626 23.8789 0.205566 21.3492 0.205566 18.5261C0.205566 15.6872 0.538626 13.1654 1.20475 10.9609C1.88672 8.7405 2.83832 6.86109 4.05954 5.32267C5.29662 3.78426 6.74781 2.61855 8.41311 1.82554C10.0943 1.03255 11.9261 0.636047 13.9086 0.636047C15.907 0.636047 17.7388 1.03255 19.4041 1.82554C21.0852 2.61855 22.5364 3.78426 23.7576 5.32267C24.9947 6.86109 25.9463 8.7405 26.6124 10.9609C27.2944 13.1654 27.6354 15.6872 27.6354 18.5261C27.6354 21.3492 27.2944 23.8789 26.6124 26.1151C25.9463 28.3514 24.9947 30.2466 23.7576 31.8009C22.5364 33.3393 21.0852 34.5209 19.4041 35.3456C17.7388 36.1545 15.907 36.5589 13.9086 36.5589ZM13.9086 33.8944C16.018 33.8944 17.8736 33.2997 19.4754 32.1102C21.0932 30.9207 22.354 29.184 23.2581 26.9002C24.1779 24.6163 24.6379 21.825 24.6379 18.5261C24.6379 15.2114 24.1779 12.4279 23.2581 10.1758C22.3382 7.90785 21.0694 6.19497 19.4517 5.03719C17.8498 3.87941 16.0021 3.30052 13.9086 3.30052C11.8309 3.30052 9.98325 3.87941 8.36553 5.03719C6.74781 6.19497 5.47901 7.90785 4.55913 10.1758C3.63925 12.4279 3.17931 15.2114 3.17931 18.5261C3.17931 21.8408 3.63925 24.6401 4.55913 26.924C5.47901 29.2078 6.74781 30.9445 8.36553 32.134C9.98325 33.3076 11.8309 33.8944 13.9086 33.8944Z" fill="white"/>
<path d="M31.828 46.5031V10.8419H34.778V46.5031H31.828ZM43.4851 36.5589C41.5502 36.5589 39.758 36.091 38.1086 35.1553C36.4591 34.2196 35.1269 32.9508 34.1119 31.3489C33.1127 29.747 32.6131 27.9469 32.6131 25.9486C32.6131 25.901 32.6131 25.8614 32.6131 25.8296C32.6131 25.7979 32.6131 25.7662 32.6131 25.7345L34.778 25.6869C34.778 25.7186 34.778 25.7503 34.778 25.7821C34.778 25.8138 34.778 25.8455 34.778 25.8772C34.778 27.3046 35.1665 28.621 35.9437 29.8264C36.7208 31.0317 37.7359 31.9912 38.9888 32.7049C40.2576 33.4186 41.6295 33.7755 43.1045 33.7755C45.5469 33.7755 47.5532 32.9111 49.1233 31.1824C50.7093 29.4378 51.5023 26.8685 51.5023 23.4744C51.5023 20.0645 50.7093 17.4952 49.1233 15.7665C47.5532 14.0377 45.5469 13.1734 43.1045 13.1734C41.6295 13.1734 40.2576 13.5302 38.9888 14.2439C37.7359 14.9576 36.7208 15.9092 35.9437 17.0987C35.1665 18.2882 34.778 19.6046 34.778 21.0478L32.6131 20.9765C32.6131 18.9781 33.1127 17.1859 34.1119 15.5999C35.1269 14.0139 36.4591 12.7689 38.1086 11.8649C39.758 10.945 41.5502 10.4851 43.4851 10.4851C45.531 10.4851 47.3867 10.9926 49.052 12.0077C50.7173 13.0068 52.0416 14.4739 53.0249 16.4088C54.0241 18.3437 54.5237 20.6989 54.5237 23.4744C54.5237 26.2816 54.032 28.6606 53.0487 30.6114C52.0812 32.5622 50.7569 34.0451 49.0758 35.0601C47.4105 36.0593 45.5469 36.5589 43.4851 36.5589Z" fill="white"/>
<path d="M59.6645 24.7115V22.0708H80.1239L79.5529 22.8797C79.5529 22.7845 79.5529 22.7052 79.5529 22.6418C79.5529 22.5625 79.5529 22.4832 79.5529 22.4039C79.5529 20.7703 79.204 19.2477 78.5062 17.8362C77.8083 16.4247 76.7933 15.2907 75.4611 14.4342C74.1447 13.5778 72.5349 13.1496 70.6317 13.1496C68.6968 13.1496 66.9918 13.5937 65.5169 14.4818C64.0419 15.3541 62.892 16.5674 62.0673 18.1217C61.2426 19.6601 60.8302 21.4523 60.8302 23.4982C60.8302 25.56 61.2347 27.376 62.0435 28.9461C62.8682 30.5004 64.0181 31.7137 65.4931 32.586C66.968 33.4424 68.6889 33.8706 70.6555 33.8706C72.0987 33.8706 73.3517 33.6962 74.4143 33.3473C75.4928 32.9825 76.3809 32.5067 77.0788 31.9199C77.7925 31.333 78.3317 30.7145 78.6965 30.0642C79.0771 29.3981 79.2992 28.7717 79.3626 28.1848H82.2888C82.2254 29.1206 81.924 30.0801 81.3848 31.0634C80.8614 32.0309 80.108 32.9349 79.1247 33.7755C78.1573 34.6161 76.9519 35.298 75.5086 35.8214C74.0812 36.3289 72.4318 36.5827 70.5603 36.5827C68.1179 36.5827 65.9451 36.0276 64.0419 34.9174C62.1545 33.8072 60.6637 32.2767 59.5694 30.3259C58.4909 28.3593 57.9516 26.0993 57.9516 23.5458C57.9516 20.9765 58.4988 18.7164 59.5932 16.7657C60.6875 14.799 62.1863 13.2606 64.0895 12.1504C65.9927 11.0402 68.1575 10.4851 70.5841 10.4851C73.0583 10.4851 75.1994 11.0481 77.0074 12.1742C78.8155 13.3002 80.2111 14.8307 81.1945 16.7657C82.1778 18.6847 82.6694 20.8417 82.6694 23.2365C82.6694 23.4427 82.6615 23.7044 82.6456 24.0216C82.6456 24.3388 82.6377 24.5688 82.6219 24.7115H59.6645Z" fill="white"/>
<path d="M105.417 36.1069V23.5458C105.417 22.7687 105.417 22.1501 105.417 21.6902C105.417 21.2302 105.417 20.7782 105.417 20.3341C105.417 18.9226 105.164 17.6935 104.656 16.6467C104.165 15.5841 103.403 14.7594 102.372 14.1725C101.341 13.5699 100.017 13.2685 98.3994 13.2685C96.972 13.2685 95.6319 13.6254 94.3789 14.3391C93.126 15.0369 92.111 15.9885 91.3338 17.1939C90.5725 18.3992 90.1919 19.7553 90.1919 21.262L88.4077 20.5958C88.4077 18.6768 88.8993 16.956 89.8826 15.4334C90.8818 13.9109 92.1823 12.7055 93.7842 11.8173C95.4019 10.9292 97.1148 10.4851 98.9228 10.4851C100.842 10.4851 102.507 10.8499 103.919 11.5794C105.33 12.2931 106.417 13.332 107.178 14.6959C107.955 16.044 108.344 17.6855 108.344 19.6204C108.344 20.2866 108.344 21.0003 108.344 21.7615C108.344 22.5228 108.344 23.2127 108.344 23.8313V36.1069H105.417ZM87.242 36.1069V10.8419H90.1919V36.1069H87.242Z" fill="white"/>
<path fill-rule="evenodd" clip-rule="evenodd" d="M166.159 28.2069C166.462 30.0481 168.865 31.0354 170.452 29.1167C171.643 27.6775 173.775 27.476 175.214 28.6666C176.653 29.8573 176.855 31.9893 175.664 33.4285C170.091 40.1651 159.751 36.5432 159.399 28.0476C159.386 27.9272 159.379 27.8083 159.379 27.6915L159.394 10.1115C159.394 8.36119 160.909 6.94232 162.776 6.94232C164.644 6.94232 166.159 8.3612 166.159 10.1115L166.159 28.2069Z" fill="url(#paint0_linear_3442_6007)"/>
<path fill-rule="evenodd" clip-rule="evenodd" d="M128.291 9.4838C129.909 10.4178 130.463 12.4862 129.529 14.1039L117.605 34.7575C116.671 36.3751 114.602 36.9294 112.985 35.9954C111.367 35.0615 110.813 32.993 111.747 31.3753L123.671 10.7217C124.605 9.10409 126.674 8.54984 128.291 9.4838Z" fill="url(#paint1_linear_3442_6007)"/>
<path fill-rule="evenodd" clip-rule="evenodd" d="M146.59 36.6251C144.722 36.6251 143.208 35.1108 143.208 33.2429L143.208 15.2379C143.208 13.37 144.722 11.8558 146.59 11.8558C148.458 11.8558 149.972 13.37 149.972 15.2379L149.972 33.2429C149.972 35.1108 148.458 36.6251 146.59 36.6251Z" fill="url(#paint2_linear_3442_6007)"/>
<path fill-rule="evenodd" clip-rule="evenodd" d="M149.427 23.1571L148.183 23.1825L143.205 23.1491C143.25 21.8787 144.011 19.5149 144.588 18.4086C145.19 17.2523 146.047 16.0623 147.132 15.0411C149.313 12.9872 152.776 11.3597 156.802 12.8693C158.405 13.4703 159.218 15.2573 158.617 16.8606C158.016 18.4639 156.229 19.2763 154.625 18.6752C153.495 18.2516 152.447 18.5533 151.383 19.5553C150.844 20.0621 150.397 20.4933 150.086 21.2748C149.935 21.9979 149.968 23.1486 149.968 23.1486L149.427 23.1571Z" fill="url(#paint3_linear_3442_6007)"/>
<path fill-rule="evenodd" clip-rule="evenodd" d="M159.379 15.9514L159.379 13.087L170.509 13.0871C171.776 13.0871 173.474 14.3144 173.474 16.0266C173.624 17.6692 172.28 19.2877 170.509 19.2877H159.395L159.379 15.9514Z" fill="url(#paint4_linear_3442_6007)"/>
<g style="mix-blend-mode:overlay" opacity="0.2">
<path d="M159.394 19.316H166.133L166.133 22.2481H159.394V19.316Z" fill="url(#paint5_linear_3442_6007)"/>
</g>
<path fill-rule="evenodd" clip-rule="evenodd" d="M123.467 11.1501C123.739 10.4723 124.232 9.87731 124.914 9.48378C126.531 8.54982 128.6 9.10407 129.534 10.7217L141.458 31.3753C142.392 32.993 141.838 35.0614 140.22 35.9954C138.603 36.9293 136.534 36.3751 135.6 34.7574L126.561 19.1005L126.61 19.2268C124.816 15.6632 122.047 15.2834 120.887 15.539L123.453 11.1145L123.467 11.1501Z" fill="url(#paint6_linear_3442_6007)"/>
<defs>
<linearGradient id="paint0_linear_3442_6007" x1="159.379" y1="6.94232" x2="182.64" y2="12.9566" gradientUnits="userSpaceOnUse">
<stop stop-color="#9D0AFC"/>
<stop offset="1" stop-color="#0359FF"/>
</linearGradient>
<linearGradient id="paint1_linear_3442_6007" x1="125.729" y1="12.9393" x2="131.2" y2="19.5146" gradientUnits="userSpaceOnUse">
<stop stop-color="#00DFBA"/>
<stop offset="1" stop-color="#048AFE"/>
</linearGradient>
<linearGradient id="paint2_linear_3442_6007" x1="146.69" y1="12.7605" x2="146.69" y2="38.744" gradientUnits="userSpaceOnUse">
<stop stop-color="#5900EB"/>
<stop offset="1" stop-color="#E367EE"/>
</linearGradient>
<linearGradient id="paint3_linear_3442_6007" x1="146.151" y1="23.2147" x2="159.933" y2="13.9805" gradientUnits="userSpaceOnUse">
<stop stop-color="#9129EC"/>
<stop offset="1" stop-color="#9F03FF"/>
</linearGradient>
<linearGradient id="paint4_linear_3442_6007" x1="166.778" y1="14.6837" x2="174.635" y2="22.905" gradientUnits="userSpaceOnUse">
<stop stop-color="#930FFC"/>
<stop offset="0.865143" stop-color="#004BFB"/>
</linearGradient>
<linearGradient id="paint5_linear_3442_6007" x1="162.763" y1="19.3698" x2="162.763" y2="21.9152" gradientUnits="userSpaceOnUse">
<stop/>
<stop offset="1" stop-opacity="0"/>
</linearGradient>
<linearGradient id="paint6_linear_3442_6007" x1="120.117" y1="9.28188" x2="153.091" y2="17.5351" gradientUnits="userSpaceOnUse">
<stop stop-color="#0056FE"/>
<stop offset="0.815625" stop-color="#D159ED"/>
</linearGradient>
</defs>
</svg>
