<svg width="178" height="47" viewBox="0 0 178 47" fill="none" xmlns="http://www.w3.org/2000/svg">
<path d="M14.578 36.559C12.5797 36.559 10.7478 36.1545 9.08254 35.3457C7.41724 34.521 5.96606 33.3394 4.72898 31.801C3.50776 30.2467 2.55616 28.3514 1.87418 26.1152C1.20806 23.8789 0.875 21.3492 0.875 18.5262C0.875 15.6872 1.20806 13.1655 1.87418 10.961C2.55616 8.74056 3.50776 6.86115 4.72898 5.32273C5.96606 3.78432 7.41724 2.61861 9.08254 1.82561C10.7637 1.03261 12.5955 0.636108 14.578 0.636108C16.5764 0.636108 18.4082 1.03261 20.0735 1.82561C21.7547 2.61861 23.2059 3.78432 24.4271 5.32273C25.6642 6.86115 26.6158 8.74056 27.2819 10.961C27.9639 13.1655 28.3048 15.6872 28.3048 18.5262C28.3048 21.3492 27.9639 23.8789 27.2819 26.1152C26.6158 28.3514 25.6642 30.2467 24.4271 31.801C23.2059 33.3394 21.7547 34.521 20.0735 35.3457C18.4082 36.1545 16.5764 36.559 14.578 36.559ZM14.578 33.8945C16.6874 33.8945 18.543 33.2997 20.1449 32.1102C21.7626 30.9207 23.0235 29.1841 23.9275 26.9002C24.8474 24.6164 25.3073 21.825 25.3073 18.5262C25.3073 15.2114 24.8474 12.428 23.9275 10.1759C23.0076 7.90791 21.7388 6.19503 20.1211 5.03725C18.5192 3.87947 16.6715 3.30059 14.578 3.30059C12.5004 3.30059 10.6527 3.87947 9.03496 5.03725C7.41724 6.19503 6.14844 7.90791 5.22857 10.1759C4.30869 12.428 3.84875 15.2114 3.84875 18.5262C3.84875 21.8409 4.30869 24.6402 5.22857 26.924C6.14844 29.2079 7.41724 30.9445 9.03496 32.134C10.6527 33.3077 12.5004 33.8945 14.578 33.8945Z" fill="#222222"/>
<path d="M32.4975 46.5032V10.842H35.4474V46.5032H32.4975ZM44.1545 36.559C42.2196 36.559 40.4274 36.0911 38.778 35.1554C37.1286 34.2196 35.7963 32.9508 34.7813 31.349C33.7821 29.7471 33.2825 27.947 33.2825 25.9486C33.2825 25.9011 33.2825 25.8614 33.2825 25.8297C33.2825 25.798 33.2825 25.7663 33.2825 25.7345L35.4474 25.687C35.4474 25.7187 35.4474 25.7504 35.4474 25.7821C35.4474 25.8138 35.4474 25.8456 35.4474 25.8773C35.4474 27.3047 35.836 28.6211 36.6131 29.8264C37.3903 31.0318 38.4053 31.9913 39.6582 32.705C40.927 33.4187 42.2989 33.7755 43.7739 33.7755C46.2163 33.7755 48.2226 32.9112 49.7928 31.1824C51.3788 29.4378 52.1718 26.8685 52.1718 23.4745C52.1718 20.0646 51.3788 17.4953 49.7928 15.7665C48.2226 14.0378 46.2163 13.1734 43.7739 13.1734C42.2989 13.1734 40.927 13.5303 39.6582 14.244C38.4053 14.9577 37.3903 15.9093 36.6131 17.0988C35.836 18.2883 35.4474 19.6046 35.4474 21.0479L33.2825 20.9765C33.2825 18.9782 33.7821 17.186 34.7813 15.6C35.7963 14.014 37.1286 12.769 38.778 11.865C40.4274 10.9451 42.2196 10.4852 44.1545 10.4852C46.2005 10.4852 48.0561 10.9927 49.7214 12.0077C51.3867 13.0069 52.711 14.4739 53.6943 16.4089C54.6935 18.3438 55.1931 20.699 55.1931 23.4745C55.1931 26.2817 54.7014 28.6607 53.7181 30.6115C52.7507 32.5623 51.4263 34.0452 49.7452 35.0602C48.0799 36.0594 46.2163 36.559 44.1545 36.559Z" fill="#222222"/>
<path d="M60.334 24.7116V22.0709H80.7933L80.2224 22.8797C80.2224 22.7846 80.2224 22.7053 80.2224 22.6418C80.2224 22.5625 80.2224 22.4832 80.2224 22.4039C80.2224 20.7704 79.8735 19.2478 79.1756 17.8363C78.4778 16.4247 77.4627 15.2907 76.1305 14.4343C74.8141 13.5779 73.2043 13.1496 71.3011 13.1496C69.3662 13.1496 67.6613 13.5937 66.1863 14.4819C64.7113 15.3542 63.5615 16.5675 62.7367 18.1217C61.912 19.6602 61.4997 21.4523 61.4997 23.4983C61.4997 25.5601 61.9041 27.376 62.713 28.9462C63.5377 30.5005 64.6875 31.7137 66.1625 32.586C67.6375 33.4425 69.3583 33.8707 71.3249 33.8707C72.7682 33.8707 74.0211 33.6962 75.0837 33.3473C76.1622 32.9825 77.0504 32.5067 77.7482 31.9199C78.4619 31.3331 79.0012 30.7146 79.3659 30.0643C79.7466 29.3982 79.9686 28.7717 80.0321 28.1849H82.9582C82.8948 29.1206 82.5934 30.0802 82.0542 31.0635C81.5308 32.0309 80.7775 32.935 79.7942 33.7755C78.8267 34.6161 77.6213 35.2981 76.1781 35.8215C74.7507 36.329 73.1012 36.5828 71.2298 36.5828C68.7873 36.5828 66.6145 36.0277 64.7113 34.9175C62.824 33.8073 61.3331 32.2768 60.2388 30.326C59.1603 28.3594 58.6211 26.0993 58.6211 23.5459C58.6211 20.9765 59.1682 18.7165 60.2626 16.7657C61.3569 14.7991 62.8557 13.2607 64.7589 12.1505C66.6621 11.0403 68.827 10.4852 71.2536 10.4852C73.7277 10.4852 75.8688 11.0482 77.6768 12.1742C79.4849 13.3003 80.8806 14.8308 81.8639 16.7657C82.8472 18.6848 83.3389 20.8417 83.3389 23.2366C83.3389 23.4428 83.3309 23.7045 83.3151 24.0217C83.3151 24.3389 83.3072 24.5688 83.2913 24.7116H60.334Z" fill="#222222"/>
<path d="M106.087 36.107V23.5459C106.087 22.7687 106.087 22.1502 106.087 21.6902C106.087 21.2303 106.087 20.7783 106.087 20.3342C106.087 18.9227 105.833 17.6935 105.326 16.6468C104.834 15.5841 104.073 14.7594 103.042 14.1726C102.011 13.5699 100.687 13.2686 99.0689 13.2686C97.6415 13.2686 96.3013 13.6254 95.0484 14.3391C93.7954 15.037 92.7804 15.9886 92.0033 17.1939C91.242 18.3993 90.8613 19.7553 90.8613 21.262L89.0771 20.5959C89.0771 18.6768 89.5687 16.956 90.5521 15.4335C91.5512 13.9109 92.8518 12.7056 94.4536 11.8174C96.0713 10.9292 97.7842 10.4852 99.5923 10.4852C101.511 10.4852 103.177 10.8499 104.588 11.5795C106 12.2932 107.086 13.332 107.847 14.696C108.625 16.0441 109.013 17.6856 109.013 19.6205C109.013 20.2866 109.013 21.0003 109.013 21.7616C109.013 22.5229 109.013 23.2128 109.013 23.8313V36.107H106.087ZM87.9114 36.107V10.842H90.8613V36.107H87.9114Z" fill="#222222"/>
<path fill-rule="evenodd" clip-rule="evenodd" d="M166.828 28.207C167.132 30.0482 169.535 31.0355 171.122 29.1168C172.313 27.6776 174.445 27.476 175.884 28.6667C177.323 29.8574 177.525 31.9893 176.334 33.4286C170.761 40.1652 160.421 36.5432 160.069 28.0477C160.056 27.9273 160.049 27.8083 160.049 27.6915L160.064 10.1115C160.064 8.36125 161.578 6.94238 163.446 6.94238C165.314 6.94238 166.828 8.36126 166.828 10.1115L166.828 28.207Z" fill="url(#paint0_linear_3442_2447)"/>
<path fill-rule="evenodd" clip-rule="evenodd" d="M128.962 9.4838C130.58 10.4178 131.134 12.4862 130.2 14.1039L118.276 34.7575C117.342 36.3751 115.273 36.9294 113.656 35.9954C112.038 35.0615 111.484 32.993 112.418 31.3753L124.342 10.7217C125.276 9.10409 127.345 8.54984 128.962 9.4838Z" fill="url(#paint1_linear_3442_2447)"/>
<path fill-rule="evenodd" clip-rule="evenodd" d="M147.26 36.6251C145.393 36.6251 143.878 35.1109 143.878 33.243L143.878 15.238C143.878 13.3701 145.393 11.8558 147.26 11.8558C149.128 11.8558 150.643 13.3701 150.643 15.238L150.643 33.243C150.643 35.1109 149.128 36.6251 147.26 36.6251Z" fill="url(#paint2_linear_3442_2447)"/>
<path fill-rule="evenodd" clip-rule="evenodd" d="M150.097 23.1571L148.854 23.1825L143.875 23.1491C143.92 21.8787 144.681 19.5149 145.258 18.4086C145.861 17.2523 146.718 16.0623 147.802 15.0411C149.983 12.9872 153.446 11.3597 157.473 12.8693C159.076 13.4703 159.888 15.2573 159.287 16.8606C158.686 18.4639 156.899 19.2763 155.296 18.6752C154.166 18.2516 153.117 18.5533 152.053 19.5553C151.515 20.0621 151.067 20.4933 150.756 21.2748C150.605 21.9979 150.639 23.1486 150.639 23.1486L150.097 23.1571Z" fill="url(#paint3_linear_3442_2447)"/>
<path fill-rule="evenodd" clip-rule="evenodd" d="M160.049 15.9514L160.049 13.087L171.179 13.0871C172.446 13.0871 174.144 14.3144 174.144 16.0266C174.294 17.6692 172.95 19.2877 171.179 19.2877H160.065L160.049 15.9514Z" fill="url(#paint4_linear_3442_2447)"/>
<g style="mix-blend-mode:overlay" opacity="0.2">
<path d="M160.064 19.316H166.804L166.804 22.2481H160.064V19.316Z" fill="url(#paint5_linear_3442_2447)"/>
</g>
<path fill-rule="evenodd" clip-rule="evenodd" d="M124.137 11.1502C124.409 10.4724 124.902 9.87738 125.584 9.48384C127.201 8.54988 129.27 9.10413 130.204 10.7218L142.128 31.3754C143.062 32.993 142.508 35.0615 140.89 35.9955C139.272 36.9294 137.204 36.3752 136.27 34.7575L127.231 19.1006L127.28 19.2268C125.486 15.6632 122.717 15.2835 121.557 15.539L124.123 11.1145L124.137 11.1502Z" fill="url(#paint6_linear_3442_2447)"/>
<defs>
<linearGradient id="paint0_linear_3442_2447" x1="160.049" y1="6.94238" x2="183.31" y2="12.9567" gradientUnits="userSpaceOnUse">
<stop stop-color="#9D0AFC"/>
<stop offset="1" stop-color="#0359FF"/>
</linearGradient>
<linearGradient id="paint1_linear_3442_2447" x1="126.4" y1="12.9393" x2="131.871" y2="19.5146" gradientUnits="userSpaceOnUse">
<stop stop-color="#00DFBA"/>
<stop offset="1" stop-color="#048AFE"/>
</linearGradient>
<linearGradient id="paint2_linear_3442_2447" x1="147.36" y1="12.7605" x2="147.36" y2="38.7441" gradientUnits="userSpaceOnUse">
<stop stop-color="#5900EB"/>
<stop offset="1" stop-color="#E367EE"/>
</linearGradient>
<linearGradient id="paint3_linear_3442_2447" x1="146.822" y1="23.2147" x2="160.603" y2="13.9805" gradientUnits="userSpaceOnUse">
<stop stop-color="#9129EC"/>
<stop offset="1" stop-color="#9F03FF"/>
</linearGradient>
<linearGradient id="paint4_linear_3442_2447" x1="167.447" y1="14.6837" x2="175.305" y2="22.905" gradientUnits="userSpaceOnUse">
<stop stop-color="#930FFC"/>
<stop offset="0.865143" stop-color="#004BFB"/>
</linearGradient>
<linearGradient id="paint5_linear_3442_2447" x1="163.434" y1="19.3699" x2="163.434" y2="21.9153" gradientUnits="userSpaceOnUse">
<stop/>
<stop offset="1" stop-opacity="0"/>
</linearGradient>
<linearGradient id="paint6_linear_3442_2447" x1="120.787" y1="9.28194" x2="153.761" y2="17.5352" gradientUnits="userSpaceOnUse">
<stop stop-color="#0056FE"/>
<stop offset="0.815625" stop-color="#D159ED"/>
</linearGradient>
</defs>
</svg>
