<svg width="178" height="47" viewBox="0 0 178 47" fill="none" xmlns="http://www.w3.org/2000/svg">
<path d="M13.9086 36.559C11.9102 36.559 10.0784 36.1545 8.41311 35.3457C6.74781 34.521 5.29662 33.3394 4.05954 31.801C2.83832 30.2467 1.88672 28.3514 1.20475 26.1152C0.538626 23.8789 0.205566 21.3492 0.205566 18.5262C0.205566 15.6872 0.538626 13.1655 1.20475 10.961C1.88672 8.74056 2.83832 6.86115 4.05954 5.32273C5.29662 3.78432 6.74781 2.61861 8.41311 1.82561C10.0943 1.03261 11.9261 0.636108 13.9086 0.636108C15.907 0.636108 17.7388 1.03261 19.4041 1.82561C21.0852 2.61861 22.5364 3.78432 23.7576 5.32273C24.9947 6.86115 25.9463 8.74056 26.6124 10.961C27.2944 13.1655 27.6354 15.6872 27.6354 18.5262C27.6354 21.3492 27.2944 23.8789 26.6124 26.1152C25.9463 28.3514 24.9947 30.2467 23.7576 31.801C22.5364 33.3394 21.0852 34.521 19.4041 35.3457C17.7388 36.1545 15.907 36.559 13.9086 36.559ZM13.9086 33.8945C16.018 33.8945 17.8736 33.2997 19.4754 32.1102C21.0932 30.9207 22.354 29.1841 23.2581 26.9002C24.1779 24.6164 24.6379 21.825 24.6379 18.5262C24.6379 15.2114 24.1779 12.428 23.2581 10.1759C22.3382 7.90791 21.0694 6.19503 19.4517 5.03725C17.8498 3.87947 16.0021 3.30059 13.9086 3.30059C11.8309 3.30059 9.98325 3.87947 8.36553 5.03725C6.74781 6.19503 5.47901 7.90791 4.55913 10.1759C3.63925 12.428 3.17931 15.2114 3.17931 18.5262C3.17931 21.8409 3.63925 24.6402 4.55913 26.924C5.47901 29.2079 6.74781 30.9445 8.36553 32.134C9.98325 33.3077 11.8309 33.8945 13.9086 33.8945Z" fill="#222222"/>
<path d="M31.828 46.5032V10.842H34.778V46.5032H31.828ZM43.4851 36.559C41.5502 36.559 39.758 36.0911 38.1086 35.1554C36.4591 34.2196 35.1269 32.9508 34.1119 31.349C33.1127 29.7471 32.6131 27.947 32.6131 25.9486C32.6131 25.9011 32.6131 25.8614 32.6131 25.8297C32.6131 25.798 32.6131 25.7663 32.6131 25.7345L34.778 25.687C34.778 25.7187 34.778 25.7504 34.778 25.7821C34.778 25.8138 34.778 25.8456 34.778 25.8773C34.778 27.3047 35.1665 28.6211 35.9437 29.8264C36.7208 31.0318 37.7359 31.9913 38.9888 32.705C40.2576 33.4187 41.6295 33.7755 43.1045 33.7755C45.5469 33.7755 47.5532 32.9112 49.1233 31.1824C50.7093 29.4378 51.5023 26.8685 51.5023 23.4745C51.5023 20.0646 50.7093 17.4953 49.1233 15.7665C47.5532 14.0378 45.5469 13.1734 43.1045 13.1734C41.6295 13.1734 40.2576 13.5303 38.9888 14.244C37.7359 14.9577 36.7208 15.9093 35.9437 17.0988C35.1665 18.2883 34.778 19.6046 34.778 21.0479L32.6131 20.9765C32.6131 18.9782 33.1127 17.186 34.1119 15.6C35.1269 14.014 36.4591 12.769 38.1086 11.865C39.758 10.9451 41.5502 10.4852 43.4851 10.4852C45.531 10.4852 47.3867 10.9927 49.052 12.0077C50.7173 13.0069 52.0416 14.4739 53.0249 16.4089C54.0241 18.3438 54.5237 20.699 54.5237 23.4745C54.5237 26.2817 54.032 28.6607 53.0487 30.6115C52.0812 32.5623 50.7569 34.0452 49.0758 35.0602C47.4105 36.0594 45.5469 36.559 43.4851 36.559Z" fill="#222222"/>
<path d="M59.6645 24.7116V22.0709H80.1239L79.5529 22.8797C79.5529 22.7846 79.5529 22.7053 79.5529 22.6418C79.5529 22.5625 79.5529 22.4832 79.5529 22.4039C79.5529 20.7704 79.204 19.2478 78.5062 17.8363C77.8083 16.4247 76.7933 15.2907 75.4611 14.4343C74.1447 13.5779 72.5349 13.1496 70.6317 13.1496C68.6968 13.1496 66.9918 13.5937 65.5169 14.4819C64.0419 15.3542 62.892 16.5675 62.0673 18.1217C61.2426 19.6602 60.8302 21.4523 60.8302 23.4983C60.8302 25.5601 61.2347 27.376 62.0435 28.9462C62.8682 30.5005 64.0181 31.7137 65.4931 32.586C66.968 33.4425 68.6889 33.8707 70.6555 33.8707C72.0987 33.8707 73.3517 33.6962 74.4143 33.3473C75.4928 32.9825 76.3809 32.5067 77.0788 31.9199C77.7925 31.3331 78.3317 30.7146 78.6965 30.0643C79.0771 29.3982 79.2992 28.7717 79.3626 28.1849H82.2888C82.2254 29.1206 81.924 30.0802 81.3848 31.0635C80.8614 32.0309 80.108 32.935 79.1247 33.7755C78.1573 34.6161 76.9519 35.2981 75.5086 35.8215C74.0812 36.329 72.4318 36.5828 70.5603 36.5828C68.1179 36.5828 65.9451 36.0277 64.0419 34.9175C62.1545 33.8073 60.6637 32.2768 59.5694 30.326C58.4909 28.3594 57.9516 26.0993 57.9516 23.5459C57.9516 20.9765 58.4988 18.7165 59.5932 16.7657C60.6875 14.7991 62.1863 13.2607 64.0895 12.1505C65.9927 11.0403 68.1575 10.4852 70.5841 10.4852C73.0583 10.4852 75.1994 11.0482 77.0074 12.1742C78.8155 13.3003 80.2111 14.8308 81.1945 16.7657C82.1778 18.6848 82.6694 20.8417 82.6694 23.2366C82.6694 23.4428 82.6615 23.7045 82.6456 24.0217C82.6456 24.3389 82.6377 24.5688 82.6219 24.7116H59.6645Z" fill="#222222"/>
<path d="M105.417 36.107V23.5459C105.417 22.7687 105.417 22.1502 105.417 21.6902C105.417 21.2303 105.417 20.7783 105.417 20.3342C105.417 18.9227 105.164 17.6935 104.656 16.6468C104.165 15.5841 103.403 14.7594 102.372 14.1726C101.341 13.5699 100.017 13.2686 98.3994 13.2686C96.972 13.2686 95.6319 13.6254 94.3789 14.3391C93.126 15.037 92.111 15.9886 91.3338 17.1939C90.5725 18.3993 90.1919 19.7553 90.1919 21.262L88.4077 20.5959C88.4077 18.6768 88.8993 16.956 89.8826 15.4335C90.8818 13.9109 92.1823 12.7056 93.7842 11.8174C95.4019 10.9292 97.1148 10.4852 98.9228 10.4852C100.842 10.4852 102.507 10.8499 103.919 11.5795C105.33 12.2932 106.417 13.332 107.178 14.696C107.955 16.0441 108.344 17.6856 108.344 19.6205C108.344 20.2866 108.344 21.0003 108.344 21.7616C108.344 22.5229 108.344 23.2128 108.344 23.8313V36.107H105.417ZM87.242 36.107V10.842H90.1919V36.107H87.242Z" fill="#222222"/>
<path fill-rule="evenodd" clip-rule="evenodd" d="M166.159 28.207C166.462 30.0482 168.865 31.0355 170.452 29.1168C171.643 27.6776 173.775 27.476 175.214 28.6667C176.654 29.8574 176.855 31.9893 175.664 33.4286C170.091 40.1652 159.751 36.5432 159.399 28.0477C159.386 27.9273 159.379 27.8083 159.379 27.6915L159.395 10.1115C159.395 8.36125 160.909 6.94238 162.777 6.94238C164.645 6.94238 166.159 8.36126 166.159 10.1115L166.159 28.207Z" fill="url(#paint0_linear_3442_5856)"/>
<path fill-rule="evenodd" clip-rule="evenodd" d="M128.291 9.4838C129.909 10.4178 130.463 12.4862 129.529 14.1039L117.605 34.7575C116.671 36.3751 114.602 36.9294 112.985 35.9954C111.367 35.0615 110.813 32.993 111.747 31.3753L123.671 10.7217C124.605 9.10409 126.674 8.54984 128.291 9.4838Z" fill="url(#paint1_linear_3442_5856)"/>
<path fill-rule="evenodd" clip-rule="evenodd" d="M146.59 36.6251C144.722 36.6251 143.208 35.1109 143.208 33.243L143.208 15.238C143.208 13.3701 144.722 11.8558 146.59 11.8558C148.458 11.8558 149.972 13.3701 149.972 15.238L149.972 33.243C149.972 35.1109 148.458 36.6251 146.59 36.6251Z" fill="url(#paint2_linear_3442_5856)"/>
<path fill-rule="evenodd" clip-rule="evenodd" d="M149.427 23.1571L148.183 23.1825L143.205 23.1491C143.25 21.8787 144.011 19.5149 144.588 18.4086C145.191 17.2523 146.048 16.0623 147.132 15.0411C149.313 12.9872 152.776 11.3597 156.802 12.8693C158.406 13.4703 159.218 15.2573 158.617 16.8606C158.016 18.4639 156.229 19.2763 154.626 18.6752C153.496 18.2516 152.447 18.5533 151.383 19.5553C150.845 20.0621 150.397 20.4933 150.086 21.2748C149.935 21.9979 149.969 23.1486 149.969 23.1486L149.427 23.1571Z" fill="url(#paint3_linear_3442_5856)"/>
<path fill-rule="evenodd" clip-rule="evenodd" d="M159.379 15.9514L159.379 13.087L170.509 13.0871C171.776 13.0871 173.474 14.3144 173.474 16.0266C173.624 17.6692 172.28 19.2877 170.509 19.2877H159.395L159.379 15.9514Z" fill="url(#paint4_linear_3442_5856)"/>
<g style="mix-blend-mode:overlay" opacity="0.2">
<path d="M159.394 19.316H166.133L166.133 22.2481H159.394V19.316Z" fill="url(#paint5_linear_3442_5856)"/>
</g>
<path fill-rule="evenodd" clip-rule="evenodd" d="M123.467 11.1502C123.739 10.4724 124.232 9.87738 124.913 9.48384C126.531 8.54988 128.6 9.10413 129.534 10.7218L141.458 31.3754C142.392 32.993 141.838 35.0615 140.22 35.9955C138.602 36.9294 136.534 36.3752 135.6 34.7575L126.56 19.1006L126.609 19.2268C124.816 15.6632 122.047 15.2835 120.886 15.539L123.453 11.1145L123.467 11.1502Z" fill="url(#paint6_linear_3442_5856)"/>
<defs>
<linearGradient id="paint0_linear_3442_5856" x1="159.379" y1="6.94238" x2="182.64" y2="12.9567" gradientUnits="userSpaceOnUse">
<stop stop-color="#9D0AFC"/>
<stop offset="1" stop-color="#0359FF"/>
</linearGradient>
<linearGradient id="paint1_linear_3442_5856" x1="125.729" y1="12.9393" x2="131.2" y2="19.5146" gradientUnits="userSpaceOnUse">
<stop stop-color="#00DFBA"/>
<stop offset="1" stop-color="#048AFE"/>
</linearGradient>
<linearGradient id="paint2_linear_3442_5856" x1="146.69" y1="12.7605" x2="146.69" y2="38.7441" gradientUnits="userSpaceOnUse">
<stop stop-color="#5900EB"/>
<stop offset="1" stop-color="#E367EE"/>
</linearGradient>
<linearGradient id="paint3_linear_3442_5856" x1="146.152" y1="23.2147" x2="159.933" y2="13.9805" gradientUnits="userSpaceOnUse">
<stop stop-color="#9129EC"/>
<stop offset="1" stop-color="#9F03FF"/>
</linearGradient>
<linearGradient id="paint4_linear_3442_5856" x1="166.778" y1="14.6837" x2="174.635" y2="22.905" gradientUnits="userSpaceOnUse">
<stop stop-color="#930FFC"/>
<stop offset="0.865143" stop-color="#004BFB"/>
</linearGradient>
<linearGradient id="paint5_linear_3442_5856" x1="162.764" y1="19.3699" x2="162.764" y2="21.9153" gradientUnits="userSpaceOnUse">
<stop/>
<stop offset="1" stop-opacity="0"/>
</linearGradient>
<linearGradient id="paint6_linear_3442_5856" x1="120.117" y1="9.28194" x2="153.09" y2="17.5352" gradientUnits="userSpaceOnUse">
<stop stop-color="#0056FE"/>
<stop offset="0.815625" stop-color="#D159ED"/>
</linearGradient>
</defs>
</svg>
