<svg width="19" height="11" viewBox="0 0 19 11" fill="none" xmlns="http://www.w3.org/2000/svg">
<path fill-rule="evenodd" clip-rule="evenodd" d="M17.6699 0.5H16.6699C16.1176 0.5 15.6699 0.919733 15.6699 1.4375V9.5625C15.6699 10.0803 16.1176 10.5 16.6699 10.5H17.6699C18.2222 10.5 18.6699 10.0803 18.6699 9.5625V1.4375C18.6699 0.919733 18.2222 0.5 17.6699 0.5ZM11.67 2.5H12.67C13.2223 2.5 13.67 2.92981 13.67 3.46V9.54C13.67 10.0702 13.2223 10.5 12.67 10.5H11.67C11.1178 10.5 10.67 10.0702 10.67 9.54V3.46C10.67 2.92981 11.1178 2.5 11.67 2.5ZM7.66992 4.5H6.66992C6.11764 4.5 5.66992 4.94772 5.66992 5.5V9.5C5.66992 10.0523 6.11764 10.5 6.66992 10.5H7.66992C8.22221 10.5 8.66992 10.0523 8.66992 9.5V5.5C8.66992 4.94772 8.22221 4.5 7.66992 4.5ZM2.66992 6.5H1.66992C1.11764 6.5 0.669922 6.94772 0.669922 7.5V9.5C0.669922 10.0523 1.11764 10.5 1.66992 10.5H2.66992C3.22221 10.5 3.66992 10.0523 3.66992 9.5V7.5C3.66992 6.94772 3.22221 6.5 2.66992 6.5Z" fill="#222222"/>
</svg>
