<svg width="86" height="37" viewBox="0 0 86 37" fill="none" xmlns="http://www.w3.org/2000/svg">
<path d="M10.9808 28.8636C9.40311 28.8636 7.95686 28.5443 6.64208 27.9057C5.3273 27.2545 4.18157 26.3217 3.20488 25.1071C2.24071 23.8799 1.48941 22.3836 0.950975 20.618C0.425065 18.8525 0.162109 16.8553 0.162109 14.6264C0.162109 12.385 0.425065 10.3941 0.950975 8.65357C1.48941 6.90053 2.24071 5.41671 3.20488 4.20211C4.18157 2.98751 5.3273 2.06716 6.64208 1.44108C7.96938 0.814995 9.41563 0.501953 10.9808 0.501953C12.5586 0.501953 14.0048 0.814995 15.3196 1.44108C16.6469 2.06716 17.7926 2.98751 18.7568 4.20211C19.7335 5.41671 20.4848 6.90053 21.0107 8.65357C21.5491 10.3941 21.8184 12.385 21.8184 14.6264C21.8184 16.8553 21.5491 18.8525 21.0107 20.618C20.4848 22.3836 19.7335 23.8799 18.7568 25.1071C17.7926 26.3217 16.6469 27.2545 15.3196 27.9057C14.0048 28.5443 12.5586 28.8636 10.9808 28.8636ZM10.9808 26.7599C12.6462 26.7599 14.1113 26.2904 15.376 25.3512C16.6532 24.4121 17.6486 23.041 18.3624 21.2379C19.0886 19.4347 19.4518 17.2309 19.4518 14.6264C19.4518 12.0094 19.0886 9.81182 18.3624 8.03374C17.6361 6.24314 16.6344 4.8908 15.3572 3.97672C14.0925 3.06264 12.6337 2.6056 10.9808 2.6056C9.3405 2.6056 7.88173 3.06264 6.60451 3.97672C5.3273 4.8908 4.32557 6.24314 3.59931 8.03374C2.87305 9.81182 2.50992 12.0094 2.50992 14.6264C2.50992 17.2434 2.87305 19.4535 3.59931 21.2566C4.32557 23.0598 5.3273 24.4309 6.60451 25.37C7.88173 26.2966 9.3405 26.7599 10.9808 26.7599Z" fill="#222222"/>
<path d="M25.1285 36.7147V8.55966H27.4575V36.7147H25.1285ZM34.3319 28.8636C32.8043 28.8636 31.3893 28.4942 30.0871 27.7554C28.7848 27.0166 27.733 26.0149 26.9316 24.7502C26.1427 23.4855 25.7483 22.0643 25.7483 20.4866C25.7483 20.449 25.7483 20.4177 25.7483 20.3926C25.7483 20.3676 25.7483 20.3426 25.7483 20.3175L27.4575 20.2799C27.4575 20.305 27.4575 20.33 27.4575 20.3551C27.4575 20.3801 27.4575 20.4052 27.4575 20.4302C27.4575 21.5572 27.7643 22.5965 28.3779 23.5481C28.9914 24.4998 29.7928 25.2573 30.782 25.8208C31.7838 26.3843 32.8669 26.666 34.0314 26.666C35.9597 26.666 37.5437 25.9836 38.7834 24.6187C40.0355 23.2413 40.6616 21.2128 40.6616 18.5332C40.6616 15.841 40.0355 13.8125 38.7834 12.4476C37.5437 11.0828 35.9597 10.4003 34.0314 10.4003C32.8669 10.4003 31.7838 10.6821 30.782 11.2456C29.7928 11.809 28.9914 12.5603 28.3779 13.4995C27.7643 14.4386 27.4575 15.4779 27.4575 16.6174L25.7483 16.561C25.7483 14.9833 26.1427 13.5683 26.9316 12.3162C27.733 11.064 28.7848 10.081 30.0871 9.3673C31.3893 8.64105 32.8043 8.27792 34.3319 8.27792C35.9472 8.27792 37.4122 8.67861 38.727 9.48C40.0418 10.2689 41.0874 11.4271 41.8637 12.9548C42.6526 14.4824 43.047 16.3419 43.047 18.5332C43.047 20.7495 42.6588 22.6278 41.8825 24.1679C41.1187 25.7081 40.0731 26.8789 38.7458 27.6803C37.431 28.4691 35.9597 28.8636 34.3319 28.8636Z" fill="#222222"/>
<path d="M47.1058 19.5099V17.425H63.2588L62.808 18.0636C62.808 17.9885 62.808 17.9259 62.808 17.8758C62.808 17.8132 62.808 17.7506 62.808 17.688C62.808 16.3982 62.5325 15.1961 61.9815 14.0817C61.4306 12.9673 60.6292 12.072 59.5774 11.3958C58.5381 10.7196 57.2671 10.3816 55.7645 10.3816C54.2369 10.3816 52.8908 10.7322 51.7263 11.4334C50.5618 12.1221 49.6539 13.08 49.0028 14.3071C48.3517 15.5217 48.0261 16.9367 48.0261 18.552C48.0261 20.1798 48.3454 21.6135 48.984 22.8532C49.6352 24.0803 50.543 25.0382 51.7075 25.7269C52.872 26.403 54.2306 26.7411 55.7833 26.7411C56.9228 26.7411 57.912 26.6034 58.7509 26.3279C59.6024 26.0399 60.3036 25.6643 60.8546 25.201C61.4181 24.7377 61.8438 24.2493 62.1318 23.7359C62.4323 23.21 62.6076 22.7154 62.6577 22.2521H64.968C64.9179 22.9909 64.68 23.7485 64.2542 24.5248C63.841 25.2886 63.2462 26.0024 62.4699 26.666C61.7061 27.3297 60.7544 27.8681 59.6149 28.2813C58.488 28.682 57.1857 28.8823 55.7082 28.8823C53.7798 28.8823 52.0644 28.4441 50.5618 27.5676C49.0717 26.691 47.8947 25.4827 47.0307 23.9425C46.1792 22.3899 45.7534 20.6055 45.7534 18.5895C45.7534 16.561 46.1854 14.7767 47.0494 13.2365C47.9134 11.6838 49.0967 10.4692 50.5993 9.59269C52.1019 8.71618 53.8111 8.27792 55.727 8.27792C57.6803 8.27792 59.3708 8.72244 60.7982 9.61148C62.2257 10.5005 63.3276 11.7089 64.104 13.2365C64.8803 14.7516 65.2685 16.4546 65.2685 18.3453C65.2685 18.5081 65.2622 18.7147 65.2497 18.9652C65.2497 19.2156 65.2434 19.3972 65.2309 19.5099H47.1058Z" fill="#222222"/>
<path d="M83.2284 28.5067V18.5895C83.2284 17.976 83.2284 17.4876 83.2284 17.1245C83.2284 16.7614 83.2284 16.4045 83.2284 16.0539C83.2284 14.9395 83.0281 13.969 82.6274 13.1426C82.2392 12.3036 81.6381 11.6525 80.8242 11.1892C80.0103 10.7134 78.9648 10.4755 77.6876 10.4755C76.5606 10.4755 75.5025 10.7572 74.5133 11.3207C73.5241 11.8716 72.7227 12.6229 72.1091 13.5746C71.5081 14.5262 71.2076 15.5968 71.2076 16.7864L69.7989 16.2605C69.7989 14.7454 70.1871 13.3868 70.9634 12.1847C71.7523 10.9826 72.7791 10.031 74.0437 9.32974C75.321 8.62852 76.6733 8.27792 78.1008 8.27792C79.6159 8.27792 80.9307 8.56592 82.0451 9.14191C83.1595 9.70539 84.0173 10.5256 84.6183 11.6024C85.2319 12.6668 85.5387 13.9628 85.5387 15.4904C85.5387 16.0163 85.5387 16.5798 85.5387 17.1808C85.5387 17.7819 85.5387 18.3266 85.5387 18.8149V28.5067H83.2284ZM68.8786 28.5067V8.55966H71.2076V28.5067H68.8786Z" fill="#222222"/>
</svg>
