<svg width="86" height="37" viewBox="0 0 86 37" fill="none" xmlns="http://www.w3.org/2000/svg">
<path d="M10.9811 28.8638C9.40336 28.8638 7.9571 28.5445 6.64232 27.9059C5.32755 27.2548 4.18181 26.3219 3.20512 25.1073C2.24095 23.8802 1.48965 22.3838 0.951219 20.6183C0.425309 18.8527 0.162354 16.8555 0.162354 14.6267C0.162354 12.3853 0.425309 10.3943 0.951219 8.65381C1.48965 6.90078 2.24095 5.41696 3.20512 4.20235C4.18181 2.98775 5.32755 2.06741 6.64232 1.44132C7.96962 0.815239 9.41588 0.502197 10.9811 0.502197C12.5588 0.502197 14.0051 0.815239 15.3198 1.44132C16.6471 2.06741 17.7929 2.98775 18.757 4.20235C19.7337 5.41696 20.485 6.90078 21.011 8.65381C21.5494 10.3943 21.8186 12.3853 21.8186 14.6267C21.8186 16.8555 21.5494 18.8527 21.011 20.6183C20.485 22.3838 19.7337 23.8802 18.757 25.1073C17.7929 26.3219 16.6471 27.2548 15.3198 27.9059C14.0051 28.5445 12.5588 28.8638 10.9811 28.8638ZM10.9811 26.7602C12.6465 26.7602 14.1115 26.2906 15.3762 25.3515C16.6534 24.4123 17.6489 23.0412 18.3626 21.2381C19.0889 19.435 19.452 17.2312 19.452 14.6267C19.452 12.0096 19.0889 9.81207 18.3626 8.03399C17.6364 6.24339 16.6346 4.89105 15.3574 3.97696C14.0927 3.06288 12.6339 2.60584 10.9811 2.60584C9.34075 2.60584 7.88197 3.06288 6.60476 3.97696C5.32755 4.89105 4.32581 6.24339 3.59955 8.03399C2.8733 9.81207 2.51017 12.0096 2.51017 14.6267C2.51017 17.2437 2.8733 19.4538 3.59955 21.2569C4.32581 23.06 5.32755 24.4311 6.60476 25.3703C7.88197 26.2969 9.34075 26.7602 10.9811 26.7602Z" fill="#222222"/>
<path d="M25.1287 36.7149V8.5599H27.4578V36.7149H25.1287ZM34.3322 28.8638C32.8045 28.8638 31.3896 28.4944 30.0873 27.7556C28.7851 27.0169 27.7332 26.0151 26.9318 24.7504C26.143 23.4857 25.7485 22.0645 25.7485 20.4868C25.7485 20.4492 25.7485 20.4179 25.7485 20.3929C25.7485 20.3678 25.7485 20.3428 25.7485 20.3178L27.4578 20.2802C27.4578 20.3052 27.4578 20.3303 27.4578 20.3553C27.4578 20.3804 27.4578 20.4054 27.4578 20.4305C27.4578 21.5574 27.7645 22.5967 28.3781 23.5484C28.9917 24.5 29.7931 25.2576 30.7823 25.821C31.784 26.3845 32.8671 26.6662 34.0316 26.6662C35.96 26.6662 37.544 25.9838 38.7836 24.619C40.0358 23.2416 40.6619 21.2131 40.6619 18.5334C40.6619 15.8413 40.0358 13.8127 38.7836 12.4479C37.544 11.083 35.96 10.4006 34.0316 10.4006C32.8671 10.4006 31.784 10.6823 30.7823 11.2458C29.7931 11.8093 28.9917 12.5606 28.3781 13.4997C27.7645 14.4388 27.4578 15.4781 27.4578 16.6176L25.7485 16.5613C25.7485 14.9835 26.143 13.5686 26.9318 12.3164C27.7332 11.0642 28.7851 10.0813 30.0873 9.36755C31.3896 8.64129 32.8045 8.27816 34.3322 8.27816C35.9475 8.27816 37.4125 8.67885 38.7273 9.48024C40.042 10.2691 41.0876 11.4274 41.864 12.955C42.6528 14.4827 43.0472 16.3421 43.0472 18.5334C43.0472 20.7498 42.6591 22.628 41.8827 24.1682C41.1189 25.7083 40.0733 26.8791 38.7461 27.6805C37.4313 28.4694 35.96 28.8638 34.3322 28.8638Z" fill="#222222"/>
<path d="M47.106 19.5101V17.4252H63.259L62.8082 18.0639C62.8082 17.9887 62.8082 17.9261 62.8082 17.876C62.8082 17.8134 62.8082 17.7508 62.8082 17.6882C62.8082 16.3985 62.5327 15.1964 61.9818 14.082C61.4308 12.9675 60.6294 12.0722 59.5776 11.3961C58.5383 10.7199 57.2674 10.3818 55.7648 10.3818C54.2371 10.3818 52.891 10.7324 51.7265 11.4336C50.562 12.1223 49.6542 13.0802 49.0031 14.3073C48.3519 15.522 48.0264 16.9369 48.0264 18.5522C48.0264 20.18 48.3457 21.6138 48.9843 22.8534C49.6354 24.0805 50.5432 25.0384 51.7077 25.7271C52.8723 26.4033 54.2309 26.7414 55.7836 26.7414C56.923 26.7414 57.9122 26.6036 58.7512 26.3282C59.6027 26.0402 60.3039 25.6645 60.8548 25.2012C61.4183 24.7379 61.8441 24.2496 62.132 23.7362C62.4326 23.2103 62.6079 22.7157 62.658 22.2524H64.9682C64.9181 22.9911 64.6802 23.7487 64.2545 24.525C63.8413 25.2889 63.2465 26.0026 62.4701 26.6662C61.7063 27.3299 60.7547 27.8683 59.6152 28.2815C58.4882 28.6822 57.186 28.8826 55.7084 28.8826C53.7801 28.8826 52.0646 28.4443 50.562 27.5678C49.0719 26.6913 47.8949 25.483 47.0309 23.9428C46.1794 22.3901 45.7537 20.6058 45.7537 18.5898C45.7537 16.5613 46.1857 14.7769 47.0497 13.2367C47.9137 11.6841 49.097 10.4695 50.5996 9.59294C52.1022 8.71642 53.8114 8.27816 55.7272 8.27816C57.6806 8.27816 59.371 8.72268 60.7985 9.61172C62.226 10.5008 63.3279 11.7091 64.1042 13.2367C64.8806 14.7519 65.2687 16.4548 65.2687 18.3456C65.2687 18.5084 65.2625 18.715 65.25 18.9654C65.25 19.2158 65.2437 19.3974 65.2312 19.5101H47.106Z" fill="#222222"/>
<path d="M83.2286 28.5069V18.5898C83.2286 17.9762 83.2286 17.4879 83.2286 17.1247C83.2286 16.7616 83.2286 16.4047 83.2286 16.0541C83.2286 14.9397 83.0283 13.9693 82.6276 13.1428C82.2394 12.3039 81.6384 11.6528 80.8245 11.1895C80.0106 10.7136 78.965 10.4757 77.6878 10.4757C76.5608 10.4757 75.5028 10.7575 74.5135 11.3209C73.5243 11.8719 72.723 12.6232 72.1094 13.5748C71.5083 14.5265 71.2078 15.5971 71.2078 16.7866L69.7991 16.2607C69.7991 14.7456 70.1873 13.387 70.9637 12.1849C71.7525 10.9828 72.7793 10.0312 74.044 9.32998C75.3212 8.62877 76.6735 8.27816 78.101 8.27816C79.6161 8.27816 80.9309 8.56616 82.0453 9.14216C83.1598 9.70563 84.0175 10.5258 84.6185 11.6027C85.2321 12.667 85.5389 13.963 85.5389 15.4906C85.5389 16.0166 85.5389 16.58 85.5389 17.1811C85.5389 17.7821 85.5389 18.3268 85.5389 18.8152V28.5069H83.2286ZM68.8788 28.5069V8.5599H71.2078V28.5069H68.8788Z" fill="#222222"/>
</svg>
