<svg width="86" height="38" viewBox="0 0 86 38" fill="none" xmlns="http://www.w3.org/2000/svg">
<path d="M10.9808 29.344C9.40311 29.344 7.95686 29.0247 6.64208 28.3861C5.3273 27.735 4.18157 26.8021 3.20488 25.5875C2.24071 24.3604 1.48941 22.8641 0.950975 21.0985C0.425065 19.3329 0.162109 17.3357 0.162109 15.1069C0.162109 12.8655 0.425065 10.8745 0.950975 9.13404C1.48941 7.381 2.24071 5.89718 3.20488 4.68258C4.18157 3.46798 5.3273 2.54763 6.64208 1.92155C7.96938 1.29546 9.41563 0.982422 10.9808 0.982422C12.5586 0.982422 14.0048 1.29546 15.3196 1.92155C16.6469 2.54763 17.7926 3.46798 18.7568 4.68258C19.7335 5.89718 20.4848 7.381 21.0107 9.13404C21.5491 10.8745 21.8184 12.8655 21.8184 15.1069C21.8184 17.3357 21.5491 19.3329 21.0107 21.0985C20.4848 22.8641 19.7335 24.3604 18.7568 25.5875C17.7926 26.8021 16.6469 27.735 15.3196 28.3861C14.0048 29.0247 12.5586 29.344 10.9808 29.344ZM10.9808 27.2404C12.6462 27.2404 14.1113 26.7708 15.376 25.8317C16.6532 24.8926 17.6486 23.5214 18.3624 21.7183C19.0886 19.9152 19.4518 17.7114 19.4518 15.1069C19.4518 12.4898 19.0886 10.2923 18.3624 8.51421C17.6361 6.72361 16.6344 5.37127 15.3572 4.45719C14.0925 3.5431 12.6337 3.08606 10.9808 3.08606C9.3405 3.08606 7.88173 3.5431 6.60451 4.45719C5.3273 5.37127 4.32557 6.72361 3.59931 8.51421C2.87305 10.2923 2.50992 12.4898 2.50992 15.1069C2.50992 17.7239 2.87305 19.934 3.59931 21.7371C4.32557 23.5402 5.3273 24.9114 6.60451 25.8505C7.88173 26.7771 9.3405 27.2404 10.9808 27.2404Z" fill="#222222"/>
<path d="M25.1285 37.1951V9.04012H27.4575V37.1951H25.1285ZM34.3319 29.344C32.8043 29.344 31.3893 28.9746 30.0871 28.2359C28.7848 27.4971 27.733 26.4953 26.9316 25.2307C26.1427 23.966 25.7483 22.5448 25.7483 20.967C25.7483 20.9295 25.7483 20.8982 25.7483 20.8731C25.7483 20.8481 25.7483 20.823 25.7483 20.798L27.4575 20.7604C27.4575 20.7855 27.4575 20.8105 27.4575 20.8355C27.4575 20.8606 27.4575 20.8856 27.4575 20.9107C27.4575 22.0376 27.7643 23.0769 28.3779 24.0286C28.9914 24.9802 29.7928 25.7378 30.782 26.3013C31.7838 26.8647 32.8669 27.1465 34.0314 27.1465C35.9597 27.1465 37.5437 26.464 38.7834 25.0992C40.0355 23.7218 40.6616 21.6933 40.6616 19.0136C40.6616 16.3215 40.0355 14.293 38.7834 12.9281C37.5437 11.5632 35.9597 10.8808 34.0314 10.8808C32.8669 10.8808 31.7838 11.1625 30.782 11.726C29.7928 12.2895 28.9914 13.0408 28.3779 13.9799C27.7643 14.9191 27.4575 15.9584 27.4575 17.0978L25.7483 17.0415C25.7483 15.4637 26.1427 14.0488 26.9316 12.7966C27.733 11.5445 28.7848 10.5615 30.0871 9.84777C31.3893 9.12151 32.8043 8.75839 34.3319 8.75839C35.9472 8.75839 37.4122 9.15908 38.727 9.96047C40.0418 10.7493 41.0874 11.9076 41.8637 13.4352C42.6526 14.9629 43.047 16.8223 43.047 19.0136C43.047 21.23 42.6588 23.1082 41.8825 24.6484C41.1187 26.1886 40.0731 27.3593 38.7458 28.1607C37.431 28.9496 35.9597 29.344 34.3319 29.344Z" fill="#222222"/>
<path d="M47.1058 19.9903V17.9055H63.2588L62.808 18.5441C62.808 18.4689 62.808 18.4063 62.808 18.3563C62.808 18.2936 62.808 18.231 62.808 18.1684C62.808 16.8787 62.5325 15.6766 61.9815 14.5622C61.4306 13.4478 60.6292 12.5525 59.5774 11.8763C58.5381 11.2001 57.2671 10.862 55.7645 10.862C54.2369 10.862 52.8908 11.2126 51.7263 11.9138C50.5618 12.6025 49.6539 13.5604 49.0028 14.7876C48.3517 16.0022 48.0261 17.4171 48.0261 19.0324C48.0261 20.6602 48.3454 22.094 48.984 23.3336C49.6352 24.5607 50.543 25.5187 51.7075 26.2073C52.872 26.8835 54.2306 27.2216 55.7833 27.2216C56.9228 27.2216 57.912 27.0839 58.7509 26.8084C59.6024 26.5204 60.3036 26.1447 60.8546 25.6814C61.4181 25.2181 61.8438 24.7298 62.1318 24.2164C62.4323 23.6905 62.6076 23.1959 62.6577 22.7326H64.968C64.9179 23.4714 64.68 24.2289 64.2542 25.0053C63.841 25.7691 63.2462 26.4828 62.4699 27.1465C61.7061 27.8101 60.7544 28.3486 59.6149 28.7618C58.488 29.1625 57.1857 29.3628 55.7082 29.3628C53.7798 29.3628 52.0644 28.9246 50.5618 28.048C49.0717 27.1715 47.8947 25.9632 47.0307 24.423C46.1792 22.8703 45.7534 21.086 45.7534 19.07C45.7534 17.0415 46.1854 15.2571 47.0494 13.717C47.9134 12.1643 49.0967 10.9497 50.5993 10.0732C52.1019 9.19664 53.8111 8.75839 55.727 8.75839C57.6803 8.75839 59.3708 9.20291 60.7982 10.0919C62.2257 10.981 63.3276 12.1893 64.104 13.717C64.8803 15.2321 65.2685 16.935 65.2685 18.8258C65.2685 18.9886 65.2622 19.1952 65.2497 19.4456C65.2497 19.6961 65.2434 19.8776 65.2309 19.9903H47.1058Z" fill="#222222"/>
<path d="M83.2284 28.9872V19.07C83.2284 18.4564 83.2284 17.9681 83.2284 17.605C83.2284 17.2418 83.2284 16.885 83.2284 16.5343C83.2284 15.4199 83.0281 14.4495 82.6274 13.6231C82.2392 12.7841 81.6381 12.133 80.8242 11.6697C80.0103 11.1939 78.9648 10.9559 77.6876 10.9559C76.5606 10.9559 75.5025 11.2377 74.5133 11.8012C73.5241 12.3521 72.7227 13.1034 72.1091 14.0551C71.5081 15.0067 71.2076 16.0773 71.2076 17.2669L69.7989 16.741C69.7989 15.2258 70.1871 13.8672 70.9634 12.6652C71.7523 11.4631 72.7791 10.5114 74.0437 9.81021C75.321 9.10899 76.6733 8.75839 78.1008 8.75839C79.6159 8.75839 80.9307 9.04638 82.0451 9.62238C83.1595 10.1859 84.0173 11.006 84.6183 12.0829C85.2319 13.1472 85.5387 14.4432 85.5387 15.9709C85.5387 16.4968 85.5387 17.0603 85.5387 17.6613C85.5387 18.2623 85.5387 18.807 85.5387 19.2954V28.9872H83.2284ZM68.8786 28.9872V9.04012H71.2076V28.9872H68.8786Z" fill="#222222"/>
</svg>
