<svg width="86" height="37" viewBox="0 0 86 37" fill="none" xmlns="http://www.w3.org/2000/svg">
<path d="M10.9811 28.8636C9.40336 28.8636 7.9571 28.5443 6.64232 27.9057C5.32755 27.2545 4.18181 26.3217 3.20512 25.1071C2.24095 23.8799 1.48965 22.3836 0.951219 20.618C0.425309 18.8525 0.162354 16.8553 0.162354 14.6264C0.162354 12.385 0.425309 10.3941 0.951219 8.65357C1.48965 6.90053 2.24095 5.41671 3.20512 4.20211C4.18181 2.98751 5.32755 2.06716 6.64232 1.44108C7.96962 0.814995 9.41588 0.501953 10.9811 0.501953C12.5588 0.501953 14.0051 0.814995 15.3198 1.44108C16.6471 2.06716 17.7929 2.98751 18.757 4.20211C19.7337 5.41671 20.485 6.90053 21.011 8.65357C21.5494 10.3941 21.8186 12.385 21.8186 14.6264C21.8186 16.8553 21.5494 18.8525 21.011 20.618C20.485 22.3836 19.7337 23.8799 18.757 25.1071C17.7929 26.3217 16.6471 27.2545 15.3198 27.9057C14.0051 28.5443 12.5588 28.8636 10.9811 28.8636ZM10.9811 26.7599C12.6465 26.7599 14.1115 26.2904 15.3762 25.3512C16.6534 24.4121 17.6489 23.041 18.3626 21.2379C19.0889 19.4347 19.452 17.2309 19.452 14.6264C19.452 12.0094 19.0889 9.81182 18.3626 8.03374C17.6364 6.24314 16.6346 4.8908 15.3574 3.97672C14.0927 3.06264 12.6339 2.6056 10.9811 2.6056C9.34075 2.6056 7.88197 3.06264 6.60476 3.97672C5.32755 4.8908 4.32581 6.24314 3.59955 8.03374C2.8733 9.81182 2.51017 12.0094 2.51017 14.6264C2.51017 17.2434 2.8733 19.4535 3.59955 21.2566C4.32581 23.0598 5.32755 24.4309 6.60476 25.37C7.88197 26.2966 9.34075 26.7599 10.9811 26.7599Z" fill="#222222"/>
<path d="M25.1287 36.7147V8.55966H27.4578V36.7147H25.1287ZM34.3322 28.8636C32.8045 28.8636 31.3896 28.4942 30.0873 27.7554C28.7851 27.0166 27.7332 26.0149 26.9318 24.7502C26.143 23.4855 25.7485 22.0643 25.7485 20.4866C25.7485 20.449 25.7485 20.4177 25.7485 20.3926C25.7485 20.3676 25.7485 20.3426 25.7485 20.3175L27.4578 20.2799C27.4578 20.305 27.4578 20.33 27.4578 20.3551C27.4578 20.3801 27.4578 20.4052 27.4578 20.4302C27.4578 21.5572 27.7645 22.5965 28.3781 23.5481C28.9917 24.4998 29.7931 25.2573 30.7823 25.8208C31.784 26.3843 32.8671 26.666 34.0316 26.666C35.96 26.666 37.544 25.9836 38.7836 24.6187C40.0358 23.2413 40.6619 21.2128 40.6619 18.5332C40.6619 15.841 40.0358 13.8125 38.7836 12.4476C37.544 11.0828 35.96 10.4003 34.0316 10.4003C32.8671 10.4003 31.784 10.6821 30.7823 11.2456C29.7931 11.809 28.9917 12.5603 28.3781 13.4995C27.7645 14.4386 27.4578 15.4779 27.4578 16.6174L25.7485 16.561C25.7485 14.9833 26.143 13.5683 26.9318 12.3162C27.7332 11.064 28.7851 10.081 30.0873 9.3673C31.3896 8.64105 32.8045 8.27792 34.3322 8.27792C35.9475 8.27792 37.4125 8.67861 38.7273 9.48C40.042 10.2689 41.0876 11.4271 41.864 12.9548C42.6528 14.4824 43.0472 16.3419 43.0472 18.5332C43.0472 20.7495 42.6591 22.6278 41.8827 24.1679C41.1189 25.7081 40.0733 26.8789 38.7461 27.6803C37.4313 28.4691 35.96 28.8636 34.3322 28.8636Z" fill="#222222"/>
<path d="M47.106 19.5099V17.425H63.259L62.8082 18.0636C62.8082 17.9885 62.8082 17.9259 62.8082 17.8758C62.8082 17.8132 62.8082 17.7506 62.8082 17.688C62.8082 16.3982 62.5327 15.1961 61.9818 14.0817C61.4308 12.9673 60.6294 12.072 59.5776 11.3958C58.5383 10.7196 57.2674 10.3816 55.7648 10.3816C54.2371 10.3816 52.891 10.7322 51.7265 11.4334C50.562 12.1221 49.6542 13.08 49.0031 14.3071C48.3519 15.5217 48.0264 16.9367 48.0264 18.552C48.0264 20.1798 48.3457 21.6135 48.9843 22.8532C49.6354 24.0803 50.5432 25.0382 51.7077 25.7269C52.8723 26.403 54.2309 26.7411 55.7836 26.7411C56.923 26.7411 57.9122 26.6034 58.7512 26.3279C59.6027 26.0399 60.3039 25.6643 60.8548 25.201C61.4183 24.7377 61.8441 24.2493 62.132 23.7359C62.4326 23.21 62.6079 22.7154 62.658 22.2521H64.9682C64.9181 22.9909 64.6802 23.7485 64.2545 24.5248C63.8413 25.2886 63.2465 26.0024 62.4701 26.666C61.7063 27.3297 60.7547 27.8681 59.6152 28.2813C58.4882 28.682 57.186 28.8823 55.7084 28.8823C53.7801 28.8823 52.0646 28.4441 50.562 27.5676C49.0719 26.691 47.8949 25.4827 47.0309 23.9425C46.1794 22.3899 45.7537 20.6055 45.7537 18.5895C45.7537 16.561 46.1857 14.7767 47.0497 13.2365C47.9137 11.6838 49.097 10.4692 50.5996 9.59269C52.1022 8.71618 53.8114 8.27792 55.7272 8.27792C57.6806 8.27792 59.371 8.72244 60.7985 9.61148C62.226 10.5005 63.3279 11.7089 64.1042 13.2365C64.8806 14.7516 65.2687 16.4546 65.2687 18.3453C65.2687 18.5081 65.2625 18.7147 65.25 18.9652C65.25 19.2156 65.2437 19.3972 65.2312 19.5099H47.106Z" fill="#222222"/>
<path d="M83.2286 28.5067V18.5895C83.2286 17.976 83.2286 17.4876 83.2286 17.1245C83.2286 16.7614 83.2286 16.4045 83.2286 16.0539C83.2286 14.9395 83.0283 13.969 82.6276 13.1426C82.2394 12.3036 81.6384 11.6525 80.8245 11.1892C80.0106 10.7134 78.965 10.4755 77.6878 10.4755C76.5608 10.4755 75.5028 10.7572 74.5135 11.3207C73.5243 11.8716 72.723 12.6229 72.1094 13.5746C71.5083 14.5262 71.2078 15.5968 71.2078 16.7864L69.7991 16.2605C69.7991 14.7454 70.1873 13.3868 70.9637 12.1847C71.7525 10.9826 72.7793 10.031 74.044 9.32974C75.3212 8.62852 76.6735 8.27792 78.101 8.27792C79.6161 8.27792 80.9309 8.56592 82.0453 9.14191C83.1598 9.70539 84.0175 10.5256 84.6185 11.6024C85.2321 12.6668 85.5389 13.9628 85.5389 15.4904C85.5389 16.0163 85.5389 16.5798 85.5389 17.1808C85.5389 17.7819 85.5389 18.3266 85.5389 18.8149V28.5067H83.2286ZM68.8788 28.5067V8.55966H71.2078V28.5067H68.8788Z" fill="#222222"/>
</svg>
