<svg width="86" height="38" viewBox="0 0 86 38" fill="none" xmlns="http://www.w3.org/2000/svg">
<path d="M10.9811 29.3479C9.40336 29.3479 7.9571 29.0286 6.64232 28.39C5.32755 27.7389 4.18181 26.806 3.20512 25.5914C2.24095 24.3643 1.48965 22.868 0.951219 21.1024C0.425309 19.3369 0.162354 17.3396 0.162354 15.1108C0.162354 12.8694 0.425309 10.8785 0.951219 9.13794C1.48965 7.38491 2.24095 5.90109 3.20512 4.68649C4.18181 3.47188 5.32755 2.55154 6.64232 1.92545C7.96962 1.29937 9.41588 0.986328 10.9811 0.986328C12.5588 0.986328 14.0051 1.29937 15.3198 1.92545C16.6471 2.55154 17.7929 3.47188 18.757 4.68649C19.7337 5.90109 20.485 7.38491 21.011 9.13794C21.5494 10.8785 21.8186 12.8694 21.8186 15.1108C21.8186 17.3396 21.5494 19.3369 21.011 21.1024C20.485 22.868 19.7337 24.3643 18.757 25.5914C17.7929 26.806 16.6471 27.7389 15.3198 28.39C14.0051 29.0286 12.5588 29.3479 10.9811 29.3479ZM10.9811 27.2443C12.6465 27.2443 14.1115 26.7747 15.3762 25.8356C16.6534 24.8965 17.6489 23.5254 18.3626 21.7222C19.0889 19.9191 19.452 17.7153 19.452 15.1108C19.452 12.4938 19.0889 10.2962 18.3626 8.51812C17.6364 6.72752 16.6346 5.37518 15.3574 4.46109C14.0927 3.54701 12.6339 3.08997 10.9811 3.08997C9.34075 3.08997 7.88197 3.54701 6.60476 4.46109C5.32755 5.37518 4.32581 6.72752 3.59955 8.51812C2.8733 10.2962 2.51017 12.4938 2.51017 15.1108C2.51017 17.7278 2.8733 19.9379 3.59955 21.741C4.32581 23.5441 5.32755 24.9153 6.60476 25.8544C7.88197 26.781 9.34075 27.2443 10.9811 27.2443Z" fill="#222222"/>
<path d="M25.1287 37.199V9.04403H27.4578V37.199H25.1287ZM34.3322 29.3479C32.8045 29.3479 31.3896 28.9785 30.0873 28.2398C28.7851 27.501 27.7332 26.4993 26.9318 25.2346C26.143 23.9699 25.7485 22.5487 25.7485 20.9709C25.7485 20.9334 25.7485 20.9021 25.7485 20.877C25.7485 20.852 25.7485 20.8269 25.7485 20.8019L27.4578 20.7643C27.4578 20.7894 27.4578 20.8144 27.4578 20.8395C27.4578 20.8645 27.4578 20.8895 27.4578 20.9146C27.4578 22.0415 27.7645 23.0808 28.3781 24.0325C28.9917 24.9841 29.7931 25.7417 30.7823 26.3052C31.784 26.8686 32.8671 27.1504 34.0316 27.1504C35.96 27.1504 37.544 26.4679 38.7836 25.1031C40.0358 23.7257 40.6619 21.6972 40.6619 19.0175C40.6619 16.3254 40.0358 14.2969 38.7836 12.932C37.544 11.5671 35.96 10.8847 34.0316 10.8847C32.8671 10.8847 31.784 11.1665 30.7823 11.7299C29.7931 12.2934 28.9917 13.0447 28.3781 13.9838C27.7645 14.923 27.4578 15.9623 27.4578 17.1017L25.7485 17.0454C25.7485 15.4677 26.143 14.0527 26.9318 12.8005C27.7332 11.5484 28.7851 10.5654 30.0873 9.85168C31.3896 9.12542 32.8045 8.76229 34.3322 8.76229C35.9475 8.76229 37.4125 9.16299 38.7273 9.96437C40.042 10.7532 41.0876 11.9115 41.864 13.4391C42.6528 14.9668 43.0472 16.8263 43.0472 19.0175C43.0472 21.2339 42.6591 23.1121 41.8827 24.6523C41.1189 26.1925 40.0733 27.3632 38.7461 28.1646C37.4313 28.9535 35.96 29.3479 34.3322 29.3479Z" fill="#222222"/>
<path d="M47.106 19.9942V17.9094H63.259L62.8082 18.548C62.8082 18.4729 62.8082 18.4102 62.8082 18.3602C62.8082 18.2976 62.8082 18.2349 62.8082 18.1723C62.8082 16.8826 62.5327 15.6805 61.9818 14.5661C61.4308 13.4517 60.6294 12.5564 59.5776 11.8802C58.5383 11.204 57.2674 10.8659 55.7648 10.8659C54.2371 10.8659 52.891 11.2165 51.7265 11.9178C50.562 12.6064 49.6542 13.5644 49.0031 14.7915C48.3519 16.0061 48.0264 17.421 48.0264 19.0363C48.0264 20.6642 48.3457 22.0979 48.9843 23.3375C49.6354 24.5647 50.5432 25.5226 51.7077 26.2113C52.8723 26.8874 54.2309 27.2255 55.7836 27.2255C56.923 27.2255 57.9122 27.0878 58.7512 26.8123C59.6027 26.5243 60.3039 26.1486 60.8548 25.6853C61.4183 25.222 61.8441 24.7337 62.132 24.2203C62.4326 23.6944 62.6079 23.1998 62.658 22.7365H64.9682C64.9181 23.4753 64.6802 24.2328 64.2545 25.0092C63.8413 25.773 63.2465 26.4867 62.4701 27.1504C61.7063 27.814 60.7547 28.3525 59.6152 28.7657C58.4882 29.1664 57.186 29.3667 55.7084 29.3667C53.7801 29.3667 52.0646 28.9285 50.562 28.0519C49.0719 27.1754 47.8949 25.9671 47.0309 24.4269C46.1794 22.8742 45.7537 21.0899 45.7537 19.0739C45.7537 17.0454 46.1857 15.261 47.0497 13.7209C47.9137 12.1682 49.097 10.9536 50.5996 10.0771C52.1022 9.20055 53.8114 8.76229 55.7272 8.76229C57.6806 8.76229 59.371 9.20681 60.7985 10.0959C62.226 10.9849 63.3279 12.1932 64.1042 13.7209C64.8806 15.236 65.2687 16.9389 65.2687 18.8297C65.2687 18.9925 65.2625 19.1991 65.25 19.4495C65.25 19.7 65.2437 19.8815 65.2312 19.9942H47.106Z" fill="#222222"/>
<path d="M83.2286 28.9911V19.0739C83.2286 18.4603 83.2286 17.972 83.2286 17.6089C83.2286 17.2457 83.2286 16.8889 83.2286 16.5383C83.2286 15.4238 83.0283 14.4534 82.6276 13.627C82.2394 12.788 81.6384 12.1369 80.8245 11.6736C80.0106 11.1978 78.965 10.9598 77.6878 10.9598C76.5608 10.9598 75.5028 11.2416 74.5135 11.8051C73.5243 12.356 72.723 13.1073 72.1094 14.059C71.5083 15.0106 71.2078 16.0812 71.2078 17.2708L69.7991 16.7449C69.7991 15.2297 70.1873 13.8711 70.9637 12.6691C71.7525 11.467 72.7793 10.5153 74.044 9.81411C75.3212 9.1129 76.6735 8.76229 78.101 8.76229C79.6161 8.76229 80.9309 9.05029 82.0453 9.62629C83.1598 10.1898 84.0175 11.0099 84.6185 12.0868C85.2321 13.1511 85.5389 14.4471 85.5389 15.9748C85.5389 16.5007 85.5389 17.0642 85.5389 17.6652C85.5389 18.2662 85.5389 18.8109 85.5389 19.2993V28.9911H83.2286ZM68.8788 28.9911V9.04403H71.2078V28.9911H68.8788Z" fill="#222222"/>
</svg>
