<svg width="86" height="37" viewBox="0 0 86 37" fill="none" xmlns="http://www.w3.org/2000/svg">
<path d="M10.981 28.8639C9.40323 28.8639 7.95698 28.5446 6.6422 27.906C5.32743 27.2548 4.18169 26.322 3.205 25.1074C2.24083 23.8802 1.48953 22.3839 0.951097 20.6183C0.425187 18.8528 0.162231 16.8556 0.162231 14.6267C0.162231 12.3853 0.425187 10.3944 0.951097 8.65387C1.48953 6.90084 2.24083 5.41702 3.205 4.20242C4.18169 2.98781 5.32743 2.06747 6.6422 1.44138C7.9695 0.8153 9.41575 0.502258 10.981 0.502258C12.5587 0.502258 14.0049 0.8153 15.3197 1.44138C16.647 2.06747 17.7928 2.98781 18.7569 4.20242C19.7336 5.41702 20.4849 6.90084 21.0108 8.65387C21.5493 10.3944 21.8185 12.3853 21.8185 14.6267C21.8185 16.8556 21.5493 18.8528 21.0108 20.6183C20.4849 22.3839 19.7336 23.8802 18.7569 25.1074C17.7928 26.322 16.647 27.2548 15.3197 27.906C14.0049 28.5446 12.5587 28.8639 10.981 28.8639ZM10.981 26.7602C12.6463 26.7602 14.1114 26.2907 15.3761 25.3515C16.6533 24.4124 17.6488 23.0413 18.3625 21.2382C19.0888 19.435 19.4519 17.2312 19.4519 14.6267C19.4519 12.0097 19.0888 9.81213 18.3625 8.03405C17.6362 6.24345 16.6345 4.89111 15.3573 3.97702C14.0926 3.06294 12.6338 2.6059 10.981 2.6059C9.34062 2.6059 7.88185 3.06294 6.60464 3.97702C5.32743 4.89111 4.32569 6.24345 3.59943 8.03405C2.87318 9.81213 2.51005 12.0097 2.51005 14.6267C2.51005 17.2437 2.87318 19.4538 3.59943 21.2569C4.32569 23.0601 5.32743 24.4312 6.60464 25.3703C7.88185 26.2969 9.34062 26.7602 10.981 26.7602Z" fill="white"/>
<path d="M25.1286 36.715V8.55996H27.4576V36.715H25.1286ZM34.332 28.8639C32.8044 28.8639 31.3894 28.4945 30.0872 27.7557C28.7849 27.0169 27.7331 26.0152 26.9317 24.7505C26.1429 23.4858 25.7484 22.0646 25.7484 20.4869C25.7484 20.4493 25.7484 20.418 25.7484 20.3929C25.7484 20.3679 25.7484 20.3429 25.7484 20.3178L27.4576 20.2803C27.4576 20.3053 27.4576 20.3303 27.4576 20.3554C27.4576 20.3804 27.4576 20.4055 27.4576 20.4305C27.4576 21.5575 27.7644 22.5968 28.378 23.5484C28.9915 24.5001 29.7929 25.2576 30.7821 25.8211C31.7839 26.3846 32.867 26.6663 34.0315 26.6663C35.9599 26.6663 37.5438 25.9839 38.7835 24.619C40.0357 23.2416 40.6617 21.2131 40.6617 18.5335C40.6617 15.8413 40.0357 13.8128 38.7835 12.4479C37.5438 11.0831 35.9599 10.4006 34.0315 10.4006C32.867 10.4006 31.7839 10.6824 30.7821 11.2459C29.7929 11.8093 28.9915 12.5606 28.378 13.4998C27.7644 14.4389 27.4576 15.4782 27.4576 16.6177L25.7484 16.5613C25.7484 14.9836 26.1429 13.5686 26.9317 12.3165C27.7331 11.0643 28.7849 10.0813 30.0872 9.36761C31.3894 8.64135 32.8044 8.27822 34.332 8.27822C35.9473 8.27822 37.4124 8.67892 38.7271 9.4803C40.0419 10.2692 41.0875 11.4274 41.8638 12.9551C42.6527 14.4827 43.0471 16.3422 43.0471 18.5335C43.0471 20.7498 42.659 22.6281 41.8826 24.1682C41.1188 25.7084 40.0732 26.8792 38.7459 27.6806C37.4312 28.4694 35.9599 28.8639 34.332 28.8639Z" fill="white"/>
<path d="M47.1059 19.5102V17.4253H63.2589L62.8081 18.0639C62.8081 17.9888 62.8081 17.9262 62.8081 17.8761C62.8081 17.8135 62.8081 17.7509 62.8081 17.6883C62.8081 16.3985 62.5326 15.1965 61.9817 14.082C61.4307 12.9676 60.6293 12.0723 59.5775 11.3961C58.5382 10.7199 57.2673 10.3819 55.7647 10.3819C54.237 10.3819 52.8909 10.7325 51.7264 11.4337C50.5619 12.1224 49.6541 13.0803 49.0029 14.3074C48.3518 15.522 48.0263 16.937 48.0263 18.5523C48.0263 20.1801 48.3456 21.6138 48.9842 22.8535C49.6353 24.0806 50.5431 25.0385 51.7076 25.7272C52.8721 26.4034 54.2307 26.7414 55.7834 26.7414C56.9229 26.7414 57.9121 26.6037 58.7511 26.3282C59.6025 26.0402 60.3038 25.6646 60.8547 25.2013C61.4182 24.738 61.8439 24.2496 62.1319 23.7362C62.4324 23.2103 62.6078 22.7157 62.6578 22.2524H64.9681C64.918 22.9912 64.6801 23.7488 64.2544 24.5251C63.8411 25.2889 63.2464 26.0027 62.47 26.6663C61.7062 27.33 60.7545 27.8684 59.6151 28.2816C58.4881 28.6823 57.1859 28.8826 55.7083 28.8826C53.78 28.8826 52.0645 28.4444 50.5619 27.5679C49.0718 26.6914 47.8948 25.483 47.0308 23.9428C46.1793 22.3902 45.7536 20.6058 45.7536 18.5898C45.7536 16.5613 46.1856 14.777 47.0496 13.2368C47.9136 11.6841 49.0969 10.4695 50.5995 9.593C52.1021 8.71648 53.8113 8.27822 55.7271 8.27822C57.6805 8.27822 59.3709 8.72274 60.7984 9.61178C62.2258 10.5008 63.3277 11.7092 64.1041 13.2368C64.8804 14.7519 65.2686 16.4549 65.2686 18.3457C65.2686 18.5084 65.2624 18.715 65.2498 18.9655C65.2498 19.2159 65.2436 19.3975 65.231 19.5102H47.1059Z" fill="white"/>
<path d="M83.2285 28.507V18.5898C83.2285 17.9763 83.2285 17.4879 83.2285 17.1248C83.2285 16.7617 83.2285 16.4048 83.2285 16.0542C83.2285 14.9398 83.0282 13.9693 82.6275 13.1429C82.2393 12.3039 81.6383 11.6528 80.8244 11.1895C80.0104 10.7137 78.9649 10.4758 77.6877 10.4758C76.5607 10.4758 75.5026 10.7575 74.5134 11.321C73.5242 11.8719 72.7228 12.6232 72.1093 13.5749C71.5082 14.5265 71.2077 15.5971 71.2077 16.7867L69.799 16.2608C69.799 14.7457 70.1872 13.3871 70.9635 12.185C71.7524 10.9829 72.7792 10.0313 74.0439 9.33004C75.3211 8.62883 76.6734 8.27822 78.1009 8.27822C79.616 8.27822 80.9308 8.56622 82.0452 9.14222C83.1596 9.70569 84.0174 10.5259 84.6184 11.6027C85.232 12.6671 85.5388 13.9631 85.5388 15.4907C85.5388 16.0166 85.5388 16.5801 85.5388 17.1811C85.5388 17.7822 85.5388 18.3269 85.5388 18.8152V28.507H83.2285ZM68.8787 28.507V8.55996H71.2077V28.507H68.8787Z" fill="white"/>
</svg>
