<svg width="86" height="37" viewBox="0 0 86 37" fill="none" xmlns="http://www.w3.org/2000/svg">
<path d="M10.9808 28.8639C9.40311 28.8639 7.95686 28.5446 6.64208 27.906C5.3273 27.2548 4.18157 26.322 3.20488 25.1074C2.24071 23.8802 1.48941 22.3839 0.950975 20.6183C0.425065 18.8528 0.162109 16.8556 0.162109 14.6267C0.162109 12.3853 0.425065 10.3944 0.950975 8.65387C1.48941 6.90084 2.24071 5.41702 3.20488 4.20242C4.18157 2.98781 5.3273 2.06747 6.64208 1.44138C7.96938 0.8153 9.41563 0.502258 10.9808 0.502258C12.5586 0.502258 14.0048 0.8153 15.3196 1.44138C16.6469 2.06747 17.7926 2.98781 18.7568 4.20242C19.7335 5.41702 20.4848 6.90084 21.0107 8.65387C21.5491 10.3944 21.8184 12.3853 21.8184 14.6267C21.8184 16.8556 21.5491 18.8528 21.0107 20.6183C20.4848 22.3839 19.7335 23.8802 18.7568 25.1074C17.7926 26.322 16.6469 27.2548 15.3196 27.906C14.0048 28.5446 12.5586 28.8639 10.9808 28.8639ZM10.9808 26.7602C12.6462 26.7602 14.1113 26.2907 15.376 25.3515C16.6532 24.4124 17.6486 23.0413 18.3624 21.2382C19.0886 19.435 19.4518 17.2312 19.4518 14.6267C19.4518 12.0097 19.0886 9.81213 18.3624 8.03405C17.6361 6.24345 16.6344 4.89111 15.3572 3.97702C14.0925 3.06294 12.6337 2.6059 10.9808 2.6059C9.3405 2.6059 7.88173 3.06294 6.60451 3.97702C5.3273 4.89111 4.32557 6.24345 3.59931 8.03405C2.87305 9.81213 2.50992 12.0097 2.50992 14.6267C2.50992 17.2437 2.87305 19.4538 3.59931 21.2569C4.32557 23.0601 5.3273 24.4312 6.60451 25.3703C7.88173 26.2969 9.3405 26.7602 10.9808 26.7602Z" fill="white"/>
<path d="M25.1285 36.715V8.55996H27.4575V36.715H25.1285ZM34.3319 28.8639C32.8043 28.8639 31.3893 28.4945 30.0871 27.7557C28.7848 27.0169 27.733 26.0152 26.9316 24.7505C26.1427 23.4858 25.7483 22.0646 25.7483 20.4869C25.7483 20.4493 25.7483 20.418 25.7483 20.3929C25.7483 20.3679 25.7483 20.3429 25.7483 20.3178L27.4575 20.2803C27.4575 20.3053 27.4575 20.3303 27.4575 20.3554C27.4575 20.3804 27.4575 20.4055 27.4575 20.4305C27.4575 21.5575 27.7643 22.5968 28.3779 23.5484C28.9914 24.5001 29.7928 25.2576 30.782 25.8211C31.7838 26.3846 32.8669 26.6663 34.0314 26.6663C35.9597 26.6663 37.5437 25.9839 38.7834 24.619C40.0355 23.2416 40.6616 21.2131 40.6616 18.5335C40.6616 15.8413 40.0355 13.8128 38.7834 12.4479C37.5437 11.0831 35.9597 10.4006 34.0314 10.4006C32.8669 10.4006 31.7838 10.6824 30.782 11.2459C29.7928 11.8093 28.9914 12.5606 28.3779 13.4998C27.7643 14.4389 27.4575 15.4782 27.4575 16.6177L25.7483 16.5613C25.7483 14.9836 26.1427 13.5686 26.9316 12.3165C27.733 11.0643 28.7848 10.0813 30.0871 9.36761C31.3893 8.64135 32.8043 8.27822 34.3319 8.27822C35.9472 8.27822 37.4122 8.67892 38.727 9.4803C40.0418 10.2692 41.0874 11.4274 41.8637 12.9551C42.6526 14.4827 43.047 16.3422 43.047 18.5335C43.047 20.7498 42.6588 22.6281 41.8825 24.1682C41.1187 25.7084 40.0731 26.8792 38.7458 27.6806C37.431 28.4694 35.9597 28.8639 34.3319 28.8639Z" fill="white"/>
<path d="M47.1058 19.5102V17.4253H63.2588L62.808 18.0639C62.808 17.9888 62.808 17.9262 62.808 17.8761C62.808 17.8135 62.808 17.7509 62.808 17.6883C62.808 16.3985 62.5325 15.1965 61.9815 14.082C61.4306 12.9676 60.6292 12.0723 59.5774 11.3961C58.5381 10.7199 57.2671 10.3819 55.7645 10.3819C54.2369 10.3819 52.8908 10.7325 51.7263 11.4337C50.5618 12.1224 49.6539 13.0803 49.0028 14.3074C48.3517 15.522 48.0261 16.937 48.0261 18.5523C48.0261 20.1801 48.3454 21.6138 48.984 22.8535C49.6352 24.0806 50.543 25.0385 51.7075 25.7272C52.872 26.4034 54.2306 26.7414 55.7833 26.7414C56.9228 26.7414 57.912 26.6037 58.7509 26.3282C59.6024 26.0402 60.3036 25.6646 60.8546 25.2013C61.4181 24.738 61.8438 24.2496 62.1318 23.7362C62.4323 23.2103 62.6076 22.7157 62.6577 22.2524H64.968C64.9179 22.9912 64.68 23.7488 64.2542 24.5251C63.841 25.2889 63.2462 26.0027 62.4699 26.6663C61.7061 27.33 60.7544 27.8684 59.6149 28.2816C58.488 28.6823 57.1857 28.8826 55.7082 28.8826C53.7798 28.8826 52.0644 28.4444 50.5618 27.5679C49.0717 26.6914 47.8947 25.483 47.0307 23.9428C46.1792 22.3902 45.7534 20.6058 45.7534 18.5898C45.7534 16.5613 46.1854 14.777 47.0494 13.2368C47.9134 11.6841 49.0967 10.4695 50.5993 9.593C52.1019 8.71648 53.8111 8.27822 55.727 8.27822C57.6803 8.27822 59.3708 8.72274 60.7982 9.61178C62.2257 10.5008 63.3276 11.7092 64.104 13.2368C64.8803 14.7519 65.2685 16.4549 65.2685 18.3457C65.2685 18.5084 65.2622 18.715 65.2497 18.9655C65.2497 19.2159 65.2434 19.3975 65.2309 19.5102H47.1058Z" fill="white"/>
<path d="M83.2284 28.507V18.5898C83.2284 17.9763 83.2284 17.4879 83.2284 17.1248C83.2284 16.7617 83.2284 16.4048 83.2284 16.0542C83.2284 14.9398 83.0281 13.9693 82.6274 13.1429C82.2392 12.3039 81.6381 11.6528 80.8242 11.1895C80.0103 10.7137 78.9648 10.4758 77.6876 10.4758C76.5606 10.4758 75.5025 10.7575 74.5133 11.321C73.5241 11.8719 72.7227 12.6232 72.1091 13.5749C71.5081 14.5265 71.2076 15.5971 71.2076 16.7867L69.7989 16.2608C69.7989 14.7457 70.1871 13.3871 70.9634 12.185C71.7523 10.9829 72.7791 10.0313 74.0437 9.33004C75.321 8.62883 76.6733 8.27822 78.1008 8.27822C79.6159 8.27822 80.9307 8.56622 82.0451 9.14222C83.1595 9.70569 84.0173 10.5259 84.6183 11.6027C85.2319 12.6671 85.5387 13.9631 85.5387 15.4907C85.5387 16.0166 85.5387 16.5801 85.5387 17.1811C85.5387 17.7822 85.5387 18.3269 85.5387 18.8152V28.507H83.2284ZM68.8786 28.507V8.55996H71.2076V28.507H68.8786Z" fill="white"/>
</svg>
