<svg width="86" height="37" viewBox="0 0 86 37" fill="none" xmlns="http://www.w3.org/2000/svg">
<path d="M10.981 28.8639C9.40329 28.8639 7.95703 28.5446 6.64226 27.906C5.32748 27.2548 4.18174 26.322 3.20505 25.1074C2.24088 23.8802 1.48958 22.3839 0.951151 20.6183C0.42524 18.8528 0.162285 16.8556 0.162285 14.6267C0.162285 12.3853 0.42524 10.3944 0.951151 8.65387C1.48958 6.90084 2.24088 5.41702 3.20505 4.20242C4.18174 2.98781 5.32748 2.06747 6.64226 1.44138C7.96955 0.8153 9.41581 0.502258 10.981 0.502258C12.5587 0.502258 14.005 0.8153 15.3198 1.44138C16.6471 2.06747 17.7928 2.98781 18.757 4.20242C19.7337 5.41702 20.485 6.90084 21.0109 8.65387C21.5493 10.3944 21.8185 12.3853 21.8185 14.6267C21.8185 16.8556 21.5493 18.8528 21.0109 20.6183C20.485 22.3839 19.7337 23.8802 18.757 25.1074C17.7928 26.322 16.6471 27.2548 15.3198 27.906C14.005 28.5446 12.5587 28.8639 10.981 28.8639ZM10.981 26.7602C12.6464 26.7602 14.1114 26.2907 15.3761 25.3515C16.6533 24.4124 17.6488 23.0413 18.3625 21.2382C19.0888 19.435 19.4519 17.2312 19.4519 14.6267C19.4519 12.0097 19.0888 9.81213 18.3625 8.03405C17.6363 6.24345 16.6346 4.89111 15.3573 3.97702C14.0927 3.06294 12.6339 2.6059 10.981 2.6059C9.34068 2.6059 7.8819 3.06294 6.60469 3.97702C5.32748 4.89111 4.32574 6.24345 3.59949 8.03405C2.87323 9.81213 2.5101 12.0097 2.5101 14.6267C2.5101 17.2437 2.87323 19.4538 3.59949 21.2569C4.32574 23.0601 5.32748 24.4312 6.60469 25.3703C7.8819 26.2969 9.34068 26.7602 10.981 26.7602Z" fill="white"/>
<path d="M25.1287 36.715V8.55996H27.4577V36.715H25.1287ZM34.3321 28.8639C32.8044 28.8639 31.3895 28.4945 30.0872 27.7557C28.785 27.0169 27.7332 26.0152 26.9318 24.7505C26.1429 23.4858 25.7485 22.0646 25.7485 20.4869C25.7485 20.4493 25.7485 20.418 25.7485 20.3929C25.7485 20.3679 25.7485 20.3429 25.7485 20.3178L27.4577 20.2803C27.4577 20.3053 27.4577 20.3303 27.4577 20.3554C27.4577 20.3804 27.4577 20.4055 27.4577 20.4305C27.4577 21.5575 27.7645 22.5968 28.378 23.5484C28.9916 24.5001 29.793 25.2576 30.7822 25.8211C31.7839 26.3846 32.8671 26.6663 34.0316 26.6663C35.9599 26.6663 37.5439 25.9839 38.7835 24.619C40.0357 23.2416 40.6618 21.2131 40.6618 18.5335C40.6618 15.8413 40.0357 13.8128 38.7835 12.4479C37.5439 11.0831 35.9599 10.4006 34.0316 10.4006C32.8671 10.4006 31.7839 10.6824 30.7822 11.2459C29.793 11.8093 28.9916 12.5606 28.378 13.4998C27.7645 14.4389 27.4577 15.4782 27.4577 16.6177L25.7485 16.5613C25.7485 14.9836 26.1429 13.5686 26.9318 12.3165C27.7332 11.0643 28.785 10.0813 30.0872 9.36761C31.3895 8.64135 32.8044 8.27822 34.3321 8.27822C35.9474 8.27822 37.4124 8.67892 38.7272 9.4803C40.042 10.2692 41.0875 11.4274 41.8639 12.9551C42.6527 14.4827 43.0472 16.3422 43.0472 18.5335C43.0472 20.7498 42.659 22.6281 41.8827 24.1682C41.1188 25.7084 40.0733 26.8792 38.746 27.6806C37.4312 28.4694 35.9599 28.8639 34.3321 28.8639Z" fill="white"/>
<path d="M47.106 19.5102V17.4253H63.2589L62.8082 18.0639C62.8082 17.9888 62.8082 17.9262 62.8082 17.8761C62.8082 17.8135 62.8082 17.7509 62.8082 17.6883C62.8082 16.3985 62.5327 15.1965 61.9817 14.082C61.4308 12.9676 60.6294 12.0723 59.5776 11.3961C58.5383 10.7199 57.2673 10.3819 55.7647 10.3819C54.2371 10.3819 52.891 10.7325 51.7265 11.4337C50.5619 12.1224 49.6541 13.0803 49.003 14.3074C48.3519 15.522 48.0263 16.937 48.0263 18.5523C48.0263 20.1801 48.3456 21.6138 48.9842 22.8535C49.6353 24.0806 50.5432 25.0385 51.7077 25.7272C52.8722 26.4034 54.2308 26.7414 55.7835 26.7414C56.923 26.7414 57.9122 26.6037 58.7511 26.3282C59.6026 26.0402 60.3038 25.6646 60.8548 25.2013C61.4182 24.738 61.844 24.2496 62.132 23.7362C62.4325 23.2103 62.6078 22.7157 62.6579 22.2524H64.9681C64.9181 22.9912 64.6801 23.7488 64.2544 24.5251C63.8412 25.2889 63.2464 26.0027 62.4701 26.6663C61.7062 27.33 60.7546 27.8684 59.6151 28.2816C58.4882 28.6823 57.1859 28.8826 55.7084 28.8826C53.78 28.8826 52.0645 28.4444 50.5619 27.5679C49.0719 26.6914 47.8948 25.483 47.0308 23.9428C46.1794 22.3902 45.7536 20.6058 45.7536 18.5898C45.7536 16.5613 46.1856 14.777 47.0496 13.2368C47.9136 11.6841 49.0969 10.4695 50.5995 9.593C52.1021 8.71648 53.8113 8.27822 55.7271 8.27822C57.6805 8.27822 59.3709 8.72274 60.7984 9.61178C62.2259 10.5008 63.3278 11.7092 64.1041 13.2368C64.8805 14.7519 65.2687 16.4549 65.2687 18.3457C65.2687 18.5084 65.2624 18.715 65.2499 18.9655C65.2499 19.2159 65.2436 19.3975 65.2311 19.5102H47.106Z" fill="white"/>
<path d="M83.2286 28.507V18.5898C83.2286 17.9763 83.2286 17.4879 83.2286 17.1248C83.2286 16.7617 83.2286 16.4048 83.2286 16.0542C83.2286 14.9398 83.0282 13.9693 82.6275 13.1429C82.2394 12.3039 81.6383 11.6528 80.8244 11.1895C80.0105 10.7137 78.9649 10.4758 77.6877 10.4758C76.5608 10.4758 75.5027 10.7575 74.5135 11.321C73.5243 11.8719 72.7229 12.6232 72.1093 13.5749C71.5083 14.5265 71.2078 15.5971 71.2078 16.7867L69.7991 16.2608C69.7991 14.7457 70.1872 13.3871 70.9636 12.185C71.7524 10.9829 72.7792 10.0313 74.0439 9.33004C75.3211 8.62883 76.6735 8.27822 78.1009 8.27822C79.6161 8.27822 80.9308 8.56622 82.0453 9.14222C83.1597 9.70569 84.0174 10.5259 84.6185 11.6027C85.232 12.6671 85.5388 13.9631 85.5388 15.4907C85.5388 16.0166 85.5388 16.5801 85.5388 17.1811C85.5388 17.7822 85.5388 18.3269 85.5388 18.8152V28.507H83.2286ZM68.8787 28.507V8.55996H71.2078V28.507H68.8787Z" fill="white"/>
</svg>
