<svg width="86" height="38" viewBox="0 0 86 38" fill="none" xmlns="http://www.w3.org/2000/svg">
<path d="M10.981 29.3479C9.40329 29.3479 7.95704 29.0286 6.64226 28.39C5.32749 27.7389 4.18175 26.806 3.20506 25.5914C2.24089 24.3643 1.48959 22.868 0.951158 21.1024C0.425248 19.3369 0.162292 17.3396 0.162292 15.1108C0.162292 12.8694 0.425248 10.8785 0.951158 9.13794C1.48959 7.38491 2.24089 5.90109 3.20506 4.68649C4.18175 3.47188 5.32749 2.55154 6.64226 1.92545C7.96956 1.29937 9.41582 0.986328 10.981 0.986328C12.5588 0.986328 14.005 1.29937 15.3198 1.92545C16.6471 2.55154 17.7928 3.47188 18.757 4.68649C19.7337 5.90109 20.485 7.38491 21.0109 9.13794C21.5493 10.8785 21.8185 12.8694 21.8185 15.1108C21.8185 17.3396 21.5493 19.3369 21.0109 21.1024C20.485 22.868 19.7337 24.3643 18.757 25.5914C17.7928 26.806 16.6471 27.7389 15.3198 28.39C14.005 29.0286 12.5588 29.3479 10.981 29.3479ZM10.981 27.2443C12.6464 27.2443 14.1114 26.7747 15.3761 25.8356C16.6533 24.8965 17.6488 23.5254 18.3626 21.7222C19.0888 19.9191 19.4519 17.7153 19.4519 15.1108C19.4519 12.4938 19.0888 10.2962 18.3626 8.51812C17.6363 6.72752 16.6346 5.37518 15.3574 4.46109C14.0927 3.54701 12.6339 3.08997 10.981 3.08997C9.34068 3.08997 7.88191 3.54701 6.6047 4.46109C5.32749 5.37518 4.32575 6.72752 3.59949 8.51812C2.87324 10.2962 2.51011 12.4938 2.51011 15.1108C2.51011 17.7278 2.87324 19.9379 3.59949 21.741C4.32575 23.5441 5.32749 24.9153 6.6047 25.8544C7.88191 26.781 9.34068 27.2443 10.981 27.2443Z" fill="#222222"/>
<path d="M25.1287 37.199V9.04403H27.4577V37.199H25.1287ZM34.3321 29.3479C32.8045 29.3479 31.3895 28.9785 30.0872 28.2398C28.785 27.501 27.7332 26.4993 26.9318 25.2346C26.1429 23.9699 25.7485 22.5487 25.7485 20.9709C25.7485 20.9334 25.7485 20.9021 25.7485 20.877C25.7485 20.852 25.7485 20.8269 25.7485 20.8019L27.4577 20.7643C27.4577 20.7894 27.4577 20.8144 27.4577 20.8395C27.4577 20.8645 27.4577 20.8895 27.4577 20.9146C27.4577 22.0415 27.7645 23.0808 28.378 24.0325C28.9916 24.9841 29.793 25.7417 30.7822 26.3052C31.7839 26.8686 32.8671 27.1504 34.0316 27.1504C35.9599 27.1504 37.5439 26.4679 38.7836 25.1031C40.0357 23.7257 40.6618 21.6972 40.6618 19.0175C40.6618 16.3254 40.0357 14.2969 38.7836 12.932C37.5439 11.5671 35.9599 10.8847 34.0316 10.8847C32.8671 10.8847 31.7839 11.1665 30.7822 11.7299C29.793 12.2934 28.9916 13.0447 28.378 13.9838C27.7645 14.923 27.4577 15.9623 27.4577 17.1017L25.7485 17.0454C25.7485 15.4677 26.1429 14.0527 26.9318 12.8005C27.7332 11.5484 28.785 10.5654 30.0872 9.85168C31.3895 9.12542 32.8045 8.76229 34.3321 8.76229C35.9474 8.76229 37.4124 9.16299 38.7272 9.96437C40.042 10.7532 41.0875 11.9115 41.8639 13.4391C42.6528 14.9668 43.0472 16.8263 43.0472 19.0175C43.0472 21.2339 42.659 23.1121 41.8827 24.6523C41.1189 26.1925 40.0733 27.3632 38.746 28.1646C37.4312 28.9535 35.9599 29.3479 34.3321 29.3479Z" fill="#222222"/>
<path d="M47.106 19.9942V17.9094H63.2589L62.8082 18.548C62.8082 18.4729 62.8082 18.4102 62.8082 18.3602C62.8082 18.2976 62.8082 18.2349 62.8082 18.1723C62.8082 16.8826 62.5327 15.6805 61.9817 14.5661C61.4308 13.4517 60.6294 12.5564 59.5776 11.8802C58.5383 11.204 57.2673 10.8659 55.7647 10.8659C54.2371 10.8659 52.891 11.2165 51.7265 11.9178C50.562 12.6064 49.6541 13.5644 49.003 14.7915C48.3519 16.0061 48.0263 17.421 48.0263 19.0363C48.0263 20.6642 48.3456 22.0979 48.9842 23.3375C49.6353 24.5647 50.5432 25.5226 51.7077 26.2113C52.8722 26.8874 54.2308 27.2255 55.7835 27.2255C56.923 27.2255 57.9122 27.0878 58.7511 26.8123C59.6026 26.5243 60.3038 26.1486 60.8548 25.6853C61.4183 25.222 61.844 24.7337 62.132 24.2203C62.4325 23.6944 62.6078 23.1998 62.6579 22.7365H64.9682C64.9181 23.4753 64.6802 24.2328 64.2544 25.0092C63.8412 25.773 63.2464 26.4867 62.4701 27.1504C61.7062 27.814 60.7546 28.3525 59.6151 28.7657C58.4882 29.1664 57.1859 29.3667 55.7084 29.3667C53.78 29.3667 52.0646 28.9285 50.562 28.0519C49.0719 27.1754 47.8948 25.9671 47.0308 24.4269C46.1794 22.8742 45.7536 21.0899 45.7536 19.0739C45.7536 17.0454 46.1856 15.261 47.0496 13.7209C47.9136 12.1682 49.0969 10.9536 50.5995 10.0771C52.1021 9.20055 53.8113 8.76229 55.7271 8.76229C57.6805 8.76229 59.371 9.20681 60.7984 10.0959C62.2259 10.9849 63.3278 12.1932 64.1042 13.7209C64.8805 15.236 65.2687 16.9389 65.2687 18.8297C65.2687 18.9925 65.2624 19.1991 65.2499 19.4495C65.2499 19.7 65.2436 19.8815 65.2311 19.9942H47.106Z" fill="#222222"/>
<path d="M83.2286 28.9911V19.0739C83.2286 18.4603 83.2286 17.972 83.2286 17.6089C83.2286 17.2457 83.2286 16.8889 83.2286 16.5383C83.2286 15.4238 83.0282 14.4534 82.6275 13.627C82.2394 12.788 81.6383 12.1369 80.8244 11.6736C80.0105 11.1978 78.965 10.9598 77.6877 10.9598C76.5608 10.9598 75.5027 11.2416 74.5135 11.8051C73.5243 12.356 72.7229 13.1073 72.1093 14.059C71.5083 15.0106 71.2078 16.0812 71.2078 17.2708L69.7991 16.7449C69.7991 15.2297 70.1872 13.8711 70.9636 12.6691C71.7525 11.467 72.7792 10.5153 74.0439 9.81411C75.3211 9.1129 76.6735 8.76229 78.101 8.76229C79.6161 8.76229 80.9309 9.05029 82.0453 9.62629C83.1597 10.1898 84.0174 11.0099 84.6185 12.0868C85.232 13.1511 85.5388 14.4471 85.5388 15.9748C85.5388 16.5007 85.5388 17.0642 85.5388 17.6652C85.5388 18.2662 85.5388 18.8109 85.5388 19.2993V28.9911H83.2286ZM68.8787 28.9911V9.04403H71.2078V28.9911H68.8787Z" fill="#222222"/>
</svg>
