<svg width="86" height="38" viewBox="0 0 86 38" fill="none" xmlns="http://www.w3.org/2000/svg">
<path d="M10.981 29.3479C9.40323 29.3479 7.95698 29.0286 6.6422 28.39C5.32743 27.7389 4.18169 26.806 3.205 25.5914C2.24083 24.3643 1.48953 22.868 0.951097 21.1024C0.425187 19.3369 0.162231 17.3396 0.162231 15.1108C0.162231 12.8694 0.425187 10.8785 0.951097 9.13794C1.48953 7.38491 2.24083 5.90109 3.205 4.68649C4.18169 3.47188 5.32743 2.55154 6.6422 1.92545C7.9695 1.29937 9.41575 0.986328 10.981 0.986328C12.5587 0.986328 14.0049 1.29937 15.3197 1.92545C16.647 2.55154 17.7928 3.47188 18.7569 4.68649C19.7336 5.90109 20.4849 7.38491 21.0108 9.13794C21.5493 10.8785 21.8185 12.8694 21.8185 15.1108C21.8185 17.3396 21.5493 19.3369 21.0108 21.1024C20.4849 22.868 19.7336 24.3643 18.7569 25.5914C17.7928 26.806 16.647 27.7389 15.3197 28.39C14.0049 29.0286 12.5587 29.3479 10.981 29.3479ZM10.981 27.2443C12.6463 27.2443 14.1114 26.7747 15.3761 25.8356C16.6533 24.8965 17.6488 23.5254 18.3625 21.7222C19.0888 19.9191 19.4519 17.7153 19.4519 15.1108C19.4519 12.4938 19.0888 10.2962 18.3625 8.51812C17.6362 6.72752 16.6345 5.37518 15.3573 4.46109C14.0926 3.54701 12.6338 3.08997 10.981 3.08997C9.34062 3.08997 7.88185 3.54701 6.60464 4.46109C5.32743 5.37518 4.32569 6.72752 3.59943 8.51812C2.87318 10.2962 2.51005 12.4938 2.51005 15.1108C2.51005 17.7278 2.87318 19.9379 3.59943 21.741C4.32569 23.5441 5.32743 24.9153 6.60464 25.8544C7.88185 26.781 9.34062 27.2443 10.981 27.2443Z" fill="#222222"/>
<path d="M25.1286 37.199V9.04403H27.4576V37.199H25.1286ZM34.332 29.3479C32.8044 29.3479 31.3894 28.9785 30.0872 28.2398C28.7849 27.501 27.7331 26.4993 26.9317 25.2346C26.1429 23.9699 25.7484 22.5487 25.7484 20.9709C25.7484 20.9334 25.7484 20.9021 25.7484 20.877C25.7484 20.852 25.7484 20.8269 25.7484 20.8019L27.4576 20.7643C27.4576 20.7894 27.4576 20.8144 27.4576 20.8395C27.4576 20.8645 27.4576 20.8895 27.4576 20.9146C27.4576 22.0415 27.7644 23.0808 28.378 24.0325C28.9915 24.9841 29.7929 25.7417 30.7821 26.3052C31.7839 26.8686 32.867 27.1504 34.0315 27.1504C35.9599 27.1504 37.5438 26.4679 38.7835 25.1031C40.0357 23.7257 40.6617 21.6972 40.6617 19.0175C40.6617 16.3254 40.0357 14.2969 38.7835 12.932C37.5438 11.5671 35.9599 10.8847 34.0315 10.8847C32.867 10.8847 31.7839 11.1665 30.7821 11.7299C29.7929 12.2934 28.9915 13.0447 28.378 13.9838C27.7644 14.923 27.4576 15.9623 27.4576 17.1017L25.7484 17.0454C25.7484 15.4677 26.1429 14.0527 26.9317 12.8005C27.7331 11.5484 28.7849 10.5654 30.0872 9.85168C31.3894 9.12542 32.8044 8.76229 34.332 8.76229C35.9473 8.76229 37.4124 9.16299 38.7271 9.96437C40.0419 10.7532 41.0875 11.9115 41.8638 13.4391C42.6527 14.9668 43.0471 16.8263 43.0471 19.0175C43.0471 21.2339 42.659 23.1121 41.8826 24.6523C41.1188 26.1925 40.0732 27.3632 38.7459 28.1646C37.4312 28.9535 35.9599 29.3479 34.332 29.3479Z" fill="#222222"/>
<path d="M47.1059 19.9942V17.9094H63.2589L62.8081 18.548C62.8081 18.4729 62.8081 18.4102 62.8081 18.3602C62.8081 18.2976 62.8081 18.2349 62.8081 18.1723C62.8081 16.8826 62.5326 15.6805 61.9817 14.5661C61.4307 13.4517 60.6293 12.5564 59.5775 11.8802C58.5382 11.204 57.2673 10.8659 55.7647 10.8659C54.237 10.8659 52.8909 11.2165 51.7264 11.9178C50.5619 12.6064 49.6541 13.5644 49.0029 14.7915C48.3518 16.0061 48.0263 17.421 48.0263 19.0363C48.0263 20.6642 48.3456 22.0979 48.9842 23.3375C49.6353 24.5647 50.5431 25.5226 51.7076 26.2113C52.8721 26.8874 54.2307 27.2255 55.7834 27.2255C56.9229 27.2255 57.9121 27.0878 58.7511 26.8123C59.6025 26.5243 60.3038 26.1486 60.8547 25.6853C61.4182 25.222 61.8439 24.7337 62.1319 24.2203C62.4324 23.6944 62.6078 23.1998 62.6578 22.7365H64.9681C64.918 23.4753 64.6801 24.2328 64.2544 25.0092C63.8411 25.773 63.2464 26.4867 62.47 27.1504C61.7062 27.814 60.7545 28.3525 59.6151 28.7657C58.4881 29.1664 57.1859 29.3667 55.7083 29.3667C53.78 29.3667 52.0645 28.9285 50.5619 28.0519C49.0718 27.1754 47.8948 25.9671 47.0308 24.4269C46.1793 22.8742 45.7536 21.0899 45.7536 19.0739C45.7536 17.0454 46.1856 15.261 47.0496 13.7209C47.9136 12.1682 49.0969 10.9536 50.5995 10.0771C52.1021 9.20055 53.8113 8.76229 55.7271 8.76229C57.6805 8.76229 59.3709 9.20681 60.7984 10.0959C62.2258 10.9849 63.3277 12.1932 64.1041 13.7209C64.8804 15.236 65.2686 16.9389 65.2686 18.8297C65.2686 18.9925 65.2624 19.1991 65.2498 19.4495C65.2498 19.7 65.2436 19.8815 65.231 19.9942H47.1059Z" fill="#222222"/>
<path d="M83.2285 28.9911V19.0739C83.2285 18.4603 83.2285 17.972 83.2285 17.6089C83.2285 17.2457 83.2285 16.8889 83.2285 16.5383C83.2285 15.4238 83.0282 14.4534 82.6275 13.627C82.2393 12.788 81.6383 12.1369 80.8244 11.6736C80.0104 11.1978 78.9649 10.9598 77.6877 10.9598C76.5607 10.9598 75.5026 11.2416 74.5134 11.8051C73.5242 12.356 72.7228 13.1073 72.1093 14.059C71.5082 15.0106 71.2077 16.0812 71.2077 17.2708L69.799 16.7449C69.799 15.2297 70.1872 13.8711 70.9635 12.6691C71.7524 11.467 72.7792 10.5153 74.0439 9.81411C75.3211 9.1129 76.6734 8.76229 78.1009 8.76229C79.616 8.76229 80.9308 9.05029 82.0452 9.62629C83.1596 10.1898 84.0174 11.0099 84.6184 12.0868C85.232 13.1511 85.5388 14.4471 85.5388 15.9748C85.5388 16.5007 85.5388 17.0642 85.5388 17.6652C85.5388 18.2662 85.5388 18.8109 85.5388 19.2993V28.9911H83.2285ZM68.8787 28.9911V9.04403H71.2077V28.9911H68.8787Z" fill="#222222"/>
</svg>
