<svg width="87" height="37" viewBox="0 0 87 37" fill="none" xmlns="http://www.w3.org/2000/svg">
<path d="M11.6508 28.8638C10.073 28.8638 8.62678 28.5445 7.312 27.9059C5.99722 27.2547 4.85149 26.3219 3.8748 25.1073C2.91063 23.8801 2.15933 22.3838 1.6209 20.6182C1.09499 18.8527 0.832031 16.8555 0.832031 14.6266C0.832031 12.3852 1.09499 10.3943 1.6209 8.65378C2.15933 6.90075 2.91063 5.41693 3.8748 4.20232C4.85149 2.98772 5.99722 2.06738 7.312 1.44129C8.6393 0.815208 10.0856 0.502167 11.6508 0.502167C13.2285 0.502167 14.6747 0.815208 15.9895 1.44129C17.3168 2.06738 18.4626 2.98772 19.4267 4.20232C20.4034 5.41693 21.1547 6.90075 21.6806 8.65378C22.2191 10.3943 22.4883 12.3852 22.4883 14.6266C22.4883 16.8555 22.2191 18.8527 21.6806 20.6182C21.1547 22.3838 20.4034 23.8801 19.4267 25.1073C18.4626 26.3219 17.3168 27.2547 15.9895 27.9059C14.6747 28.5445 13.2285 28.8638 11.6508 28.8638ZM11.6508 26.7601C13.3161 26.7601 14.7812 26.2906 16.0459 25.3514C17.3231 24.4123 18.3186 23.0412 19.0323 21.2381C19.7586 19.4349 20.1217 17.2311 20.1217 14.6266C20.1217 12.0096 19.7586 9.81204 19.0323 8.03396C18.306 6.24336 17.3043 4.89102 16.0271 3.97693C14.7624 3.06285 13.3036 2.60581 11.6508 2.60581C10.0104 2.60581 8.55165 3.06285 7.27444 3.97693C5.99722 4.89102 4.99549 6.24336 4.26923 8.03396C3.54297 9.81204 3.17985 12.0096 3.17985 14.6266C3.17985 17.2437 3.54297 19.4537 4.26923 21.2569C4.99549 23.06 5.99722 24.4311 7.27444 25.3702C8.55165 26.2968 10.0104 26.7601 11.6508 26.7601Z" fill="#222222"/>
<path d="M25.7984 36.7149V8.55987H28.1274V36.7149H25.7984ZM35.0018 28.8638C33.4742 28.8638 32.0592 28.4944 30.757 27.7556C29.4547 27.0168 28.4029 26.0151 27.6015 24.7504C26.8127 23.4857 26.4182 22.0645 26.4182 20.4868C26.4182 20.4492 26.4182 20.4179 26.4182 20.3929C26.4182 20.3678 26.4182 20.3428 26.4182 20.3177L28.1274 20.2802C28.1274 20.3052 28.1274 20.3302 28.1274 20.3553C28.1274 20.3803 28.1274 20.4054 28.1274 20.4304C28.1274 21.5574 28.4342 22.5967 29.0478 23.5483C29.6613 24.5 30.4627 25.2575 31.4519 25.821C32.4537 26.3845 33.5368 26.6662 34.7013 26.6662C36.6297 26.6662 38.2136 25.9838 39.4533 24.6189C40.7055 23.2415 41.3315 21.213 41.3315 18.5334C41.3315 15.8412 40.7055 13.8127 39.4533 12.4479C38.2136 11.083 36.6297 10.4006 34.7013 10.4006C33.5368 10.4006 32.4537 10.6823 31.4519 11.2458C30.4627 11.8092 29.6613 12.5605 29.0478 13.4997C28.4342 14.4388 28.1274 15.4781 28.1274 16.6176L26.4182 16.5612C26.4182 14.9835 26.8127 13.5685 27.6015 12.3164C28.4029 11.0642 29.4547 10.0813 30.757 9.36752C32.0592 8.64126 33.4742 8.27813 35.0018 8.27813C36.6171 8.27813 38.0822 8.67882 39.3969 9.48021C40.7117 10.2691 41.7573 11.4273 42.5336 12.955C43.3225 14.4826 43.7169 16.3421 43.7169 18.5334C43.7169 20.7497 43.3288 22.628 42.5524 24.1681C41.7886 25.7083 40.743 26.8791 39.4157 27.6805C38.101 28.4693 36.6297 28.8638 35.0018 28.8638Z" fill="#222222"/>
<path d="M47.7757 19.5101V17.4252H63.9287L63.4779 18.0638C63.4779 17.9887 63.4779 17.9261 63.4779 17.876C63.4779 17.8134 63.4779 17.7508 63.4779 17.6882C63.4779 16.3984 63.2024 15.1964 62.6515 14.0819C62.1005 12.9675 61.2991 12.0722 60.2473 11.396C59.208 10.7199 57.9371 10.3818 56.4345 10.3818C54.9068 10.3818 53.5607 10.7324 52.3962 11.4336C51.2317 12.1223 50.3239 13.0802 49.6727 14.3073C49.0216 15.5219 48.6961 16.9369 48.6961 18.5522C48.6961 20.18 49.0154 21.6137 49.654 22.8534C50.3051 24.0805 51.2129 25.0384 52.3774 25.7271C53.5419 26.4033 54.9005 26.7413 56.4532 26.7413C57.5927 26.7413 58.5819 26.6036 59.4209 26.3281C60.2723 26.0401 60.9736 25.6645 61.5245 25.2012C62.088 24.7379 62.5137 24.2495 62.8017 23.7361C63.1022 23.2102 63.2776 22.7156 63.3276 22.2523H65.6379C65.5878 22.9911 65.3499 23.7487 64.9242 24.525C64.5109 25.2888 63.9162 26.0026 63.1398 26.6662C62.376 27.3299 61.4243 27.8683 60.2849 28.2815C59.1579 28.6822 57.8557 28.8826 56.3781 28.8826C54.4498 28.8826 52.7343 28.4443 51.2317 27.5678C49.7416 26.6913 48.5646 25.4829 47.7006 23.9428C46.8491 22.3901 46.4234 20.6057 46.4234 18.5897C46.4234 16.5612 46.8554 14.7769 47.7194 13.2367C48.5834 11.684 49.7667 10.4694 51.2693 9.59291C52.7719 8.71639 54.4811 8.27813 56.3969 8.27813C58.3503 8.27813 60.0407 8.72265 61.4682 9.61169C62.8956 10.5007 63.9975 11.7091 64.7739 13.2367C65.5502 14.7518 65.9384 16.4548 65.9384 18.3456C65.9384 18.5083 65.9322 18.715 65.9196 18.9654C65.9196 19.2158 65.9134 19.3974 65.9008 19.5101H47.7757Z" fill="#222222"/>
<path d="M83.8983 28.5069V18.5897C83.8983 17.9762 83.8983 17.4878 83.8983 17.1247C83.8983 16.7616 83.8983 16.4047 83.8983 16.0541C83.8983 14.9397 83.698 13.9692 83.2973 13.1428C82.9091 12.3039 82.3081 11.6527 81.4942 11.1894C80.6802 10.7136 79.6347 10.4757 78.3575 10.4757C77.2305 10.4757 76.1724 10.7574 75.1832 11.3209C74.194 11.8719 73.3926 12.6232 72.7791 13.5748C72.178 14.5264 71.8775 15.5971 71.8775 16.7866L70.4688 16.2607C70.4688 14.7456 70.857 13.387 71.6333 12.1849C72.4222 10.9828 73.449 10.0312 74.7137 9.32995C75.9909 8.62874 77.3432 8.27813 78.7707 8.27813C80.2858 8.27813 81.6006 8.56613 82.715 9.14213C83.8294 9.7056 84.6872 10.5258 85.2882 11.6026C85.9018 12.667 86.2086 13.963 86.2086 15.4906C86.2086 16.0165 86.2086 16.58 86.2086 17.181C86.2086 17.7821 86.2086 18.3268 86.2086 18.8151V28.5069H83.8983ZM69.5485 28.5069V8.55987H71.8775V28.5069H69.5485Z" fill="#222222"/>
</svg>
