<svg width="86" height="37" viewBox="0 0 86 37" fill="none" xmlns="http://www.w3.org/2000/svg">
<path d="M10.981 28.8636C9.40329 28.8636 7.95703 28.5443 6.64225 27.9057C5.32748 27.2545 4.18174 26.3217 3.20505 25.1071C2.24088 23.8799 1.48958 22.3836 0.951149 20.618C0.425238 18.8525 0.162283 16.8553 0.162283 14.6264C0.162283 12.385 0.425238 10.3941 0.951149 8.65357C1.48958 6.90053 2.24088 5.41671 3.20505 4.20211C4.18174 2.98751 5.32748 2.06716 6.64225 1.44108C7.96955 0.814995 9.41581 0.501953 10.981 0.501953C12.5587 0.501953 14.005 0.814995 15.3198 1.44108C16.6471 2.06716 17.7928 2.98751 18.757 4.20211C19.7337 5.41671 20.485 6.90053 21.0109 8.65357C21.5493 10.3941 21.8185 12.385 21.8185 14.6264C21.8185 16.8553 21.5493 18.8525 21.0109 20.618C20.485 22.3836 19.7337 23.8799 18.757 25.1071C17.7928 26.3217 16.6471 27.2545 15.3198 27.9057C14.005 28.5443 12.5587 28.8636 10.981 28.8636ZM10.981 26.7599C12.6464 26.7599 14.1114 26.2904 15.3761 25.3512C16.6533 24.4121 17.6488 23.041 18.3625 21.2379C19.0888 19.4347 19.4519 17.2309 19.4519 14.6264C19.4519 12.0094 19.0888 9.81182 18.3625 8.03374C17.6363 6.24314 16.6346 4.8908 15.3573 3.97672C14.0927 3.06264 12.6339 2.6056 10.981 2.6056C9.34068 2.6056 7.8819 3.06264 6.60469 3.97672C5.32748 4.8908 4.32574 6.24314 3.59948 8.03374C2.87323 9.81182 2.5101 12.0094 2.5101 14.6264C2.5101 17.2434 2.87323 19.4535 3.59948 21.2566C4.32574 23.0598 5.32748 24.4309 6.60469 25.37C7.8819 26.2966 9.34068 26.7599 10.981 26.7599Z" fill="#222222"/>
<path d="M25.1287 36.7147V8.55966H27.4577V36.7147H25.1287ZM34.3321 28.8636C32.8044 28.8636 31.3895 28.4942 30.0872 27.7554C28.785 27.0166 27.7332 26.0149 26.9318 24.7502C26.1429 23.4855 25.7485 22.0643 25.7485 20.4866C25.7485 20.449 25.7485 20.4177 25.7485 20.3926C25.7485 20.3676 25.7485 20.3426 25.7485 20.3175L27.4577 20.2799C27.4577 20.305 27.4577 20.33 27.4577 20.3551C27.4577 20.3801 27.4577 20.4052 27.4577 20.4302C27.4577 21.5572 27.7645 22.5965 28.378 23.5481C28.9916 24.4998 29.793 25.2573 30.7822 25.8208C31.7839 26.3843 32.8671 26.666 34.0316 26.666C35.9599 26.666 37.5439 25.9836 38.7835 24.6187C40.0357 23.2413 40.6618 21.2128 40.6618 18.5332C40.6618 15.841 40.0357 13.8125 38.7835 12.4476C37.5439 11.0828 35.9599 10.4003 34.0316 10.4003C32.8671 10.4003 31.7839 10.6821 30.7822 11.2456C29.793 11.809 28.9916 12.5603 28.378 13.4995C27.7645 14.4386 27.4577 15.4779 27.4577 16.6174L25.7485 16.561C25.7485 14.9833 26.1429 13.5683 26.9318 12.3162C27.7332 11.064 28.785 10.081 30.0872 9.3673C31.3895 8.64105 32.8044 8.27792 34.3321 8.27792C35.9474 8.27792 37.4124 8.67861 38.7272 9.48C40.042 10.2689 41.0875 11.4271 41.8639 12.9548C42.6527 14.4824 43.0472 16.3419 43.0472 18.5332C43.0472 20.7495 42.659 22.6278 41.8827 24.1679C41.1188 25.7081 40.0733 26.8789 38.746 27.6803C37.4312 28.4691 35.9599 28.8636 34.3321 28.8636Z" fill="#222222"/>
<path d="M47.106 19.5099V17.425H63.2589L62.8082 18.0636C62.8082 17.9885 62.8082 17.9259 62.8082 17.8758C62.8082 17.8132 62.8082 17.7506 62.8082 17.688C62.8082 16.3982 62.5327 15.1961 61.9817 14.0817C61.4308 12.9673 60.6294 12.072 59.5776 11.3958C58.5383 10.7196 57.2673 10.3816 55.7647 10.3816C54.2371 10.3816 52.891 10.7322 51.7265 11.4334C50.5619 12.1221 49.6541 13.08 49.003 14.3071C48.3519 15.5217 48.0263 16.9367 48.0263 18.552C48.0263 20.1798 48.3456 21.6135 48.9842 22.8532C49.6353 24.0803 50.5432 25.0382 51.7077 25.7269C52.8722 26.403 54.2308 26.7411 55.7835 26.7411C56.923 26.7411 57.9122 26.6034 58.7511 26.3279C59.6026 26.0399 60.3038 25.6643 60.8548 25.201C61.4182 24.7377 61.844 24.2493 62.132 23.7359C62.4325 23.21 62.6078 22.7154 62.6579 22.2521H64.9681C64.9181 22.9909 64.6801 23.7485 64.2544 24.5248C63.8412 25.2886 63.2464 26.0024 62.4701 26.666C61.7062 27.3297 60.7546 27.8681 59.6151 28.2813C58.4882 28.682 57.1859 28.8823 55.7084 28.8823C53.78 28.8823 52.0645 28.4441 50.5619 27.5676C49.0719 26.691 47.8948 25.4827 47.0308 23.9425C46.1794 22.3899 45.7536 20.6055 45.7536 18.5895C45.7536 16.561 46.1856 14.7767 47.0496 13.2365C47.9136 11.6838 49.0969 10.4692 50.5995 9.59269C52.1021 8.71618 53.8113 8.27792 55.7271 8.27792C57.6805 8.27792 59.3709 8.72244 60.7984 9.61148C62.2259 10.5005 63.3278 11.7089 64.1041 13.2365C64.8805 14.7516 65.2687 16.4546 65.2687 18.3453C65.2687 18.5081 65.2624 18.7147 65.2499 18.9652C65.2499 19.2156 65.2436 19.3972 65.2311 19.5099H47.106Z" fill="#222222"/>
<path d="M83.2286 28.5067V18.5895C83.2286 17.976 83.2286 17.4876 83.2286 17.1245C83.2286 16.7614 83.2286 16.4045 83.2286 16.0539C83.2286 14.9395 83.0282 13.969 82.6275 13.1426C82.2394 12.3036 81.6383 11.6525 80.8244 11.1892C80.0105 10.7134 78.9649 10.4755 77.6877 10.4755C76.5608 10.4755 75.5027 10.7572 74.5135 11.3207C73.5243 11.8716 72.7229 12.6229 72.1093 13.5746C71.5083 14.5262 71.2078 15.5968 71.2078 16.7864L69.7991 16.2605C69.7991 14.7454 70.1872 13.3868 70.9636 12.1847C71.7524 10.9826 72.7792 10.031 74.0439 9.32974C75.3211 8.62852 76.6735 8.27792 78.1009 8.27792C79.6161 8.27792 80.9308 8.56592 82.0453 9.14191C83.1597 9.70539 84.0174 10.5256 84.6185 11.6024C85.232 12.6668 85.5388 13.9628 85.5388 15.4904C85.5388 16.0163 85.5388 16.5798 85.5388 17.1808C85.5388 17.7819 85.5388 18.3266 85.5388 18.8149V28.5067H83.2286ZM68.8787 28.5067V8.55966H71.2078V28.5067H68.8787Z" fill="#222222"/>
</svg>
