<svg width="86" height="37" viewBox="0 0 86 37" fill="none" xmlns="http://www.w3.org/2000/svg">
<path d="M10.9811 28.8639C9.40336 28.8639 7.9571 28.5446 6.64232 27.906C5.32755 27.2548 4.18181 26.322 3.20512 25.1074C2.24095 23.8802 1.48965 22.3839 0.951219 20.6183C0.425309 18.8528 0.162354 16.8556 0.162354 14.6267C0.162354 12.3853 0.425309 10.3944 0.951219 8.65387C1.48965 6.90084 2.24095 5.41702 3.20512 4.20242C4.18181 2.98781 5.32755 2.06747 6.64232 1.44138C7.96962 0.8153 9.41588 0.502258 10.9811 0.502258C12.5588 0.502258 14.0051 0.8153 15.3198 1.44138C16.6471 2.06747 17.7929 2.98781 18.757 4.20242C19.7337 5.41702 20.485 6.90084 21.011 8.65387C21.5494 10.3944 21.8186 12.3853 21.8186 14.6267C21.8186 16.8556 21.5494 18.8528 21.011 20.6183C20.485 22.3839 19.7337 23.8802 18.757 25.1074C17.7929 26.322 16.6471 27.2548 15.3198 27.906C14.0051 28.5446 12.5588 28.8639 10.9811 28.8639ZM10.9811 26.7602C12.6465 26.7602 14.1115 26.2907 15.3762 25.3515C16.6534 24.4124 17.6489 23.0413 18.3626 21.2382C19.0889 19.435 19.452 17.2312 19.452 14.6267C19.452 12.0097 19.0889 9.81213 18.3626 8.03405C17.6364 6.24345 16.6346 4.89111 15.3574 3.97702C14.0927 3.06294 12.6339 2.6059 10.9811 2.6059C9.34075 2.6059 7.88197 3.06294 6.60476 3.97702C5.32755 4.89111 4.32581 6.24345 3.59955 8.03405C2.8733 9.81213 2.51017 12.0097 2.51017 14.6267C2.51017 17.2437 2.8733 19.4538 3.59955 21.2569C4.32581 23.0601 5.32755 24.4312 6.60476 25.3703C7.88197 26.2969 9.34075 26.7602 10.9811 26.7602Z" fill="white"/>
<path d="M25.1287 36.715V8.55996H27.4578V36.715H25.1287ZM34.3322 28.8639C32.8045 28.8639 31.3896 28.4945 30.0873 27.7557C28.7851 27.0169 27.7332 26.0152 26.9318 24.7505C26.143 23.4858 25.7485 22.0646 25.7485 20.4869C25.7485 20.4493 25.7485 20.418 25.7485 20.3929C25.7485 20.3679 25.7485 20.3429 25.7485 20.3178L27.4578 20.2803C27.4578 20.3053 27.4578 20.3303 27.4578 20.3554C27.4578 20.3804 27.4578 20.4055 27.4578 20.4305C27.4578 21.5575 27.7645 22.5968 28.3781 23.5484C28.9917 24.5001 29.7931 25.2576 30.7823 25.8211C31.784 26.3846 32.8671 26.6663 34.0316 26.6663C35.96 26.6663 37.544 25.9839 38.7836 24.619C40.0358 23.2416 40.6619 21.2131 40.6619 18.5335C40.6619 15.8413 40.0358 13.8128 38.7836 12.4479C37.544 11.0831 35.96 10.4006 34.0316 10.4006C32.8671 10.4006 31.784 10.6824 30.7823 11.2459C29.7931 11.8093 28.9917 12.5606 28.3781 13.4998C27.7645 14.4389 27.4578 15.4782 27.4578 16.6177L25.7485 16.5613C25.7485 14.9836 26.143 13.5686 26.9318 12.3165C27.7332 11.0643 28.7851 10.0813 30.0873 9.36761C31.3896 8.64135 32.8045 8.27822 34.3322 8.27822C35.9475 8.27822 37.4125 8.67892 38.7273 9.4803C40.042 10.2692 41.0876 11.4274 41.864 12.9551C42.6528 14.4827 43.0472 16.3422 43.0472 18.5335C43.0472 20.7498 42.6591 22.6281 41.8827 24.1682C41.1189 25.7084 40.0733 26.8792 38.7461 27.6806C37.4313 28.4694 35.96 28.8639 34.3322 28.8639Z" fill="white"/>
<path d="M47.106 19.5102V17.4253H63.259L62.8082 18.0639C62.8082 17.9888 62.8082 17.9262 62.8082 17.8761C62.8082 17.8135 62.8082 17.7509 62.8082 17.6883C62.8082 16.3985 62.5327 15.1965 61.9818 14.082C61.4308 12.9676 60.6294 12.0723 59.5776 11.3961C58.5383 10.7199 57.2674 10.3819 55.7648 10.3819C54.2371 10.3819 52.891 10.7325 51.7265 11.4337C50.562 12.1224 49.6542 13.0803 49.0031 14.3074C48.3519 15.522 48.0264 16.937 48.0264 18.5523C48.0264 20.1801 48.3457 21.6138 48.9843 22.8535C49.6354 24.0806 50.5432 25.0385 51.7077 25.7272C52.8723 26.4034 54.2309 26.7414 55.7836 26.7414C56.923 26.7414 57.9122 26.6037 58.7512 26.3282C59.6027 26.0402 60.3039 25.6646 60.8548 25.2013C61.4183 24.738 61.8441 24.2496 62.132 23.7362C62.4326 23.2103 62.6079 22.7157 62.658 22.2524H64.9682C64.9181 22.9912 64.6802 23.7488 64.2545 24.5251C63.8413 25.2889 63.2465 26.0027 62.4701 26.6663C61.7063 27.33 60.7547 27.8684 59.6152 28.2816C58.4882 28.6823 57.186 28.8826 55.7084 28.8826C53.7801 28.8826 52.0646 28.4444 50.562 27.5679C49.0719 26.6914 47.8949 25.483 47.0309 23.9428C46.1794 22.3902 45.7537 20.6058 45.7537 18.5898C45.7537 16.5613 46.1857 14.777 47.0497 13.2368C47.9137 11.6841 49.097 10.4695 50.5996 9.593C52.1022 8.71648 53.8114 8.27822 55.7272 8.27822C57.6806 8.27822 59.371 8.72274 60.7985 9.61178C62.226 10.5008 63.3279 11.7092 64.1042 13.2368C64.8806 14.7519 65.2687 16.4549 65.2687 18.3457C65.2687 18.5084 65.2625 18.715 65.25 18.9655C65.25 19.2159 65.2437 19.3975 65.2312 19.5102H47.106Z" fill="white"/>
<path d="M83.2286 28.507V18.5898C83.2286 17.9763 83.2286 17.4879 83.2286 17.1248C83.2286 16.7617 83.2286 16.4048 83.2286 16.0542C83.2286 14.9398 83.0283 13.9693 82.6276 13.1429C82.2394 12.3039 81.6384 11.6528 80.8245 11.1895C80.0106 10.7137 78.965 10.4758 77.6878 10.4758C76.5608 10.4758 75.5028 10.7575 74.5135 11.321C73.5243 11.8719 72.723 12.6232 72.1094 13.5749C71.5083 14.5265 71.2078 15.5971 71.2078 16.7867L69.7991 16.2608C69.7991 14.7457 70.1873 13.3871 70.9637 12.185C71.7525 10.9829 72.7793 10.0313 74.044 9.33004C75.3212 8.62883 76.6735 8.27822 78.101 8.27822C79.6161 8.27822 80.9309 8.56622 82.0453 9.14222C83.1598 9.70569 84.0175 10.5259 84.6185 11.6027C85.2321 12.6671 85.5389 13.9631 85.5389 15.4907C85.5389 16.0166 85.5389 16.5801 85.5389 17.1811C85.5389 17.7822 85.5389 18.3269 85.5389 18.8152V28.507H83.2286ZM68.8788 28.507V8.55996H71.2078V28.507H68.8788Z" fill="white"/>
</svg>
