<svg width="87" height="37" viewBox="0 0 87 37" fill="none" xmlns="http://www.w3.org/2000/svg">
<path d="M11.6508 28.8639C10.073 28.8639 8.62678 28.5446 7.312 27.906C5.99722 27.2548 4.85149 26.322 3.8748 25.1074C2.91063 23.8802 2.15933 22.3839 1.6209 20.6183C1.09499 18.8528 0.832031 16.8556 0.832031 14.6267C0.832031 12.3853 1.09499 10.3944 1.6209 8.65387C2.15933 6.90084 2.91063 5.41702 3.8748 4.20242C4.85149 2.98781 5.99722 2.06747 7.312 1.44138C8.6393 0.8153 10.0856 0.502258 11.6508 0.502258C13.2285 0.502258 14.6747 0.8153 15.9895 1.44138C17.3168 2.06747 18.4626 2.98781 19.4267 4.20242C20.4034 5.41702 21.1547 6.90084 21.6806 8.65387C22.2191 10.3944 22.4883 12.3853 22.4883 14.6267C22.4883 16.8556 22.2191 18.8528 21.6806 20.6183C21.1547 22.3839 20.4034 23.8802 19.4267 25.1074C18.4626 26.322 17.3168 27.2548 15.9895 27.906C14.6747 28.5446 13.2285 28.8639 11.6508 28.8639ZM11.6508 26.7602C13.3161 26.7602 14.7812 26.2907 16.0459 25.3515C17.3231 24.4124 18.3186 23.0413 19.0323 21.2382C19.7586 19.435 20.1217 17.2312 20.1217 14.6267C20.1217 12.0097 19.7586 9.81213 19.0323 8.03405C18.306 6.24345 17.3043 4.89111 16.0271 3.97702C14.7624 3.06294 13.3036 2.6059 11.6508 2.6059C10.0104 2.6059 8.55165 3.06294 7.27444 3.97702C5.99722 4.89111 4.99549 6.24345 4.26923 8.03405C3.54297 9.81213 3.17985 12.0097 3.17985 14.6267C3.17985 17.2437 3.54297 19.4538 4.26923 21.2569C4.99549 23.0601 5.99722 24.4312 7.27444 25.3703C8.55165 26.2969 10.0104 26.7602 11.6508 26.7602Z" fill="white"/>
<path d="M25.7984 36.715V8.55996H28.1274V36.715H25.7984ZM35.0018 28.8639C33.4742 28.8639 32.0592 28.4945 30.757 27.7557C29.4547 27.0169 28.4029 26.0152 27.6015 24.7505C26.8127 23.4858 26.4182 22.0646 26.4182 20.4869C26.4182 20.4493 26.4182 20.418 26.4182 20.3929C26.4182 20.3679 26.4182 20.3429 26.4182 20.3178L28.1274 20.2803C28.1274 20.3053 28.1274 20.3303 28.1274 20.3554C28.1274 20.3804 28.1274 20.4055 28.1274 20.4305C28.1274 21.5575 28.4342 22.5968 29.0478 23.5484C29.6613 24.5001 30.4627 25.2576 31.4519 25.8211C32.4537 26.3846 33.5368 26.6663 34.7013 26.6663C36.6297 26.6663 38.2136 25.9839 39.4533 24.619C40.7055 23.2416 41.3315 21.2131 41.3315 18.5335C41.3315 15.8413 40.7055 13.8128 39.4533 12.4479C38.2136 11.0831 36.6297 10.4006 34.7013 10.4006C33.5368 10.4006 32.4537 10.6824 31.4519 11.2459C30.4627 11.8093 29.6613 12.5606 29.0478 13.4998C28.4342 14.4389 28.1274 15.4782 28.1274 16.6177L26.4182 16.5613C26.4182 14.9836 26.8127 13.5686 27.6015 12.3165C28.4029 11.0643 29.4547 10.0813 30.757 9.36761C32.0592 8.64135 33.4742 8.27822 35.0018 8.27822C36.6171 8.27822 38.0822 8.67892 39.3969 9.4803C40.7117 10.2692 41.7573 11.4274 42.5336 12.9551C43.3225 14.4827 43.7169 16.3422 43.7169 18.5335C43.7169 20.7498 43.3288 22.6281 42.5524 24.1682C41.7886 25.7084 40.743 26.8792 39.4157 27.6806C38.101 28.4694 36.6297 28.8639 35.0018 28.8639Z" fill="white"/>
<path d="M47.7757 19.5102V17.4253H63.9287L63.4779 18.0639C63.4779 17.9888 63.4779 17.9262 63.4779 17.8761C63.4779 17.8135 63.4779 17.7509 63.4779 17.6883C63.4779 16.3985 63.2024 15.1965 62.6515 14.082C62.1005 12.9676 61.2991 12.0723 60.2473 11.3961C59.208 10.7199 57.9371 10.3819 56.4345 10.3819C54.9068 10.3819 53.5607 10.7325 52.3962 11.4337C51.2317 12.1224 50.3239 13.0803 49.6727 14.3074C49.0216 15.522 48.6961 16.937 48.6961 18.5523C48.6961 20.1801 49.0154 21.6138 49.654 22.8535C50.3051 24.0806 51.2129 25.0385 52.3774 25.7272C53.5419 26.4034 54.9005 26.7414 56.4532 26.7414C57.5927 26.7414 58.5819 26.6037 59.4209 26.3282C60.2723 26.0402 60.9736 25.6646 61.5245 25.2013C62.088 24.738 62.5137 24.2496 62.8017 23.7362C63.1022 23.2103 63.2776 22.7157 63.3276 22.2524H65.6379C65.5878 22.9912 65.3499 23.7488 64.9242 24.5251C64.5109 25.2889 63.9162 26.0027 63.1398 26.6663C62.376 27.33 61.4243 27.8684 60.2849 28.2816C59.1579 28.6823 57.8557 28.8826 56.3781 28.8826C54.4498 28.8826 52.7343 28.4444 51.2317 27.5679C49.7416 26.6914 48.5646 25.483 47.7006 23.9428C46.8491 22.3902 46.4234 20.6058 46.4234 18.5898C46.4234 16.5613 46.8554 14.777 47.7194 13.2368C48.5834 11.6841 49.7667 10.4695 51.2693 9.593C52.7719 8.71648 54.4811 8.27822 56.3969 8.27822C58.3503 8.27822 60.0407 8.72274 61.4682 9.61178C62.8956 10.5008 63.9975 11.7092 64.7739 13.2368C65.5502 14.7519 65.9384 16.4549 65.9384 18.3457C65.9384 18.5084 65.9322 18.715 65.9196 18.9655C65.9196 19.2159 65.9134 19.3975 65.9008 19.5102H47.7757Z" fill="white"/>
<path d="M83.8983 28.507V18.5898C83.8983 17.9763 83.8983 17.4879 83.8983 17.1248C83.8983 16.7617 83.8983 16.4048 83.8983 16.0542C83.8983 14.9398 83.698 13.9693 83.2973 13.1429C82.9091 12.3039 82.3081 11.6528 81.4942 11.1895C80.6802 10.7137 79.6347 10.4758 78.3575 10.4758C77.2305 10.4758 76.1724 10.7575 75.1832 11.321C74.194 11.8719 73.3926 12.6232 72.7791 13.5749C72.178 14.5265 71.8775 15.5971 71.8775 16.7867L70.4688 16.2608C70.4688 14.7457 70.857 13.3871 71.6333 12.185C72.4222 10.9829 73.449 10.0313 74.7137 9.33004C75.9909 8.62883 77.3432 8.27822 78.7707 8.27822C80.2858 8.27822 81.6006 8.56622 82.715 9.14222C83.8294 9.70569 84.6872 10.5259 85.2882 11.6027C85.9018 12.6671 86.2086 13.9631 86.2086 15.4907C86.2086 16.0166 86.2086 16.5801 86.2086 17.1811C86.2086 17.7822 86.2086 18.3269 86.2086 18.8152V28.507H83.8983ZM69.5485 28.507V8.55996H71.8775V28.507H69.5485Z" fill="white"/>
</svg>
