<svg width="86" height="38" viewBox="0 0 86 38" fill="none" xmlns="http://www.w3.org/2000/svg">
<path d="M10.9808 29.3479C9.40311 29.3479 7.95686 29.0286 6.64208 28.39C5.3273 27.7389 4.18157 26.806 3.20488 25.5914C2.24071 24.3643 1.48941 22.868 0.950975 21.1024C0.425065 19.3369 0.162109 17.3396 0.162109 15.1108C0.162109 12.8694 0.425065 10.8785 0.950975 9.13794C1.48941 7.38491 2.24071 5.90109 3.20488 4.68649C4.18157 3.47188 5.3273 2.55154 6.64208 1.92545C7.96938 1.29937 9.41563 0.986328 10.9808 0.986328C12.5586 0.986328 14.0048 1.29937 15.3196 1.92545C16.6469 2.55154 17.7926 3.47188 18.7568 4.68649C19.7335 5.90109 20.4848 7.38491 21.0107 9.13794C21.5491 10.8785 21.8184 12.8694 21.8184 15.1108C21.8184 17.3396 21.5491 19.3369 21.0107 21.1024C20.4848 22.868 19.7335 24.3643 18.7568 25.5914C17.7926 26.806 16.6469 27.7389 15.3196 28.39C14.0048 29.0286 12.5586 29.3479 10.9808 29.3479ZM10.9808 27.2443C12.6462 27.2443 14.1113 26.7747 15.376 25.8356C16.6532 24.8965 17.6486 23.5254 18.3624 21.7222C19.0886 19.9191 19.4518 17.7153 19.4518 15.1108C19.4518 12.4938 19.0886 10.2962 18.3624 8.51812C17.6361 6.72752 16.6344 5.37518 15.3572 4.46109C14.0925 3.54701 12.6337 3.08997 10.9808 3.08997C9.3405 3.08997 7.88173 3.54701 6.60451 4.46109C5.3273 5.37518 4.32557 6.72752 3.59931 8.51812C2.87305 10.2962 2.50992 12.4938 2.50992 15.1108C2.50992 17.7278 2.87305 19.9379 3.59931 21.741C4.32557 23.5441 5.3273 24.9153 6.60451 25.8544C7.88173 26.781 9.3405 27.2443 10.9808 27.2443Z" fill="#222222"/>
<path d="M25.1285 37.199V9.04403H27.4575V37.199H25.1285ZM34.3319 29.3479C32.8043 29.3479 31.3893 28.9785 30.0871 28.2398C28.7848 27.501 27.733 26.4993 26.9316 25.2346C26.1427 23.9699 25.7483 22.5487 25.7483 20.9709C25.7483 20.9334 25.7483 20.9021 25.7483 20.877C25.7483 20.852 25.7483 20.8269 25.7483 20.8019L27.4575 20.7643C27.4575 20.7894 27.4575 20.8144 27.4575 20.8395C27.4575 20.8645 27.4575 20.8895 27.4575 20.9146C27.4575 22.0415 27.7643 23.0808 28.3779 24.0325C28.9914 24.9841 29.7928 25.7417 30.782 26.3052C31.7838 26.8686 32.8669 27.1504 34.0314 27.1504C35.9597 27.1504 37.5437 26.4679 38.7834 25.1031C40.0355 23.7257 40.6616 21.6972 40.6616 19.0175C40.6616 16.3254 40.0355 14.2969 38.7834 12.932C37.5437 11.5671 35.9597 10.8847 34.0314 10.8847C32.8669 10.8847 31.7838 11.1665 30.782 11.7299C29.7928 12.2934 28.9914 13.0447 28.3779 13.9838C27.7643 14.923 27.4575 15.9623 27.4575 17.1017L25.7483 17.0454C25.7483 15.4677 26.1427 14.0527 26.9316 12.8005C27.733 11.5484 28.7848 10.5654 30.0871 9.85168C31.3893 9.12542 32.8043 8.76229 34.3319 8.76229C35.9472 8.76229 37.4122 9.16299 38.727 9.96437C40.0418 10.7532 41.0874 11.9115 41.8637 13.4391C42.6526 14.9668 43.047 16.8263 43.047 19.0175C43.047 21.2339 42.6588 23.1121 41.8825 24.6523C41.1187 26.1925 40.0731 27.3632 38.7458 28.1646C37.431 28.9535 35.9597 29.3479 34.3319 29.3479Z" fill="#222222"/>
<path d="M47.1058 19.9942V17.9094H63.2588L62.808 18.548C62.808 18.4729 62.808 18.4102 62.808 18.3602C62.808 18.2976 62.808 18.2349 62.808 18.1723C62.808 16.8826 62.5325 15.6805 61.9815 14.5661C61.4306 13.4517 60.6292 12.5564 59.5774 11.8802C58.5381 11.204 57.2671 10.8659 55.7645 10.8659C54.2369 10.8659 52.8908 11.2165 51.7263 11.9178C50.5618 12.6064 49.6539 13.5644 49.0028 14.7915C48.3517 16.0061 48.0261 17.421 48.0261 19.0363C48.0261 20.6642 48.3454 22.0979 48.984 23.3375C49.6352 24.5647 50.543 25.5226 51.7075 26.2113C52.872 26.8874 54.2306 27.2255 55.7833 27.2255C56.9228 27.2255 57.912 27.0878 58.7509 26.8123C59.6024 26.5243 60.3036 26.1486 60.8546 25.6853C61.4181 25.222 61.8438 24.7337 62.1318 24.2203C62.4323 23.6944 62.6076 23.1998 62.6577 22.7365H64.968C64.9179 23.4753 64.68 24.2328 64.2542 25.0092C63.841 25.773 63.2462 26.4867 62.4699 27.1504C61.7061 27.814 60.7544 28.3525 59.6149 28.7657C58.488 29.1664 57.1857 29.3667 55.7082 29.3667C53.7798 29.3667 52.0644 28.9285 50.5618 28.0519C49.0717 27.1754 47.8947 25.9671 47.0307 24.4269C46.1792 22.8742 45.7534 21.0899 45.7534 19.0739C45.7534 17.0454 46.1854 15.261 47.0494 13.7209C47.9134 12.1682 49.0967 10.9536 50.5993 10.0771C52.1019 9.20055 53.8111 8.76229 55.727 8.76229C57.6803 8.76229 59.3708 9.20681 60.7982 10.0959C62.2257 10.9849 63.3276 12.1932 64.104 13.7209C64.8803 15.236 65.2685 16.9389 65.2685 18.8297C65.2685 18.9925 65.2622 19.1991 65.2497 19.4495C65.2497 19.7 65.2434 19.8815 65.2309 19.9942H47.1058Z" fill="#222222"/>
<path d="M83.2284 28.9911V19.0739C83.2284 18.4603 83.2284 17.972 83.2284 17.6089C83.2284 17.2457 83.2284 16.8889 83.2284 16.5383C83.2284 15.4238 83.0281 14.4534 82.6274 13.627C82.2392 12.788 81.6381 12.1369 80.8242 11.6736C80.0103 11.1978 78.9648 10.9598 77.6876 10.9598C76.5606 10.9598 75.5025 11.2416 74.5133 11.8051C73.5241 12.356 72.7227 13.1073 72.1091 14.059C71.5081 15.0106 71.2076 16.0812 71.2076 17.2708L69.7989 16.7449C69.7989 15.2297 70.1871 13.8711 70.9634 12.6691C71.7523 11.467 72.7791 10.5153 74.0437 9.81411C75.321 9.1129 76.6733 8.76229 78.1008 8.76229C79.6159 8.76229 80.9307 9.05029 82.0451 9.62629C83.1595 10.1898 84.0173 11.0099 84.6183 12.0868C85.2319 13.1511 85.5387 14.4471 85.5387 15.9748C85.5387 16.5007 85.5387 17.0642 85.5387 17.6652C85.5387 18.2662 85.5387 18.8109 85.5387 19.2993V28.9911H83.2284ZM68.8786 28.9911V9.04403H71.2076V28.9911H68.8786Z" fill="#222222"/>
</svg>
