<svg width="31" height="31" viewBox="0 0 31 31" fill="none" xmlns="http://www.w3.org/2000/svg">
<path d="M9.14144 3.25208C8.87656 3.25622 8.62415 3.36528 8.4396 3.55532C8.25505 3.74536 8.15344 4.00086 8.15706 4.26575V8.26575H4.15706C4.02455 8.26387 3.89299 8.28835 3.77002 8.33777C3.64705 8.38718 3.53513 8.46054 3.44076 8.55359C3.34639 8.64663 3.27146 8.7575 3.22031 8.87976C3.16916 9.00202 3.14282 9.13322 3.14282 9.26575C3.14282 9.39827 3.16916 9.52948 3.22031 9.65173C3.27146 9.77399 3.34639 9.88486 3.44076 9.97791C3.53513 10.071 3.64705 10.1443 3.77002 10.1937C3.89299 10.2431 4.02455 10.2676 4.15706 10.2657H6.78597C6.67205 10.4569 6.62514 10.6806 6.65266 10.9014C6.68018 11.1222 6.78056 11.3276 6.93791 11.4849C7.09526 11.6423 7.30059 11.7426 7.52141 11.7702C7.74222 11.7977 7.96591 11.7508 8.15706 11.6368V20.2657H4.15706C4.02455 20.2639 3.89299 20.2884 3.77002 20.3378C3.64705 20.3872 3.53513 20.4605 3.44076 20.5536C3.34639 20.6466 3.27146 20.7575 3.22031 20.8798C3.16916 21.002 3.14282 21.1332 3.14282 21.2657C3.14282 21.3983 3.16916 21.5295 3.22031 21.6517C3.27146 21.774 3.34639 21.8849 3.44076 21.9779C3.53513 22.071 3.64705 22.1443 3.77002 22.1937C3.89299 22.2431 4.02455 22.2676 4.15706 22.2657H6.78597C6.67205 22.4569 6.62514 22.6806 6.65266 22.9014C6.68018 23.1222 6.78056 23.3276 6.93791 23.4849C7.09526 23.6423 7.30059 23.7426 7.52141 23.7702C7.74222 23.7977 7.96591 23.7508 8.15706 23.6368V26.2657C8.15519 26.3983 8.17967 26.5298 8.22908 26.6528C8.2785 26.7758 8.35186 26.8877 8.4449 26.982C8.53795 27.0764 8.64882 27.1514 8.77108 27.2025C8.89334 27.2537 9.02454 27.28 9.15706 27.28C9.28959 27.28 9.42079 27.2537 9.54305 27.2025C9.66531 27.1514 9.77618 27.0764 9.86922 26.982C9.96227 26.8877 10.0356 26.7758 10.085 26.6528C10.1345 26.5298 10.1589 26.3983 10.1571 26.2657V22.2657H18.786C18.6721 22.4569 18.6251 22.6806 18.6527 22.9014C18.6802 23.1222 18.7806 23.3276 18.9379 23.4849C19.0953 23.6423 19.3006 23.7426 19.5214 23.7702C19.7422 23.7977 19.9659 23.7508 20.1571 23.6368V26.2657C20.1552 26.3983 20.1797 26.5298 20.2291 26.6528C20.2785 26.7758 20.3519 26.8877 20.4449 26.982C20.5379 27.0764 20.6488 27.1514 20.7711 27.2025C20.8933 27.2537 21.0245 27.28 21.1571 27.28C21.2896 27.28 21.4208 27.2537 21.5431 27.2025C21.6653 27.1514 21.7762 27.0764 21.8692 26.982C21.9623 26.8877 22.0356 26.7758 22.085 26.6528C22.1345 26.5298 22.1589 26.3983 22.1571 26.2657V22.2657H26.1571C26.2896 22.2676 26.4211 22.2431 26.5441 22.1937C26.6671 22.1443 26.779 22.071 26.8734 21.9779C26.9677 21.8849 27.0427 21.774 27.0938 21.6517C27.145 21.5295 27.1713 21.3983 27.1713 21.2657C27.1713 21.1332 27.145 21.002 27.0938 20.8798C27.0427 20.7575 26.9677 20.6466 26.8734 20.5536C26.779 20.4605 26.6671 20.3872 26.5441 20.3378C26.4211 20.2884 26.2896 20.2639 26.1571 20.2657H23.5262C23.6175 20.1118 23.6658 19.9362 23.6661 19.7573C23.6663 19.5783 23.6186 19.4026 23.5278 19.2484C23.4371 19.0941 23.3066 18.9671 23.15 18.8805C22.9934 18.7939 22.8164 18.7509 22.6375 18.756C22.4682 18.7608 22.3029 18.8085 22.1571 18.8947V10.2657H26.1571C26.2896 10.2676 26.4211 10.2431 26.5441 10.1937C26.6671 10.1443 26.779 10.071 26.8734 9.97791C26.9677 9.88486 27.0427 9.77399 27.0938 9.65173C27.145 9.52948 27.1713 9.39827 27.1713 9.26575C27.1713 9.13322 27.145 9.00202 27.0938 8.87976C27.0427 8.7575 26.9677 8.64663 26.8734 8.55359C26.779 8.46054 26.6671 8.38718 26.5441 8.33777C26.4211 8.28835 26.2896 8.26387 26.1571 8.26575H23.5262C23.6175 8.11182 23.6658 7.93623 23.6661 7.75728C23.6663 7.57833 23.6186 7.40258 23.5278 7.24836C23.4371 7.09415 23.3066 6.96711 23.15 6.8805C22.9934 6.7939 22.8164 6.7509 22.6375 6.75598C22.4682 6.76077 22.3029 6.80849 22.1571 6.89465V4.26575C22.1589 4.13196 22.1339 3.99916 22.0834 3.87522C22.033 3.75128 21.9583 3.63872 21.8636 3.5442C21.7689 3.44967 21.6561 3.37512 21.5321 3.32494C21.4081 3.27476 21.2752 3.24999 21.1414 3.25208C20.8766 3.25622 20.6242 3.36528 20.4396 3.55532C20.2551 3.74536 20.1534 4.00086 20.1571 4.26575V8.26575H11.5262C11.6175 8.11182 11.6658 7.93623 11.6661 7.75728C11.6663 7.57833 11.6186 7.40258 11.5278 7.24836C11.4371 7.09415 11.3066 6.96711 11.15 6.8805C10.9934 6.7939 10.8164 6.7509 10.6375 6.75598C10.4682 6.76077 10.3029 6.80849 10.1571 6.89465V4.26575C10.1589 4.13196 10.1339 3.99916 10.0834 3.87522C10.033 3.75128 9.95826 3.63872 9.86355 3.5442C9.76885 3.44967 9.65614 3.37512 9.53211 3.32494C9.40807 3.27476 9.27523 3.24999 9.14144 3.25208ZM10.1571 10.2657H18.7879C18.6746 10.4567 18.6282 10.68 18.6558 10.9003C18.6834 11.1206 18.7835 11.3255 18.9404 11.4826C19.0973 11.6397 19.302 11.7402 19.5223 11.7681C19.7426 11.796 19.9659 11.7498 20.1571 11.6368V20.2657H11.5262C11.6175 20.1118 11.6658 19.9362 11.6661 19.7573C11.6663 19.5783 11.6186 19.4026 11.5278 19.2484C11.4371 19.0941 11.3066 18.9671 11.15 18.8805C10.9934 18.7939 10.8164 18.7509 10.6375 18.756C10.4682 18.7608 10.3029 18.8085 10.1571 18.8947V10.2657Z" fill="black"/>
</svg>
