<svg width="22" height="23" viewBox="0 0 22 23" fill="none" xmlns="http://www.w3.org/2000/svg">
<path fill-rule="evenodd" clip-rule="evenodd" d="M15.6288 3.28467H15.6146H15.5869H15.5592H15.5314H15.5036H15.4756H15.4475H15.4194H15.3912H15.3629H15.3345H15.306H15.2775H15.2488H15.2201H15.1913H15.1625H15.1335H15.1045H15.0754H15.0462H15.017H14.9877H14.9583H14.9288H14.8993H14.8697H14.84H14.8103H14.7805H14.7506H14.7207H14.6907H14.6607H14.6305H14.6004H14.5701H14.5398H14.5094H14.479H14.4485H14.418H14.3874H14.3567H14.326H14.2953H14.2645H14.2336H14.2027H14.1717H14.1407H14.1097H14.0785H14.0474H14.0162H13.9849H13.9536H13.9223H13.8909H13.8595H13.828H13.7965H13.765H13.7334H13.7018H13.6701H13.6384H13.6067H13.5749H13.5431H13.5112H13.4794H13.4475H13.4156H13.3836H13.3516H13.3196H13.2875H13.2555H13.2234H13.1912H13.1591H13.1269H13.0947H13.0625H13.0303H12.998H12.9657H12.9334H12.9011H12.8688H12.8365H12.8041H12.7717H12.7393H12.7069H12.6745H12.6421H12.6097H12.5772H12.5448H12.5123H12.4798H12.4474H12.4149H12.3824H12.3499H12.3174H12.2849H12.2524H12.2199H12.1874H12.1549H12.1224H12.09H12.0575H12.025H11.9925H11.96H11.9276H11.8951H11.8627H11.8302H11.7978H11.7654H11.733H11.7006H11.6682H11.6359H11.6035H11.5712H11.5389H11.5066H11.4743H11.442H11.4098H11.3776H11.3454H11.3132H11.281H11.2489H11.2168H11.1847H11.1527H11.1207H11.0887H11.0567H11.0248H10.9928H10.961H10.9291H10.8973H10.8655H10.8338H10.8021H10.7704H10.7388H10.7072H10.6756H10.6441H10.6127H10.5812H10.5498H10.5185H10.4872H10.4559H10.4247H10.3935H10.3624H10.3313H10.3003H10.2693H10.2384H10.2075H10.1767H10.146H10.1152H10.0846H10.054H10.0234H9.99293H9.96249H9.93212H9.9018H9.87154H9.84135H9.81121H9.78114H9.75113H9.72119H9.69131H9.6615H9.63175H9.60207H9.57246H9.54292H9.51345H9.48405H9.45472H9.42546H9.39628H9.36717H9.33813H9.30918H9.28029H9.25149H9.22276H9.19412H9.16555H9.13706H9.10866H9.08033H9.05209H9.02394H8.99586H8.96788H8.93998H8.91217H8.88444H8.85681H8.82926H8.80181H8.77444H8.74717H8.71999H8.69291H8.66592H8.63902H8.61222H8.58552H8.55892H8.53241H8.50601H8.4797H8.4535H8.42739H8.40139H8.3755H8.34971H8.32402H8.29844H8.27296H8.2476H8.22234H8.19719H8.17216H8.14723H8.12241H8.09771H8.07312H8.04865H8.02429H8.00004H7.97592H7.95191H7.92802H7.90424H7.88059H7.85706H7.83365H7.81036H7.7872H7.76416H7.74124H7.71845H7.69579H7.67326H7.65085H7.62857H7.60642H7.58441H7.56252H7.54076H7.51914H7.49766H7.4763H7.45509H7.43401H7.41306H7.39226H7.37159H7.35107H7.33068H7.31044H7.29033H7.27037H7.25056H7.23089H7.21136H7.19198H7.17275H7.15366H7.13472H7.11594H7.0973H7.07882H7.06048H7.0423H7.02427H7.0064H6.98868H6.97112H6.95372H6.93647H6.91938H6.90245H6.88568H6.86908H6.85263H6.83635H6.82023H6.80427H6.78848H6.77285H6.7574H6.74211H6.72698H6.71203H6.69725H6.68263H6.66819H6.65392H6.63983H6.62591H6.61216H6.59859H6.5852H6.57198H6.55894H6.54608H6.5334H6.5209H6.50859H6.49645H6.4845H6.47273H6.46115H6.44975H6.43854H6.42751H6.41668C6.13333 3.28467 5.9873 3.35263 5.91148 3.40318C5.8294 3.45789 5.76221 3.53801 5.70694 3.64855C5.64971 3.763 5.61611 3.88956 5.59838 3.99594C5.58991 4.04676 5.58606 4.08693 5.58438 4.11047L5.58334 4.128V15.0347H12.8333C13.3856 15.0347 13.8333 15.4824 13.8333 16.0347V18.7747C13.8335 18.778 13.8338 18.7839 13.8344 18.7922C13.8361 18.8157 13.8399 18.8559 13.8484 18.9067C13.8661 19.0131 13.8997 19.1397 13.9569 19.2541C14.0122 19.3647 14.0794 19.4448 14.1615 19.4995C14.2373 19.55 14.3833 19.618 14.6667 19.618C14.95 19.618 15.0961 19.55 15.1719 19.4995C15.254 19.4448 15.3211 19.3647 15.3764 19.2541C15.4336 19.1397 15.4672 19.0131 15.485 18.9067C15.4934 18.8559 15.4973 18.8157 15.499 18.7922C15.4996 18.7839 15.4999 18.778 15.5 18.7747V6.868V4.118H16.5C15.5 4.118 15.5 4.11751 15.5 4.117L15.5 4.11596L15.5 4.11373L15.5 4.10874L15.5002 4.09662C15.5003 4.0876 15.5006 4.07672 15.501 4.0641C15.5019 4.03888 15.5034 4.00651 15.5061 3.96798C15.5116 3.89126 15.5221 3.7882 15.5423 3.66714C15.5606 3.55718 15.5878 3.42697 15.6288 3.28467ZM3.58334 15.0347V4.118H4.58334C3.58334 4.118 3.58334 4.11751 3.58334 4.117L3.58335 4.11596L3.58335 4.11373L3.58338 4.10874L3.58353 4.09662C3.58367 4.0876 3.58392 4.07672 3.58435 4.0641C3.58519 4.03888 3.58671 4.00651 3.58947 3.96798C3.59494 3.89126 3.60542 3.7882 3.62559 3.66714C3.66516 3.42978 3.74614 3.098 3.91808 2.75412C4.09198 2.40632 4.36853 2.02811 4.80208 1.73908C5.24189 1.44587 5.78336 1.28467 6.41668 1.28467H6.42751H6.43854H6.44975H6.46115H6.47273H6.4845H6.49645H6.50859H6.5209H6.5334H6.54608H6.55894H6.57198H6.5852H6.59859H6.61216H6.62591H6.63983H6.65392H6.66819H6.68263H6.69725H6.71203H6.72698H6.74211H6.7574H6.77285H6.78848H6.80427H6.82023H6.83635H6.85263H6.86908H6.88568H6.90245H6.91938H6.93647H6.95372H6.97112H6.98868H7.0064H7.02427H7.0423H7.06048H7.07882H7.0973H7.11594H7.13472H7.15366H7.17275H7.19198H7.21136H7.23089H7.25056H7.27037H7.29033H7.31044H7.33068H7.35107H7.37159H7.39226H7.41306H7.43401H7.45509H7.4763H7.49766H7.51914H7.54076H7.56252H7.58441H7.60642H7.62857H7.65085H7.67326H7.69579H7.71845H7.74124H7.76416H7.7872H7.81036H7.83365H7.85706H7.88059H7.90424H7.92802H7.95191H7.97592H8.00004H8.02429H8.04865H8.07312H8.09771H8.12241H8.14723H8.17216H8.19719H8.22234H8.2476H8.27296H8.29844H8.32402H8.34971H8.3755H8.40139H8.42739H8.4535H8.4797H8.50601H8.53241H8.55892H8.58552H8.61222H8.63902H8.66592H8.69291H8.71999H8.74717H8.77444H8.80181H8.82926H8.85681H8.88444H8.91217H8.93998H8.96788H8.99586H9.02394H9.05209H9.08033H9.10866H9.13706H9.16555H9.19412H9.22276H9.25149H9.28029H9.30918H9.33813H9.36717H9.39628H9.42546H9.45472H9.48405H9.51345H9.54292H9.57246H9.60207H9.63175H9.6615H9.69131H9.72119H9.75113H9.78114H9.81121H9.84135H9.87154H9.9018H9.93212H9.96249H9.99293H10.0234H10.054H10.0846H10.1152H10.146H10.1767H10.2075H10.2384H10.2693H10.3003H10.3313H10.3624H10.3935H10.4247H10.4559H10.4872H10.5185H10.5498H10.5812H10.6127H10.6441H10.6756H10.7072H10.7388H10.7704H10.8021H10.8338H10.8655H10.8973H10.9291H10.961H10.9928H11.0248H11.0567H11.0887H11.1207H11.1527H11.1847H11.2168H11.2489H11.281H11.3132H11.3454H11.3776H11.4098H11.442H11.4743H11.5066H11.5389H11.5712H11.6035H11.6359H11.6682H11.7006H11.733H11.7654H11.7978H11.8302H11.8627H11.8951H11.9276H11.96H11.9925H12.025H12.0575H12.09H12.1224H12.1549H12.1874H12.2199H12.2524H12.2849H12.3174H12.3499H12.3824H12.4149H12.4474H12.4798H12.5123H12.5448H12.5772H12.6097H12.6421H12.6745H12.7069H12.7393H12.7717H12.8041H12.8365H12.8688H12.9011H12.9334H12.9657H12.998H13.0303H13.0625H13.0947H13.1269H13.1591H13.1912H13.2234H13.2555H13.2875H13.3196H13.3516H13.3836H13.4156H13.4475H13.4794H13.5112H13.5431H13.5749H13.6067H13.6384H13.6701H13.7018H13.7334H13.765H13.7965H13.828H13.8595H13.8909H13.9223H13.9536H13.9849H14.0162H14.0474H14.0785H14.1097H14.1407H14.1717H14.2027H14.2336H14.2645H14.2953H14.326H14.3567H14.3874H14.418H14.4485H14.479H14.5094H14.5398H14.5701H14.6004H14.6305H14.6607H14.6907H14.7207H14.7506H14.7805H14.8103H14.84H14.8697H14.8993H14.9288H14.9583H14.9877H15.017H15.0462H15.0754H15.1045H15.1335H15.1625H15.1913H15.2201H15.2488H15.2775H15.306H15.3345H15.3629H15.3912H15.4194H15.4475H15.4756H15.5036H15.5314H15.5592H15.5869H15.6146H15.6421H15.6695H15.6969H15.7241H15.7513H15.7783H15.8053H15.8322H15.859H15.8857H15.9122H15.9387H15.9651H15.9914H16.0176H16.0437H16.0696H16.0955H16.1213H16.147H16.1725H16.198H16.2233H16.2485H16.2737H16.2987H16.3236H16.3484H16.3731H16.3976H16.4221H16.4464H16.4706H16.4947H16.5187H16.5426H16.5663H16.59H16.6135H16.6369H16.6601H16.6833H16.7063H16.7292H16.7519H16.7746H16.7971H16.8195H16.8417H16.8638H16.8858H16.9077H16.9294H16.951H16.9725H16.9938H17.015H17.036H17.057H17.0777H17.0984H17.1189H17.1392H17.1595H17.1795H17.1995H17.2192H17.2389H17.2584H17.2777H17.2969H17.316H17.3349H17.3537H17.3723H17.3907H17.409H17.4272H17.4452H17.463H17.4807H17.4982H17.5156H17.5328H17.5499H17.5668H17.5835H17.6001H17.6165H17.6327H17.6488H17.6648H17.6805H17.6961H17.7115H17.7268H17.7419H17.7568H17.7715H17.7861H17.8005H17.8148H17.8288H17.8427H17.8564H17.87H17.8833H17.8965H17.9095H17.9223H17.935H17.9474H17.9597H17.9718H17.9837H17.9955H18.007H18.0184H18.0295H18.0405H18.0513H18.0619H18.0724H18.0826H18.0926H18.1025H18.1121H18.1216H18.1308H18.1399H18.1488H18.1575H18.1659H18.1742H18.1823H18.1902H18.1978H18.2053H18.2126H18.2197H18.2265H18.2332H18.2396H18.2459H18.2519H18.2577H18.2634H18.2688H18.274H18.2789H18.2837H18.2883H18.2926H18.2968H18.3007H18.3044H18.3078H18.3111H18.3141H18.317H18.3196H18.3219H18.3241H18.326H18.3277H18.3292H18.3305H18.3315H18.3323H18.3329H18.3332C18.3333 1.28467 18.3333 1.28467 18.3333 1.28467C18.9667 1.28467 19.5081 1.44587 19.9479 1.73908C20.3815 2.02811 20.658 2.40632 20.8319 2.75412C21.0039 3.098 21.0849 3.42978 21.1244 3.66714C21.1446 3.7882 21.1551 3.89126 21.1606 3.96798C21.1633 4.00651 21.1648 4.03888 21.1657 4.0641C21.1661 4.07672 21.1663 4.0876 21.1665 4.09662L21.1666 4.10874L21.1667 4.11373L21.1667 4.11596L21.1667 4.117C21.1667 4.11751 21.1667 4.118 20.1667 4.118H21.1667V6.868C21.1667 7.42029 20.719 7.868 20.1667 7.868H17.5V18.7847H16.5C17.5 18.7847 17.5 18.7852 17.5 18.7857V18.7867L17.5 18.7889L17.5 18.7939L17.4998 18.8061L17.4994 18.8259L17.499 18.8386C17.4982 18.8638 17.4966 18.8962 17.4939 18.9347C17.4884 19.0114 17.4779 19.1145 17.4578 19.2355C17.4182 19.4729 17.3372 19.8047 17.1653 20.1485C16.9914 20.4963 16.7148 20.8746 16.2813 21.1636C15.8415 21.4568 15.3 21.618 14.6667 21.618H14.6559H14.6449H14.6339H14.6227H14.6114H14.6H14.5884H14.5768H14.565H14.553H14.541H14.5288H14.5166H14.5042H14.4917H14.479H14.4663H14.4534H14.4404H14.4273H14.4141H14.4008H14.3873H14.3737H14.3601H14.3463H14.3324H14.3183H14.3042H14.29H14.2756H14.2612H14.2466H14.2319H14.2171H14.2022H14.1872H14.1721H14.1569H14.1415H14.1261H14.1105H14.0949H14.0791H14.0633H14.0473H14.0313H14.0151H13.9988H13.9825H13.966H13.9494H13.9327H13.916H13.8991H13.8821H13.8651H13.8479H13.8306H13.8133H13.7958H13.7782H13.7606H13.7428H13.725H13.7071H13.6891H13.6709H13.6527H13.6344H13.616H13.5975H13.579H13.5603H13.5415H13.5227H13.5038H13.4847H13.4656H13.4464H13.4271H13.4078H13.3883H13.3688H13.3492H13.3295H13.3097H13.2898H13.2698H13.2498H13.2297H13.2095H13.1892H13.1688H13.1484H13.1279H13.1073H13.0866H13.0658H13.045H13.0241H13.0031H12.982H12.9609H12.9397H12.9184H12.897H12.8756H12.8541H12.8325H12.8109H12.7891H12.7674H12.7455H12.7236H12.7016H12.6795H12.6573H12.6351H12.6129H12.5905H12.5681H12.5456H12.5231H12.5005H12.4778H12.4551H12.4323H12.4094H12.3865H12.3635H12.3405H12.3174H12.2942H12.271H12.2477H12.2244H12.201H12.1775H12.154H12.1304H12.1068H12.0831H12.0593H12.0355H12.0117H11.9878H11.9638H11.9398H11.9157H11.8916H11.8675H11.8432H11.819H11.7946H11.7703H11.7458H11.7214H11.6969H11.6723H11.6477H11.623H11.5983H11.5736H11.5488H11.5239H11.499H11.4741H11.4491H11.4241H11.3991H11.374H11.3488H11.3236H11.2984H11.2732H11.2479H11.2225H11.1971H11.1717H11.1463H11.1208H11.0952H11.0697H11.0441H11.0184H10.9928H10.9671H10.9413H10.9156H10.8898H10.8639H10.8381H10.8122H10.7863H10.7603H10.7343H10.7083H10.6823H10.6562H10.6301H10.604H10.5778H10.5516H10.5254H10.4992H10.473H10.4467H10.4204H10.3941H10.3677H10.3413H10.3149H10.2885H10.2621H10.2357H10.2092H10.1827H10.1562H10.1297H10.1031H10.0765H10.05H10.0234H9.99675H9.97013H9.94349H9.91683H9.89016H9.86348H9.83678H9.81007H9.78336H9.75662H9.72988H9.70313H9.67637H9.6496H9.62282H9.59603H9.56923H9.54243H9.51562H9.4888H9.46198H9.43515H9.40832H9.38148H9.35464H9.32779H9.30094H9.27409H9.24724H9.22039H9.19353H9.16668H9.13982H9.11297H9.08611H9.05926H9.03241H9.00556H8.97872H8.95187H8.92504H8.8982H8.87138H8.84455H8.81774H8.79093H8.76412H8.73733H8.71054H8.68376H8.65699H8.63022H8.60347H8.57673H8.55H8.52328H8.49657H8.46988H8.44319H8.41652H8.38987H8.36323H8.3366H8.30999H8.28339H8.25681H8.23025H8.2037H8.17718H8.15067H8.12418H8.0977H8.07125H8.04482H8.01841H7.99202H7.96565H7.9393H7.91298H7.88668H7.8604H7.83415H7.80792H7.78172H7.75554H7.72939H7.70326H7.67716H7.65109H7.62505H7.59904H7.57305H7.5471H7.52117H7.49528H7.46941H7.44358H7.41778H7.39201H7.36627H7.34057H7.31491H7.28927H7.26367H7.23811H7.21258H7.18709H7.16164H7.13622H7.11084H7.0855H7.0602H7.03494H7.00972H6.98453H6.95939H6.93429H6.90924H6.88422H6.85925H6.83432H6.80943H6.78459H6.75979H6.73504H6.71033H6.68567H6.66106H6.6365H6.61198H6.58751H6.56309H6.53871H6.51439H6.49012H6.4659H6.44173H6.41761H6.39354H6.36953H6.34557H6.32166H6.29781H6.27401H6.25026H6.22658H6.20294H6.17937H6.15585H6.13239H6.10899H6.08564H6.06236H6.03913H6.01596H5.99286H5.96981H5.94683H5.92391H5.90105H5.87826H5.85552H5.83286H5.81025H5.78771H5.76524H5.74283H5.72049H5.69822H5.67601H5.65387H5.6318H5.6098H5.58787H5.566H5.54421H5.52249H5.50084H5.47926H5.45775H5.43632H5.41496H5.39367H5.37246H5.35132H5.33026H5.30927H5.28836H5.26753H5.24677H5.2261H5.2055H5.18497H5.16453H5.14417H5.12389H5.10368H5.08356H5.06352H5.04357H5.02369H5.0039H4.98419H4.96457H4.94503H4.92557H4.90621H4.88692H4.86773H4.84862H4.8296H4.81066H4.79182H4.77306H4.75439H4.73582H4.71733H4.69894H4.68063H4.66242H4.6443H4.62628H4.60834H4.59051H4.57276H4.55511H4.53756H4.5201H4.50274H4.48547H4.4683H4.45123H4.43426H4.41739H4.40062H4.38394H4.36737H4.3509H4.33453H4.31826H4.30209H4.28603H4.27007H4.25421H4.23846H4.22281H4.20726H4.19183H4.1765H4.16127H4.14615H4.13115H4.11624H4.10145H4.08677H4.07219H4.05773H4.04338H4.02914H4.01501H4.00099H3.98708H3.97329H3.95961H3.94605H3.9326H3.91926H3.90604H3.89294H3.87995H3.86708H3.85433H3.8417H3.82918H3.81678H3.80451H3.79235H3.78031H3.7684H3.7566H3.74493H3.73338H3.72195H3.71065H3.69947H3.68841H3.67748H3.66668C3.03336 21.618 2.49189 21.4568 2.05208 21.1636C1.61853 20.8746 1.34198 20.4963 1.16808 20.1485C0.996142 19.8047 0.915157 19.4729 0.875595 19.2355C0.85542 19.1145 0.844945 19.0114 0.839466 18.9347C0.836714 18.8962 0.835187 18.8638 0.834346 18.8386C0.833925 18.8259 0.833675 18.8151 0.83353 18.8061L0.833382 18.7939L0.833352 18.7889L0.833346 18.7867L0.833344 18.7857C0.833344 18.7852 0.833344 18.7847 1.83334 18.7847H0.833344V16.0347C0.833344 15.4824 1.28106 15.0347 1.83334 15.0347H3.58334ZM17.5 5.868V4.12799C17.5002 4.12467 17.5005 4.11873 17.5011 4.11047C17.5027 4.08693 17.5066 4.04676 17.5151 3.99594C17.5328 3.88956 17.5664 3.763 17.6236 3.64855C17.6789 3.53801 17.7461 3.45789 17.8281 3.40318C17.904 3.35263 18.05 3.28467 18.3333 3.28467C18.6167 3.28467 18.7627 3.35263 18.8385 3.40318C18.9206 3.45789 18.9878 3.53801 19.0431 3.64855C19.1003 3.763 19.1339 3.88956 19.1516 3.99594C19.1601 4.04676 19.164 4.08693 19.1656 4.11047L19.1667 4.128V5.868H17.5ZM11.8756 19.2355C11.8939 19.3455 11.9211 19.4757 11.9622 19.618H11.9398H11.9157H11.8916H11.8675H11.8432H11.819H11.7946H11.7703H11.7458H11.7214H11.6969H11.6723H11.6477H11.623H11.5983H11.5736H11.5488H11.5239H11.499H11.4741H11.4491H11.4241H11.3991H11.374H11.3488H11.3236H11.2984H11.2732H11.2479H11.2225H11.1971H11.1717H11.1463H11.1208H11.0952H11.0697H11.0441H11.0184H10.9928H10.9671H10.9413H10.9156H10.8898H10.8639H10.8381H10.8122H10.7863H10.7603H10.7343H10.7083H10.6823H10.6562H10.6301H10.604H10.5778H10.5516H10.5254H10.4992H10.473H10.4467H10.4204H10.3941H10.3677H10.3413H10.3149H10.2885H10.2621H10.2357H10.2092H10.1827H10.1562H10.1297H10.1031H10.0765H10.05H10.0234H9.99675H9.97013H9.94349H9.91683H9.89016H9.86348H9.83678H9.81007H9.78336H9.75662H9.72988H9.70313H9.67637H9.6496H9.62282H9.59603H9.56923H9.54243H9.51562H9.4888H9.46198H9.43515H9.40832H9.38148H9.35464H9.32779H9.30094H9.27409H9.24724H9.22039H9.19353H9.16668H9.13982H9.11297H9.08611H9.05926H9.03241H9.00556H8.97872H8.95187H8.92504H8.8982H8.87138H8.84455H8.81774H8.79093H8.76412H8.73733H8.71054H8.68376H8.65699H8.63022H8.60347H8.57673H8.55H8.52328H8.49657H8.46988H8.44319H8.41652H8.38987H8.36323H8.3366H8.30999H8.28339H8.25681H8.23025H8.2037H8.17718H8.15067H8.12418H8.0977H8.07125H8.04482H8.01841H7.99202H7.96565H7.9393H7.91298H7.88668H7.8604H7.83415H7.80792H7.78172H7.75554H7.72939H7.70326H7.67716H7.65109H7.62505H7.59904H7.57305H7.5471H7.52117H7.49528H7.46941H7.44358H7.41778H7.39201H7.36627H7.34057H7.31491H7.28927H7.26367H7.23811H7.21258H7.18709H7.16164H7.13622H7.11084H7.0855H7.0602H7.03494H7.00972H6.98453H6.95939H6.93429H6.90924H6.88422H6.85925H6.83432H6.80943H6.78459H6.75979H6.73504H6.71033H6.68567H6.66106H6.6365H6.61198H6.58751H6.56309H6.53871H6.51439H6.49012H6.4659H6.44173H6.41761H6.39354H6.36953H6.34557H6.32166H6.29781H6.27401H6.25026H6.22658H6.20294H6.17937H6.15585H6.13239H6.10899H6.08564H6.06236H6.03913H6.01596H5.99286H5.96981H5.94683H5.92391H5.90105H5.87826H5.85552H5.83286H5.81025H5.78771H5.76524H5.74283H5.72049H5.69822H5.67601H5.65387H5.6318H5.6098H5.58787H5.566H5.54421H5.52249H5.50084H5.47926H5.45775H5.43632H5.41496H5.39367H5.37246H5.35132H5.33026H5.30927H5.28836H5.26753H5.24677H5.2261H5.2055H5.18497H5.16453H5.14417H5.12389H5.10368H5.08356H5.06352H5.04357H5.02369H5.0039H4.98419H4.96457H4.94503H4.92557H4.90621H4.88692H4.86773H4.84862H4.8296H4.81066H4.79182H4.77306H4.75439H4.73582H4.71733H4.69894H4.68063H4.66242H4.6443H4.62628H4.60834H4.59051H4.57276H4.55511H4.53756H4.5201H4.50274H4.48547H4.4683H4.45123H4.43426H4.41739H4.40062H4.38394H4.36737H4.3509H4.33453H4.31826H4.30209H4.28603H4.27007H4.25421H4.23846H4.22281H4.20726H4.19183H4.1765H4.16127H4.14615H4.13115H4.11624H4.10145H4.08677H4.07219H4.05773H4.04338H4.02914H4.01501H4.00099H3.98708H3.97329H3.95961H3.94605H3.9326H3.91926H3.90604H3.89294H3.87995H3.86708H3.85433H3.8417H3.82918H3.81678H3.80451H3.79235H3.78031H3.7684H3.7566H3.74493H3.73338H3.72195H3.71065H3.69947H3.68841H3.67748H3.66668C3.38333 19.618 3.2373 19.55 3.16148 19.4995C3.0794 19.4448 3.01221 19.3647 2.95694 19.2541C2.89971 19.1397 2.86611 19.0131 2.84838 18.9067C2.83991 18.8559 2.83606 18.8157 2.83438 18.7922L2.83334 18.7747V17.0347H4.58334H11.8333V18.7847H12.8333C11.8333 18.7847 11.8333 18.7852 11.8333 18.7857L11.8333 18.7867L11.8334 18.7889L11.8334 18.7939L11.8335 18.8061C11.8337 18.8151 11.8339 18.8259 11.8343 18.8386C11.8352 18.8638 11.8367 18.8962 11.8395 18.9347C11.8449 19.0114 11.8554 19.1145 11.8756 19.2355Z" fill="#555555"/>
<path d="M8.25 7.78467H12.8333" stroke="#555555" stroke-width="2" stroke-linecap="round" stroke-linejoin="round"/>
<path d="M8.25 11.4512H12.8333" stroke="#555555" stroke-width="2" stroke-linecap="round" stroke-linejoin="round"/>
</svg>
