<svg width="31" height="31" viewBox="0 0 31 31" fill="none" xmlns="http://www.w3.org/2000/svg">
<path d="M15.1414 3.2657C14.8443 3.26889 14.5548 3.36025 14.3097 3.5282C14.0645 3.69615 13.8748 3.93312 13.7645 4.20906L7.76449 19.2091C7.75694 19.2278 7.74978 19.2467 7.743 19.2657H7.15706C7.02455 19.2638 6.89299 19.2883 6.77002 19.3377C6.64705 19.3871 6.53513 19.4605 6.44076 19.5535C6.34639 19.6466 6.27146 19.7575 6.22031 19.8797C6.16916 20.002 6.14282 20.1332 6.14282 20.2657C6.14282 20.3982 6.16916 20.5294 6.22031 20.6517C6.27146 20.7739 6.34639 20.8848 6.44076 20.9779C6.53513 21.0709 6.64705 21.1443 6.77002 21.1937C6.89299 21.2431 7.02455 21.2676 7.15706 21.2657H8.83285C9.03761 21.309 9.24918 21.309 9.45394 21.2657H11.1571C11.2896 21.2676 11.4211 21.2431 11.5441 21.1937C11.6671 21.1443 11.779 21.0709 11.8734 20.9779C11.9677 20.8848 12.0427 20.7739 12.0938 20.6517C12.145 20.5294 12.1713 20.3982 12.1713 20.2657C12.1713 20.1332 12.145 20.002 12.0938 19.8797C12.0427 19.7575 11.9677 19.6466 11.8734 19.5535C11.779 19.4605 11.6671 19.3871 11.5441 19.3377C11.4211 19.2883 11.2896 19.2638 11.1571 19.2657H10.9715L12.1727 16.2657H18.1414L19.3426 19.2657H19.1571C19.0246 19.2638 18.893 19.2883 18.77 19.3377C18.6471 19.3871 18.5351 19.4605 18.4408 19.5535C18.3464 19.6466 18.2715 19.7575 18.2203 19.8797C18.1692 20.002 18.1428 20.1332 18.1428 20.2657C18.1428 20.3982 18.1692 20.5294 18.2203 20.6517C18.2715 20.7739 18.3464 20.8848 18.4408 20.9779C18.5351 21.0709 18.6471 21.1443 18.77 21.1937C18.893 21.2431 19.0246 21.2676 19.1571 21.2657H20.8504C21.0577 21.3101 21.272 21.3101 21.4793 21.2657H23.1571C23.2896 21.2676 23.4211 21.2431 23.5441 21.1937C23.6671 21.1443 23.779 21.0709 23.8734 20.9779C23.9677 20.8848 24.0427 20.7739 24.0938 20.6517C24.145 20.5294 24.1713 20.3982 24.1713 20.2657C24.1713 20.1332 24.145 20.002 24.0938 19.8797C24.0427 19.7575 23.9677 19.6466 23.8734 19.5535C23.779 19.4605 23.6671 19.3871 23.5441 19.3377C23.4211 19.2883 23.2896 19.2638 23.1571 19.2657H22.5711C22.5643 19.2467 22.5572 19.2278 22.5496 19.2091L16.5496 4.20906C16.4374 3.92818 16.2428 3.68779 15.9915 3.51944C15.7402 3.35109 15.4439 3.26264 15.1414 3.2657ZM15.1571 8.80476L17.3407 14.2657H12.9735L15.1571 8.80476ZM6.15706 24.2657V27.2657H24.1571V24.2657H6.15706Z" fill="black"/>
</svg>
