<svg width="24" height="25" viewBox="0 0 24 25" fill="none" xmlns="http://www.w3.org/2000/svg">
<path d="M12.3983 3.46253C13.377 3.44739 14.3501 3.45636 15.3221 3.44739C15.381 4.59212 15.7926 5.75817 16.6306 6.5675C17.4668 7.39703 18.6497 7.77674 19.8006 7.90518V10.9165C18.7221 10.8811 17.6385 10.6568 16.6597 10.1924C16.2335 9.99946 15.8364 9.751 15.4477 9.49692C15.4427 11.6821 15.4567 13.8644 15.4337 16.0406C15.3754 17.086 15.0304 18.1265 14.4224 18.9879C13.4443 20.4221 11.7465 21.3571 10.0028 21.3862C8.93322 21.4474 7.86476 21.1557 6.95335 20.6184C5.44293 19.7277 4.38008 18.0973 4.22528 16.3474C4.20578 15.9768 4.20279 15.6055 4.21631 15.2346C4.35092 13.8117 5.05481 12.4505 6.14738 11.5245C7.38578 10.4459 9.12055 9.93216 10.7448 10.2361C10.76 11.3439 10.7157 12.4505 10.7157 13.5582C9.97363 13.3181 9.10653 13.3854 8.45816 13.8358C7.9838 14.1483 7.62533 14.6081 7.43794 15.1443C7.28314 15.5235 7.32745 15.9447 7.33642 16.3474C7.51422 17.5746 8.69429 18.606 9.954 18.4944C10.7891 18.4854 11.5895 18.0008 12.0247 17.2913C12.1655 17.0429 12.3231 16.7888 12.3315 16.4966C12.405 15.1589 12.3758 13.8268 12.3848 12.4892C12.391 9.47449 12.3758 6.46823 12.3988 3.46309L12.3983 3.46253Z" fill="#FCFCFC"/>
</svg>
