<svg width="31" height="31" viewBox="0 0 31 31" fill="none" xmlns="http://www.w3.org/2000/svg">
<g clip-path="url(#clip0_2464_7124)">
<path d="M22.157 7.2832C20.024 7.2832 8.66998 7.2832 8.15698 7.2832C3.73898 7.2832 0.156982 10.8652 0.156982 15.2832C0.156982 19.7012 3.73898 23.2832 8.15698 23.2832C8.66998 23.2832 20.024 23.2832 22.157 23.2832C26.575 23.2832 30.157 19.7012 30.157 15.2832C30.157 10.8652 26.575 7.2832 22.157 7.2832ZM22.157 21.2832C18.843 21.2832 16.157 18.5972 16.157 15.2832C16.157 11.9692 18.843 9.2832 22.157 9.2832C25.471 9.2832 28.157 11.9692 28.157 15.2832C28.157 18.5972 25.471 21.2832 22.157 21.2832Z" fill="black"/>
</g>
<defs>
<clipPath id="clip0_2464_7124">
<rect width="30" height="30" fill="white" transform="translate(0.156982 0.283203)"/>
</clipPath>
</defs>
</svg>
