<svg width="24" height="24" viewBox="0 0 24 24" fill="none" xmlns="http://www.w3.org/2000/svg">
<path d="M23.0185 5.32452C22.2294 5.67416 21.3818 5.9104 20.4907 6.01718C21.4102 5.46702 22.098 4.60112 22.426 3.58105C21.5622 4.09416 20.6167 4.45533 19.6308 4.64887C18.9678 3.94096 18.0896 3.47174 17.1326 3.31407C16.1756 3.1564 15.1933 3.3191 14.3382 3.7769C13.4832 4.2347 12.8032 4.962 12.4038 5.84587C12.0044 6.72973 11.908 7.72073 12.1296 8.66499C10.3792 8.5771 8.66689 8.12215 7.10372 7.32966C5.54054 6.53716 4.16147 5.42484 3.05601 4.06488C2.67802 4.71691 2.46068 5.47288 2.46068 6.278C2.46026 7.00278 2.63874 7.71647 2.9803 8.35573C3.32185 8.99499 3.81592 9.54007 4.41866 9.94259C3.71964 9.92035 3.03604 9.73147 2.42477 9.39167V9.44837C2.4247 10.4649 2.77633 11.4502 3.42 12.237C4.06366 13.0238 4.95972 13.5636 5.95612 13.765C5.30767 13.9405 4.62781 13.9663 3.9679 13.8406C4.24903 14.7153 4.79664 15.4801 5.53407 16.0281C6.27149 16.5761 7.16182 16.8798 8.08041 16.8966C6.52106 18.1207 4.59526 18.7848 2.61282 18.7818C2.26165 18.7819 1.91078 18.7614 1.56201 18.7204C3.5743 20.0142 5.91675 20.7009 8.3091 20.6982C16.4075 20.6982 20.8347 13.9908 20.8347 8.17361C20.8347 7.98461 20.8299 7.79373 20.8214 7.60473C21.6826 6.98197 22.4259 6.2108 23.0166 5.32736L23.0185 5.32452Z" fill="url(#paint0_linear_3442_1812)"/>
<defs>
<linearGradient id="paint0_linear_3442_1812" x1="1.56201" y1="3.25549" x2="25.3386" y2="16.5483" gradientUnits="userSpaceOnUse">
<stop stop-color="#0038F5"/>
<stop offset="1" stop-color="#9F03FF"/>
</linearGradient>
</defs>
</svg>
