<svg width="24" height="24" viewBox="0 0 24 24" fill="none" xmlns="http://www.w3.org/2000/svg">
<path d="M23.0185 5.3244C22.2294 5.67404 21.3818 5.91028 20.4907 6.01706C21.4102 5.46689 22.098 4.60099 22.426 3.58093C21.5622 4.09404 20.6167 4.45521 19.6308 4.64875C18.9678 3.94084 18.0896 3.47162 17.1326 3.31395C16.1756 3.15628 15.1933 3.31898 14.3382 3.77678C13.4832 4.23458 12.8032 4.96187 12.4038 5.84574C12.0044 6.72961 11.908 7.72061 12.1296 8.66487C10.3792 8.57698 8.66689 8.12203 7.10372 7.32954C5.54054 6.53704 4.16147 5.42472 3.05601 4.06476C2.67802 4.71678 2.46068 5.47276 2.46068 6.27787C2.46026 7.00266 2.63874 7.71635 2.9803 8.35561C3.32185 8.99487 3.81592 9.53995 4.41866 9.94247C3.71964 9.92022 3.03604 9.73135 2.42477 9.39155V9.44825C2.4247 10.4648 2.77633 11.4501 3.42 12.2368C4.06366 13.0236 4.95972 13.5635 5.95612 13.7649C5.30767 13.9404 4.62781 13.9662 3.9679 13.8405C4.24903 14.7151 4.79664 15.48 5.53407 16.028C6.27149 16.576 7.16182 16.8797 8.08041 16.8965C6.52106 18.1206 4.59526 18.7846 2.61282 18.7817C2.26165 18.7818 1.91078 18.7613 1.56201 18.7203C3.5743 20.0141 5.91675 20.7008 8.3091 20.6981C16.4075 20.6981 20.8347 13.9907 20.8347 8.17348C20.8347 7.98449 20.8299 7.79361 20.8214 7.60461C21.6826 6.98185 22.4259 6.21068 23.0166 5.32723L23.0185 5.3244Z" fill="url(#paint0_linear_3442_1095)"/>
<defs>
<linearGradient id="paint0_linear_3442_1095" x1="1.56201" y1="3.25537" x2="25.3386" y2="16.5482" gradientUnits="userSpaceOnUse">
<stop stop-color="#0038F5"/>
<stop offset="1" stop-color="#9F03FF"/>
</linearGradient>
</defs>
</svg>
