<svg width="391" height="562" viewBox="0 0 391 562" fill="none" xmlns="http://www.w3.org/2000/svg">
<g filter="url(#filter0_d_241_1383)">
<path fill-rule="evenodd" clip-rule="evenodd" d="M304.296 17.4363C303.496 16.4691 302.013 16.4691 301.213 17.4363L292.513 27.9563H61.92C48.9314 27.9563 42.4371 27.9563 37.4415 30.4036C32.6583 32.7468 28.7906 36.6146 26.4473 41.3977C24 46.3934 24 52.8877 24 65.8763V491.706C24 504.694 24 511.188 26.4473 516.184C28.7906 520.967 32.6583 524.835 37.4415 527.178C42.4371 529.625 48.9314 529.625 61.92 529.625H329.08C342.069 529.625 348.563 529.625 353.559 527.178C358.342 524.835 362.209 520.967 364.553 516.184C367 511.188 367 504.694 367 491.706V65.8763C367 52.8877 367 46.3934 364.553 41.3977C362.209 36.6146 358.342 32.7468 353.559 30.4036C348.563 27.9563 342.069 27.9563 329.08 27.9563H312.996L304.296 17.4363Z" fill="#FCFCFC"/>
</g>
<defs>
<filter id="filter0_d_241_1383" x="0" y="0.710938" width="391" height="560.915" filterUnits="userSpaceOnUse" color-interpolation-filters="sRGB">
<feFlood flood-opacity="0" result="BackgroundImageFix"/>
<feColorMatrix in="SourceAlpha" type="matrix" values="0 0 0 0 0 0 0 0 0 0 0 0 0 0 0 0 0 0 127 0" result="hardAlpha"/>
<feOffset dy="8"/>
<feGaussianBlur stdDeviation="12"/>
<feColorMatrix type="matrix" values="0 0 0 0 0.0666667 0 0 0 0 0.0666667 0 0 0 0 0.0666667 0 0 0 0.26 0"/>
<feBlend mode="normal" in2="BackgroundImageFix" result="effect1_dropShadow_241_1383"/>
<feBlend mode="normal" in="SourceGraphic" in2="effect1_dropShadow_241_1383" result="shape"/>
</filter>
</defs>
</svg>
