<svg width="13" height="9" viewBox="0 0 13 9" fill="none" xmlns="http://www.w3.org/2000/svg">
<path fill-rule="evenodd" clip-rule="evenodd" d="M4.97515 8.76307L3.99314 8.78311L0.0625 8.75673C0.0981553 7.75374 0.699156 5.88748 1.15443 5.01408C1.63029 4.10118 2.30688 3.1616 3.16307 2.35538C4.88517 0.733781 7.61907 -0.55114 10.798 0.640683C12.0638 1.11525 12.7052 2.52611 12.2306 3.79191C11.7561 5.05772 10.3452 5.69914 9.07942 5.22457C8.18729 4.8901 7.35925 5.12833 6.51912 5.91943C6.09419 6.31956 5.74093 6.66 5.49551 7.27694C5.37597 7.84786 5.40269 8.75639 5.40269 8.75639L4.97515 8.76307Z" fill="url(#paint0_linear_3442_872)"/>
<defs>
<linearGradient id="paint0_linear_3442_872" x1="2.38906" y1="8.80852" x2="13.2695" y2="1.51805" gradientUnits="userSpaceOnUse">
<stop stop-color="#9129EC"/>
<stop offset="1" stop-color="#9F03FF"/>
</linearGradient>
</defs>
</svg>
