<svg width="13" height="9" viewBox="0 0 13 9" fill="none" xmlns="http://www.w3.org/2000/svg">
<path fill-rule="evenodd" clip-rule="evenodd" d="M4.97478 8.76698L3.99277 8.78702L0.0621338 8.76064C0.0977891 7.75765 0.698789 5.89138 1.15407 5.01798C1.62993 4.10509 2.30652 3.1655 3.16271 2.35928C4.88481 0.737687 7.6187 -0.547234 10.7976 0.64459C12.0634 1.11916 12.7049 2.53001 12.2303 3.79582C11.7557 5.06162 10.3449 5.70305 9.07905 5.22848C8.18692 4.894 7.35888 5.13223 6.51875 5.92334C6.09383 6.32346 5.74056 6.66391 5.49514 7.28085C5.3756 7.85177 5.40232 8.7603 5.40232 8.7603L4.97478 8.76698Z" fill="url(#paint0_linear_3442_5402)"/>
<defs>
<linearGradient id="paint0_linear_3442_5402" x1="2.3887" y1="8.81243" x2="13.2691" y2="1.52196" gradientUnits="userSpaceOnUse">
<stop stop-color="#9129EC"/>
<stop offset="1" stop-color="#9F03FF"/>
</linearGradient>
</defs>
</svg>
