<svg width="13" height="10" viewBox="0 0 13 10" fill="none" xmlns="http://www.w3.org/2000/svg">
<path fill-rule="evenodd" clip-rule="evenodd" d="M4.97515 9.28294L3.99314 9.30298L0.0625 9.2766C0.0981553 8.27361 0.699156 6.40734 1.15443 5.53394C1.63029 4.62105 2.30688 3.68146 3.16307 2.87524C4.88517 1.25365 7.61907 -0.0312732 10.798 1.16055C12.0638 1.63512 12.7052 3.04597 12.2306 4.31178C11.7561 5.57759 10.3452 6.21901 9.07942 5.74444C8.18729 5.40997 7.35925 5.6482 6.51912 6.4393C6.09419 6.83942 5.74093 7.17987 5.49551 7.79681C5.37597 8.36773 5.40269 9.27626 5.40269 9.27626L4.97515 9.28294Z" fill="url(#paint0_linear_3442_6383)"/>
<defs>
<linearGradient id="paint0_linear_3442_6383" x1="2.38906" y1="9.32839" x2="13.2695" y2="2.03792" gradientUnits="userSpaceOnUse">
<stop stop-color="#9129EC"/>
<stop offset="1" stop-color="#9F03FF"/>
</linearGradient>
</defs>
</svg>
