<svg width="13" height="9" viewBox="0 0 13 9" fill="none" xmlns="http://www.w3.org/2000/svg">
<path fill-rule="evenodd" clip-rule="evenodd" d="M4.97466 8.76698L3.99265 8.78702L0.0620117 8.76064C0.097667 7.75765 0.698667 5.89138 1.15394 5.01798C1.6298 4.10509 2.30639 3.1655 3.16258 2.35928C4.88468 0.737687 7.61858 -0.547234 10.7975 0.64459C12.0633 1.11916 12.7047 2.53001 12.2302 3.79582C11.7556 5.06162 10.3447 5.70305 9.07893 5.22848C8.1868 4.894 7.35876 5.13223 6.51863 5.92334C6.0937 6.32346 5.74044 6.66391 5.49502 7.28085C5.37548 7.85177 5.4022 8.7603 5.4022 8.7603L4.97466 8.76698Z" fill="url(#paint0_linear_3442_3557)"/>
<defs>
<linearGradient id="paint0_linear_3442_3557" x1="2.38858" y1="8.81243" x2="13.269" y2="1.52196" gradientUnits="userSpaceOnUse">
<stop stop-color="#9129EC"/>
<stop offset="1" stop-color="#9F03FF"/>
</linearGradient>
</defs>
</svg>
