<svg width="13" height="10" viewBox="0 0 13 10" fill="none" xmlns="http://www.w3.org/2000/svg">
<path fill-rule="evenodd" clip-rule="evenodd" d="M4.97479 9.2826L3.99278 9.30264L0.062149 9.27627C0.0978043 8.27327 0.698805 6.40701 1.15408 5.53361C1.62994 4.62072 2.30653 3.68113 3.16272 2.87491C4.88482 1.25331 7.61872 -0.0316089 10.7976 1.16021C12.0634 1.63478 12.7049 3.04564 12.2303 4.31144C11.7557 5.57725 10.3449 6.21867 9.07907 5.7441C8.18694 5.40963 7.3589 5.64786 6.51877 6.43896C6.09384 6.83909 5.74057 7.17953 5.49516 7.79647C5.37562 8.36739 5.40234 9.27592 5.40234 9.27592L4.97479 9.2826Z" fill="url(#paint0_linear_3442_4626)"/>
<defs>
<linearGradient id="paint0_linear_3442_4626" x1="2.38871" y1="9.32805" x2="13.2691" y2="2.03759" gradientUnits="userSpaceOnUse">
<stop stop-color="#9129EC"/>
<stop offset="1" stop-color="#9F03FF"/>
</linearGradient>
</defs>
</svg>
