<svg width="13" height="10" viewBox="0 0 13 10" fill="none" xmlns="http://www.w3.org/2000/svg">
<path fill-rule="evenodd" clip-rule="evenodd" d="M4.97466 9.28294L3.99265 9.30298L0.0620117 9.2766C0.097667 8.27361 0.698667 6.40734 1.15394 5.53394C1.6298 4.62105 2.30639 3.68146 3.16258 2.87524C4.88468 1.25365 7.61858 -0.0312732 10.7975 1.16055C12.0633 1.63512 12.7047 3.04597 12.2302 4.31178C11.7556 5.57759 10.3447 6.21901 9.07893 5.74444C8.1868 5.40997 7.35876 5.6482 6.51863 6.4393C6.0937 6.83942 5.74044 7.17987 5.49502 7.79681C5.37548 8.36773 5.4022 9.27626 5.4022 9.27626L4.97466 9.28294Z" fill="url(#paint0_linear_3442_5952)"/>
<defs>
<linearGradient id="paint0_linear_3442_5952" x1="2.38858" y1="9.32839" x2="13.269" y2="2.03792" gradientUnits="userSpaceOnUse">
<stop stop-color="#9129EC"/>
<stop offset="1" stop-color="#9F03FF"/>
</linearGradient>
</defs>
</svg>
