<svg width="13" height="10" viewBox="0 0 13 10" fill="none" xmlns="http://www.w3.org/2000/svg">
<path fill-rule="evenodd" clip-rule="evenodd" d="M4.9749 9.28294L3.99289 9.30298L0.0622559 9.2766C0.0979112 8.27361 0.698912 6.40734 1.15419 5.53394C1.63005 4.62105 2.30664 3.68146 3.16283 2.87524C4.88493 1.25365 7.61883 -0.0312732 10.7977 1.16055C12.0635 1.63512 12.705 3.04597 12.2304 4.31178C11.7558 5.57759 10.345 6.21901 9.07917 5.74444C8.18704 5.40997 7.35901 5.6482 6.51887 6.4393C6.09395 6.83942 5.74068 7.17987 5.49527 7.79681C5.37572 8.36773 5.40244 9.27626 5.40244 9.27626L4.9749 9.28294Z" fill="url(#paint0_linear_3442_2346)"/>
<defs>
<linearGradient id="paint0_linear_3442_2346" x1="2.38882" y1="9.32839" x2="13.2692" y2="2.03792" gradientUnits="userSpaceOnUse">
<stop stop-color="#9129EC"/>
<stop offset="1" stop-color="#9F03FF"/>
</linearGradient>
</defs>
</svg>
