<svg width="14" height="10" viewBox="0 0 14 10" fill="none" xmlns="http://www.w3.org/2000/svg">
<path fill-rule="evenodd" clip-rule="evenodd" d="M5.64507 9.28285L4.66306 9.30289L0.732422 9.27651C0.768077 8.27352 1.36908 6.40725 1.82435 5.53385C2.30022 4.62096 2.9768 3.68137 3.83299 2.87515C5.55509 1.25356 8.28899 -0.0313647 11.4679 1.16046C12.7337 1.63503 13.3751 3.04588 12.9006 4.31169C12.426 5.57749 11.0151 6.21892 9.74934 5.74435C8.85721 5.40987 8.02917 5.6481 7.18904 6.4392C6.76411 6.83933 6.41085 7.17978 6.16543 7.79672C6.04589 8.36764 6.07261 9.27617 6.07261 9.27617L5.64507 9.28285Z" fill="url(#paint0_linear_3442_6400)"/>
<defs>
<linearGradient id="paint0_linear_3442_6400" x1="3.05899" y1="9.3283" x2="13.9394" y2="2.03783" gradientUnits="userSpaceOnUse">
<stop stop-color="#9129EC"/>
<stop offset="1" stop-color="#9F03FF"/>
</linearGradient>
</defs>
</svg>
