<svg width="13" height="10" viewBox="0 0 13 10" fill="none" xmlns="http://www.w3.org/2000/svg">
<path fill-rule="evenodd" clip-rule="evenodd" d="M4.9749 9.28285L3.99289 9.30289L0.0622559 9.27651C0.0979112 8.27352 0.698912 6.40725 1.15419 5.53385C1.63005 4.62096 2.30664 3.68137 3.16283 2.87515C4.88493 1.25356 7.61883 -0.0313647 10.7977 1.16046C12.0635 1.63503 12.705 3.04588 12.2304 4.31169C11.7558 5.57749 10.345 6.21892 9.07917 5.74435C8.18704 5.40987 7.35901 5.6481 6.51887 6.4392C6.09395 6.83933 5.74068 7.17978 5.49527 7.79672C5.37572 8.36764 5.40244 9.27617 5.40244 9.27617L4.9749 9.28285Z" fill="url(#paint0_linear_3442_339)"/>
<defs>
<linearGradient id="paint0_linear_3442_339" x1="2.38882" y1="9.3283" x2="13.2692" y2="2.03783" gradientUnits="userSpaceOnUse">
<stop stop-color="#9129EC"/>
<stop offset="1" stop-color="#9F03FF"/>
</linearGradient>
</defs>
</svg>
