<svg width="13" height="10" viewBox="0 0 13 10" fill="none" xmlns="http://www.w3.org/2000/svg">
<path fill-rule="evenodd" clip-rule="evenodd" d="M4.97479 9.28292L3.99278 9.30296L0.062149 9.27659C0.0978043 8.27359 0.698805 6.40733 1.15408 5.53393C1.62994 4.62104 2.30653 3.68145 3.16272 2.87523C4.88482 1.25363 7.61872 -0.0312884 10.7976 1.16054C12.0634 1.6351 12.7049 3.04596 12.2303 4.31176C11.7557 5.57757 10.3449 6.21899 9.07907 5.74442C8.18694 5.40995 7.3589 5.64818 6.51877 6.43928C6.09384 6.83941 5.74057 7.17985 5.49516 7.79679C5.37562 8.36771 5.40234 9.27624 5.40234 9.27624L4.97479 9.28292Z" fill="url(#paint0_linear_3442_6149)"/>
<defs>
<linearGradient id="paint0_linear_3442_6149" x1="2.38871" y1="9.32837" x2="13.2691" y2="2.03791" gradientUnits="userSpaceOnUse">
<stop stop-color="#9129EC"/>
<stop offset="1" stop-color="#9F03FF"/>
</linearGradient>
</defs>
</svg>
