<svg width="13" height="10" viewBox="0 0 13 10" fill="none" xmlns="http://www.w3.org/2000/svg">
<path fill-rule="evenodd" clip-rule="evenodd" d="M4.97478 9.28292L3.99277 9.30296L0.0621338 9.27659C0.0977891 8.27359 0.698789 6.40733 1.15407 5.53393C1.62993 4.62104 2.30652 3.68145 3.16271 2.87523C4.88481 1.25363 7.6187 -0.0312884 10.7976 1.16054C12.0634 1.6351 12.7049 3.04596 12.2303 4.31176C11.7557 5.57757 10.3449 6.21899 9.07905 5.74442C8.18692 5.40995 7.35888 5.64818 6.51875 6.43928C6.09383 6.83941 5.74056 7.17985 5.49514 7.79679C5.3756 8.36771 5.40232 9.27624 5.40232 9.27624L4.97478 9.28292Z" fill="url(#paint0_linear_3442_6089)"/>
<defs>
<linearGradient id="paint0_linear_3442_6089" x1="2.3887" y1="9.32837" x2="13.2691" y2="2.03791" gradientUnits="userSpaceOnUse">
<stop stop-color="#9129EC"/>
<stop offset="1" stop-color="#9F03FF"/>
</linearGradient>
</defs>
</svg>
