<svg width="13" height="10" viewBox="0 0 13 10" fill="none" xmlns="http://www.w3.org/2000/svg">
<path fill-rule="evenodd" clip-rule="evenodd" d="M4.9749 9.2826L3.99289 9.30264L0.0622559 9.27627C0.0979112 8.27327 0.698912 6.40701 1.15419 5.53361C1.63005 4.62072 2.30664 3.68113 3.16283 2.87491C4.88493 1.25331 7.61883 -0.0316089 10.7977 1.16021C12.0635 1.63478 12.705 3.04564 12.2304 4.31144C11.7558 5.57725 10.345 6.21867 9.07917 5.7441C8.18704 5.40963 7.35901 5.64786 6.51887 6.43896C6.09395 6.83909 5.74068 7.17953 5.49527 7.79647C5.37572 8.36739 5.40244 9.27592 5.40244 9.27592L4.9749 9.2826Z" fill="url(#paint0_linear_3442_2172)"/>
<defs>
<linearGradient id="paint0_linear_3442_2172" x1="2.38882" y1="9.32805" x2="13.2692" y2="2.03759" gradientUnits="userSpaceOnUse">
<stop stop-color="#9129EC"/>
<stop offset="1" stop-color="#9F03FF"/>
</linearGradient>
</defs>
</svg>
