<svg width="14" height="10" viewBox="0 0 14 10" fill="none" xmlns="http://www.w3.org/2000/svg">
<path fill-rule="evenodd" clip-rule="evenodd" d="M5.64507 9.28294L4.66306 9.30298L0.732422 9.2766C0.768077 8.27361 1.36908 6.40734 1.82435 5.53394C2.30022 4.62105 2.9768 3.68146 3.83299 2.87524C5.55509 1.25365 8.28899 -0.0312732 11.4679 1.16055C12.7337 1.63512 13.3751 3.04597 12.9006 4.31178C12.426 5.57759 11.0151 6.21901 9.74934 5.74444C8.85721 5.40997 8.02917 5.6482 7.18904 6.4393C6.76411 6.83942 6.41085 7.17987 6.16543 7.79681C6.04589 8.36773 6.07261 9.27626 6.07261 9.27626L5.64507 9.28294Z" fill="url(#paint0_linear_3442_1795)"/>
<defs>
<linearGradient id="paint0_linear_3442_1795" x1="3.05899" y1="9.32839" x2="13.9394" y2="2.03792" gradientUnits="userSpaceOnUse">
<stop stop-color="#9129EC"/>
<stop offset="1" stop-color="#9F03FF"/>
</linearGradient>
</defs>
</svg>
