<svg width="13" height="9" viewBox="0 0 13 9" fill="none" xmlns="http://www.w3.org/2000/svg">
<path fill-rule="evenodd" clip-rule="evenodd" d="M4.9749 8.76698L3.99289 8.78702L0.0622559 8.76064C0.0979112 7.75765 0.698912 5.89138 1.15419 5.01798C1.63005 4.10509 2.30664 3.1655 3.16283 2.35928C4.88493 0.737687 7.61883 -0.547234 10.7977 0.64459C12.0635 1.11916 12.705 2.53001 12.2304 3.79582C11.7558 5.06162 10.345 5.70305 9.07917 5.22848C8.18704 4.894 7.35901 5.13223 6.51887 5.92334C6.09395 6.32346 5.74068 6.66391 5.49527 7.28085C5.37572 7.85177 5.40244 8.7603 5.40244 8.7603L4.9749 8.76698Z" fill="url(#paint0_linear_3442_2933)"/>
<defs>
<linearGradient id="paint0_linear_3442_2933" x1="2.38882" y1="8.81243" x2="13.2692" y2="1.52196" gradientUnits="userSpaceOnUse">
<stop stop-color="#9129EC"/>
<stop offset="1" stop-color="#9F03FF"/>
</linearGradient>
</defs>
</svg>
