<svg width="13" height="10" viewBox="0 0 13 10" fill="none" xmlns="http://www.w3.org/2000/svg">
<path fill-rule="evenodd" clip-rule="evenodd" d="M4.97515 9.2826L3.99314 9.30264L0.0625 9.27627C0.0981553 8.27327 0.699156 6.40701 1.15443 5.53361C1.63029 4.62072 2.30688 3.68113 3.16307 2.87491C4.88517 1.25331 7.61907 -0.0316089 10.798 1.16021C12.0638 1.63478 12.7052 3.04564 12.2306 4.31144C11.7561 5.57725 10.3452 6.21867 9.07942 5.7441C8.18729 5.40963 7.35925 5.64786 6.51912 6.43896C6.09419 6.83909 5.74093 7.17953 5.49551 7.79647C5.37597 8.36739 5.40269 9.27592 5.40269 9.27592L4.97515 9.2826Z" fill="url(#paint0_linear_3442_5002)"/>
<defs>
<linearGradient id="paint0_linear_3442_5002" x1="2.38906" y1="9.32805" x2="13.2695" y2="2.03759" gradientUnits="userSpaceOnUse">
<stop stop-color="#9129EC"/>
<stop offset="1" stop-color="#9F03FF"/>
</linearGradient>
</defs>
</svg>
