<svg width="13" height="9" viewBox="0 0 13 9" fill="none" xmlns="http://www.w3.org/2000/svg">
<path fill-rule="evenodd" clip-rule="evenodd" d="M4.97515 8.76698L3.99314 8.78702L0.0625 8.76064C0.0981553 7.75765 0.699156 5.89138 1.15443 5.01798C1.63029 4.10509 2.30688 3.1655 3.16307 2.35928C4.88517 0.737687 7.61907 -0.547234 10.798 0.64459C12.0638 1.11916 12.7052 2.53001 12.2306 3.79582C11.7561 5.06162 10.3452 5.70305 9.07942 5.22848C8.18729 4.894 7.35925 5.13223 6.51912 5.92334C6.09419 6.32346 5.74093 6.66391 5.49551 7.28085C5.37597 7.85177 5.40269 8.7603 5.40269 8.7603L4.97515 8.76698Z" fill="url(#paint0_linear_3442_3712)"/>
<defs>
<linearGradient id="paint0_linear_3442_3712" x1="2.38906" y1="8.81243" x2="13.2695" y2="1.52196" gradientUnits="userSpaceOnUse">
<stop stop-color="#9129EC"/>
<stop offset="1" stop-color="#9F03FF"/>
</linearGradient>
</defs>
</svg>
