<svg width="16" height="11" viewBox="0 0 16 11" fill="none" xmlns="http://www.w3.org/2000/svg">
<path fill-rule="evenodd" clip-rule="evenodd" d="M8.30653 2.27733C10.5224 2.27742 12.6536 3.12886 14.2595 4.65566C14.3805 4.77354 14.5738 4.77205 14.6929 4.65233L15.8489 3.48566C15.9092 3.42494 15.9428 3.34269 15.9423 3.25711C15.9418 3.17153 15.9072 3.08967 15.8462 3.02966C11.6311 -1.00989 4.98129 -1.00989 0.766194 3.02966C0.705136 3.08963 0.670492 3.17146 0.669929 3.25704C0.669366 3.34262 0.70293 3.42489 0.763194 3.48566L1.91953 4.65233C2.03856 4.77223 2.232 4.77372 2.35286 4.65566C3.95901 3.12876 6.09042 2.27732 8.30653 2.27733ZM8.30645 6.0729C9.52394 6.07282 10.698 6.52536 11.6005 7.34257C11.7225 7.45855 11.9148 7.45603 12.0338 7.3369L13.1885 6.17023C13.2493 6.10904 13.283 6.02602 13.2821 5.93976C13.2812 5.85349 13.2458 5.77118 13.1838 5.71123C10.4356 3.15485 6.17965 3.15485 3.43145 5.71123C3.36938 5.77118 3.33396 5.85353 3.33314 5.93982C3.33233 6.02612 3.36619 6.10913 3.42712 6.17023L4.58145 7.3369C4.70044 7.45603 4.89272 7.45855 5.01479 7.34257C5.91666 6.5259 7.08977 6.0734 8.30645 6.0729ZM10.6195 8.62671C10.6213 8.71322 10.5873 8.79662 10.5255 8.85723L8.52819 10.8729C8.46964 10.9321 8.38981 10.9655 8.30652 10.9655C8.22323 10.9655 8.1434 10.9321 8.08485 10.8729L6.08719 8.85723C6.02548 8.79658 5.99153 8.71315 5.99336 8.62664C5.99519 8.54013 6.03263 8.45821 6.09685 8.40023C7.37242 7.32134 9.24061 7.32134 10.5162 8.40023C10.5804 8.45826 10.6177 8.54021 10.6195 8.62671Z" fill="#222222"/>
</svg>
