<svg width="24" height="25" viewBox="0 0 24 25" fill="none" xmlns="http://www.w3.org/2000/svg">
<path d="M21.7624 7.51445C21.647 7.10294 21.4223 6.73037 21.1121 6.43636C20.7932 6.13331 20.4023 5.91654 19.9763 5.80649C18.3821 5.38629 11.9951 5.38629 11.9951 5.38629C9.3324 5.356 6.67037 5.48924 4.02402 5.78527C3.59804 5.90344 3.20787 6.12507 2.8882 6.43042C2.57412 6.73263 2.34661 7.10529 2.22777 7.5136C1.94228 9.05157 1.80357 10.6132 1.81351 12.1774C1.80333 13.7402 1.94169 15.3013 2.22777 16.8412C2.34407 17.2478 2.57072 17.6188 2.88566 17.9184C3.2006 18.2181 3.59278 18.4346 4.02402 18.5492C5.63945 18.9685 11.9951 18.9685 11.9951 18.9685C14.6612 18.9988 17.3266 18.8656 19.9763 18.5695C20.4023 18.4595 20.7932 18.2427 21.1121 17.9397C21.4262 17.64 21.6495 17.2673 21.7615 16.8616C22.0545 15.3242 22.1969 13.7619 22.1868 12.1969C22.2089 10.6253 22.0666 9.05566 21.7624 7.5136V7.51445ZM9.96454 15.084V9.27165L15.2786 12.1782L9.96454 15.084Z" fill="#FCFCFC"/>
</svg>
